%FSTAX23Y23*%
%MOIN*%
%SFA1B1*%

%IPPOS*%
%ADD29C,0.002000*%
%ADD30C,0.002665*%
%LNsensorpcb-1*%
%LPD*%
G54D29*
X00372Y00287D02*
Y00303D01*
X00388*
Y00287*
X00372*
X00322D02*
Y00303D01*
X00338*
Y00287*
X00322*
X00272D02*
Y00303D01*
X00288*
Y00287*
X00272*
X00222D02*
Y00303D01*
X00238*
Y00287*
X00222*
X00172D02*
Y00303D01*
X00188*
Y00287*
X00172*
X00122D02*
Y00303D01*
X00138*
Y00287*
X00122*
X00072D02*
Y00303D01*
X00088*
Y00287*
X00072*
X00022D02*
Y00303D01*
X00038*
Y00287*
X00022*
X00282Y00192D02*
Y00208D01*
X00298*
Y00192*
X00282*
X00332D02*
Y00208D01*
X00348*
Y00192*
X00332*
G54D30*
X00377Y00155D02*
D01*
X00377Y00156*
X00377Y00156*
X00377Y00157*
X00377Y00157*
X00376Y00158*
X00376Y00158*
X00376Y00159*
X00376Y00159*
X00375Y0016*
X00375Y0016*
X00375Y00161*
X00374Y00161*
X00374Y00161*
X00373Y00162*
X00373Y00162*
X00372Y00162*
X00372Y00162*
X00371Y00163*
X00371Y00163*
X0037Y00163*
X0037Y00163*
X00369Y00163*
X00369*
X00368Y00163*
X00367Y00163*
X00367Y00163*
X00366Y00163*
X00366Y00162*
X00365Y00162*
X00365Y00162*
X00364Y00162*
X00364Y00161*
X00363Y00161*
X00363Y00161*
X00363Y0016*
X00362Y0016*
X00362Y00159*
X00362Y00159*
X00362Y00158*
X00361Y00158*
X00361Y00157*
X00361Y00157*
X00361Y00156*
X00361Y00156*
X00361Y00155*
X00361Y00154*
X00361Y00154*
X00361Y00153*
X00361Y00153*
X00361Y00152*
X00362Y00152*
X00362Y00151*
X00362Y00151*
X00362Y0015*
X00363Y0015*
X00363Y00149*
X00363Y00149*
X00364Y00149*
X00364Y00148*
X00365Y00148*
X00365Y00148*
X00366Y00148*
X00366Y00147*
X00367Y00147*
X00367Y00147*
X00368Y00147*
X00369Y00147*
X00369*
X0037Y00147*
X0037Y00147*
X00371Y00147*
X00371Y00147*
X00372Y00148*
X00372Y00148*
X00373Y00148*
X00373Y00148*
X00374Y00149*
X00374Y00149*
X00375Y00149*
X00375Y0015*
X00375Y0015*
X00376Y00151*
X00376Y00151*
X00376Y00152*
X00376Y00152*
X00377Y00153*
X00377Y00153*
X00377Y00154*
X00377Y00154*
X00377Y00155*
X00248Y00217D02*
D01*
X00247Y00218*
X00247Y00218*
X00247Y00219*
X00247Y00219*
X00247Y0022*
X00247Y0022*
X00247Y00221*
X00246Y00221*
X00246Y00222*
X00246Y00222*
X00245Y00223*
X00245Y00223*
X00244Y00223*
X00244Y00224*
X00244Y00224*
X00243Y00224*
X00242Y00224*
X00242Y00225*
X00241Y00225*
X00241Y00225*
X0024Y00225*
X0024Y00225*
X00239*
X00239Y00225*
X00238Y00225*
X00238Y00225*
X00237Y00225*
X00237Y00224*
X00236Y00224*
X00236Y00224*
X00235Y00224*
X00235Y00223*
X00234Y00223*
X00234Y00223*
X00233Y00222*
X00233Y00222*
X00233Y00221*
X00232Y00221*
X00232Y0022*
X00232Y0022*
X00232Y00219*
X00232Y00219*
X00232Y00218*
X00232Y00218*
X00232Y00217*
X00232Y00216*
X00232Y00216*
X00232Y00215*
X00232Y00215*
X00232Y00214*
X00232Y00214*
X00232Y00213*
X00233Y00213*
X00233Y00212*
X00233Y00212*
X00234Y00211*
X00234Y00211*
X00235Y00211*
X00235Y0021*
X00236Y0021*
X00236Y0021*
X00237Y0021*
X00237Y00209*
X00238Y00209*
X00238Y00209*
X00239Y00209*
X00239Y00209*
X0024*
X0024Y00209*
X00241Y00209*
X00241Y00209*
X00242Y00209*
X00242Y0021*
X00243Y0021*
X00244Y0021*
X00244Y0021*
X00244Y00211*
X00245Y00211*
X00245Y00211*
X00246Y00212*
X00246Y00212*
X00246Y00213*
X00247Y00213*
X00247Y00214*
X00247Y00214*
X00247Y00215*
X00247Y00215*
X00247Y00216*
X00247Y00216*
X00248Y00217*
X0006Y002D02*
D01*
X0006Y002*
X0006Y00201*
X0006Y00201*
X0006Y00202*
X0006Y00202*
X0006Y00203*
X00059Y00203*
X00059Y00204*
X00059Y00204*
X00058Y00205*
X00058Y00205*
X00058Y00205*
X00057Y00206*
X00057Y00206*
X00056Y00206*
X00056Y00207*
X00055Y00207*
X00055Y00207*
X00054Y00207*
X00054Y00207*
X00053Y00207*
X00052Y00207*
X00052*
X00051Y00207*
X00051Y00207*
X0005Y00207*
X0005Y00207*
X00049Y00207*
X00049Y00207*
X00048Y00206*
X00048Y00206*
X00047Y00206*
X00047Y00205*
X00046Y00205*
X00046Y00205*
X00046Y00204*
X00045Y00204*
X00045Y00203*
X00045Y00203*
X00045Y00202*
X00045Y00202*
X00044Y00201*
X00044Y00201*
X00044Y002*
X00044Y002*
X00044Y00199*
X00044Y00198*
X00044Y00198*
X00045Y00197*
X00045Y00197*
X00045Y00196*
X00045Y00196*
X00045Y00195*
X00046Y00195*
X00046Y00194*
X00046Y00194*
X00047Y00194*
X00047Y00193*
X00048Y00193*
X00048Y00193*
X00049Y00192*
X00049Y00192*
X0005Y00192*
X0005Y00192*
X00051Y00192*
X00051Y00192*
X00052Y00192*
X00052*
X00053Y00192*
X00054Y00192*
X00054Y00192*
X00055Y00192*
X00055Y00192*
X00056Y00192*
X00056Y00193*
X00057Y00193*
X00057Y00193*
X00058Y00194*
X00058Y00194*
X00058Y00194*
X00059Y00195*
X00059Y00195*
X00059Y00196*
X0006Y00196*
X0006Y00197*
X0006Y00197*
X0006Y00198*
X0006Y00198*
X0006Y00199*
X0006Y002*
X00258Y0008D02*
D01*
X00257Y0008*
X00257Y00081*
X00257Y00081*
X00257Y00082*
X00257Y00082*
X00257Y00083*
X00257Y00083*
X00256Y00084*
X00256Y00084*
X00256Y00085*
X00255Y00085*
X00255Y00085*
X00254Y00086*
X00254Y00086*
X00254Y00086*
X00253Y00087*
X00252Y00087*
X00252Y00087*
X00251Y00087*
X00251Y00087*
X0025Y00087*
X0025Y00087*
X00249*
X00249Y00087*
X00248Y00087*
X00248Y00087*
X00247Y00087*
X00247Y00087*
X00246Y00087*
X00246Y00086*
X00245Y00086*
X00245Y00086*
X00244Y00085*
X00244Y00085*
X00243Y00085*
X00243Y00084*
X00243Y00084*
X00242Y00083*
X00242Y00083*
X00242Y00082*
X00242Y00082*
X00242Y00081*
X00242Y00081*
X00242Y0008*
X00242Y0008*
X00242Y00079*
X00242Y00078*
X00242Y00078*
X00242Y00077*
X00242Y00077*
X00242Y00076*
X00242Y00076*
X00243Y00075*
X00243Y00075*
X00243Y00074*
X00244Y00074*
X00244Y00074*
X00245Y00073*
X00245Y00073*
X00246Y00073*
X00246Y00072*
X00247Y00072*
X00247Y00072*
X00248Y00072*
X00248Y00072*
X00249Y00072*
X00249Y00072*
X0025*
X0025Y00072*
X00251Y00072*
X00251Y00072*
X00252Y00072*
X00252Y00072*
X00253Y00072*
X00254Y00073*
X00254Y00073*
X00254Y00073*
X00255Y00074*
X00255Y00074*
X00256Y00074*
X00256Y00075*
X00256Y00075*
X00257Y00076*
X00257Y00076*
X00257Y00077*
X00257Y00077*
X00257Y00078*
X00257Y00078*
X00257Y00079*
X00258Y0008*
X00128D02*
D01*
X00127Y0008*
X00127Y00081*
X00127Y00081*
X00127Y00082*
X00127Y00082*
X00127Y00083*
X00127Y00083*
X00126Y00084*
X00126Y00084*
X00126Y00085*
X00125Y00085*
X00125Y00085*
X00124Y00086*
X00124Y00086*
X00124Y00086*
X00123Y00087*
X00122Y00087*
X00122Y00087*
X00121Y00087*
X00121Y00087*
X0012Y00087*
X0012Y00087*
X00119*
X00119Y00087*
X00118Y00087*
X00118Y00087*
X00117Y00087*
X00117Y00087*
X00116Y00087*
X00115Y00086*
X00115Y00086*
X00115Y00086*
X00114Y00085*
X00114Y00085*
X00113Y00085*
X00113Y00084*
X00113Y00084*
X00112Y00083*
X00112Y00083*
X00112Y00082*
X00112Y00082*
X00112Y00081*
X00112Y00081*
X00112Y0008*
X00112Y0008*
X00112Y00079*
X00112Y00078*
X00112Y00078*
X00112Y00077*
X00112Y00077*
X00112Y00076*
X00112Y00076*
X00113Y00075*
X00113Y00075*
X00113Y00074*
X00114Y00074*
X00114Y00074*
X00115Y00073*
X00115Y00073*
X00116Y00073*
X00116Y00072*
X00117Y00072*
X00117Y00072*
X00118Y00072*
X00118Y00072*
X00119Y00072*
X00119Y00072*
X0012*
X0012Y00072*
X00121Y00072*
X00121Y00072*
X00122Y00072*
X00122Y00072*
X00123Y00072*
X00124Y00073*
X00124Y00073*
X00124Y00073*
X00125Y00074*
X00125Y00074*
X00126Y00074*
X00126Y00075*
X00126Y00075*
X00127Y00076*
X00127Y00076*
X00127Y00077*
X00127Y00077*
X00127Y00078*
X00127Y00078*
X00127Y00079*
X00128Y0008*
X00408Y0006D02*
D01*
X00407Y0006*
X00407Y00061*
X00407Y00061*
X00407Y00062*
X00407Y00062*
X00407Y00063*
X00407Y00063*
X00406Y00064*
X00406Y00064*
X00406Y00065*
X00405Y00065*
X00405Y00065*
X00404Y00066*
X00404Y00066*
X00404Y00066*
X00403Y00067*
X00402Y00067*
X00402Y00067*
X00401Y00067*
X00401Y00067*
X004Y00067*
X004Y00067*
X00399*
X00399Y00067*
X00398Y00067*
X00398Y00067*
X00397Y00067*
X00397Y00067*
X00396Y00067*
X00396Y00066*
X00395Y00066*
X00395Y00066*
X00394Y00065*
X00394Y00065*
X00393Y00065*
X00393Y00064*
X00393Y00064*
X00392Y00063*
X00392Y00063*
X00392Y00062*
X00392Y00062*
X00392Y00061*
X00392Y00061*
X00392Y0006*
X00392Y0006*
X00392Y00059*
X00392Y00058*
X00392Y00058*
X00392Y00057*
X00392Y00057*
X00392Y00056*
X00392Y00056*
X00393Y00055*
X00393Y00055*
X00393Y00054*
X00394Y00054*
X00394Y00054*
X00395Y00053*
X00395Y00053*
X00396Y00053*
X00396Y00052*
X00397Y00052*
X00397Y00052*
X00398Y00052*
X00398Y00052*
X00399Y00052*
X00399Y00052*
X004*
X004Y00052*
X00401Y00052*
X00401Y00052*
X00402Y00052*
X00402Y00052*
X00403Y00052*
X00404Y00053*
X00404Y00053*
X00404Y00053*
X00405Y00054*
X00405Y00054*
X00406Y00054*
X00406Y00055*
X00406Y00055*
X00407Y00056*
X00407Y00056*
X00407Y00057*
X00407Y00057*
X00407Y00058*
X00407Y00058*
X00407Y00059*
X00408Y0006*
X00193Y00012D02*
D01*
X00192Y00013*
X00192Y00013*
X00192Y00014*
X00192Y00014*
X00192Y00015*
X00192Y00015*
X00192Y00016*
X00191Y00016*
X00191Y00017*
X00191Y00017*
X0019Y00018*
X0019Y00018*
X00189Y00019*
X00189Y00019*
X00189Y00019*
X00188Y00019*
X00187Y0002*
X00187Y0002*
X00186Y0002*
X00186Y0002*
X00185Y0002*
X00185Y0002*
X00184*
X00184Y0002*
X00183Y0002*
X00183Y0002*
X00182Y0002*
X00182Y0002*
X00181Y00019*
X00181Y00019*
X0018Y00019*
X0018Y00019*
X00179Y00018*
X00179Y00018*
X00178Y00017*
X00178Y00017*
X00178Y00016*
X00177Y00016*
X00177Y00015*
X00177Y00015*
X00177Y00014*
X00177Y00014*
X00177Y00013*
X00177Y00013*
X00177Y00012*
X00177Y00012*
X00177Y00011*
X00177Y00011*
X00177Y0001*
X00177Y00009*
X00177Y00009*
X00177Y00008*
X00178Y00008*
X00178Y00008*
X00178Y00007*
X00179Y00007*
X00179Y00006*
X0018Y00006*
X0018Y00006*
X00181Y00005*
X00181Y00005*
X00182Y00005*
X00182Y00005*
X00183Y00004*
X00183Y00004*
X00184Y00004*
X00184Y00004*
X00185*
X00185Y00004*
X00186Y00004*
X00186Y00004*
X00187Y00005*
X00187Y00005*
X00188Y00005*
X00189Y00005*
X00189Y00006*
X00189Y00006*
X0019Y00006*
X0019Y00007*
X00191Y00007*
X00191Y00008*
X00191Y00008*
X00192Y00008*
X00192Y00009*
X00192Y00009*
X00192Y0001*
X00192Y00011*
X00192Y00011*
X00192Y00012*
X00193Y00012*
X00252Y00026D02*
D01*
X00252Y00026*
X00252Y00027*
X00252Y00027*
X00252Y00028*
X00252Y00028*
X00251Y00029*
X00251Y00029*
X00251Y0003*
X0025Y0003*
X0025Y00031*
X0025Y00031*
X00249Y00032*
X00249Y00032*
X00249Y00032*
X00248Y00033*
X00248Y00033*
X00247Y00033*
X00246Y00033*
X00246Y00033*
X00245Y00034*
X00245Y00034*
X00244Y00034*
X00244*
X00243Y00034*
X00243Y00034*
X00242Y00033*
X00242Y00033*
X00241Y00033*
X00241Y00033*
X0024Y00033*
X0024Y00032*
X00239Y00032*
X00239Y00032*
X00238Y00031*
X00238Y00031*
X00238Y0003*
X00237Y0003*
X00237Y00029*
X00237Y00029*
X00237Y00028*
X00236Y00028*
X00236Y00027*
X00236Y00027*
X00236Y00026*
X00236Y00026*
X00236Y00025*
X00236Y00025*
X00236Y00024*
X00236Y00023*
X00237Y00023*
X00237Y00022*
X00237Y00022*
X00237Y00021*
X00238Y00021*
X00238Y0002*
X00238Y0002*
X00239Y0002*
X00239Y00019*
X0024Y00019*
X0024Y00019*
X00241Y00018*
X00241Y00018*
X00242Y00018*
X00242Y00018*
X00243Y00018*
X00243Y00018*
X00244Y00018*
X00244*
X00245Y00018*
X00245Y00018*
X00246Y00018*
X00246Y00018*
X00247Y00018*
X00248Y00018*
X00248Y00019*
X00249Y00019*
X00249Y00019*
X00249Y0002*
X0025Y0002*
X0025Y0002*
X0025Y00021*
X00251Y00021*
X00251Y00022*
X00251Y00022*
X00252Y00023*
X00252Y00023*
X00252Y00024*
X00252Y00025*
X00252Y00025*
X00252Y00026*
X00097Y00159D02*
D01*
X00097Y0016*
X00097Y00161*
X00097Y00161*
X00097Y00162*
X00096Y00162*
X00096Y00163*
X00096Y00163*
X00096Y00164*
X00095Y00164*
X00095Y00165*
X00095Y00165*
X00094Y00165*
X00094Y00166*
X00093Y00166*
X00093Y00166*
X00092Y00167*
X00092Y00167*
X00091Y00167*
X00091Y00167*
X0009Y00167*
X0009Y00167*
X00089Y00167*
X00089*
X00088Y00167*
X00087Y00167*
X00087Y00167*
X00086Y00167*
X00086Y00167*
X00085Y00167*
X00085Y00166*
X00084Y00166*
X00084Y00166*
X00083Y00165*
X00083Y00165*
X00083Y00165*
X00082Y00164*
X00082Y00164*
X00082Y00163*
X00082Y00163*
X00081Y00162*
X00081Y00162*
X00081Y00161*
X00081Y00161*
X00081Y0016*
X00081Y00159*
X00081Y00159*
X00081Y00158*
X00081Y00158*
X00081Y00157*
X00081Y00157*
X00082Y00156*
X00082Y00156*
X00082Y00155*
X00082Y00155*
X00083Y00154*
X00083Y00154*
X00083Y00153*
X00084Y00153*
X00084Y00153*
X00085Y00152*
X00085Y00152*
X00086Y00152*
X00086Y00152*
X00087Y00152*
X00087Y00152*
X00088Y00151*
X00089Y00151*
X00089*
X0009Y00151*
X0009Y00152*
X00091Y00152*
X00091Y00152*
X00092Y00152*
X00092Y00152*
X00093Y00152*
X00093Y00153*
X00094Y00153*
X00094Y00153*
X00095Y00154*
X00095Y00154*
X00095Y00155*
X00096Y00155*
X00096Y00156*
X00096Y00156*
X00096Y00157*
X00097Y00157*
X00097Y00158*
X00097Y00158*
X00097Y00159*
X00097Y00159*
X00368Y00014D02*
D01*
X00368Y00015*
X00368Y00015*
X00367Y00016*
X00367Y00016*
X00367Y00017*
X00367Y00018*
X00367Y00018*
X00366Y00019*
X00366Y00019*
X00366Y00019*
X00365Y0002*
X00365Y0002*
X00365Y00021*
X00364Y00021*
X00364Y00021*
X00363Y00021*
X00363Y00022*
X00362Y00022*
X00362Y00022*
X00361Y00022*
X00361Y00022*
X0036Y00022*
X00359*
X00359Y00022*
X00358Y00022*
X00358Y00022*
X00357Y00022*
X00357Y00022*
X00356Y00021*
X00356Y00021*
X00355Y00021*
X00355Y00021*
X00354Y0002*
X00354Y0002*
X00354Y00019*
X00353Y00019*
X00353Y00019*
X00353Y00018*
X00352Y00018*
X00352Y00017*
X00352Y00016*
X00352Y00016*
X00352Y00015*
X00352Y00015*
X00352Y00014*
X00352Y00014*
X00352Y00013*
X00352Y00013*
X00352Y00012*
X00352Y00012*
X00352Y00011*
X00353Y00011*
X00353Y0001*
X00353Y0001*
X00354Y00009*
X00354Y00009*
X00354Y00008*
X00355Y00008*
X00355Y00008*
X00356Y00007*
X00356Y00007*
X00357Y00007*
X00357Y00007*
X00358Y00007*
X00358Y00006*
X00359Y00006*
X00359Y00006*
X0036*
X00361Y00006*
X00361Y00006*
X00362Y00007*
X00362Y00007*
X00363Y00007*
X00363Y00007*
X00364Y00007*
X00364Y00008*
X00365Y00008*
X00365Y00008*
X00365Y00009*
X00366Y00009*
X00366Y0001*
X00366Y0001*
X00367Y00011*
X00367Y00011*
X00367Y00012*
X00367Y00012*
X00367Y00013*
X00368Y00013*
X00368Y00014*
X00368Y00014*
X0035Y00038D02*
D01*
X0035Y00039*
X0035Y00039*
X0035Y0004*
X0035Y0004*
X0035Y00041*
X0035Y00041*
X00349Y00042*
X00349Y00042*
X00349Y00043*
X00349Y00043*
X00348Y00044*
X00348Y00044*
X00347Y00045*
X00347Y00045*
X00346Y00045*
X00346Y00045*
X00345Y00046*
X00345Y00046*
X00344Y00046*
X00344Y00046*
X00343Y00046*
X00343Y00046*
X00342*
X00342Y00046*
X00341Y00046*
X0034Y00046*
X0034Y00046*
X00339Y00046*
X00339Y00045*
X00338Y00045*
X00338Y00045*
X00337Y00045*
X00337Y00044*
X00337Y00044*
X00336Y00043*
X00336Y00043*
X00336Y00042*
X00335Y00042*
X00335Y00041*
X00335Y00041*
X00335Y0004*
X00335Y0004*
X00334Y00039*
X00334Y00039*
X00334Y00038*
X00334Y00038*
X00334Y00037*
X00335Y00037*
X00335Y00036*
X00335Y00035*
X00335Y00035*
X00335Y00034*
X00336Y00034*
X00336Y00034*
X00336Y00033*
X00337Y00033*
X00337Y00032*
X00337Y00032*
X00338Y00032*
X00338Y00031*
X00339Y00031*
X00339Y00031*
X0034Y00031*
X0034Y0003*
X00341Y0003*
X00342Y0003*
X00342Y0003*
X00343*
X00343Y0003*
X00344Y0003*
X00344Y0003*
X00345Y00031*
X00345Y00031*
X00346Y00031*
X00346Y00031*
X00347Y00032*
X00347Y00032*
X00348Y00032*
X00348Y00033*
X00349Y00033*
X00349Y00034*
X00349Y00034*
X00349Y00034*
X0035Y00035*
X0035Y00035*
X0035Y00036*
X0035Y00037*
X0035Y00037*
X0035Y00038*
X0035Y00038*
X00163Y0008D02*
D01*
X00162Y0008*
X00162Y00081*
X00162Y00081*
X00162Y00082*
X00162Y00082*
X00162Y00083*
X00162Y00083*
X00161Y00084*
X00161Y00084*
X00161Y00085*
X0016Y00085*
X0016Y00085*
X00159Y00086*
X00159Y00086*
X00159Y00086*
X00158Y00087*
X00157Y00087*
X00157Y00087*
X00156Y00087*
X00156Y00087*
X00155Y00087*
X00155Y00087*
X00154*
X00154Y00087*
X00153Y00087*
X00153Y00087*
X00152Y00087*
X00152Y00087*
X00151Y00087*
X00151Y00086*
X0015Y00086*
X0015Y00086*
X00149Y00085*
X00149Y00085*
X00148Y00085*
X00148Y00084*
X00148Y00084*
X00147Y00083*
X00147Y00083*
X00147Y00082*
X00147Y00082*
X00147Y00081*
X00147Y00081*
X00147Y0008*
X00147Y0008*
X00147Y00079*
X00147Y00078*
X00147Y00078*
X00147Y00077*
X00147Y00077*
X00147Y00076*
X00147Y00076*
X00148Y00075*
X00148Y00075*
X00148Y00074*
X00149Y00074*
X00149Y00074*
X0015Y00073*
X0015Y00073*
X00151Y00073*
X00151Y00072*
X00152Y00072*
X00152Y00072*
X00153Y00072*
X00153Y00072*
X00154Y00072*
X00154Y00072*
X00155*
X00155Y00072*
X00156Y00072*
X00156Y00072*
X00157Y00072*
X00157Y00072*
X00158Y00072*
X00159Y00073*
X00159Y00073*
X00159Y00073*
X0016Y00074*
X0016Y00074*
X00161Y00074*
X00161Y00075*
X00161Y00075*
X00162Y00076*
X00162Y00076*
X00162Y00077*
X00162Y00077*
X00162Y00078*
X00162Y00078*
X00162Y00079*
X00163Y0008*
X00223D02*
D01*
X00222Y0008*
X00222Y00081*
X00222Y00081*
X00222Y00082*
X00222Y00082*
X00222Y00083*
X00222Y00083*
X00221Y00084*
X00221Y00084*
X00221Y00085*
X0022Y00085*
X0022Y00085*
X00219Y00086*
X00219Y00086*
X00219Y00086*
X00218Y00087*
X00217Y00087*
X00217Y00087*
X00216Y00087*
X00216Y00087*
X00215Y00087*
X00215Y00087*
X00214*
X00214Y00087*
X00213Y00087*
X00213Y00087*
X00212Y00087*
X00212Y00087*
X00211Y00087*
X00211Y00086*
X0021Y00086*
X0021Y00086*
X00209Y00085*
X00209Y00085*
X00208Y00085*
X00208Y00084*
X00208Y00084*
X00207Y00083*
X00207Y00083*
X00207Y00082*
X00207Y00082*
X00207Y00081*
X00207Y00081*
X00207Y0008*
X00207Y0008*
X00207Y00079*
X00207Y00078*
X00207Y00078*
X00207Y00077*
X00207Y00077*
X00207Y00076*
X00207Y00076*
X00208Y00075*
X00208Y00075*
X00208Y00074*
X00209Y00074*
X00209Y00074*
X0021Y00073*
X0021Y00073*
X00211Y00073*
X00211Y00072*
X00212Y00072*
X00212Y00072*
X00213Y00072*
X00213Y00072*
X00214Y00072*
X00214Y00072*
X00215*
X00215Y00072*
X00216Y00072*
X00216Y00072*
X00217Y00072*
X00217Y00072*
X00218Y00072*
X00219Y00073*
X00219Y00073*
X00219Y00073*
X0022Y00074*
X0022Y00074*
X00221Y00074*
X00221Y00075*
X00221Y00075*
X00222Y00076*
X00222Y00076*
X00222Y00077*
X00222Y00077*
X00222Y00078*
X00222Y00078*
X00222Y00079*
X00223Y0008*
X00163Y0002D02*
D01*
X00162Y0002*
X00162Y00021*
X00162Y00021*
X00162Y00022*
X00162Y00022*
X00162Y00023*
X00162Y00023*
X00161Y00024*
X00161Y00024*
X00161Y00025*
X0016Y00025*
X0016Y00025*
X00159Y00026*
X00159Y00026*
X00159Y00026*
X00158Y00027*
X00157Y00027*
X00157Y00027*
X00156Y00027*
X00156Y00027*
X00155Y00027*
X00155Y00027*
X00154*
X00154Y00027*
X00153Y00027*
X00153Y00027*
X00152Y00027*
X00152Y00027*
X00151Y00027*
X00151Y00026*
X0015Y00026*
X0015Y00026*
X00149Y00025*
X00149Y00025*
X00148Y00025*
X00148Y00024*
X00148Y00024*
X00147Y00023*
X00147Y00023*
X00147Y00022*
X00147Y00022*
X00147Y00021*
X00147Y00021*
X00147Y0002*
X00147Y0002*
X00147Y00019*
X00147Y00018*
X00147Y00018*
X00147Y00017*
X00147Y00017*
X00147Y00016*
X00147Y00016*
X00148Y00015*
X00148Y00015*
X00148Y00014*
X00149Y00014*
X00149Y00014*
X0015Y00013*
X0015Y00013*
X00151Y00013*
X00151Y00012*
X00152Y00012*
X00152Y00012*
X00153Y00012*
X00153Y00012*
X00154Y00012*
X00154Y00012*
X00155*
X00155Y00012*
X00156Y00012*
X00156Y00012*
X00157Y00012*
X00157Y00012*
X00158Y00012*
X00159Y00013*
X00159Y00013*
X00159Y00013*
X0016Y00014*
X0016Y00014*
X00161Y00014*
X00161Y00015*
X00161Y00015*
X00162Y00016*
X00162Y00016*
X00162Y00017*
X00162Y00017*
X00162Y00018*
X00162Y00018*
X00162Y00019*
X00163Y0002*
X00038Y0008D02*
D01*
X00037Y0008*
X00037Y00081*
X00037Y00081*
X00037Y00082*
X00037Y00082*
X00037Y00083*
X00037Y00083*
X00036Y00084*
X00036Y00084*
X00036Y00085*
X00035Y00085*
X00035Y00085*
X00034Y00086*
X00034Y00086*
X00034Y00086*
X00033Y00087*
X00032Y00087*
X00032Y00087*
X00031Y00087*
X00031Y00087*
X0003Y00087*
X0003Y00087*
X00029*
X00029Y00087*
X00028Y00087*
X00028Y00087*
X00027Y00087*
X00027Y00087*
X00026Y00087*
X00025Y00086*
X00025Y00086*
X00025Y00086*
X00024Y00085*
X00024Y00085*
X00023Y00085*
X00023Y00084*
X00023Y00084*
X00022Y00083*
X00022Y00083*
X00022Y00082*
X00022Y00082*
X00022Y00081*
X00022Y00081*
X00022Y0008*
X00022Y0008*
X00022Y00079*
X00022Y00078*
X00022Y00078*
X00022Y00077*
X00022Y00077*
X00022Y00076*
X00022Y00076*
X00023Y00075*
X00023Y00075*
X00023Y00074*
X00024Y00074*
X00024Y00074*
X00025Y00073*
X00025Y00073*
X00026Y00073*
X00026Y00072*
X00027Y00072*
X00027Y00072*
X00028Y00072*
X00028Y00072*
X00029Y00072*
X00029Y00072*
X0003*
X0003Y00072*
X00031Y00072*
X00031Y00072*
X00032Y00072*
X00032Y00072*
X00033Y00072*
X00034Y00073*
X00034Y00073*
X00034Y00073*
X00035Y00074*
X00035Y00074*
X00036Y00074*
X00036Y00075*
X00036Y00075*
X00037Y00076*
X00037Y00076*
X00037Y00077*
X00037Y00077*
X00037Y00078*
X00037Y00078*
X00037Y00079*
X00038Y0008*
X00348D02*
D01*
X00347Y0008*
X00347Y00081*
X00347Y00081*
X00347Y00082*
X00347Y00082*
X00347Y00083*
X00347Y00083*
X00346Y00084*
X00346Y00084*
X00346Y00085*
X00345Y00085*
X00345Y00085*
X00344Y00086*
X00344Y00086*
X00344Y00086*
X00343Y00087*
X00342Y00087*
X00342Y00087*
X00341Y00087*
X00341Y00087*
X0034Y00087*
X0034Y00087*
X00339*
X00339Y00087*
X00338Y00087*
X00338Y00087*
X00337Y00087*
X00337Y00087*
X00336Y00087*
X00336Y00086*
X00335Y00086*
X00335Y00086*
X00334Y00085*
X00334Y00085*
X00333Y00085*
X00333Y00084*
X00333Y00084*
X00332Y00083*
X00332Y00083*
X00332Y00082*
X00332Y00082*
X00332Y00081*
X00332Y00081*
X00332Y0008*
X00332Y0008*
X00332Y00079*
X00332Y00078*
X00332Y00078*
X00332Y00077*
X00332Y00077*
X00332Y00076*
X00332Y00076*
X00333Y00075*
X00333Y00075*
X00333Y00074*
X00334Y00074*
X00334Y00074*
X00335Y00073*
X00335Y00073*
X00336Y00073*
X00336Y00072*
X00337Y00072*
X00337Y00072*
X00338Y00072*
X00338Y00072*
X00339Y00072*
X00339Y00072*
X0034*
X0034Y00072*
X00341Y00072*
X00341Y00072*
X00342Y00072*
X00342Y00072*
X00343Y00072*
X00344Y00073*
X00344Y00073*
X00344Y00073*
X00345Y00074*
X00345Y00074*
X00346Y00074*
X00346Y00075*
X00346Y00075*
X00347Y00076*
X00347Y00076*
X00347Y00077*
X00347Y00077*
X00347Y00078*
X00347Y00078*
X00347Y00079*
X00348Y0008*
M02*