%FSTAX23Y23*%
%MOIN*%
%SFA1B1*%

%IPPOS*%
%AMD22*
4,1,8,-0.008400,-0.009800,0.008400,-0.009800,0.010800,-0.007400,0.010800,0.007400,0.008400,0.009800,-0.008400,0.009800,-0.010800,0.007400,-0.010800,-0.007400,-0.008400,-0.009800,0.0*
1,1,0.004921,-0.008400,-0.007400*
1,1,0.004921,0.008400,-0.007400*
1,1,0.004921,0.008400,0.007400*
1,1,0.004921,-0.008400,0.007400*
%
%AMD24*
4,1,8,-0.009800,0.008400,-0.009800,-0.008400,-0.007400,-0.010800,0.007400,-0.010800,0.009800,-0.008400,0.009800,0.008400,0.007400,0.010800,-0.007400,0.010800,-0.009800,0.008400,0.0*
1,1,0.004921,-0.007400,0.008400*
1,1,0.004921,-0.007400,-0.008400*
1,1,0.004921,0.007400,-0.008400*
1,1,0.004921,0.007400,0.008400*
%
%ADD11C,0.006000*%
%ADD17C,0.005905*%
%ADD18C,0.010000*%
%ADD19R,0.039370X0.039370*%
%ADD20C,0.039370*%
%ADD21C,0.023622*%
G04~CAMADD=22~8~0.0~0.0~216.5~196.9~24.6~0.0~15~0.0~0.0~0.0~0.0~0~0.0~0.0~0.0~0.0~0~0.0~0.0~0.0~180.0~216.0~196.0*
%ADD22D22*%
%ADD23R,0.028346X0.029921*%
G04~CAMADD=24~8~0.0~0.0~216.5~196.9~24.6~0.0~15~0.0~0.0~0.0~0.0~0~0.0~0.0~0.0~0.0~0~0.0~0.0~0.0~90.0~196.0~216.0*
%ADD24D24*%
%LNsensorpcb-1*%
%LPD*%
G36*
X00411Y00331D02*
Y-00021D01*
X00406Y-00026*
X00003*
X-00001Y-00021*
Y00331*
X00003Y00336*
X00406*
X00411Y00331*
G37*
%LNsensorpcb-2*%
%LPC*%
G36*
X00405Y0032D02*
X00354D01*
Y00312*
X00349Y0031*
X00343Y00315*
X00334Y00319*
X00334*
Y00295*
Y0027*
X00334*
X00343Y00274*
X00349Y00279*
X00354Y00277*
Y00269*
X00405*
Y0032*
G37*
G36*
X00283D02*
X00276D01*
X0027Y00318*
X00264Y00315*
X00259Y0031*
X00257Y00307*
X00252*
X0025Y0031*
X00245Y00315*
X00239Y00318*
X00233Y0032*
X00226*
X0022Y00318*
X00214Y00315*
X00209Y0031*
X00207Y00307*
X00202*
X002Y0031*
X00195Y00315*
X00189Y00318*
X00183Y0032*
X00176*
X0017Y00318*
X00164Y00315*
X00159Y0031*
X00157Y00307*
X00152*
X0015Y0031*
X00145Y00315*
X00139Y00318*
X00133Y0032*
X00126*
X0012Y00318*
X00114Y00315*
X00109Y0031*
X00107Y00307*
X00102*
X001Y0031*
X00095Y00315*
X00089Y00318*
X00083Y0032*
X00076*
X0007Y00318*
X00064Y00315*
X00059Y0031*
X00057Y00307*
X00052*
X0005Y0031*
X00045Y00315*
X00039Y00318*
X00033Y0032*
X00026*
X0002Y00318*
X00014Y00315*
X00009Y0031*
X00006Y00304*
X00004Y00298*
Y00291*
X00006Y00285*
X00009Y00279*
X00011Y00277*
X00011Y00276*
X00013Y00274*
X00014Y00273*
X00015Y00272*
X00016Y0027*
X00017Y00269*
X00017Y00268*
X00018Y00267*
X00018Y00266*
X00018Y00265*
X00018Y00263*
X00018Y00263*
Y00165*
X00019Y0016*
X00022Y00157*
X00035Y00143*
X00034Y00141*
Y00119*
X0003*
Y00114*
X0001*
Y00101*
X00009*
Y00059*
X00048*
Y00008*
X00049Y00004*
X00052Y00001*
X00066Y-00013*
X0007Y-00016*
X00074Y-00016*
X00164*
X00165Y-00017*
X00166Y-00017*
X00169Y-00017*
X0017Y-00017*
X00171Y-00017*
X00171Y-00017*
X00173Y-00018*
X00174Y-00019*
X00174Y-00019*
X00177Y-00019*
X00192*
X00195Y-00018*
X00198Y-00017*
X002Y-00014*
X002Y-00012*
X00205*
X00206Y-00013*
X00207Y-00016*
X0021Y-00018*
X00213Y-00018*
X00215*
Y-00002*
Y00013*
X00213*
X0021Y00012*
X00207Y0001*
X00207Y0001*
X00202Y00012*
Y00016*
X002Y00022*
X00199Y00023*
X00198Y00024*
X00197Y00026*
X00196Y00027*
X00196Y00028*
X00195Y00028*
X00195Y00029*
X00195Y00029*
X00195Y0003*
X00195Y0003*
X00195Y00031*
X00194Y00031*
Y00165*
X00195Y00166*
X00195Y00166*
X00198Y00167*
X00201Y00168*
X00202Y00171*
X00203Y00172*
X00203Y00172*
X00204Y00173*
X00222*
X00222Y00172*
X00223Y00172*
X00223Y00171*
X00225Y00168*
X00228Y00167*
X00231Y00166*
X00248*
X00251Y00167*
X00254Y00168*
X00256Y00171*
X00256Y00174*
Y00189*
X00256Y00192*
X00254Y00195*
X00251Y00197*
X00251Y00198*
Y00201*
X00251Y00202*
X00254Y00204*
X00256Y00207*
X00256Y0021*
Y00212*
X00257Y00213*
Y00221*
X00256Y00223*
Y00225*
X00261Y00229*
X00275*
X00275Y00228*
X00276Y00227*
X00277Y00224*
X00277Y00224*
X00276Y00222*
X00275Y00221*
X00273Y0022*
X00273Y0022*
X00273Y00219*
X00272Y00219*
X00269Y00215*
X00266Y00209*
X00264Y00203*
Y00196*
X00266Y0019*
X00269Y00184*
X00274Y00179*
X0028Y00176*
X00286Y00174*
X00291*
X00292Y00174*
X00292Y00174*
X00293Y00174*
X00294Y00174*
X00296Y00174*
X003Y00173*
Y00035*
X00301Y00031*
X00303Y00028*
X00323Y00008*
X00326Y00006*
X0033Y00005*
X0034*
X00341Y00005*
X00341Y00005*
X00342Y00005*
X00342Y00005*
X00343Y00005*
X00343Y00005*
X00344Y00004*
X00344Y00004*
X00345Y00003*
X00346Y00003*
X00347Y00002*
X00348Y00001*
X0035Y0*
X00356Y-00002*
X00363*
X0037Y0*
X00375Y00004*
X00377Y00011*
Y00018*
X00375Y00024*
X0037Y00029*
X00364Y00032*
X0036Y00035*
Y00037*
X00361Y00038*
X00361Y0004*
X00361Y00041*
X00361Y00041*
X00361Y00042*
X00361Y00043*
X00361Y00043*
X00362Y00044*
X00362Y00044*
X00362Y00044*
X00362Y00045*
X00363Y00046*
X00396Y00079*
X00398Y00082*
X00399Y00085*
Y00236*
X00398Y0024*
X00396Y00243*
X00383Y00256*
X0038Y00258*
X00376Y00259*
X00094*
X00091Y00259*
X0009Y00261*
X00089Y00263*
X00089Y00264*
X00089Y00264*
X00089Y00265*
X0009Y00266*
X00091Y00267*
X00092Y00269*
X00093Y0027*
X00096Y00274*
X00098Y00276*
X00098Y00277*
X001Y00279*
X00102Y00282*
X00107*
X00109Y00279*
X00114Y00274*
X0012Y00271*
X00126Y00269*
X00133*
X00139Y00271*
X00145Y00274*
X0015Y00279*
X00152Y00282*
X00157*
X00159Y00279*
X00164Y00274*
X0017Y00271*
X00176Y00269*
X00183*
X00189Y00271*
X00195Y00274*
X002Y00279*
X00202Y00282*
X00207*
X00209Y00279*
X00214Y00274*
X0022Y00271*
X00226Y00269*
X00233*
X00239Y00271*
X00245Y00274*
X0025Y00279*
X00252Y00282*
X00257*
X00259Y00279*
X00264Y00274*
X0027Y00271*
X00276Y00269*
X00283*
X00289Y00271*
X00295Y00274*
X003Y00279*
X00302Y00283*
X00308Y00283*
X00309Y00281*
X00316Y00274*
X00325Y0027*
X00325*
Y00295*
Y00319*
X00325*
X00316Y00315*
X00309Y00308*
X00308Y00306*
X00302Y00306*
X003Y0031*
X00295Y00315*
X00289Y00318*
X00283Y0032*
G37*
G36*
X00025Y00139D02*
X0001D01*
Y00123*
X00025*
Y00139*
G37*
G36*
X00227Y00013D02*
X00224D01*
Y00001*
X00235*
Y00005*
X00234Y00008*
X00233Y0001*
X0023Y00012*
X00227Y00013*
G37*
G36*
X00235Y-00007D02*
X00224D01*
Y-00018*
X00227*
X0023Y-00018*
X00233Y-00016*
X00234Y-00013*
X00235Y-00011*
Y-00007*
G37*
%LNsensorpcb-3*%
%LPD*%
G36*
X00042Y00279D02*
X0004Y00277D01*
X00039Y00275*
X00038Y00274*
X00037Y00272*
X00036Y0027*
X00035Y00269*
X00035Y00267*
X00035Y00265*
X00035Y00264*
X00025*
X00024Y00265*
X00024Y00267*
X00024Y00269*
X00023Y0027*
X00022Y00272*
X00021Y00274*
X0002Y00275*
X00019Y00277*
X00017Y00279*
X00016Y0028*
X00043*
X00042Y00279*
G37*
G36*
X00091Y00278D02*
X00088Y00274D01*
X00086Y00273*
X00085Y00271*
X00084Y00269*
X00083Y00268*
X00083Y00266*
X00083Y00265*
X00082Y00263*
X00077*
X00076Y00265*
X00076Y00266*
X00076Y00268*
X00075Y00269*
X00074Y00271*
X00073Y00273*
X00071Y00274*
X00068Y00278*
X00066Y0028*
X00093*
X00091Y00278*
G37*
G36*
X00083Y00257D02*
X00083Y00256D01*
X00083Y00255*
X00083Y00255*
X00084Y00254*
X00085Y00253*
X00085Y00253*
X00086Y00253*
X00087Y00253*
X00088Y00252*
Y00247*
X00087Y00246*
X00086Y00246*
X00085Y00246*
X00085Y00246*
X00084Y00245*
X00083Y00244*
X00083Y00244*
X00083Y00243*
X00083Y00242*
X00082Y00241*
X00077Y0025*
X00082Y00258*
X00083Y00257*
G37*
G36*
X00189Y00232D02*
X00189Y00231D01*
X00189Y0023*
X0019Y00229*
X0019Y00229*
X0019Y00228*
X00191Y00228*
X00191Y00227*
X00192Y00227*
X00192Y00227*
X0018*
X00181Y00227*
X00181Y00227*
X00182Y00228*
X00182Y00228*
X00182Y00229*
X00183Y00229*
X00183Y0023*
X00183Y00231*
X00183Y00232*
X00183Y00233*
X00189*
X00189Y00232*
G37*
G36*
X00082D02*
X00083Y00231D01*
X00083Y0023*
X00083Y00229*
X00083Y00229*
X00084Y00228*
X00084Y00228*
X00084Y00227*
X00085Y00227*
X00085Y00227*
X00074*
X00074Y00227*
X00075Y00227*
X00075Y00228*
X00075Y00228*
X00076Y00229*
X00076Y00229*
X00076Y0023*
X00076Y00231*
X00077Y00232*
X00077Y00233*
X00082*
X00082Y00232*
G37*
G36*
X00292Y00228D02*
X00293Y00227D01*
X00293Y00225*
X00294Y00224*
X00295Y00222*
X00296Y00221*
X00297Y00219*
X00298Y00218*
X003Y00216*
X00302Y00215*
X00277Y00215*
X00279Y00216*
X00281Y00218*
X00282Y00219*
X00283Y00221*
X00284Y00222*
X00285Y00224*
X00286Y00225*
X00286Y00227*
X00286Y00228*
X00286Y0023*
X00292*
X00292Y00228*
G37*
G36*
X00122Y00211D02*
X00122Y00212D01*
X00122Y00212*
X00122Y00213*
X00121Y00213*
X00121Y00214*
X0012Y00214*
X00119Y00214*
X00118Y00214*
X00117Y00214*
X00116Y00214*
Y0022*
X00117Y0022*
X00118Y0022*
X00119Y0022*
X0012Y00221*
X00121Y00221*
X00121Y00221*
X00122Y00222*
X00122Y00222*
X00122Y00223*
X00122Y00223*
Y00211*
G37*
G36*
X00059Y0019D02*
X00058Y00188D01*
X00057Y00187*
X00056Y00186*
X00056Y00185*
X00056Y00184*
X00055Y00183*
X00055Y00182*
X00055Y00181*
X00049*
X00049Y00182*
X00049Y00183*
X00049Y00184*
X00048Y00185*
X00048Y00186*
X00047Y00187*
X00047Y00188*
X00046Y00189*
X00045Y0019*
X00044Y00191*
X0006*
X00059Y0019*
G37*
G36*
X00308Y00193D02*
X00308Y00191D01*
X00308Y0019*
X00308Y00188*
X00308Y00186*
X00309Y00185*
X00309Y00184*
X0031Y00182*
X00311Y00181*
X00312Y0018*
X00307Y00176*
X00306Y00177*
X00305Y00178*
X00304Y00179*
X00302Y00179*
X00301Y0018*
X00299Y0018*
X00298Y0018*
X00296Y0018*
X00294Y0018*
X00292Y0018*
X00309Y00195*
X00308Y00193*
G37*
G36*
X00229Y00176D02*
X00229Y00176D01*
X00228Y00177*
X00228Y00177*
X00228Y00178*
X00227Y00178*
X00227Y00178*
X00226Y00179*
X00225Y00179*
X00224Y00179*
X00223Y00179*
Y00185*
X00224Y00185*
X00225Y00185*
X00226Y00185*
X00227Y00185*
X00227Y00186*
X00228Y00186*
X00228Y00186*
X00228Y00187*
X00229Y00187*
X00229Y00188*
Y00176*
G37*
G36*
X00197Y00187D02*
X00197Y00187D01*
X00197Y00186*
X00198Y00186*
X00198Y00186*
X00199Y00185*
X002Y00185*
X00201Y00185*
X00202Y00185*
X00203Y00185*
Y00179*
X00202Y00179*
X00201Y00179*
X002Y00179*
X00199Y00178*
X00198Y00178*
X00198Y00178*
X00197Y00177*
X00197Y00177*
X00197Y00176*
X00197Y00176*
Y00188*
X00197Y00187*
G37*
G36*
X00175Y00176D02*
X00175Y00176D01*
X00175Y00177*
X00175Y00177*
X00174Y00178*
X00174Y00178*
X00173Y00178*
X00172Y00179*
X00171Y00179*
X0017Y00179*
X00169Y00179*
Y00185*
X0017Y00185*
X00171Y00185*
X00172Y00185*
X00173Y00185*
X00174Y00186*
X00174Y00186*
X00175Y00186*
X00175Y00187*
X00175Y00187*
X00175Y00188*
Y00176*
G37*
G36*
X00144Y00187D02*
X00144Y00187D01*
X00144Y00186*
X00145Y00186*
X00145Y00186*
X00146Y00185*
X00147Y00185*
X00148Y00185*
X00149Y00185*
X0015Y00185*
Y00179*
X00149Y00179*
X00148Y00179*
X00147Y00179*
X00146Y00178*
X00145Y00178*
X00145Y00178*
X00144Y00177*
X00144Y00177*
X00144Y00176*
X00144Y00176*
Y00188*
X00144Y00187*
G37*
G36*
X00169Y00172D02*
X0017Y00172D01*
X0017Y00171*
X00172Y00168*
X00175Y00167*
X00176Y00166*
X00176Y00166*
X00176Y00165*
Y00032*
X00176Y00031*
X00175Y00031*
X00173Y00029*
X00171Y00029*
X0017Y00029*
X0017Y0003*
X00165Y00035*
X00158Y00037*
X00151*
X00144Y00035*
X00139Y0003*
X00137Y00023*
Y00022*
X00137Y00022*
X00133Y00019*
X00088*
X00084Y00023*
Y0012*
X00084Y0012*
X00089Y00121*
X00089*
X00092Y00122*
X00095Y00124*
X00116Y00144*
X00118Y00147*
X00119Y00151*
Y00163*
X00124Y00166*
X00124Y00166*
X00141*
X00144Y00167*
X00147Y00168*
X00149Y00171*
X00149Y00172*
X0015Y00172*
X00151Y00173*
X00168*
X00169Y00172*
G37*
G36*
X00191Y00172D02*
X0019Y00172D01*
X0019Y00171*
X00189Y00171*
X00189Y0017*
X00189Y0017*
X00189Y00169*
X00188Y00168*
X00188Y00167*
X00188Y00166*
X00182*
X00182Y00167*
X00182Y00168*
X00182Y00169*
X00182Y0017*
X00182Y0017*
X00181Y00171*
X00181Y00171*
X0018Y00172*
X0018Y00172*
X00179Y00172*
X00191*
X00191Y00172*
G37*
G36*
X00078Y00138D02*
X00078Y00137D01*
X00078Y00136*
X00078Y00135*
X00079Y00135*
X0008Y00134*
X0008Y00134*
X00081Y00133*
X00082Y00133*
X00083Y00133*
Y00127*
X00082Y00127*
X00081Y00127*
X0008Y00127*
X0008Y00126*
X00079Y00126*
X00078Y00125*
X00078Y00124*
X00078Y00123*
X00078Y00122*
X00077Y00121*
X00072Y0013*
X00077Y00139*
X00078Y00138*
G37*
G36*
X0038Y00232D02*
Y00089D01*
X00364Y00073*
X0036Y00075*
Y00101*
X00359*
Y00114*
X0034*
Y00119*
X00335*
Y00139*
X0032*
X00319Y00143*
Y00174*
X00365*
Y00225*
X00314*
Y00218*
X00313Y00218*
X00309Y00216*
X00306Y00219*
X00306Y0022*
X00306Y0022*
X00306Y0022*
X00304Y00221*
X00303Y00222*
X00302Y00224*
X00301Y00225*
X003Y00226*
X003Y00227*
X00299Y00227*
X00299Y00228*
X00299Y00229*
X00299Y0023*
X00298Y00231*
X00298Y00233*
X00296Y00235*
X00297Y00239*
X00298Y0024*
X00372*
X0038Y00232*
G37*
G36*
X00358Y00049D02*
X00357Y00049D01*
X00356Y00048*
X00356Y00047*
X00355Y00046*
X00355Y00045*
X00355Y00044*
X00354Y00042*
X00354Y00041*
X00354Y0004*
X00354Y00038*
X00343Y0005*
X00344Y0005*
X00347Y0005*
X00348Y00051*
X00349Y00051*
X0035Y00051*
X00351Y00052*
X00352Y00052*
X00353Y00053*
X00353Y00053*
X00358Y00049*
G37*
G36*
X00188Y0003D02*
X00188Y0003D01*
X00189Y00029*
X00189Y00028*
X00189Y00027*
X0019Y00025*
X0019Y00024*
X00191Y00023*
X00192Y00022*
X00193Y0002*
X00177Y00021*
X00178Y00022*
X00179Y00023*
X0018Y00024*
X0018Y00025*
X00181Y00026*
X00181Y00027*
X00182Y00028*
X00182Y00029*
X00182Y0003*
X00182Y00031*
X00188Y0003*
G37*
G36*
X00149Y00009D02*
X00149Y00009D01*
X00148Y00009*
X00147Y00009*
X00147Y00009*
X00146Y00009*
X00145Y00009*
X00144Y00009*
X00144Y00008*
X00143Y00008*
X00143Y00007*
X00138Y00012*
X00139Y00012*
X0014Y00013*
X0014Y00014*
X00141Y00015*
X00142Y00016*
X00142Y00017*
X00142Y00017*
X00142Y00018*
X00143Y00019*
X00143Y0002*
X00149Y00009*
G37*
G36*
X00351Y00006D02*
X0035Y00007D01*
X00349Y00008*
X00348Y00009*
X00347Y0001*
X00346Y0001*
X00345Y00011*
X00344Y00011*
X00343Y00011*
X00342Y00011*
X00341Y00012*
X00341Y00017*
X00342Y00018*
X00343Y00018*
X00344Y00018*
X00345Y00018*
X00346Y00019*
X00347Y00019*
X00348Y0002*
X00349Y00021*
X0035Y00022*
X00351Y00023*
X00351Y00006*
G37*
G36*
X00175Y-00012D02*
X00175Y-00012D01*
X00175Y-00012*
X00174Y-00011*
X00173Y-00011*
X00172Y-00011*
X00171Y-00011*
X0017Y-0001*
X00166Y-0001*
X00165Y-0001*
Y0*
X00167Y0*
X00168Y0*
X0017Y0*
X00171Y0*
X00172Y0*
X00173Y00001*
X00174Y00001*
X00174Y00002*
X00175Y00003*
X00175Y00004*
X00175Y-00012*
G37*
%LNsensorpcb-4*%
%LPC*%
G36*
X00344Y00139D02*
Y00123D01*
X00359*
Y00139*
X00344*
G37*
%LNsensorpcb-5*%
%LPD*%
G54D11*
X00185Y00012D02*
X00185Y00013D01*
Y00181*
X00186Y00182D02*
X0024D01*
X00133D02*
X00186D01*
X00185Y00181D02*
X00186Y00182D01*
G54D17*
X0008Y0025D02*
Y00295D01*
Y00217D02*
Y0025D01*
X00376*
X0008Y00217D02*
X0008D01*
X00075Y0002D02*
Y0013D01*
X00089D02*
X0011Y00151D01*
X00075Y0013D02*
Y00145D01*
Y0013D02*
X00089D01*
X0019Y00238D02*
X00281D01*
X00186Y00217D02*
Y00234D01*
X0019Y00238*
X00376Y0025D02*
X0039Y00236D01*
X00342Y00038D02*
X0039Y00085D01*
Y00236*
X00289Y00198D02*
Y0023D01*
X00281Y00238D02*
X00289Y0023D01*
Y00198D02*
X0031Y00178D01*
X00052Y00167D02*
Y002D01*
Y00167D02*
X00075Y00145D01*
X00113Y00217D02*
X00133D01*
X0011Y00214D02*
X00113Y00217D01*
X0011Y00151D02*
Y00214D01*
X00152Y00017D02*
X00155Y0002D01*
X00075Y0002D02*
X00085Y0001D01*
X0014*
X0031Y00035D02*
Y00178D01*
Y00035D02*
X0033Y00015D01*
X00359D02*
X0036Y00014D01*
X0033Y00015D02*
X00359D01*
X0014Y0001D02*
X00148Y00017D01*
G54D18*
X0003Y00165D02*
Y00295D01*
Y00165D02*
X0006Y00135D01*
Y00008D02*
Y00135D01*
Y00008D02*
X00074Y-00005D01*
X00185Y-00002D02*
Y00012D01*
X00089Y00159D02*
Y0016D01*
X0008Y0017D02*
X00089Y0016D01*
X0008Y0017D02*
Y00182D01*
X00074Y-00005D02*
X00181D01*
X00185Y-00002*
X0034Y0008D02*
X0034Y0008D01*
G54D19*
X0038Y00295D03*
X0034Y002D03*
G54D20*
X0033Y00295D03*
X0028D03*
X0023D03*
X0018D03*
X0013D03*
X0008D03*
X0003D03*
X0029Y002D03*
G54D21*
X00369Y00155D03*
X0024Y00217D03*
X00052Y002D03*
X0025Y0008D03*
X0012D03*
X004Y0006D03*
X00185Y00012D03*
X00244Y00026D03*
X00089Y00159D03*
X0036Y00014D03*
X00342Y00038D03*
X00155Y0008D03*
X00215D03*
X00155Y0002D03*
X0003Y0008D03*
X0034D03*
G54D22*
X00186Y00217D03*
Y00182D03*
X0008Y00217D03*
Y00182D03*
X0024D03*
Y00217D03*
X00133Y00182D03*
Y00217D03*
G54D23*
X0034Y00119D03*
Y0008D03*
X0003Y00119D03*
Y0008D03*
G54D24*
X00185Y-00002D03*
X0022D03*
M02*