%FSTAX23Y23*%
%MOIN*%
%SFA1B1*%

%IPPOS*%
%ADD11C,0.006000*%
%ADD12R,0.020000X0.020000*%
%ADD13R,0.020000X0.020000*%
%ADD14R,0.092000X0.039370*%
%ADD17C,0.005905*%
%ADD18C,0.010000*%
%ADD19R,0.039370X0.039370*%
%ADD20C,0.039370*%
%ADD21C,0.023622*%
%LNsensorpcb-1*%
%LPD*%
G36*
X00411Y00331D02*
Y-00021D01*
X00406Y-00026*
X00003*
X-00001Y-00021*
Y00331*
X00003Y00336*
X00406*
X00411Y00331*
G37*
%LNsensorpcb-2*%
%LPC*%
G36*
X00405Y0032D02*
X00354D01*
Y00312*
X00349Y0031*
X00343Y00315*
X00334Y00319*
X00334*
Y00295*
Y0027*
X00334*
X00343Y00274*
X00349Y00279*
X00354Y00277*
Y00269*
X0037*
Y00269*
X0037Y00268*
Y00258*
X00366Y00254*
X003*
X00296Y00253*
X00293Y00251*
X00283Y00241*
X00281Y00238*
X0028Y00235*
Y00232*
X0028Y00231*
X0028Y0023*
X0028Y0023*
X0028Y00229*
X00279Y00228*
X00278Y00227*
X00277Y00225*
X00276Y00224*
X00273Y0022*
X00271Y00218*
X00271Y00217*
X00269Y00215*
X00266Y00209*
X00264Y00203*
Y00196*
X00266Y0019*
X00269Y00184*
X00274Y00179*
X0028Y00176*
X00286Y00174*
X00293*
X00299Y00176*
X00305Y00179*
X00309Y00183*
X00313Y00181*
X00314Y00181*
Y00174*
X00318*
X00321Y00169*
X00321Y00169*
X00253*
Y00193*
X00253Y00193*
Y00199*
X00253Y002*
X00253Y00201*
X00253Y00201*
X00253Y00203*
X00253Y00203*
X00255Y00208*
X00256Y00209*
X00256Y00211*
X00257Y00213*
Y00221*
X00255Y00227*
X0025Y00232*
X00243Y00235*
X0024*
X00238Y0024*
X00269Y00271*
X0027Y00271*
X00276Y00269*
X00283*
X00289Y00271*
X00295Y00274*
X003Y00279*
X00302Y00283*
X00308Y00283*
X00309Y00281*
X00316Y00274*
X00325Y0027*
X00325*
Y00295*
Y00319*
X00325*
X00316Y00315*
X00309Y00308*
X00308Y00306*
X00302Y00306*
X003Y0031*
X00295Y00315*
X00289Y00318*
X00283Y0032*
X00276*
X0027Y00318*
X00264Y00315*
X00259Y0031*
X00257Y00307*
X00252*
X0025Y0031*
X00245Y00315*
X00239Y00318*
X00233Y0032*
X00226*
X0022Y00318*
X00214Y00315*
X00209Y0031*
X00207Y00307*
X00202*
X002Y0031*
X00195Y00315*
X00189Y00318*
X00183Y0032*
X00176*
X0017Y00318*
X00164Y00315*
X00159Y0031*
X00157Y00307*
X00152*
X0015Y0031*
X00145Y00315*
X00139Y00318*
X00133Y0032*
X00126*
X0012Y00318*
X00114Y00315*
X00109Y0031*
X00107Y00307*
X00102*
X001Y0031*
X00095Y00315*
X00089Y00318*
X00083Y0032*
X00076*
X0007Y00318*
X00064Y00315*
X00059Y0031*
X00057Y00307*
X00052*
X0005Y0031*
X00045Y00315*
X00039Y00318*
X00033Y0032*
X00026*
X0002Y00318*
X00014Y00315*
X00009Y0031*
X00006Y00304*
X00004Y00298*
Y00291*
X00006Y00285*
X00009Y00279*
X00014Y00274*
X0002Y00271*
X00026Y00269*
X00033*
X00039Y00271*
X00045Y00274*
X0005Y00279*
X00052Y00282*
X00057*
X00059Y00279*
X00064Y00274*
X0007Y00271*
X00076Y00269*
X00083*
X00089Y00271*
X00095Y00274*
X001Y00279*
X00102Y00282*
X00107*
X00109Y00279*
X00114Y00274*
X00114Y00274*
X0006Y0022*
X00059Y00219*
X00058Y00219*
X00058Y00219*
X00058Y00219*
X00057Y00218*
X00057Y00218*
X00056Y00218*
X00056Y00218*
X00053Y00218*
X00052Y00218*
X00051Y00217*
X00049*
X00042Y00215*
X00037Y0021*
X00035Y00203*
Y00196*
X00037Y00189*
X00042Y00184*
X00045Y00183*
X00047Y00177*
X00019Y0015*
X00017Y00146*
X00016Y00142*
Y00096*
X00016Y00096*
X00016Y00095*
X00015Y00093*
X00015Y00092*
X00015Y00092*
X00015Y00091*
X00015Y00091*
X00015Y0009*
X00014Y0009*
X00014Y00089*
X00014Y00088*
X00012Y00083*
Y00076*
X00014Y00071*
X00014Y0007*
X00014Y00069*
X00015Y00069*
X00015Y00068*
X00015Y00068*
X00015Y00067*
X00015Y00067*
X00015Y00066*
X00016Y00064*
X00016Y00063*
X00016Y00063*
Y00007*
X00017Y00003*
X00019Y0*
X00037Y-00017*
X0004Y-0002*
X00045Y-00021*
X00375*
X00379Y-0002*
X00382Y-00017*
X00392Y-00007*
X00395Y-00004*
X00396Y0*
Y00034*
X00395Y00038*
X00392Y00042*
X0036Y00074*
X0036Y00074*
X0036Y00074*
X0036Y00074*
X00359Y00075*
X00359Y00076*
X00359Y00076*
X00358Y00077*
X00358Y00077*
X00358Y00077*
X00358Y00078*
X00358Y00078*
X00358Y00078*
X00358Y00079*
X00357Y0008*
Y00083*
X00355Y0009*
X0035Y00095*
X00343Y00097*
X00336*
X00329Y00095*
X00329Y00094*
X00328Y00094*
X00328Y00093*
X00327Y00093*
X00327Y00093*
X00327Y00093*
X00326Y00093*
X00325Y00092*
X00325Y00092*
X00323Y00092*
X00322Y00092*
X00322Y00092*
X00302*
X00301Y00092*
X00299Y00092*
X00298Y00092*
X00297Y00092*
X00297Y00093*
Y00098*
X00265*
Y00066*
X00289*
X0029Y00066*
X0029Y00066*
X00291Y00066*
X00292Y00066*
X00297*
Y00069*
X00299Y00069*
X00301Y00069*
X00302Y0007*
X0032*
X0032Y00069*
X00321Y00069*
X00321Y00069*
X00322Y00069*
X00323Y00069*
X00323Y00069*
X00324Y00069*
X00324Y00069*
X00325Y00069*
X00325Y00069*
X00325Y00069*
X00325Y00068*
X00325Y00068*
X00327Y00067*
X00329Y00064*
X00336Y00062*
X00336*
X00337Y00061*
X00338Y00061*
X00337Y00055*
X00332Y00053*
X00331Y00052*
X0033Y00051*
X00329Y0005*
X00328Y0005*
X00327Y00049*
X00326Y00049*
X00326Y00048*
X00325Y00048*
X00325Y00048*
X00325Y00048*
X00324Y00048*
X00324Y00048*
X00323Y00047*
X00311*
X00308Y00051*
X00305Y00053*
X00301Y00054*
X0029*
X00289Y00054*
X00289*
Y0006*
X00257*
Y00059*
X00248*
Y00045*
X00239*
Y00059*
X00235*
Y00078*
X00185*
X00134*
Y00059*
X0013*
Y00045*
Y0003*
X00134*
X00137Y00025*
X00137Y00023*
Y00016*
X00139Y00009*
X00143Y00006*
X00142Y00001*
X00049*
X00038Y00012*
Y00059*
X00038Y00059*
X00038Y0006*
Y0006*
X00038Y00061*
X00038Y00062*
X00038Y00062*
X00039Y00063*
X00039Y00063*
X00039Y00064*
X00039Y00064*
X00039Y00064*
X00039Y00064*
X00039Y00064*
X0004Y00064*
X0004Y00065*
X00042Y00067*
X00044Y00068*
X00044Y00068*
X00044Y00069*
X00044Y00069*
X00044Y00069*
X00045Y00069*
X00045Y00069*
X00046Y00069*
X00046Y00069*
X00047Y00069*
X00048Y00069*
X00048Y00069*
X00049Y00069*
X00049Y0007*
X00067*
X00068Y00069*
X0007Y00069*
X00071Y00069*
X00072Y00069*
Y00066*
X00077*
X00078Y00066*
X00079Y00066*
X00079Y00066*
X0008Y00066*
X00104*
Y00098*
X00072*
Y00093*
X00072Y00092*
X00071Y00092*
X0007Y00092*
X00068Y00092*
X00067Y00092*
X00047*
X00047Y00092*
X00046Y00092*
X00045Y00092*
X00044Y00092*
X00044Y00092*
X00043Y00093*
X00042Y00093*
X00042Y00093*
X00042Y00093*
X00041Y00093*
X00041Y00094*
X0004Y00094*
X0004Y00094*
X0004Y00095*
X00039Y00095*
X00039Y00095*
X00039Y00095*
X00039Y00095*
X00039Y00095*
X00039Y00096*
X00039Y00096*
X00038Y00097*
X00038Y00097*
X00038Y00098*
X00038Y00099*
Y00099*
X00038Y001*
X00038Y001*
Y00137*
X00165Y00264*
X00165Y00264*
X00166Y00265*
X00167Y00266*
X00168Y00266*
X00169Y00267*
X00171Y00267*
X00172Y00268*
X00174Y00268*
X00175Y00268*
X00177Y00268*
X00179Y00268*
X00181Y00269*
X00183*
X00189Y00271*
X00195Y00274*
X002Y00279*
X00202Y00282*
X00207*
X00209Y00279*
X00212Y00276*
X00212Y00276*
X00212Y00275*
X00213Y00274*
X00214Y00274*
X00215Y00273*
X00215Y00272*
X00216Y00271*
X00216Y00271*
X00216Y0027*
X00217Y00269*
X00178Y00231*
X00176Y00228*
X00175Y00225*
Y00136*
X00175Y00136*
X00175Y00135*
X00139*
Y00134*
X0013*
Y0012*
Y00105*
X00134*
Y00087*
X00185*
X00235*
Y00104*
X00259*
Y00105*
X00269*
Y0012*
Y00134*
X00259*
Y00135*
X00253*
Y00135*
X00253Y00136*
Y0015*
X0033*
X00333Y00151*
X00336Y00153*
X00346Y00163*
X00348Y00166*
X00349Y0017*
Y00173*
X00349Y00174*
Y00174*
X00365*
Y00225*
X00314*
Y00218*
X00313Y00218*
X00309Y00216*
X00308Y00217*
X00308Y00218*
X00306Y0022*
X00303Y00224*
X00302Y00225*
X00301Y00227*
X003Y00228*
X00299Y00229*
X00299Y0023*
X00299Y0023*
X00299Y00231*
X00303Y00235*
X0037*
X00373Y00236*
X00376Y00238*
X00386Y00248*
X00388Y00251*
X00389Y00255*
Y00268*
X00389Y00269*
Y00269*
X00405*
Y0032*
G37*
G36*
X00288Y00134D02*
X00278D01*
Y00124*
X00288*
Y00134*
G37*
G36*
X00091D02*
X00081D01*
Y00124*
X00091*
Y00134*
G37*
G36*
X00288Y00115D02*
X00278D01*
Y00105*
X00288*
Y00115*
G37*
G36*
X00121Y00134D02*
X001D01*
Y0012*
Y00105*
X00121*
Y0012*
Y00134*
G37*
G36*
X00091Y00115D02*
X00081D01*
Y00105*
X00091*
Y00115*
G37*
G36*
Y00059D02*
X00081D01*
Y00049*
X00091*
Y00059*
G37*
G36*
X00121D02*
X001D01*
Y00045*
Y0003*
X00121*
Y00045*
Y00059*
G37*
G36*
X00091Y0004D02*
X00081D01*
Y0003*
X00091*
Y0004*
G37*
%LNsensorpcb-3*%
%LPD*%
G36*
X00129Y00275D02*
X00129Y00275D01*
X00128Y00275*
X00128Y00275*
X00128Y00274*
X00128Y00274*
X00127Y00274*
X00127Y00273*
X00127Y00273*
X00127Y00272*
X00127Y00271*
X00121*
X00121Y00272*
X00121Y00274*
X00121Y00275*
X00121Y00276*
X00121Y00276*
X0012Y00277*
X0012Y00277*
X0012Y00277*
X0012Y00278*
X00129Y00275*
G37*
G36*
X00179Y00275D02*
X00177Y00275D01*
X00175Y00275*
X00173Y00274*
X00171Y00274*
X00169Y00273*
X00167Y00273*
X00165Y00272*
X00164Y00271*
X00162Y0027*
X00161Y00269*
X00154Y00276*
X00155Y00277*
X00156Y00279*
X00157Y0028*
X00158Y00282*
X00158Y00284*
X00159Y00286*
X00159Y00288*
X0016Y0029*
X0016Y00292*
X0016Y00294*
X00179Y00275*
G37*
G36*
X00385Y00275D02*
X00384Y00275D01*
X00384Y00274*
X00384Y00274*
X00383Y00273*
X00383Y00273*
X00383Y00272*
X00383Y00271*
X00382Y0027*
X00382Y00269*
X00377*
X00377Y0027*
X00376Y00271*
X00376Y00272*
X00376Y00273*
X00376Y00273*
X00375Y00274*
X00375Y00274*
X00375Y00275*
X00374Y00275*
X00374Y00275*
X00385*
X00385Y00275*
G37*
G36*
X00237Y00276D02*
X00235Y00276D01*
X00234Y00275*
X00233Y00274*
X00232Y00273*
X00231Y00272*
X00231Y00271*
X0023Y0027*
X0023Y00269*
X0023Y00268*
X00229Y00266*
X00223*
X00223Y00268*
X00223Y00269*
X00223Y00271*
X00222Y00272*
X00222Y00273*
X00221Y00275*
X0022Y00276*
X00219Y00277*
X00218Y00278*
X00217Y00279*
X00237Y00276*
G37*
G36*
X00293Y00229D02*
X00293Y00228D01*
X00293Y00226*
X00294Y00225*
X00295Y00223*
X00296Y00221*
X00298Y0022*
X00301Y00216*
X00303Y00214*
X00276*
X00278Y00216*
X00281Y0022*
X00283Y00221*
X00284Y00223*
X00285Y00225*
X00286Y00226*
X00286Y00228*
X00286Y00229*
X00287Y00231*
X00292*
X00293Y00229*
G37*
G36*
X00067Y00211D02*
X00067Y0021D01*
X00066Y00209*
X00066Y00208*
X00065Y00207*
X00065Y00206*
X00065Y00205*
X00064Y00204*
X00064Y00202*
X00064Y00201*
X00064Y002*
X00052Y00211*
X00054Y00211*
X00056Y00212*
X00058Y00212*
X00059Y00212*
X0006Y00212*
X00061Y00213*
X00062Y00213*
X00062Y00214*
X00063Y00215*
X00067Y00211*
G37*
G36*
X00249Y0021D02*
X00247Y00205D01*
X00247Y00204*
X00247Y00202*
X00247Y00201*
X00246Y002*
X00241Y00198*
X00241Y00199*
X0024Y002*
X0024Y00201*
X0024Y00202*
X00239Y00203*
X00238Y00204*
X00238Y00204*
X00237Y00205*
X00236Y00206*
X00235Y00206*
X0025Y00212*
X00249Y0021*
G37*
G36*
X00345Y0018D02*
X00344Y0018D01*
X00344Y00179*
X00344Y00179*
X00343Y00178*
X00343Y00178*
X00343Y00177*
X00343Y00176*
X00342Y00175*
X00342Y00174*
X00337*
X00337Y00175*
X00336Y00176*
X00336Y00177*
X00336Y00178*
X00336Y00178*
X00335Y00179*
X00335Y00179*
X00335Y0018*
X00334Y0018*
X00334Y0018*
X00345*
X00345Y0018*
G37*
G36*
X00247Y00134D02*
X00247Y00133D01*
X00247Y00132*
X00247Y00131*
X00247Y00131*
X00248Y0013*
X00248Y0013*
X00248Y0013*
X00249Y00129*
X00249Y00129*
X00238*
X00238Y00129*
X00239Y0013*
X00239Y0013*
X0024Y0013*
X0024Y00131*
X0024Y00131*
X0024Y00132*
X0024Y00133*
X00241Y00134*
X00241Y00135*
X00247*
X00247Y00134*
G37*
G36*
X00188Y00134D02*
X00188Y00133D01*
X00188Y00132*
X00188Y00131*
X00188Y00131*
X00189Y0013*
X00189Y0013*
X00189Y0013*
X0019Y00129*
X00191Y00129*
X00179*
X00179Y00129*
X0018Y0013*
X0018Y0013*
X0018Y0013*
X00181Y00131*
X00181Y00131*
X00181Y00132*
X00181Y00133*
X00181Y00134*
X00182Y00135*
X00188*
X00188Y00134*
G37*
G36*
X00032Y00097D02*
X00032Y00096D01*
X00032Y00095*
X00033Y00094*
X00033Y00093*
X00033Y00092*
X00034Y00091*
X00034Y00091*
X00035Y0009*
X00036Y00089*
X0002Y00086*
X0002Y00087*
X0002Y00088*
X00021Y00088*
X00021Y00089*
X00021Y0009*
X00022Y00091*
X00022Y00092*
X00022Y00095*
X00022Y00096*
X00032Y00098*
X00032Y00097*
G37*
G36*
X0033Y00072D02*
X0033Y00073D01*
X00329Y00073*
X00328Y00074*
X00327Y00074*
X00327Y00075*
X00326Y00075*
X00325Y00075*
X00324Y00076*
X00322Y00076*
X00321Y00076*
X00322Y00086*
X00324Y00086*
X00326Y00086*
X00327Y00086*
X00328Y00086*
X00329Y00087*
X0033Y00087*
X0033Y00088*
X00331Y00088*
X00332Y00089*
X0033Y00072*
G37*
G36*
X00038Y00088D02*
X00039Y00088D01*
X00039Y00087*
X0004Y00087*
X00041Y00086*
X00042Y00086*
X00043Y00086*
X00044Y00086*
X00045Y00086*
X00047Y00086*
X00048Y00076*
X00047Y00076*
X00045Y00076*
X00044Y00075*
X00043Y00075*
X00042Y00075*
X00042Y00074*
X00041Y00074*
X0004Y00073*
X00039Y00073*
X00039Y00072*
X00037Y00089*
X00038Y00088*
G37*
G36*
X00291Y0009D02*
X00291Y00089D01*
X00292Y00088*
X00292Y00088*
X00293Y00087*
X00294Y00087*
X00296Y00086*
X00297Y00086*
X00299Y00086*
X00301Y00086*
Y00076*
X00299Y00076*
X00296Y00075*
X00294Y00075*
X00293Y00075*
X00292Y00074*
X00292Y00074*
X00291Y00073*
X00291Y00073*
X00291Y00072*
Y00091*
X00291Y0009*
G37*
G36*
X00078Y00072D02*
X00078Y00073D01*
X00078Y00073*
X00077Y00074*
X00077Y00074*
X00076Y00075*
X00075Y00075*
X00073Y00075*
X00072Y00076*
X0007Y00076*
X00068Y00076*
Y00086*
X0007Y00086*
X00072Y00086*
X00073Y00086*
X00075Y00087*
X00076Y00087*
X00077Y00088*
X00077Y00088*
X00078Y00089*
X00078Y0009*
X00078Y00091*
X00078Y00072*
G37*
G36*
X00351Y00078D02*
X00351Y00077D01*
X00352Y00076*
X00352Y00075*
X00352Y00074*
X00353Y00073*
X00353Y00073*
X00354Y00072*
X00355Y00071*
X00355Y0007*
X00348Y00063*
X00347Y00064*
X00346Y00065*
X00345Y00065*
X00344Y00066*
X00344Y00066*
X00343Y00067*
X00342Y00067*
X00341Y00067*
X0034Y00068*
X00339Y00068*
X00351Y00079*
X00351Y00078*
G37*
G36*
X00036Y0007D02*
X00035Y00069D01*
X00034Y00068*
X00034Y00068*
X00033Y00067*
X00033Y00066*
X00033Y00065*
X00032Y00064*
X00032Y00063*
X00032Y00062*
X00032Y00061*
X00022Y00063*
X00022Y00064*
X00022Y00067*
X00022Y00068*
X00021Y00069*
X00021Y0007*
X00021Y00071*
X0002Y00071*
X0002Y00072*
X0002Y00073*
X00036Y0007*
G37*
G36*
X00283Y0005D02*
X00283Y00049D01*
X00283Y00049*
X00284Y00049*
X00284Y00048*
X00285Y00048*
X00286Y00048*
X00287Y00048*
X00288Y00047*
X00289Y00047*
Y00042*
X00288Y00042*
X00287Y00041*
X00286Y00041*
X00285Y00041*
X00284Y00041*
X00284Y0004*
X00283Y0004*
X00283Y0004*
X00283Y00039*
X00283Y00039*
Y0005*
X00283Y0005*
G37*
G36*
X00334Y0003D02*
X00333Y00031D01*
X00331Y00033*
X0033Y00033*
X00329Y00034*
X00328Y00034*
X00327Y00035*
X00326Y00035*
X00325Y00035*
X00324Y00035*
Y00041*
X00325Y00041*
X00326Y00041*
X00327Y00042*
X00328Y00042*
X00329Y00043*
X0033Y00043*
X00331Y00044*
X00332Y00045*
X00333Y00045*
X00334Y00046*
Y0003*
G37*
G36*
X00219Y00035D02*
X00219Y00034D01*
X00218Y00034*
X00218Y00034*
X00218Y00033*
X00217Y00032*
X00217Y00032*
X00217Y00031*
X00217Y0003*
X00217Y00029*
X00211*
X00211Y0003*
X00211Y00031*
X00211Y00032*
X00211Y00032*
X0021Y00033*
X0021Y00034*
X0021Y00034*
X00209Y00034*
X00209Y00035*
X00208Y00035*
X0022*
X00219Y00035*
G37*
G36*
X00158Y00037D02*
X00158Y00036D01*
X00158Y00035*
X00158Y00035*
X0016*
X0016Y00035*
X00159Y00034*
X00159Y00034*
X00159Y00034*
X00159Y00034*
X00159Y00033*
X00159Y00032*
X0016Y00031*
X00161Y0003*
X00162Y00029*
X00163Y00028*
X00146*
X00147Y00029*
X00149Y00031*
X0015Y00032*
X0015Y00033*
X00151Y00034*
X0015Y00034*
X0015Y00034*
X0015Y00034*
X00149Y00035*
X00149Y00035*
X00151*
X00151Y00035*
X00151Y00036*
X00151Y00037*
X00152Y00038*
X00157*
X00158Y00037*
G37*
G36*
X00249Y00042D02*
X00249Y00041D01*
X00249Y0004*
X00249Y00039*
X0025Y00038*
X0025Y00037*
X0025Y00036*
X00251Y00036*
X00251Y00035*
X00252Y00035*
X00253*
X00252Y00035*
X00251Y00034*
X00251Y00034*
X0025Y00033*
X0025Y00032*
X00249Y00031*
X00249Y0003*
X00249Y00029*
X00249Y00028*
X00249Y00026*
X00239*
X00239Y00028*
X00239Y00029*
X00238Y0003*
X00238Y00031*
X00238Y00032*
X00237Y00033*
X00237Y00034*
X00236Y00034*
X00236Y00034*
X00236Y00034*
X00236Y00035*
X00235Y00035*
X00236*
X00236Y00035*
X00237Y00035*
X00237Y00036*
X00238Y00037*
X00238Y00038*
X00238Y00039*
X00239Y0004*
X00239Y00041*
X00239Y00042*
X00239Y00043*
X00249Y00044*
X00249Y00042*
G37*
G36*
X00193Y00035D02*
X00193Y00034D01*
X00192Y00034*
X00191Y00033*
X00191Y00032*
X0019Y00031*
X0019Y0003*
X0019Y00028*
X0019Y00028*
X0019Y00027*
X0019Y00026*
X0019Y00025*
X00191Y00024*
X00191Y00023*
X00192Y00022*
X00192Y00021*
X00193Y00021*
X00176*
X00177Y00021*
X00177Y00022*
X00178Y00023*
X00178Y00024*
X00179Y00025*
X00179Y00026*
X00179Y00027*
X00179Y00028*
X00179Y00028*
X00179Y0003*
X00179Y00031*
X00178Y00032*
X00178Y00033*
X00177Y00034*
X00176Y00034*
X00176Y00035*
X00175Y00035*
X00194*
X00193Y00035*
G37*
G36*
X00354Y00004D02*
X00353Y00004D01*
X00352Y00005*
X00352Y00005*
X00351Y00005*
X00351Y00005*
X0035Y00005*
X00349Y00004*
X00349Y00004*
X00348Y00003*
X00348Y00003*
X00343Y00007*
X00344Y00008*
X00346Y0001*
X00346Y0001*
X00347Y00011*
X00347Y00012*
X00347Y00013*
X00348Y00013*
X00348Y00014*
X00348Y00015*
X00354Y00004*
G37*
G54D11*
X00214Y0012D02*
Y00229D01*
X0028Y00295*
X00226Y00266D02*
Y00291D01*
X00185Y0012D02*
Y00225D01*
X00226Y00291D02*
X0023Y00295D01*
X00185Y00225D02*
X00226Y00266D01*
G54D12*
X00281Y00082D03*
X00088D03*
G54D13*
X00273Y0012D03*
X00244D03*
X00214D03*
X00185D03*
X00155D03*
X00125D03*
X00096D03*
Y00045D03*
X00125D03*
X00155D03*
X00185D03*
X00214D03*
X00244D03*
X00273D03*
G54D14*
X00185Y00082D03*
G54D17*
X00244Y00193D02*
Y00213D01*
X0024Y00217D02*
X00244Y00213D01*
Y00193D02*
X00244Y00193D01*
Y0016D02*
Y00193D01*
X00124Y00271D02*
Y00289D01*
X00052Y002D02*
X00124Y00271D01*
Y00289D02*
X0013Y00295D01*
X00245Y0016D02*
X0033D01*
X00244Y00159D02*
X00245Y0016D01*
X00244Y0012D02*
Y00159D01*
Y0016D02*
X00245D01*
X00214Y0001D02*
X00219Y00005D01*
X00346*
X00214Y0001D02*
Y00045D01*
X00346Y00005D02*
X00355Y00014D01*
X0036*
X00308Y00038D02*
X00342D01*
X00301Y00045D02*
X00308Y00038D01*
X00155Y0002D02*
Y00044D01*
X00155Y00045*
X0029Y00235D02*
X003Y00245D01*
X0037*
X0029Y002D02*
Y00235D01*
X0037Y00245D02*
X0038Y00255D01*
Y00295*
X00273Y00045D02*
X00301D01*
X0034Y0017D02*
Y002D01*
X0033Y0016D02*
X0034Y0017D01*
G54D18*
X00027Y00142D02*
X0018Y00295D01*
X00027Y00082D02*
Y00142D01*
X00338Y0008D02*
X00385Y00034D01*
Y0D02*
Y00034D01*
X00045Y-0001D02*
X00375D01*
X00385Y0*
X00027Y00007D02*
X00045Y-0001D01*
X00185Y00012D02*
Y00045D01*
X00244Y00026D02*
Y00044D01*
X00244Y00045D02*
X00244Y00044D01*
Y00026D02*
X00244Y00026D01*
X00338Y0008D02*
Y00081D01*
X00031D02*
X00087D01*
X00027Y00077D02*
X0003Y0008D01*
X00027Y00007D02*
Y00077D01*
X0003Y0008D02*
X00031Y00081D01*
X00027Y00082D02*
X0003Y0008D01*
X00087Y00081D02*
X00088Y00082D01*
X00282Y00081D02*
X00338D01*
X00281Y00082D02*
X00282Y00081D01*
G54D19*
X0038Y00295D03*
X0034Y002D03*
G54D20*
X0033Y00295D03*
X0028D03*
X0023D03*
X0018D03*
X0013D03*
X0008D03*
X0003D03*
X0029Y002D03*
G54D21*
X00369Y00155D03*
X0024Y00217D03*
X00052Y002D03*
X0025Y0008D03*
X0012D03*
X004Y0006D03*
X00185Y00012D03*
X00244Y00026D03*
X00089Y00159D03*
X0036Y00014D03*
X00342Y00038D03*
X00155Y0008D03*
X00215D03*
X00155Y0002D03*
X0003Y0008D03*
X0034D03*
M02*