%FSTAX23Y23*%
%MOIN*%
%SFA1B1*%

%IPPOS*%
%ADD10C,0.003937*%
%LNdeck-1*%
%LPD*%
G54D10*
X00515Y0029D02*
X00601D01*
X00515Y00233D02*
X00601D01*
X00515D02*
Y0029D01*
X00601Y00233D02*
Y0029D01*
X00446Y00329D02*
X00488D01*
X00446Y00351D02*
X00488D01*
Y00329D02*
Y00351D01*
X00446Y00329D02*
Y00351D01*
X00543Y00382D02*
X00583D01*
Y00325D02*
Y00382D01*
X00543Y00325D02*
X00583D01*
X00543D02*
Y00382D01*
X00715Y00139D02*
X00778D01*
Y00171*
X00715D02*
X00778D01*
X00715Y00139D02*
Y00171D01*
X00601Y00603D02*
Y00627D01*
X00558Y00603D02*
Y00627D01*
Y00603D02*
X00601D01*
X00558Y00627D02*
X00601D01*
X00715Y00935D02*
Y00967D01*
X00778*
Y00935D02*
Y00967D01*
X00715Y00935D02*
X00778D01*
X00715Y00994D02*
Y01026D01*
X00778Y00994D02*
Y01026D01*
X00715Y01026D02*
X00778D01*
X00715Y00994D02*
X00778D01*
X00635Y00426D02*
X00657D01*
X00635Y00384D02*
X00657D01*
Y00426*
X00635Y00384D02*
Y00426D01*
X006Y00551D02*
Y00572D01*
X00559Y00551D02*
Y00572D01*
Y00551D02*
X006D01*
X00559Y00572D02*
X006D01*
X00422Y00875D02*
X00493D01*
Y00773D02*
Y00875D01*
X00422Y00773D02*
X00493D01*
X00422D02*
Y00875D01*
Y00859D02*
X00437Y00875D01*
M02*