%FSTAX23Y23*%
%MOIN*%
%SFA1B1*%

%IPPOS*%
%AMD28*
4,1,8,0.008400,0.012800,-0.008400,0.012800,-0.013800,0.007400,-0.013800,-0.007400,-0.008400,-0.012800,0.008400,-0.012800,0.013800,-0.007400,0.013800,0.007400,0.008400,0.012800,0.0*
1,1,0.010827,0.008400,0.007400*
1,1,0.010827,-0.008400,0.007400*
1,1,0.010827,-0.008400,-0.007400*
1,1,0.010827,0.008400,-0.007400*
%
%AMD29*
4,1,8,-0.012800,0.008400,-0.012800,-0.008400,-0.007400,-0.013800,0.007400,-0.013800,0.012800,-0.008400,0.012800,0.008400,0.007400,0.013800,-0.007400,0.013800,-0.012800,0.008400,0.0*
1,1,0.010827,-0.007400,0.008400*
1,1,0.010827,-0.007400,-0.008400*
1,1,0.010827,0.007400,-0.008400*
1,1,0.010827,0.007400,0.008400*
%
%AMD31*
4,1,8,-0.012200,0.004000,-0.012200,-0.004000,-0.008300,-0.007900,0.008300,-0.007900,0.012200,-0.004000,0.012200,0.004000,0.008300,0.007900,-0.008300,0.007900,-0.012200,0.004000,0.0*
1,1,0.007835,-0.008300,0.004000*
1,1,0.007835,-0.008300,-0.004000*
1,1,0.007835,0.008300,-0.004000*
1,1,0.007835,0.008300,0.004000*
%
%AMD32*
4,1,8,-0.011600,0.004000,-0.011600,-0.004000,-0.007700,-0.007900,0.007700,-0.007900,0.011600,-0.004000,0.011600,0.004000,0.007700,0.007900,-0.007700,0.007900,-0.011600,0.004000,0.0*
1,1,0.007835,-0.007700,0.004000*
1,1,0.007835,-0.007700,-0.004000*
1,1,0.007835,0.007700,-0.004000*
1,1,0.007835,0.007700,0.004000*
%
%AMD33*
4,1,8,-0.021900,-0.017900,0.021900,-0.017900,0.028500,-0.011200,0.028500,0.011200,0.021900,0.017900,-0.021900,0.017900,-0.028500,0.011200,-0.028500,-0.011200,-0.021900,-0.017900,0.0*
1,1,0.013386,-0.021900,-0.011200*
1,1,0.013386,0.021900,-0.011200*
1,1,0.013386,0.021900,0.011200*
1,1,0.013386,-0.021900,0.011200*
%
%ADD27R,0.058268X0.067716*%
G04~CAMADD=28~8~0.0~0.0~275.6~255.9~54.1~0.0~15~0.0~0.0~0.0~0.0~0~0.0~0.0~0.0~0.0~0~0.0~0.0~0.0~0.0~275.6~255.9*
%ADD28D28*%
G04~CAMADD=29~8~0.0~0.0~275.6~255.9~54.1~0.0~15~0.0~0.0~0.0~0.0~0~0.0~0.0~0.0~0.0~0~0.0~0.0~0.0~90.0~256.0~276.0*
%ADD29D29*%
%ADD30R,0.033858X0.032283*%
G04~CAMADD=31~8~0.0~0.0~157.5~244.1~39.2~0.0~15~0.0~0.0~0.0~0.0~0~0.0~0.0~0.0~0.0~0~0.0~0.0~0.0~90.0~244.0~158.0*
%ADD31D31*%
G04~CAMADD=32~8~0.0~0.0~157.5~232.3~39.2~0.0~15~0.0~0.0~0.0~0.0~0~0.0~0.0~0.0~0.0~0~0.0~0.0~0.0~90.0~233.0~158.0*
%ADD32D32*%
G04~CAMADD=33~8~0.0~0.0~570.9~358.3~66.9~0.0~15~0.0~0.0~0.0~0.0~0~0.0~0.0~0.0~0.0~0~0.0~0.0~0.0~180.0~571.0~358.0*
%ADD33D33*%
%ADD34R,0.034646X0.035039*%
%ADD35R,0.032283X0.033858*%
%ADD36R,0.035433X0.011811*%
%ADD37R,0.011811X0.035433*%
%ADD38R,0.088582X0.039370*%
%ADD39C,0.045275*%
%ADD40C,0.064960*%
%ADD41C,0.029527*%
%LNdeck-1*%
%LPD*%
G54D27*
X00519Y00261D03*
X00597D03*
G54D28*
X00437Y00968D03*
Y00933D03*
X00348Y00804D03*
Y0084D03*
X00308Y00804D03*
Y0084D03*
X00478Y00933D03*
Y00968D03*
G54D29*
X00568Y00875D03*
X00604D03*
Y00833D03*
X00568D03*
X00604Y0079D03*
X00568D03*
X00604Y00748D03*
X00568D03*
X00844Y00384D03*
X00808D03*
X00676Y01004D03*
X0064D03*
X00682Y00326D03*
X00717D03*
X00682Y00286D03*
X00717D03*
X00644Y00563D03*
X0068D03*
X00644Y00616D03*
X0068D03*
X00512Y00563D03*
X00477D03*
X00512Y00616D03*
X00477D03*
G54D30*
X00486Y0034D03*
X00448D03*
X00599Y00562D03*
X0056D03*
G54D31*
X00578Y00334D03*
G54D32*
X00578Y00373D03*
Y00353D03*
X00548D03*
Y00334D03*
Y00373D03*
G54D33*
X00845Y00262D03*
Y00332D03*
X00707Y00384D03*
Y00454D03*
G54D34*
X006Y00615D03*
X00559D03*
G54D35*
X00646Y00424D03*
Y00386D03*
G54D36*
X00422Y00847D03*
Y00832D03*
Y00816D03*
Y008D03*
X00493D03*
Y00816D03*
Y00832D03*
Y00847D03*
G54D37*
X00434Y00773D03*
X00449D03*
X00465D03*
X00481D03*
Y00875D03*
X00465D03*
X00449D03*
X00434D03*
G54D38*
X00206Y00962D03*
Y00804D03*
Y00647D03*
Y00489D03*
Y00332D03*
X00084Y00883D03*
Y00725D03*
Y0041D03*
Y00253D03*
Y00568D03*
X01072Y00962D03*
Y00804D03*
Y00647D03*
Y00489D03*
Y00332D03*
X0095Y00883D03*
Y00725D03*
Y0041D03*
Y00253D03*
Y00568D03*
G54D39*
X00504Y00078D03*
X00554D03*
X00604D03*
X00704D03*
X00654D03*
X00754D03*
X00404D03*
X00454D03*
X00653Y01135D03*
X00603D03*
X00553D03*
X00453D03*
X00503D03*
X00403D03*
X00753D03*
X00703D03*
G54D40*
X00145Y0041D03*
Y00253D03*
Y00332D03*
Y00647D03*
Y00489D03*
Y00568D03*
Y00883D03*
Y00725D03*
Y00804D03*
Y00962D03*
X01011Y0041D03*
Y00253D03*
Y00332D03*
Y00647D03*
Y00489D03*
Y00568D03*
Y00883D03*
Y00725D03*
Y00804D03*
Y00962D03*
G54D41*
X00279Y01053D03*
M02*