%FSTAX23Y23*%
%MOIN*%
%SFA1B1*%

%IPPOS*%
%ADD59C,0.002665*%
%ADD60C,0.002000*%
%LNdeck-1*%
%LPD*%
G54D59*
X00512Y00078D02*
D01*
X00512Y00079*
X00511Y00079*
X00511Y0008*
X00511Y0008*
X00511Y00081*
X00511Y00081*
X00511Y00082*
X0051Y00082*
X0051Y00083*
X0051Y00083*
X00509Y00084*
X00509Y00084*
X00508Y00085*
X00508Y00085*
X00508Y00085*
X00507Y00085*
X00507Y00086*
X00506Y00086*
X00505Y00086*
X00505Y00086*
X00504Y00086*
X00504Y00086*
X00503*
X00503Y00086*
X00502Y00086*
X00502Y00086*
X00501Y00086*
X00501Y00086*
X005Y00085*
X005Y00085*
X00499Y00085*
X00499Y00085*
X00498Y00084*
X00498Y00084*
X00497Y00083*
X00497Y00083*
X00497Y00082*
X00496Y00082*
X00496Y00081*
X00496Y00081*
X00496Y0008*
X00496Y0008*
X00496Y00079*
X00496Y00079*
X00496Y00078*
X00496Y00078*
X00496Y00077*
X00496Y00077*
X00496Y00076*
X00496Y00076*
X00496Y00075*
X00496Y00074*
X00497Y00074*
X00497Y00074*
X00497Y00073*
X00498Y00073*
X00498Y00072*
X00499Y00072*
X00499Y00072*
X005Y00071*
X005Y00071*
X00501Y00071*
X00501Y00071*
X00502Y0007*
X00502Y0007*
X00503Y0007*
X00503Y0007*
X00504*
X00504Y0007*
X00505Y0007*
X00505Y0007*
X00506Y00071*
X00507Y00071*
X00507Y00071*
X00508Y00071*
X00508Y00072*
X00508Y00072*
X00509Y00072*
X00509Y00073*
X0051Y00073*
X0051Y00074*
X0051Y00074*
X00511Y00074*
X00511Y00075*
X00511Y00076*
X00511Y00076*
X00511Y00077*
X00511Y00077*
X00512Y00078*
X00512Y00078*
X00562D02*
D01*
X00562Y00079*
X00561Y00079*
X00561Y0008*
X00561Y0008*
X00561Y00081*
X00561Y00081*
X00561Y00082*
X0056Y00082*
X0056Y00083*
X0056Y00083*
X00559Y00084*
X00559Y00084*
X00558Y00085*
X00558Y00085*
X00558Y00085*
X00557Y00085*
X00557Y00086*
X00556Y00086*
X00555Y00086*
X00555Y00086*
X00554Y00086*
X00554Y00086*
X00553*
X00553Y00086*
X00552Y00086*
X00552Y00086*
X00551Y00086*
X00551Y00086*
X0055Y00085*
X0055Y00085*
X00549Y00085*
X00549Y00085*
X00548Y00084*
X00548Y00084*
X00547Y00083*
X00547Y00083*
X00547Y00082*
X00546Y00082*
X00546Y00081*
X00546Y00081*
X00546Y0008*
X00546Y0008*
X00546Y00079*
X00546Y00079*
X00546Y00078*
X00546Y00078*
X00546Y00077*
X00546Y00077*
X00546Y00076*
X00546Y00076*
X00546Y00075*
X00546Y00074*
X00547Y00074*
X00547Y00074*
X00547Y00073*
X00548Y00073*
X00548Y00072*
X00549Y00072*
X00549Y00072*
X0055Y00071*
X0055Y00071*
X00551Y00071*
X00551Y00071*
X00552Y0007*
X00552Y0007*
X00553Y0007*
X00553Y0007*
X00554*
X00554Y0007*
X00555Y0007*
X00555Y0007*
X00556Y00071*
X00557Y00071*
X00557Y00071*
X00558Y00071*
X00558Y00072*
X00558Y00072*
X00559Y00072*
X00559Y00073*
X0056Y00073*
X0056Y00074*
X0056Y00074*
X00561Y00074*
X00561Y00075*
X00561Y00076*
X00561Y00076*
X00561Y00077*
X00561Y00077*
X00562Y00078*
X00562Y00078*
X00612D02*
D01*
X00612Y00079*
X00611Y00079*
X00611Y0008*
X00611Y0008*
X00611Y00081*
X00611Y00081*
X00611Y00082*
X0061Y00082*
X0061Y00083*
X0061Y00083*
X00609Y00084*
X00609Y00084*
X00608Y00085*
X00608Y00085*
X00608Y00085*
X00607Y00085*
X00607Y00086*
X00606Y00086*
X00605Y00086*
X00605Y00086*
X00604Y00086*
X00604Y00086*
X00603*
X00603Y00086*
X00602Y00086*
X00602Y00086*
X00601Y00086*
X00601Y00086*
X006Y00085*
X006Y00085*
X00599Y00085*
X00599Y00085*
X00598Y00084*
X00598Y00084*
X00597Y00083*
X00597Y00083*
X00597Y00082*
X00596Y00082*
X00596Y00081*
X00596Y00081*
X00596Y0008*
X00596Y0008*
X00596Y00079*
X00596Y00079*
X00596Y00078*
X00596Y00078*
X00596Y00077*
X00596Y00077*
X00596Y00076*
X00596Y00076*
X00596Y00075*
X00596Y00074*
X00597Y00074*
X00597Y00074*
X00597Y00073*
X00598Y00073*
X00598Y00072*
X00599Y00072*
X00599Y00072*
X006Y00071*
X006Y00071*
X00601Y00071*
X00601Y00071*
X00602Y0007*
X00602Y0007*
X00603Y0007*
X00603Y0007*
X00604*
X00604Y0007*
X00605Y0007*
X00605Y0007*
X00606Y00071*
X00607Y00071*
X00607Y00071*
X00608Y00071*
X00608Y00072*
X00608Y00072*
X00609Y00072*
X00609Y00073*
X0061Y00073*
X0061Y00074*
X0061Y00074*
X00611Y00074*
X00611Y00075*
X00611Y00076*
X00611Y00076*
X00611Y00077*
X00611Y00077*
X00612Y00078*
X00612Y00078*
X00712D02*
D01*
X00712Y00079*
X00711Y00079*
X00711Y0008*
X00711Y0008*
X00711Y00081*
X00711Y00081*
X00711Y00082*
X0071Y00082*
X0071Y00083*
X0071Y00083*
X00709Y00084*
X00709Y00084*
X00708Y00085*
X00708Y00085*
X00708Y00085*
X00707Y00085*
X00707Y00086*
X00706Y00086*
X00705Y00086*
X00705Y00086*
X00704Y00086*
X00704Y00086*
X00703*
X00703Y00086*
X00702Y00086*
X00702Y00086*
X00701Y00086*
X00701Y00086*
X007Y00085*
X007Y00085*
X00699Y00085*
X00699Y00085*
X00698Y00084*
X00698Y00084*
X00697Y00083*
X00697Y00083*
X00697Y00082*
X00696Y00082*
X00696Y00081*
X00696Y00081*
X00696Y0008*
X00696Y0008*
X00696Y00079*
X00696Y00079*
X00696Y00078*
X00696Y00078*
X00696Y00077*
X00696Y00077*
X00696Y00076*
X00696Y00076*
X00696Y00075*
X00696Y00074*
X00697Y00074*
X00697Y00074*
X00697Y00073*
X00698Y00073*
X00698Y00072*
X00699Y00072*
X00699Y00072*
X007Y00071*
X007Y00071*
X00701Y00071*
X00701Y00071*
X00702Y0007*
X00702Y0007*
X00703Y0007*
X00703Y0007*
X00704*
X00704Y0007*
X00705Y0007*
X00705Y0007*
X00706Y00071*
X00707Y00071*
X00707Y00071*
X00708Y00071*
X00708Y00072*
X00708Y00072*
X00709Y00072*
X00709Y00073*
X0071Y00073*
X0071Y00074*
X0071Y00074*
X00711Y00074*
X00711Y00075*
X00711Y00076*
X00711Y00076*
X00711Y00077*
X00711Y00077*
X00712Y00078*
X00712Y00078*
X00662D02*
D01*
X00662Y00079*
X00661Y00079*
X00661Y0008*
X00661Y0008*
X00661Y00081*
X00661Y00081*
X00661Y00082*
X0066Y00082*
X0066Y00083*
X0066Y00083*
X00659Y00084*
X00659Y00084*
X00658Y00085*
X00658Y00085*
X00658Y00085*
X00657Y00085*
X00657Y00086*
X00656Y00086*
X00655Y00086*
X00655Y00086*
X00654Y00086*
X00654Y00086*
X00653*
X00653Y00086*
X00652Y00086*
X00652Y00086*
X00651Y00086*
X00651Y00086*
X0065Y00085*
X0065Y00085*
X00649Y00085*
X00649Y00085*
X00648Y00084*
X00648Y00084*
X00647Y00083*
X00647Y00083*
X00647Y00082*
X00646Y00082*
X00646Y00081*
X00646Y00081*
X00646Y0008*
X00646Y0008*
X00646Y00079*
X00646Y00079*
X00646Y00078*
X00646Y00078*
X00646Y00077*
X00646Y00077*
X00646Y00076*
X00646Y00076*
X00646Y00075*
X00646Y00074*
X00647Y00074*
X00647Y00074*
X00647Y00073*
X00648Y00073*
X00648Y00072*
X00649Y00072*
X00649Y00072*
X0065Y00071*
X0065Y00071*
X00651Y00071*
X00651Y00071*
X00652Y0007*
X00652Y0007*
X00653Y0007*
X00653Y0007*
X00654*
X00654Y0007*
X00655Y0007*
X00655Y0007*
X00656Y00071*
X00657Y00071*
X00657Y00071*
X00658Y00071*
X00658Y00072*
X00658Y00072*
X00659Y00072*
X00659Y00073*
X0066Y00073*
X0066Y00074*
X0066Y00074*
X00661Y00074*
X00661Y00075*
X00661Y00076*
X00661Y00076*
X00661Y00077*
X00661Y00077*
X00662Y00078*
X00662Y00078*
X00762D02*
D01*
X00762Y00079*
X00761Y00079*
X00761Y0008*
X00761Y0008*
X00761Y00081*
X00761Y00081*
X00761Y00082*
X0076Y00082*
X0076Y00083*
X0076Y00083*
X00759Y00084*
X00759Y00084*
X00758Y00085*
X00758Y00085*
X00758Y00085*
X00757Y00085*
X00757Y00086*
X00756Y00086*
X00755Y00086*
X00755Y00086*
X00754Y00086*
X00754Y00086*
X00753*
X00753Y00086*
X00752Y00086*
X00752Y00086*
X00751Y00086*
X00751Y00086*
X0075Y00085*
X0075Y00085*
X00749Y00085*
X00749Y00085*
X00748Y00084*
X00748Y00084*
X00747Y00083*
X00747Y00083*
X00747Y00082*
X00746Y00082*
X00746Y00081*
X00746Y00081*
X00746Y0008*
X00746Y0008*
X00746Y00079*
X00746Y00079*
X00746Y00078*
X00746Y00078*
X00746Y00077*
X00746Y00077*
X00746Y00076*
X00746Y00076*
X00746Y00075*
X00746Y00074*
X00747Y00074*
X00747Y00074*
X00747Y00073*
X00748Y00073*
X00748Y00072*
X00749Y00072*
X00749Y00072*
X0075Y00071*
X0075Y00071*
X00751Y00071*
X00751Y00071*
X00752Y0007*
X00752Y0007*
X00753Y0007*
X00753Y0007*
X00754*
X00754Y0007*
X00755Y0007*
X00755Y0007*
X00756Y00071*
X00757Y00071*
X00757Y00071*
X00758Y00071*
X00758Y00072*
X00758Y00072*
X00759Y00072*
X00759Y00073*
X0076Y00073*
X0076Y00074*
X0076Y00074*
X00761Y00074*
X00761Y00075*
X00761Y00076*
X00761Y00076*
X00761Y00077*
X00761Y00077*
X00762Y00078*
X00762Y00078*
X00412D02*
D01*
X00412Y00079*
X00411Y00079*
X00411Y0008*
X00411Y0008*
X00411Y00081*
X00411Y00081*
X00411Y00082*
X0041Y00082*
X0041Y00083*
X0041Y00083*
X00409Y00084*
X00409Y00084*
X00408Y00085*
X00408Y00085*
X00408Y00085*
X00407Y00085*
X00407Y00086*
X00406Y00086*
X00405Y00086*
X00405Y00086*
X00404Y00086*
X00404Y00086*
X00403*
X00403Y00086*
X00402Y00086*
X00402Y00086*
X00401Y00086*
X00401Y00086*
X004Y00085*
X004Y00085*
X00399Y00085*
X00399Y00085*
X00398Y00084*
X00398Y00084*
X00397Y00083*
X00397Y00083*
X00397Y00082*
X00396Y00082*
X00396Y00081*
X00396Y00081*
X00396Y0008*
X00396Y0008*
X00396Y00079*
X00396Y00079*
X00396Y00078*
X00396Y00078*
X00396Y00077*
X00396Y00077*
X00396Y00076*
X00396Y00076*
X00396Y00075*
X00396Y00074*
X00397Y00074*
X00397Y00074*
X00397Y00073*
X00398Y00073*
X00398Y00072*
X00399Y00072*
X00399Y00072*
X004Y00071*
X004Y00071*
X00401Y00071*
X00401Y00071*
X00402Y0007*
X00402Y0007*
X00403Y0007*
X00403Y0007*
X00404*
X00404Y0007*
X00405Y0007*
X00405Y0007*
X00406Y00071*
X00407Y00071*
X00407Y00071*
X00408Y00071*
X00408Y00072*
X00408Y00072*
X00409Y00072*
X00409Y00073*
X0041Y00073*
X0041Y00074*
X0041Y00074*
X00411Y00074*
X00411Y00075*
X00411Y00076*
X00411Y00076*
X00411Y00077*
X00411Y00077*
X00412Y00078*
X00412Y00078*
X00462D02*
D01*
X00462Y00079*
X00461Y00079*
X00461Y0008*
X00461Y0008*
X00461Y00081*
X00461Y00081*
X00461Y00082*
X0046Y00082*
X0046Y00083*
X0046Y00083*
X00459Y00084*
X00459Y00084*
X00458Y00085*
X00458Y00085*
X00458Y00085*
X00457Y00085*
X00457Y00086*
X00456Y00086*
X00455Y00086*
X00455Y00086*
X00454Y00086*
X00454Y00086*
X00453*
X00453Y00086*
X00452Y00086*
X00452Y00086*
X00451Y00086*
X00451Y00086*
X0045Y00085*
X0045Y00085*
X00449Y00085*
X00449Y00085*
X00448Y00084*
X00448Y00084*
X00447Y00083*
X00447Y00083*
X00447Y00082*
X00446Y00082*
X00446Y00081*
X00446Y00081*
X00446Y0008*
X00446Y0008*
X00446Y00079*
X00446Y00079*
X00446Y00078*
X00446Y00078*
X00446Y00077*
X00446Y00077*
X00446Y00076*
X00446Y00076*
X00446Y00075*
X00446Y00074*
X00447Y00074*
X00447Y00074*
X00447Y00073*
X00448Y00073*
X00448Y00072*
X00449Y00072*
X00449Y00072*
X0045Y00071*
X0045Y00071*
X00451Y00071*
X00451Y00071*
X00452Y0007*
X00452Y0007*
X00453Y0007*
X00453Y0007*
X00454*
X00454Y0007*
X00455Y0007*
X00455Y0007*
X00456Y00071*
X00457Y00071*
X00457Y00071*
X00458Y00071*
X00458Y00072*
X00458Y00072*
X00459Y00072*
X00459Y00073*
X0046Y00073*
X0046Y00074*
X0046Y00074*
X00461Y00074*
X00461Y00075*
X00461Y00076*
X00461Y00076*
X00461Y00077*
X00461Y00077*
X00462Y00078*
X00462Y00078*
X00661Y01135D02*
D01*
X00661Y01136*
X00661Y01136*
X00661Y01137*
X0066Y01138*
X0066Y01138*
X0066Y01139*
X0066Y01139*
X0066Y0114*
X00659Y0114*
X00659Y0114*
X00659Y01141*
X00658Y01141*
X00658Y01142*
X00657Y01142*
X00657Y01142*
X00656Y01143*
X00656Y01143*
X00655Y01143*
X00655Y01143*
X00654Y01143*
X00654Y01143*
X00653Y01143*
X00653*
X00652Y01143*
X00651Y01143*
X00651Y01143*
X0065Y01143*
X0065Y01143*
X00649Y01143*
X00649Y01142*
X00648Y01142*
X00648Y01142*
X00647Y01141*
X00647Y01141*
X00647Y0114*
X00646Y0114*
X00646Y0114*
X00646Y01139*
X00645Y01139*
X00645Y01138*
X00645Y01138*
X00645Y01137*
X00645Y01136*
X00645Y01136*
X00645Y01135*
X00645Y01135*
X00645Y01134*
X00645Y01134*
X00645Y01133*
X00645Y01133*
X00645Y01132*
X00646Y01132*
X00646Y01131*
X00646Y01131*
X00647Y0113*
X00647Y0113*
X00647Y01129*
X00648Y01129*
X00648Y01129*
X00649Y01128*
X00649Y01128*
X0065Y01128*
X0065Y01128*
X00651Y01128*
X00651Y01127*
X00652Y01127*
X00653Y01127*
X00653*
X00654Y01127*
X00654Y01127*
X00655Y01128*
X00655Y01128*
X00656Y01128*
X00656Y01128*
X00657Y01128*
X00657Y01129*
X00658Y01129*
X00658Y01129*
X00659Y0113*
X00659Y0113*
X00659Y01131*
X0066Y01131*
X0066Y01132*
X0066Y01132*
X0066Y01133*
X0066Y01133*
X00661Y01134*
X00661Y01134*
X00661Y01135*
X00661Y01135*
X00611D02*
D01*
X00611Y01136*
X00611Y01136*
X00611Y01137*
X0061Y01138*
X0061Y01138*
X0061Y01139*
X0061Y01139*
X0061Y0114*
X00609Y0114*
X00609Y0114*
X00609Y01141*
X00608Y01141*
X00608Y01142*
X00607Y01142*
X00607Y01142*
X00606Y01143*
X00606Y01143*
X00605Y01143*
X00605Y01143*
X00604Y01143*
X00604Y01143*
X00603Y01143*
X00603*
X00602Y01143*
X00601Y01143*
X00601Y01143*
X006Y01143*
X006Y01143*
X00599Y01143*
X00599Y01142*
X00598Y01142*
X00598Y01142*
X00597Y01141*
X00597Y01141*
X00597Y0114*
X00596Y0114*
X00596Y0114*
X00596Y01139*
X00595Y01139*
X00595Y01138*
X00595Y01138*
X00595Y01137*
X00595Y01136*
X00595Y01136*
X00595Y01135*
X00595Y01135*
X00595Y01134*
X00595Y01134*
X00595Y01133*
X00595Y01133*
X00595Y01132*
X00596Y01132*
X00596Y01131*
X00596Y01131*
X00597Y0113*
X00597Y0113*
X00597Y01129*
X00598Y01129*
X00598Y01129*
X00599Y01128*
X00599Y01128*
X006Y01128*
X006Y01128*
X00601Y01128*
X00601Y01127*
X00602Y01127*
X00603Y01127*
X00603*
X00604Y01127*
X00604Y01127*
X00605Y01128*
X00605Y01128*
X00606Y01128*
X00606Y01128*
X00607Y01128*
X00607Y01129*
X00608Y01129*
X00608Y01129*
X00609Y0113*
X00609Y0113*
X00609Y01131*
X0061Y01131*
X0061Y01132*
X0061Y01132*
X0061Y01133*
X0061Y01133*
X00611Y01134*
X00611Y01134*
X00611Y01135*
X00611Y01135*
X00561D02*
D01*
X00561Y01136*
X00561Y01136*
X00561Y01137*
X0056Y01138*
X0056Y01138*
X0056Y01139*
X0056Y01139*
X0056Y0114*
X00559Y0114*
X00559Y0114*
X00559Y01141*
X00558Y01141*
X00558Y01142*
X00557Y01142*
X00557Y01142*
X00556Y01143*
X00556Y01143*
X00555Y01143*
X00555Y01143*
X00554Y01143*
X00554Y01143*
X00553Y01143*
X00553*
X00552Y01143*
X00551Y01143*
X00551Y01143*
X0055Y01143*
X0055Y01143*
X00549Y01143*
X00549Y01142*
X00548Y01142*
X00548Y01142*
X00547Y01141*
X00547Y01141*
X00547Y0114*
X00546Y0114*
X00546Y0114*
X00546Y01139*
X00545Y01139*
X00545Y01138*
X00545Y01138*
X00545Y01137*
X00545Y01136*
X00545Y01136*
X00545Y01135*
X00545Y01135*
X00545Y01134*
X00545Y01134*
X00545Y01133*
X00545Y01133*
X00545Y01132*
X00546Y01132*
X00546Y01131*
X00546Y01131*
X00547Y0113*
X00547Y0113*
X00547Y01129*
X00548Y01129*
X00548Y01129*
X00549Y01128*
X00549Y01128*
X0055Y01128*
X0055Y01128*
X00551Y01128*
X00551Y01127*
X00552Y01127*
X00553Y01127*
X00553*
X00554Y01127*
X00554Y01127*
X00555Y01128*
X00555Y01128*
X00556Y01128*
X00556Y01128*
X00557Y01128*
X00557Y01129*
X00558Y01129*
X00558Y01129*
X00559Y0113*
X00559Y0113*
X00559Y01131*
X0056Y01131*
X0056Y01132*
X0056Y01132*
X0056Y01133*
X0056Y01133*
X00561Y01134*
X00561Y01134*
X00561Y01135*
X00561Y01135*
X00461D02*
D01*
X00461Y01136*
X00461Y01136*
X00461Y01137*
X0046Y01138*
X0046Y01138*
X0046Y01139*
X0046Y01139*
X0046Y0114*
X00459Y0114*
X00459Y0114*
X00459Y01141*
X00458Y01141*
X00458Y01142*
X00457Y01142*
X00457Y01142*
X00456Y01143*
X00456Y01143*
X00455Y01143*
X00455Y01143*
X00454Y01143*
X00454Y01143*
X00453Y01143*
X00453*
X00452Y01143*
X00451Y01143*
X00451Y01143*
X0045Y01143*
X0045Y01143*
X00449Y01143*
X00449Y01142*
X00448Y01142*
X00448Y01142*
X00447Y01141*
X00447Y01141*
X00447Y0114*
X00446Y0114*
X00446Y0114*
X00446Y01139*
X00445Y01139*
X00445Y01138*
X00445Y01138*
X00445Y01137*
X00445Y01136*
X00445Y01136*
X00445Y01135*
X00445Y01135*
X00445Y01134*
X00445Y01134*
X00445Y01133*
X00445Y01133*
X00445Y01132*
X00446Y01132*
X00446Y01131*
X00446Y01131*
X00447Y0113*
X00447Y0113*
X00447Y01129*
X00448Y01129*
X00448Y01129*
X00449Y01128*
X00449Y01128*
X0045Y01128*
X0045Y01128*
X00451Y01128*
X00451Y01127*
X00452Y01127*
X00453Y01127*
X00453*
X00454Y01127*
X00454Y01127*
X00455Y01128*
X00455Y01128*
X00456Y01128*
X00456Y01128*
X00457Y01128*
X00457Y01129*
X00458Y01129*
X00458Y01129*
X00459Y0113*
X00459Y0113*
X00459Y01131*
X0046Y01131*
X0046Y01132*
X0046Y01132*
X0046Y01133*
X0046Y01133*
X00461Y01134*
X00461Y01134*
X00461Y01135*
X00461Y01135*
X00511D02*
D01*
X00511Y01136*
X00511Y01136*
X00511Y01137*
X0051Y01138*
X0051Y01138*
X0051Y01139*
X0051Y01139*
X0051Y0114*
X00509Y0114*
X00509Y0114*
X00509Y01141*
X00508Y01141*
X00508Y01142*
X00507Y01142*
X00507Y01142*
X00506Y01143*
X00506Y01143*
X00505Y01143*
X00505Y01143*
X00504Y01143*
X00504Y01143*
X00503Y01143*
X00503*
X00502Y01143*
X00501Y01143*
X00501Y01143*
X005Y01143*
X005Y01143*
X00499Y01143*
X00499Y01142*
X00498Y01142*
X00498Y01142*
X00497Y01141*
X00497Y01141*
X00497Y0114*
X00496Y0114*
X00496Y0114*
X00496Y01139*
X00495Y01139*
X00495Y01138*
X00495Y01138*
X00495Y01137*
X00495Y01136*
X00495Y01136*
X00495Y01135*
X00495Y01135*
X00495Y01134*
X00495Y01134*
X00495Y01133*
X00495Y01133*
X00495Y01132*
X00496Y01132*
X00496Y01131*
X00496Y01131*
X00497Y0113*
X00497Y0113*
X00497Y01129*
X00498Y01129*
X00498Y01129*
X00499Y01128*
X00499Y01128*
X005Y01128*
X005Y01128*
X00501Y01128*
X00501Y01127*
X00502Y01127*
X00503Y01127*
X00503*
X00504Y01127*
X00504Y01127*
X00505Y01128*
X00505Y01128*
X00506Y01128*
X00506Y01128*
X00507Y01128*
X00507Y01129*
X00508Y01129*
X00508Y01129*
X00509Y0113*
X00509Y0113*
X00509Y01131*
X0051Y01131*
X0051Y01132*
X0051Y01132*
X0051Y01133*
X0051Y01133*
X00511Y01134*
X00511Y01134*
X00511Y01135*
X00511Y01135*
X00411D02*
D01*
X00411Y01136*
X00411Y01136*
X00411Y01137*
X0041Y01138*
X0041Y01138*
X0041Y01139*
X0041Y01139*
X0041Y0114*
X00409Y0114*
X00409Y0114*
X00409Y01141*
X00408Y01141*
X00408Y01142*
X00407Y01142*
X00407Y01142*
X00406Y01143*
X00406Y01143*
X00405Y01143*
X00405Y01143*
X00404Y01143*
X00404Y01143*
X00403Y01143*
X00403*
X00402Y01143*
X00401Y01143*
X00401Y01143*
X004Y01143*
X004Y01143*
X00399Y01143*
X00399Y01142*
X00398Y01142*
X00398Y01142*
X00397Y01141*
X00397Y01141*
X00397Y0114*
X00396Y0114*
X00396Y0114*
X00396Y01139*
X00395Y01139*
X00395Y01138*
X00395Y01138*
X00395Y01137*
X00395Y01136*
X00395Y01136*
X00395Y01135*
X00395Y01135*
X00395Y01134*
X00395Y01134*
X00395Y01133*
X00395Y01133*
X00395Y01132*
X00396Y01132*
X00396Y01131*
X00396Y01131*
X00397Y0113*
X00397Y0113*
X00397Y01129*
X00398Y01129*
X00398Y01129*
X00399Y01128*
X00399Y01128*
X004Y01128*
X004Y01128*
X00401Y01128*
X00401Y01127*
X00402Y01127*
X00403Y01127*
X00403*
X00404Y01127*
X00404Y01127*
X00405Y01128*
X00405Y01128*
X00406Y01128*
X00406Y01128*
X00407Y01128*
X00407Y01129*
X00408Y01129*
X00408Y01129*
X00409Y0113*
X00409Y0113*
X00409Y01131*
X0041Y01131*
X0041Y01132*
X0041Y01132*
X0041Y01133*
X0041Y01133*
X00411Y01134*
X00411Y01134*
X00411Y01135*
X00411Y01135*
X00761D02*
D01*
X00761Y01136*
X00761Y01136*
X00761Y01137*
X0076Y01138*
X0076Y01138*
X0076Y01139*
X0076Y01139*
X0076Y0114*
X00759Y0114*
X00759Y0114*
X00759Y01141*
X00758Y01141*
X00758Y01142*
X00757Y01142*
X00757Y01142*
X00756Y01143*
X00756Y01143*
X00755Y01143*
X00755Y01143*
X00754Y01143*
X00754Y01143*
X00753Y01143*
X00753*
X00752Y01143*
X00751Y01143*
X00751Y01143*
X0075Y01143*
X0075Y01143*
X00749Y01143*
X00749Y01142*
X00748Y01142*
X00748Y01142*
X00747Y01141*
X00747Y01141*
X00747Y0114*
X00746Y0114*
X00746Y0114*
X00746Y01139*
X00745Y01139*
X00745Y01138*
X00745Y01138*
X00745Y01137*
X00745Y01136*
X00745Y01136*
X00745Y01135*
X00745Y01135*
X00745Y01134*
X00745Y01134*
X00745Y01133*
X00745Y01133*
X00745Y01132*
X00746Y01132*
X00746Y01131*
X00746Y01131*
X00747Y0113*
X00747Y0113*
X00747Y01129*
X00748Y01129*
X00748Y01129*
X00749Y01128*
X00749Y01128*
X0075Y01128*
X0075Y01128*
X00751Y01128*
X00751Y01127*
X00752Y01127*
X00753Y01127*
X00753*
X00754Y01127*
X00754Y01127*
X00755Y01128*
X00755Y01128*
X00756Y01128*
X00756Y01128*
X00757Y01128*
X00757Y01129*
X00758Y01129*
X00758Y01129*
X00759Y0113*
X00759Y0113*
X00759Y01131*
X0076Y01131*
X0076Y01132*
X0076Y01132*
X0076Y01133*
X0076Y01133*
X00761Y01134*
X00761Y01134*
X00761Y01135*
X00761Y01135*
X00711D02*
D01*
X00711Y01136*
X00711Y01136*
X00711Y01137*
X0071Y01138*
X0071Y01138*
X0071Y01139*
X0071Y01139*
X0071Y0114*
X00709Y0114*
X00709Y0114*
X00709Y01141*
X00708Y01141*
X00708Y01142*
X00707Y01142*
X00707Y01142*
X00706Y01143*
X00706Y01143*
X00705Y01143*
X00705Y01143*
X00704Y01143*
X00704Y01143*
X00703Y01143*
X00703*
X00702Y01143*
X00701Y01143*
X00701Y01143*
X007Y01143*
X007Y01143*
X00699Y01143*
X00699Y01142*
X00698Y01142*
X00698Y01142*
X00697Y01141*
X00697Y01141*
X00697Y0114*
X00696Y0114*
X00696Y0114*
X00696Y01139*
X00695Y01139*
X00695Y01138*
X00695Y01138*
X00695Y01137*
X00695Y01136*
X00695Y01136*
X00695Y01135*
X00695Y01135*
X00695Y01134*
X00695Y01134*
X00695Y01133*
X00695Y01133*
X00695Y01132*
X00696Y01132*
X00696Y01131*
X00696Y01131*
X00697Y0113*
X00697Y0113*
X00697Y01129*
X00698Y01129*
X00698Y01129*
X00699Y01128*
X00699Y01128*
X007Y01128*
X007Y01128*
X00701Y01128*
X00701Y01127*
X00702Y01127*
X00703Y01127*
X00703*
X00704Y01127*
X00704Y01127*
X00705Y01128*
X00705Y01128*
X00706Y01128*
X00706Y01128*
X00707Y01128*
X00707Y01129*
X00708Y01129*
X00708Y01129*
X00709Y0113*
X00709Y0113*
X00709Y01131*
X0071Y01131*
X0071Y01132*
X0071Y01132*
X0071Y01133*
X0071Y01133*
X00711Y01134*
X00711Y01134*
X00711Y01135*
X00711Y01135*
G54D60*
X00137Y00402D02*
Y00418D01*
X00153*
Y00402*
X00137*
Y00245D02*
Y00261D01*
X00153*
Y00245*
X00137*
Y00324D02*
Y0034D01*
X00153*
Y00324*
X00137*
Y00639D02*
Y00655D01*
X00153*
Y00639*
X00137*
Y00481D02*
Y00497D01*
X00153*
Y00481*
X00137*
Y0056D02*
Y00576D01*
X00153*
Y0056*
X00137*
Y00875D02*
Y00891D01*
X00153*
Y00875*
X00137*
Y00717D02*
Y00733D01*
X00153*
Y00717*
X00137*
Y00796D02*
Y00812D01*
X00153*
Y00796*
X00137*
Y00954D02*
Y0097D01*
X00153*
Y00954*
X00137*
X01003Y00402D02*
Y00418D01*
X01019*
Y00402*
X01003*
Y00245D02*
Y00261D01*
X01019*
Y00245*
X01003*
Y00324D02*
Y0034D01*
X01019*
Y00324*
X01003*
Y00639D02*
Y00655D01*
X01019*
Y00639*
X01003*
Y00481D02*
Y00497D01*
X01019*
Y00481*
X01003*
Y0056D02*
Y00576D01*
X01019*
Y0056*
X01003*
Y00875D02*
Y00891D01*
X01019*
Y00875*
X01003*
Y00717D02*
Y00733D01*
X01019*
Y00717*
X01003*
Y00796D02*
Y00812D01*
X01019*
Y00796*
X01003*
Y00954D02*
Y0097D01*
X01019*
Y00954*
X01003*
X0049Y00667D02*
X00494Y00671D01*
X00498*
X00494Y00675*
X00498Y00679*
X00494*
X0049Y00683*
X00486Y00679*
X00482*
X00486Y00675*
X00482Y00671*
X00486*
X0049Y00667*
X00606Y005D02*
X0061Y00504D01*
X00614*
X0061Y00508*
X00614Y00512*
X0061*
X00606Y00516*
X00602Y00512*
X00598*
X00602Y00508*
X00598Y00504*
X00602*
X00606Y005*
X00678Y00199D02*
X00682Y00203D01*
X00686*
X00682Y00207*
X00686Y00211*
X00682*
X00678Y00215*
X00674Y00211*
X0067*
X00674Y00207*
X0067Y00203*
X00674*
X00678Y00199*
X00279Y01045D02*
X00283Y01049D01*
X00287*
X00283Y01053*
X00287Y01057*
X00283*
X00279Y01061*
X00275Y01057*
X00271*
X00275Y01053*
X00271Y01049*
X00275*
X00279Y01045*
X00339Y00438D02*
X00343Y00442D01*
X00347*
X00343Y00446*
X00347Y0045*
X00343*
X00339Y00454*
X00335Y0045*
X00331*
X00335Y00446*
X00331Y00442*
X00335*
X00339Y00438*
X00521Y00721D02*
X00525Y00725D01*
X00529*
X00525Y00729*
X00529Y00733*
X00525*
X00521Y00737*
X00517Y00733*
X00513*
X00517Y00729*
X00513Y00725*
X00517*
X00521Y00721*
X0033Y007D02*
X00334Y00704D01*
X00338*
X00334Y00708*
X00338Y00712*
X00334*
X0033Y00716*
X00326Y00712*
X00322*
X00326Y00708*
X00322Y00704*
X00326*
X0033Y007*
X00857Y00324D02*
X00861Y00328D01*
X00865*
X00861Y00332*
X00865Y00336*
X00861*
X00857Y0034*
X00853Y00336*
X00849*
X00853Y00332*
X00849Y00328*
X00853*
X00857Y00324*
X00828Y00323D02*
X00832Y00327D01*
X00836*
X00832Y00331*
X00836Y00335*
X00832*
X00828Y00339*
X00824Y00335*
X0082*
X00824Y00331*
X0082Y00327*
X00824*
X00828Y00323*
X00626Y0074D02*
X0063Y00744D01*
X00634*
X0063Y00748*
X00634Y00752*
X0063*
X00626Y00756*
X00622Y00752*
X00618*
X00622Y00748*
X00618Y00744*
X00622*
X00626Y0074*
X0064Y00996D02*
X00644Y01D01*
X00648*
X00644Y01004*
X00648Y01008*
X00644*
X0064Y01012*
X00636Y01008*
X00632*
X00636Y01004*
X00632Y01*
X00636*
X0064Y00996*
X00563Y01036D02*
X00567Y0104D01*
X00571*
X00567Y01044*
X00571Y01048*
X00567*
X00563Y01052*
X00559Y01048*
X00555*
X00559Y01044*
X00555Y0104*
X00559*
X00563Y01036*
X00595Y00971D02*
X00599Y00975D01*
X00603*
X00599Y00979*
X00603Y00983*
X00599*
X00595Y00987*
X00591Y00983*
X00587*
X00591Y00979*
X00587Y00975*
X00591*
X00595Y00971*
X00569Y00944D02*
X00573Y00948D01*
X00577*
X00573Y00952*
X00577Y00956*
X00573*
X00569Y0096*
X00565Y00956*
X00561*
X00565Y00952*
X00561Y00948*
X00565*
X00569Y00944*
X00353Y00166D02*
X00357Y0017D01*
X00361*
X00357Y00174*
X00361Y00178*
X00357*
X00353Y00182*
X00349Y00178*
X00345*
X00349Y00174*
X00345Y0017*
X00349*
X00353Y00166*
X00383Y00138D02*
X00387Y00142D01*
X00391*
X00387Y00146*
X00391Y0015*
X00387*
X00383Y00154*
X00379Y0015*
X00375*
X00379Y00146*
X00375Y00142*
X00379*
X00383Y00138*
X00316Y0101D02*
X0032Y01014D01*
X00324*
X0032Y01018*
X00324Y01022*
X0032*
X00316Y01026*
X00312Y01022*
X00308*
X00312Y01018*
X00308Y01014*
X00312*
X00316Y0101*
X00644Y008D02*
X00648Y00804D01*
X00652*
X00648Y00808*
X00652Y00812*
X00648*
X00644Y00816*
X0064Y00812*
X00636*
X0064Y00808*
X00636Y00804*
X0064*
X00644Y008*
X00554Y00649D02*
X00558Y00653D01*
X00562*
X00558Y00657*
X00562Y00661*
X00558*
X00554Y00665*
X0055Y00661*
X00546*
X0055Y00657*
X00546Y00653*
X0055*
X00554Y00649*
X00607Y00313D02*
X00611Y00317D01*
X00615*
X00611Y00321*
X00615Y00325*
X00611*
X00607Y00329*
X00603Y00325*
X00599*
X00603Y00321*
X00599Y00317*
X00603*
X00607Y00313*
X00658Y00316D02*
X00662Y0032D01*
X00666*
X00662Y00324*
X00666Y00328*
X00662*
X00658Y00332*
X00654Y00328*
X0065*
X00654Y00324*
X0065Y0032*
X00654*
X00658Y00316*
X00404Y00926D02*
X00408Y0093D01*
X00412*
X00408Y00934*
X00412Y00938*
X00408*
X00404Y00942*
X004Y00938*
X00396*
X004Y00934*
X00396Y0093*
X004*
X00404Y00926*
X00437Y00619D02*
X00441Y00623D01*
X00445*
X00441Y00627*
X00445Y00631*
X00441*
X00437Y00635*
X00433Y00631*
X00429*
X00433Y00627*
X00429Y00623*
X00433*
X00437Y00619*
X00231Y00246D02*
X00235Y0025D01*
X00239*
X00235Y00254*
X00239Y00258*
X00235*
X00231Y00262*
X00227Y00258*
X00223*
X00227Y00254*
X00223Y0025*
X00227*
X00231Y00246*
X00508Y01051D02*
X00512Y01055D01*
X00516*
X00512Y01059*
X00516Y01063*
X00512*
X00508Y01067*
X00504Y01063*
X005*
X00504Y01059*
X005Y01055*
X00504*
X00508Y01051*
X00404Y0099D02*
X00408Y00994D01*
X00412*
X00408Y00998*
X00412Y01002*
X00408*
X00404Y01006*
X004Y01002*
X00396*
X004Y00998*
X00396Y00994*
X004*
X00404Y0099*
X00055Y00639D02*
X00059Y00643D01*
X00063*
X00059Y00647*
X00063Y00651*
X00059*
X00055Y00655*
X00051Y00651*
X00047*
X00051Y00647*
X00047Y00643*
X00051*
X00055Y00639*
X00637Y00867D02*
X00641Y00871D01*
X00645*
X00641Y00875*
X00645Y00879*
X00641*
X00637Y00883*
X00633Y00879*
X00629*
X00633Y00875*
X00629Y00871*
X00633*
X00637Y00867*
X00373Y00894D02*
X00377Y00898D01*
X00381*
X00377Y00902*
X00381Y00906*
X00377*
X00373Y0091*
X00369Y00906*
X00365*
X00369Y00902*
X00365Y00898*
X00369*
X00373Y00894*
X00726Y00517D02*
X0073Y00521D01*
X00734*
X0073Y00525*
X00734Y00529*
X0073*
X00726Y00533*
X00722Y00529*
X00718*
X00722Y00525*
X00718Y00521*
X00722*
X00726Y00517*
X00573Y0107D02*
X00577Y01074D01*
X00581*
X00577Y01078*
X00581Y01082*
X00577*
X00573Y01086*
X00569Y01082*
X00565*
X00569Y01078*
X00565Y01074*
X00569*
X00573Y0107*
X00568Y0074D02*
X00572Y00744D01*
X00576*
X00572Y00748*
X00576Y00752*
X00572*
X00568Y00756*
X00564Y00752*
X0056*
X00564Y00748*
X0056Y00744*
X00564*
X00568Y0074*
X00437Y00666D02*
X00441Y0067D01*
X00445*
X00441Y00674*
X00445Y00678*
X00441*
X00437Y00682*
X00433Y00678*
X00429*
X00433Y00674*
X00429Y0067*
X00433*
X00437Y00666*
X00434Y00704D02*
X00438Y00708D01*
X00442*
X00438Y00712*
X00442Y00716*
X00438*
X00434Y0072*
X0043Y00716*
X00426*
X0043Y00712*
X00426Y00708*
X0043*
X00434Y00704*
X00308Y00765D02*
X00312Y00769D01*
X00316*
X00312Y00773*
X00316Y00777*
X00312*
X00308Y00781*
X00304Y00777*
X003*
X00304Y00773*
X003Y00769*
X00304*
X00308Y00765*
X00427Y005D02*
X00431Y00504D01*
X00435*
X00431Y00508*
X00435Y00512*
X00431*
X00427Y00516*
X00423Y00512*
X00419*
X00423Y00508*
X00419Y00504*
X00423*
X00427Y005*
X00527Y00365D02*
X00531Y00369D01*
X00535*
X00531Y00373*
X00535Y00377*
X00531*
X00527Y00381*
X00523Y00377*
X00519*
X00523Y00373*
X00519Y00369*
X00523*
X00527Y00365*
X0048Y00166D02*
X00484Y0017D01*
X00488*
X00484Y00174*
X00488Y00178*
X00484*
X0048Y00182*
X00476Y00178*
X00472*
X00476Y00174*
X00472Y0017*
X00476*
X0048Y00166*
X0046Y00224D02*
X00464Y00228D01*
X00468*
X00464Y00232*
X00468Y00236*
X00464*
X0046Y0024*
X00456Y00236*
X00452*
X00456Y00232*
X00452Y00228*
X00456*
X0046Y00224*
X00338Y00095D02*
X00342Y00099D01*
X00346*
X00342Y00103*
X00346Y00107*
X00342*
X00338Y00111*
X00334Y00107*
X0033*
X00334Y00103*
X0033Y00099*
X00334*
X00338Y00095*
X00826Y00449D02*
X0083Y00453D01*
X00834*
X0083Y00457*
X00834Y00461*
X0083*
X00826Y00465*
X00822Y00461*
X00818*
X00822Y00457*
X00818Y00453*
X00822*
X00826Y00449*
Y00486D02*
X0083Y0049D01*
X00834*
X0083Y00494*
X00834Y00498*
X0083*
X00826Y00502*
X00822Y00498*
X00818*
X00822Y00494*
X00818Y0049*
X00822*
X00826Y00486*
X00873D02*
X00877Y0049D01*
X00881*
X00877Y00494*
X00881Y00498*
X00877*
X00873Y00502*
X00869Y00498*
X00865*
X00869Y00494*
X00865Y0049*
X00869*
X00873Y00486*
Y00452D02*
X00877Y00456D01*
X00881*
X00877Y0046*
X00881Y00464*
X00877*
X00873Y00468*
X00869Y00464*
X00865*
X00869Y0046*
X00865Y00456*
X00869*
X00873Y00452*
X00226Y00404D02*
X0023Y00408D01*
X00234*
X0023Y00412*
X00234Y00416*
X0023*
X00226Y0042*
X00222Y00416*
X00218*
X00222Y00412*
X00218Y00408*
X00222*
X00226Y00404*
Y00862D02*
X0023Y00866D01*
X00234*
X0023Y0087*
X00234Y00874*
X0023*
X00226Y00878*
X00222Y00874*
X00218*
X00222Y0087*
X00218Y00866*
X00222*
X00226Y00862*
Y00556D02*
X0023Y0056D01*
X00234*
X0023Y00564*
X00234Y00568*
X0023*
X00226Y00572*
X00222Y00568*
X00218*
X00222Y00564*
X00218Y0056*
X00222*
X00226Y00556*
Y00157D02*
X0023Y00161D01*
X00234*
X0023Y00165*
X00234Y00169*
X0023*
X00226Y00173*
X00222Y00169*
X00218*
X00222Y00165*
X00218Y00161*
X00222*
X00226Y00157*
X01085Y00543D02*
X01089Y00547D01*
X01093*
X01089Y00551*
X01093Y00555*
X01089*
X01085Y00559*
X01081Y00555*
X01077*
X01081Y00551*
X01077Y00547*
X01081*
X01085Y00543*
X00446Y00374D02*
X0045Y00378D01*
X00454*
X0045Y00382*
X00454Y00386*
X0045*
X00446Y0039*
X00442Y00386*
X00438*
X00442Y00382*
X00438Y00378*
X00442*
X00446Y00374*
X00084Y00953D02*
X00088Y00957D01*
X00092*
X00088Y00961*
X00092Y00965*
X00088*
X00084Y00969*
X0008Y00965*
X00076*
X0008Y00961*
X00076Y00957*
X0008*
X00084Y00953*
X00873Y00091D02*
X00877Y00095D01*
X00881*
X00877Y00099*
X00881Y00103*
X00877*
X00873Y00107*
X00869Y00103*
X00865*
X00869Y00099*
X00865Y00095*
X00869*
X00873Y00091*
Y00144D02*
X00877Y00148D01*
X00881*
X00877Y00152*
X00881Y00156*
X00877*
X00873Y0016*
X00869Y00156*
X00865*
X00869Y00152*
X00865Y00148*
X00869*
X00873Y00144*
X00611Y00665D02*
X00615Y00669D01*
X00619*
X00615Y00673*
X00619Y00677*
X00615*
X00611Y00681*
X00607Y00677*
X00603*
X00607Y00673*
X00603Y00669*
X00607*
X00611Y00665*
X00765Y00811D02*
X00769Y00815D01*
X00773*
X00769Y00819*
X00773Y00823*
X00769*
X00765Y00827*
X00761Y00823*
X00757*
X00761Y00819*
X00757Y00815*
X00761*
X00765Y00811*
X00792Y00897D02*
X00796Y00901D01*
X008*
X00796Y00905*
X008Y00909*
X00796*
X00792Y00913*
X00788Y00909*
X00784*
X00788Y00905*
X00784Y00901*
X00788*
X00792Y00897*
X00336Y00952D02*
X0034Y00956D01*
X00344*
X0034Y0096*
X00344Y00964*
X0034*
X00336Y00968*
X00332Y00964*
X00328*
X00332Y0096*
X00328Y00956*
X00332*
X00336Y00952*
X00733Y00583D02*
X00737Y00587D01*
X00741*
X00737Y00591*
X00741Y00595*
X00737*
X00733Y00599*
X00729Y00595*
X00725*
X00729Y00591*
X00725Y00587*
X00729*
X00733Y00583*
X00586Y00704D02*
X0059Y00708D01*
X00594*
X0059Y00712*
X00594Y00716*
X0059*
X00586Y0072*
X00582Y00716*
X00578*
X00582Y00712*
X00578Y00708*
X00582*
X00586Y00704*
X00432Y00196D02*
X00436Y002D01*
X0044*
X00436Y00204*
X0044Y00208*
X00436*
X00432Y00212*
X00428Y00208*
X00424*
X00428Y00204*
X00424Y002*
X00428*
X00432Y00196*
X00767Y00488D02*
X00771Y00492D01*
X00775*
X00771Y00496*
X00775Y005*
X00771*
X00767Y00504*
X00763Y005*
X00759*
X00763Y00496*
X00759Y00492*
X00763*
X00767Y00488*
X00555Y00491D02*
X00559Y00495D01*
X00563*
X00559Y00499*
X00563Y00503*
X00559*
X00555Y00507*
X00551Y00503*
X00547*
X00551Y00499*
X00547Y00495*
X00551*
X00555Y00491*
M02*