%FSTAX23Y23*%
%MOIN*%
%SFA1B1*%

%IPPOS*%
%ADD10C,0.003937*%
%ADD11C,0.010630*%
%ADD12C,0.011811*%
%ADD13C,0.007874*%
%ADD14C,0.005905*%
%LNdeck-1*%
%LPD*%
G36*
X00898Y00941D02*
Y0093D01*
X0089Y00932*
X00893Y00929*
X00896Y00927*
X00898Y00923*
X00899Y0092*
Y00916*
X00898Y00914*
X00897Y00912*
X00895Y0091*
X00892Y00909*
X00889Y00908*
X00885Y00909*
X00877Y0091*
X00857Y00915*
Y00925*
X00884Y00919*
X00886Y00919*
X00887*
X00889Y00919*
X0089Y0092*
X0089Y00922*
Y00923*
X00889Y00925*
X00888Y00927*
X00886Y00929*
X00882Y00931*
X00877Y00934*
X00873Y00936*
X00857Y00939*
Y0095*
X00898Y00941*
G37*
G36*
X00848Y00908D02*
X00888Y00878D01*
Y00899*
X00898Y00897*
Y00861*
X00891Y00863*
X00852Y00893*
Y00871*
X00842Y00874*
Y00909*
X00848Y00908*
G37*
G36*
X00899Y00852D02*
Y00808D01*
X00853Y00819*
Y00789*
X00899Y00778*
Y00734*
X00811Y00755*
Y00716*
X00899Y00695*
Y00649*
X00811Y0067*
Y00568*
X00825Y00565*
Y00628*
X00854Y00621*
Y00558*
X00868Y00555*
Y00621*
X00899Y00613*
Y00548*
Y00502*
X00781Y00529*
Y00806*
X00825Y00795*
Y00825*
X00781Y00836*
Y0088*
X00899Y00852*
G37*
G36*
X00898Y00991D02*
Y00982D01*
X00857Y00991*
Y01*
X00898Y00991*
G37*
G36*
X00866Y00981D02*
X00866Y0098D01*
Y00978*
X00866Y00977*
X00868Y00975*
X0087Y00973*
X00873Y0097*
X00877Y00968*
X00884Y00966*
X00891Y00963*
X00898Y00962*
Y00952*
X00857Y00961*
Y00971*
X00868Y00968*
X00864Y0097*
X00861Y00972*
X0086Y00974*
X00858Y00976*
X00857Y00977*
X00856Y00979*
X00856Y00981*
Y00982*
X00856Y00983*
X00866Y00981*
G37*
G36*
X00869Y01078D02*
X00877Y01076D01*
X00898Y01072*
Y01061*
X00871Y01067*
X00869Y01068*
X00867*
X00866Y01067*
X00865Y01066*
X00864Y01065*
Y01064*
X00865Y01062*
X00866Y0106*
X00869Y01058*
X00873Y01055*
X00877Y01053*
X00882Y01051*
X00898Y01047*
Y01038*
X00837Y01051*
Y01061*
X00864Y01055*
X00861Y01057*
X00858Y0106*
X00857Y01063*
X00856Y01067*
Y01071*
X00856Y01073*
X00858Y01075*
X00859Y01077*
X00862Y01078*
X00866Y01078*
X00869Y01078*
G37*
G36*
X00866Y01036D02*
X00865Y01034D01*
X00865Y01033*
X00865Y0103*
Y01027*
X00865Y01026*
X00866Y01024*
X00867Y01022*
X0087Y0102*
X00872Y01018*
X00874Y01017*
X00877Y01016*
X00881Y01016*
X00883*
X00884Y01016*
X00886Y01016*
X00887Y01017*
X00888Y01018*
X00889Y0102*
X0089Y01021*
Y01023*
X0089Y01026*
X00889Y01029*
X00888Y01031*
X00897Y0103*
X00898Y01029*
X00898Y01026*
X00899Y01022*
Y01019*
X00898Y01015*
X00898Y01013*
X00897Y0101*
X00895Y01008*
X00894Y01007*
X00891Y01006*
X00889Y01005*
X00885Y01005*
X00881*
X00878Y01005*
X00875Y01006*
X00872Y01007*
X00869Y01008*
X00866Y0101*
X00864Y01012*
X00862Y01014*
X0086Y01017*
X00858Y01021*
X00857Y01025*
X00856Y01029*
Y01033*
X00857Y01035*
X00857Y01038*
X00866Y01036*
G37*
G36*
X00877Y00444D02*
X00878Y00444D01*
X00878Y00444*
X00879Y00444*
X0088Y00444*
X00881Y00444*
X00882Y00443*
X00882*
X00882Y00443*
X00883Y00443*
X00883Y00443*
X00883Y00443*
X00884Y00442*
X00884Y00442*
X00885Y00441*
X00886Y0044*
X00886Y00439*
Y00439*
X00886Y00439*
X00886Y00439*
X00887Y00439*
X00887Y00439*
X00887Y00439*
X00887Y00438*
X00887Y00437*
X00888Y00436*
X00888Y00435*
X00888Y00435*
Y00434*
Y00434*
Y00434*
Y00434*
X00888Y00434*
X00888Y00433*
X00887Y00432*
X00887Y00432*
X00887Y00431*
X00886Y0043*
Y0043*
X00886Y0043*
X00886Y0043*
X00886Y00429*
X00885Y00429*
X00885Y00428*
X00884Y00428*
X00883Y00427*
X00882Y00427*
X00882*
X00883Y00427*
X00883Y00427*
X00883Y00427*
X00883Y00427*
X00884Y00426*
X00884Y00426*
X00885Y00426*
X00886Y00425*
X00887Y00424*
X00888Y00423*
X00888Y00423*
X00888Y00423*
X00888Y00423*
X00888Y00423*
X00888Y00423*
X00888Y00423*
X00889Y00422*
X00889Y00422*
X00889Y00421*
X00889Y00421*
X00889Y0042*
X0089Y00419*
X0089Y00418*
Y00417*
Y00417*
Y00417*
X0089Y00417*
Y00416*
X0089Y00416*
X00889Y00416*
X00889Y00415*
X00889Y00414*
X00889Y00414*
X00889Y00413*
X00888Y00412*
X00888Y00412*
X00888Y00411*
X00887Y0041*
X00887Y00409*
X00886Y00409*
X00886Y00409*
X00886Y00409*
X00886Y00408*
X00885Y00408*
X00885Y00408*
X00884Y00408*
X00884Y00407*
X00883Y00407*
X00883Y00407*
X00882Y00406*
X00881Y00406*
X0088Y00406*
X0088Y00406*
X00879Y00405*
X00878Y00405*
X00877Y00405*
X00876*
X00876Y00405*
X00876*
X00875Y00405*
X00875Y00405*
X00874Y00406*
X00874Y00406*
X00873Y00406*
X00872Y00406*
X00872Y00406*
X00871Y00407*
X0087Y00407*
X0087Y00407*
X00869Y00408*
X00868Y00408*
X00868Y00408*
X00868Y00408*
X00868Y00409*
X00868Y00409*
X00868Y00409*
X00867Y0041*
X00867Y0041*
X00867Y0041*
X00866Y00411*
X00866Y00412*
X00866Y00412*
X00865Y00413*
X00865Y00414*
X00865Y00414*
X00865Y00415*
X00865Y00416*
X00869Y00417*
Y00417*
X00869Y00417*
X00869Y00416*
X00869Y00416*
X00869Y00416*
X0087Y00415*
X0087Y00415*
X0087Y00414*
X00871Y00413*
X00871Y00412*
X00872Y00411*
X00872Y00411*
X00872*
X00872Y00411*
X00872Y00411*
X00872Y00411*
X00873Y0041*
X00873Y0041*
X00874Y0041*
X00875Y0041*
X00876Y00409*
X00877Y00409*
X00877*
X00877Y00409*
X00878Y00409*
X00878Y00409*
X00879Y0041*
X0088Y0041*
X00881Y0041*
X00881Y0041*
X00881Y00411*
X00882Y00411*
X00882Y00412*
X00882Y00412*
X00882Y00412*
X00883Y00412*
X00883Y00412*
X00883Y00412*
X00883Y00412*
X00883Y00413*
X00884Y00413*
X00884Y00414*
X00884Y00415*
X00885Y00416*
X00885Y00417*
X00885Y00417*
Y00417*
Y00417*
Y00418*
X00885Y00418*
X00885Y00418*
X00885Y00418*
X00884Y00419*
X00884Y0042*
X00884Y00421*
X00883Y00421*
X00883Y00422*
X00883Y00422*
X00882Y00423*
X00882Y00423*
X00882Y00423*
X00882Y00423*
X00882Y00423*
X00882Y00423*
X00882Y00423*
X00881Y00424*
X0088Y00424*
X00879Y00424*
X00878Y00425*
X00878Y00425*
X00877Y00425*
X00877*
X00877Y00425*
X00876*
X00876Y00425*
X00875Y00424*
X00874Y00424*
X00874Y00424*
X00874Y00428*
X00874*
X00875Y00428*
X00875Y00428*
X00875*
X00876Y00428*
X00876*
X00876Y00428*
X00877Y00428*
X00878Y00429*
X00879Y00429*
X0088Y00429*
X0088Y0043*
X00881*
X00881Y0043*
X00881Y0043*
X00881Y0043*
X00881Y0043*
X00882Y00431*
X00882Y00432*
X00883Y00432*
X00883Y00433*
X00883Y00433*
X00883Y00434*
X00883Y00435*
Y00435*
Y00435*
Y00435*
X00883Y00435*
X00883Y00436*
X00883Y00436*
X00883Y00437*
X00882Y00438*
X00882Y00438*
X00881Y00439*
X00881Y00439*
X00881Y00439*
X00881Y00439*
X0088Y00439*
X0088Y0044*
X00879Y0044*
X00878Y0044*
X00878Y00441*
X00877Y00441*
X00876*
X00876Y00441*
X00876*
X00876Y00441*
X00875Y0044*
X00874Y0044*
X00873Y0044*
X00873Y00439*
X00872Y00439*
X00872Y00439*
X00872Y00439*
X00871Y00438*
X00871Y00438*
X00871Y00437*
X0087Y00436*
X0087Y00435*
X0087Y00434*
X00865Y00435*
Y00435*
X00865Y00435*
X00865Y00435*
X00865Y00435*
X00865Y00436*
X00865Y00436*
X00866Y00437*
X00866Y00437*
X00866Y00438*
X00867Y00439*
X00867Y0044*
X00867Y0044*
X00868Y00441*
X00868Y00441*
X00869Y00442*
X00869Y00442*
X00869Y00442*
X00869Y00442*
X00869Y00442*
X0087Y00443*
X0087Y00443*
X0087Y00443*
X00871Y00443*
X00871Y00443*
X00872Y00444*
X00873Y00444*
X00873Y00444*
X00874Y00444*
X00875Y00444*
X00876Y00444*
X00876Y00445*
X00877*
X00877Y00444*
G37*
G36*
X00852Y00406D02*
X00848D01*
Y00436*
X00848Y00436*
X00847Y00436*
X00847Y00435*
X00846Y00435*
X00846Y00434*
X00845Y00434*
X00844Y00433*
X00843Y00433*
X00843*
X00843Y00433*
X00843Y00433*
X00843Y00432*
X00842Y00432*
X00842Y00432*
X00842Y00432*
X00841Y00431*
X0084Y00431*
X00839Y00431*
X00838Y0043*
Y00435*
X00838Y00435*
X00838Y00435*
X00839Y00435*
X00839Y00435*
X00839Y00435*
X0084Y00436*
X0084Y00436*
X00841Y00436*
X00842Y00437*
X00843Y00438*
X00844Y00438*
X00845Y00439*
X00845Y00439*
X00845Y00439*
X00845Y0044*
X00846Y0044*
X00846Y0044*
X00846Y0044*
X00847Y00441*
X00847Y00442*
X00848Y00443*
X00849Y00444*
X00849Y00445*
X00852*
Y00406*
G37*
G36*
X00816Y00444D02*
X00817D01*
X00817Y00444*
X00818Y00444*
X00819Y00444*
X0082Y00444*
X00822Y00444*
X00822Y00444*
X00823Y00443*
X00823*
X00823Y00443*
X00823Y00443*
X00823Y00443*
X00824Y00443*
X00824Y00443*
X00825Y00442*
X00826Y00441*
X00826Y00441*
X00827Y0044*
Y0044*
X00827Y0044*
X00827Y00439*
X00827Y00439*
X00827Y00439*
X00827Y00439*
X00828Y00438*
X00828Y00438*
X00828Y00437*
X00828Y00436*
X00829Y00435*
X00829Y00434*
Y00434*
Y00434*
Y00433*
X00829Y00433*
X00829Y00433*
X00828Y00432*
X00828Y00432*
X00828Y00431*
X00828Y0043*
X00828Y0043*
X00827Y00429*
X00827Y00429*
X00827Y00428*
X00826Y00428*
X00826Y00427*
X00826Y00427*
X00826Y00427*
X00826Y00427*
X00825Y00427*
X00825Y00426*
X00825Y00426*
X00824Y00426*
X00824Y00426*
X00823Y00425*
X00823Y00425*
X00822Y00425*
X00821Y00424*
X00821Y00424*
X0082Y00424*
X00819Y00424*
X00818Y00423*
X00818*
X00818Y00423*
X00818Y00423*
X00818Y00423*
X00819Y00423*
X00819Y00423*
X0082Y00422*
X0082Y00422*
X00821Y00422*
X00821Y00422*
X00821Y00421*
X00821Y00421*
X00821Y00421*
X00821Y00421*
X00822Y00421*
X00822Y0042*
X00823Y00419*
X00824Y00419*
X00824Y00418*
X00825Y00416*
X00832Y00406*
X00825*
X0082Y00414*
X0082Y00414*
X0082Y00414*
X0082Y00414*
X0082Y00415*
X0082Y00415*
X00819Y00415*
X00819Y00416*
X00818Y00417*
X00818Y00418*
X00817Y00419*
X00817Y00419*
Y00419*
X00816Y00419*
X00816Y0042*
X00816Y0042*
X00816Y0042*
X00815Y00421*
X00815Y00421*
X00814Y00422*
X00814Y00422*
X00814Y00422*
X00814Y00422*
X00814Y00422*
X00813Y00422*
X00813Y00422*
X00813Y00423*
X00812Y00423*
X00812Y00423*
X00812*
X00812Y00423*
X00811Y00423*
X00811Y00423*
X00811*
X0081Y00423*
X0081Y00423*
X00803*
Y00406*
X00798*
Y00444*
X00816*
X00816Y00444*
G37*
G36*
X0048Y00254D02*
X00475D01*
Y00284*
X00475Y00284*
X00475Y00284*
X00475Y00283*
X00474Y00283*
X00473Y00282*
X00473Y00282*
X00472Y00281*
X00471Y00281*
X00471*
X00471Y00281*
X0047Y00281*
X0047Y0028*
X0047Y0028*
X0047Y0028*
X00469Y0028*
X00468Y00279*
X00467Y00279*
X00467Y00279*
X00466Y00278*
Y00283*
X00466Y00283*
X00466Y00283*
X00466Y00283*
X00466Y00283*
X00467Y00283*
X00467Y00284*
X00468Y00284*
X00468Y00284*
X00469Y00285*
X0047Y00286*
X00472Y00286*
X00473Y00287*
X00473Y00287*
X00473Y00287*
X00473Y00288*
X00473Y00288*
X00473Y00288*
X00474Y00288*
X00474Y00289*
X00475Y0029*
X00476Y00291*
X00476Y00292*
X00477Y00293*
X0048*
Y00254*
G37*
G36*
X00439Y00259D02*
X00458D01*
Y00254*
X00434*
Y00292*
X00439*
Y00259*
G37*
G36*
X00665Y00508D02*
X00635D01*
X00635Y00508*
X00635Y00508*
X00636Y00507*
X00636Y00507*
X00637Y00506*
X00637Y00505*
X00638Y00505*
X00638Y00504*
Y00504*
X00638Y00503*
X00638Y00503*
X00639Y00503*
X00639Y00503*
X00639Y00503*
X00639Y00502*
X0064Y00501*
X0064Y005*
X0064Y00499*
X00641Y00499*
X00636*
X00636Y00499*
X00636Y00499*
X00636Y00499*
X00636Y00499*
X00636Y005*
X00635Y005*
X00635Y00501*
X00635Y00501*
X00634Y00502*
X00633Y00503*
X00633Y00504*
X00632Y00506*
X00632Y00506*
X00632Y00506*
X00631Y00506*
X00631Y00506*
X00631Y00506*
X00631Y00507*
X0063Y00507*
X00629Y00508*
X00628Y00509*
X00627Y00509*
X00626Y0051*
Y00513*
X00665*
Y00508*
G37*
G36*
X00653Y00491D02*
X00653Y00491D01*
X00654Y0049*
X00654Y0049*
X00655Y0049*
X00656Y0049*
X00656Y00489*
X00657Y00489*
X00658Y00489*
X00659Y00488*
X0066Y00488*
X0066Y00487*
X00661Y00486*
X00662Y00486*
X00662Y00485*
X00662Y00485*
X00663Y00485*
X00663Y00485*
X00663Y00484*
X00663Y00484*
X00663Y00483*
X00664Y00483*
X00664Y00482*
X00664Y00481*
X00665Y00481*
X00665Y0048*
X00665Y00479*
X00665Y00478*
X00666Y00477*
X00666Y00476*
X00666Y00475*
Y00474*
X00666Y00474*
X00666Y00473*
X00666Y00473*
X00665Y00472*
X00665Y00471*
X00665Y0047*
X00665Y0047*
X00665Y00469*
X00665Y00468*
X00664Y00467*
X00664Y00466*
X00664Y00465*
X00663Y00465*
X00663Y00465*
X00663Y00465*
X00663Y00464*
X00663Y00464*
X00662Y00464*
X00662Y00463*
X00662Y00463*
X00661Y00462*
X00661Y00462*
X0066Y00462*
X0066Y00461*
X00659Y00461*
X00658Y0046*
X00658Y0046*
X00657Y00459*
X00656Y00459*
X00656Y00459*
X00656Y00459*
X00655Y00459*
X00655Y00458*
X00655Y00458*
X00654Y00458*
X00653Y00458*
X00653Y00458*
X00652Y00458*
X00651Y00457*
X0065Y00457*
X00649Y00457*
X00648Y00457*
X00647Y00457*
X00646Y00457*
X00645*
X00645*
X00645*
X00645Y00457*
X00644Y00457*
X00643Y00457*
X00643Y00457*
X00642Y00457*
X00641Y00457*
X0064Y00457*
X00639Y00458*
X00638Y00458*
X00637Y00458*
X00636Y00459*
X00635Y00459*
X00635Y00459*
X00635Y00459*
X00635Y00459*
X00634Y00459*
X00634Y0046*
X00634Y0046*
X00633Y0046*
X00633Y00461*
X00632Y00461*
X00631Y00462*
X00631Y00462*
X0063Y00463*
X0063Y00463*
X00629Y00464*
X00629Y00465*
X00628Y00466*
X00628Y00466*
X00628Y00466*
X00628Y00466*
X00628Y00466*
X00628Y00467*
X00628Y00467*
X00627Y00468*
X00627Y00468*
X00627Y00469*
X00627Y0047*
X00626Y0047*
X00626Y00471*
X00626Y00473*
X00626Y00474*
X00626Y00475*
Y00475*
X00626Y00476*
X00626Y00476*
X00626Y00477*
X00626Y00478*
X00626Y00478*
X00626Y00479*
X00627Y0048*
X00627Y00481*
X00627Y00481*
X00628Y00482*
X00628Y00483*
X00628Y00484*
X00629Y00485*
X00629Y00485*
X00629Y00485*
X00629Y00485*
X00629Y00485*
X0063Y00486*
X0063Y00486*
X00631Y00486*
X00631Y00487*
X00632Y00487*
X00632Y00488*
X00633Y00488*
X00634Y00489*
X00634Y00489*
X00635Y00489*
X00636Y0049*
X00637Y0049*
X00638Y00485*
X00638*
X00638Y00485*
X00638Y00485*
X00638Y00485*
X00637Y00485*
X00637Y00484*
X00636Y00484*
X00635Y00484*
X00634Y00483*
X00633Y00482*
X00633Y00482*
X00632Y00481*
X00632Y00481*
X00632Y00481*
X00632Y00481*
X00632Y00481*
X00632Y0048*
X00632Y0048*
X00631Y0048*
X00631Y00479*
X00631Y00479*
X00631Y00478*
X00631Y00477*
X0063Y00476*
X0063Y00475*
Y00474*
X0063Y00474*
X0063Y00474*
X0063Y00473*
X0063Y00473*
X00631Y00472*
X00631Y00471*
X00631Y0047*
X00631Y00469*
X00632Y00468*
X00632Y00468*
X00632Y00467*
X00632Y00467*
X00633Y00467*
X00633Y00467*
X00633Y00467*
X00633Y00467*
X00633Y00466*
X00634Y00466*
X00634Y00466*
X00634Y00465*
X00635Y00465*
X00636Y00464*
X00637Y00464*
X00638Y00463*
X00638*
X00638Y00463*
X00639Y00463*
X00639Y00463*
X00639Y00463*
X00639Y00463*
X0064Y00463*
X0064Y00463*
X00641Y00462*
X00642Y00462*
X00643Y00462*
X00644Y00462*
X00646Y00462*
X00646*
X00646*
X00646*
X00646Y00462*
X00647*
X00647Y00462*
X00648Y00462*
X00648Y00462*
X00649Y00462*
X0065Y00462*
X00651Y00463*
X00653Y00463*
X00654Y00463*
X00654*
X00654Y00464*
X00654Y00464*
X00655Y00464*
X00655Y00464*
X00655Y00464*
X00656Y00465*
X00657Y00465*
X00658Y00466*
X00659Y00467*
X00659Y00467*
X0066Y00468*
Y00468*
X0066Y00468*
X0066Y00468*
X0066Y00468*
X0066Y00469*
X0066Y00469*
X0066Y00469*
X0066Y0047*
X00661Y00471*
X00661Y00472*
X00661Y00473*
X00661Y00474*
X00661Y00474*
Y00475*
X00661Y00475*
X00661Y00475*
X00661Y00476*
X00661Y00476*
X00661Y00477*
X00661Y00478*
X00661Y00479*
X0066Y00479*
X0066Y0048*
X0066Y0048*
X00659Y00481*
X00659Y00482*
X00659Y00482*
X00659Y00482*
X00659Y00482*
X00658Y00482*
X00658Y00482*
X00658Y00483*
X00657Y00483*
X00657Y00483*
X00657Y00484*
X00656Y00484*
X00655Y00484*
X00655Y00485*
X00654Y00485*
X00653Y00485*
X00652Y00485*
X00652Y00486*
X00653Y00491*
X00653*
X00653Y00491*
G37*
G36*
X00731Y00765D02*
X00731Y00765D01*
X00732Y00765*
X00733Y00764*
X00733Y00764*
X00734Y00764*
X00735Y00764*
X00735Y00764*
X00736Y00763*
X00737Y00763*
X00738Y00763*
X00738Y00762*
X00739Y00762*
X00739Y00762*
X00739Y00761*
X00739Y00761*
X00739Y00761*
X0074Y00761*
X0074Y0076*
X0074Y0076*
X0074Y00759*
X00741Y00759*
X00741Y00758*
X00741Y00758*
X00742Y00757*
X00742Y00756*
X00742Y00756*
X00742Y00755*
X00742Y00754*
Y00754*
Y00754*
Y00754*
Y00754*
X00742Y00753*
X00742Y00753*
X00742Y00752*
X00742Y00751*
X00741Y0075*
X00741Y00749*
Y00749*
X00741Y00749*
X00741Y00749*
X00741Y00749*
X00741Y00749*
X0074Y00748*
X0074Y00747*
X00739Y00747*
X00739Y00746*
X00738Y00745*
X00738Y00745*
X00738Y00745*
X00738Y00745*
X00738Y00744*
X00737Y00744*
X00737Y00744*
X00737Y00743*
X00736Y00743*
X00736Y00743*
X00735Y00742*
X00735Y00742*
X00734Y00741*
X00733Y0074*
X00732Y0074*
X00732Y00739*
X00731Y00738*
X00731Y00738*
X00731Y00738*
X0073Y00738*
X0073Y00737*
X0073Y00737*
X00729Y00737*
X00728Y00736*
X00727Y00735*
X00727Y00734*
X00726Y00734*
X00726Y00734*
X00725Y00733*
X00725Y00733*
X00725Y00733*
X00725Y00733*
X00725Y00733*
X00725Y00732*
X00724Y00732*
X00724Y00732*
X00723Y00731*
X00742*
Y00726*
X00717*
Y00726*
Y00726*
Y00727*
X00717Y00727*
X00717Y00728*
X00717Y00728*
X00717Y00729*
X00717Y00729*
Y00729*
X00717Y0073*
X00717Y0073*
X00717Y0073*
X00718Y0073*
X00718Y0073*
X00718Y00731*
X00718Y00732*
X00719Y00733*
X0072Y00734*
X0072Y00735*
X0072Y00735*
X0072Y00735*
X00721Y00735*
X00721Y00735*
X00721Y00735*
X00721Y00735*
X00722Y00736*
X00722Y00736*
X00722Y00737*
X00723Y00737*
X00723Y00738*
X00724Y00738*
X00724Y00739*
X00725Y00739*
X00726Y0074*
X00727Y0074*
X00727Y0074*
X00727Y00741*
X00727Y00741*
X00728Y00741*
X00728Y00742*
X00729Y00742*
X00729Y00743*
X0073Y00743*
X00731Y00745*
X00733Y00746*
X00733Y00747*
X00734Y00747*
X00735Y00748*
X00735Y00748*
X00735Y00749*
X00735Y00749*
X00735Y00749*
X00735Y00749*
X00736Y00749*
X00736Y0075*
X00736Y0075*
X00737Y00751*
X00737Y00752*
X00737Y00753*
X00737Y00754*
X00737Y00754*
Y00754*
Y00754*
Y00754*
X00737Y00755*
Y00755*
X00737Y00755*
X00737Y00756*
X00737Y00756*
X00736Y00757*
X00736Y00758*
X00736Y00758*
X00736Y00758*
X00735Y00759*
X00735Y00759*
X00735Y00759*
X00735Y00759*
X00735Y00759*
X00735Y00759*
X00734Y00759*
X00734Y0076*
X00733Y0076*
X00732Y0076*
X00731Y00761*
X00731Y00761*
X0073*
X00729Y00761*
X00729*
X00729Y00761*
X00728Y00761*
X00727Y0076*
X00726Y0076*
X00726Y0076*
X00725Y00759*
X00725Y00759*
X00724Y00759*
X00724Y00759*
X00724Y00759*
X00724Y00758*
X00724Y00758*
X00724Y00758*
X00724Y00758*
X00724Y00758*
X00723Y00757*
X00723Y00757*
X00723Y00756*
X00723Y00755*
X00722Y00754*
X00722Y00754*
X00722Y00753*
X00718Y00754*
Y00754*
X00718Y00754*
X00718Y00754*
X00718Y00754*
X00718Y00755*
X00718Y00755*
X00718Y00756*
X00718Y00757*
X00718Y00757*
X00719Y00758*
X00719Y00759*
X00719Y00759*
X0072Y0076*
X0072Y00761*
X00721Y00761*
X00721Y00762*
X00721Y00762*
X00721Y00762*
X00722Y00762*
X00722Y00762*
X00722Y00762*
X00723Y00763*
X00723Y00763*
X00724Y00763*
X00724Y00764*
X00725Y00764*
X00726Y00764*
X00726Y00764*
X00727Y00764*
X00728Y00765*
X00729Y00765*
X0073Y00765*
X00731*
X00731Y00765*
G37*
G36*
X00705Y00726D02*
X00701D01*
Y00756*
X007Y00756*
X007Y00756*
X007Y00756*
X00699Y00755*
X00699Y00755*
X00698Y00754*
X00697Y00754*
X00696Y00753*
X00696*
X00696Y00753*
X00696Y00753*
X00696Y00753*
X00695Y00753*
X00695Y00752*
X00694Y00752*
X00694Y00752*
X00693Y00751*
X00692Y00751*
X00691Y00751*
Y00755*
X00691Y00755*
X00691Y00755*
X00691Y00755*
X00692Y00755*
X00692Y00756*
X00693Y00756*
X00693Y00756*
X00693Y00756*
X00695Y00757*
X00696Y00758*
X00697Y00759*
X00698Y0076*
X00698Y0076*
X00698Y0076*
X00698Y0076*
X00699Y0076*
X00699Y0076*
X00699Y0076*
X007Y00761*
X007Y00762*
X00701Y00763*
X00702Y00764*
X00702Y00765*
X00705*
Y00726*
G37*
G36*
X00669Y00765D02*
X0067D01*
X0067Y00764*
X00671Y00764*
X00672Y00764*
X00673Y00764*
X00674Y00764*
X00675Y00764*
X00676Y00764*
X00676*
X00676Y00763*
X00676Y00763*
X00676Y00763*
X00677Y00763*
X00677Y00763*
X00678Y00762*
X00679Y00762*
X00679Y00761*
X0068Y0076*
Y0076*
X0068Y0076*
X0068Y0076*
X0068Y00759*
X0068Y00759*
X0068Y00759*
X00681Y00759*
X00681Y00758*
X00681Y00757*
X00681Y00756*
X00681Y00755*
X00681Y00754*
Y00754*
Y00754*
Y00754*
X00681Y00753*
X00681Y00753*
X00681Y00753*
X00681Y00752*
X00681Y00752*
X00681Y00751*
X00681Y0075*
X0068Y00749*
X0068Y00749*
X0068Y00748*
X00679Y00748*
X00679Y00747*
X00679Y00747*
X00679Y00747*
X00679Y00747*
X00678Y00747*
X00678Y00747*
X00678Y00746*
X00677Y00746*
X00677Y00746*
X00676Y00745*
X00676Y00745*
X00675Y00745*
X00674Y00745*
X00673Y00744*
X00673Y00744*
X00672Y00744*
X00671Y00744*
X00671*
X00671Y00744*
X00671Y00743*
X00671Y00743*
X00672Y00743*
X00672Y00743*
X00673Y00742*
X00673Y00742*
X00674Y00742*
X00674Y00742*
X00674Y00742*
X00674Y00742*
X00674Y00741*
X00674Y00741*
X00675Y00741*
X00675Y0074*
X00676Y0074*
X00676Y00739*
X00677Y00738*
X00678Y00737*
X00685Y00726*
X00678*
X00673Y00734*
X00673Y00734*
X00673Y00734*
X00673Y00734*
X00673Y00735*
X00673Y00735*
X00672Y00735*
X00672Y00736*
X00671Y00737*
X00671Y00738*
X0067Y00739*
X00669Y00739*
Y00739*
X00669Y0074*
X00669Y0074*
X00669Y0074*
X00669Y0074*
X00668Y00741*
X00668Y00741*
X00667Y00742*
X00667Y00742*
X00667Y00742*
X00667Y00742*
X00666Y00742*
X00666Y00742*
X00666Y00743*
X00665Y00743*
X00665Y00743*
X00665Y00743*
X00664*
X00664Y00743*
X00664Y00743*
X00664Y00743*
X00663*
X00663Y00743*
X00662Y00743*
X00656*
Y00726*
X00651*
Y00765*
X00669*
X00669Y00765*
G37*
G36*
X00735Y00769D02*
X0073D01*
Y00799*
X0073Y00799*
X0073Y00799*
X0073Y00799*
X00729Y00798*
X00729Y00798*
X00728Y00797*
X00727Y00797*
X00726Y00796*
X00726*
X00726Y00796*
X00726Y00796*
X00725Y00796*
X00725Y00796*
X00725Y00795*
X00724Y00795*
X00723Y00795*
X00723Y00794*
X00722Y00794*
X00721Y00794*
Y00798*
X00721Y00798*
X00721Y00798*
X00721Y00798*
X00722Y00798*
X00722Y00799*
X00722Y00799*
X00723Y00799*
X00723Y00799*
X00724Y008*
X00726Y00801*
X00727Y00802*
X00728Y00803*
X00728Y00803*
X00728Y00803*
X00728Y00803*
X00728Y00803*
X00729Y00803*
X00729Y00804*
X00729Y00804*
X0073Y00805*
X00731Y00806*
X00732Y00807*
X00732Y00808*
X00735*
Y00769*
G37*
G36*
X00705D02*
X00701D01*
Y00799*
X007Y00799*
X007Y00799*
X007Y00799*
X00699Y00798*
X00699Y00798*
X00698Y00797*
X00697Y00797*
X00696Y00796*
X00696*
X00696Y00796*
X00696Y00796*
X00696Y00796*
X00695Y00796*
X00695Y00795*
X00694Y00795*
X00694Y00795*
X00693Y00794*
X00692Y00794*
X00691Y00794*
Y00798*
X00691Y00798*
X00691Y00798*
X00691Y00798*
X00692Y00798*
X00692Y00799*
X00693Y00799*
X00693Y00799*
X00693Y00799*
X00695Y008*
X00696Y00801*
X00697Y00802*
X00698Y00803*
X00698Y00803*
X00698Y00803*
X00698Y00803*
X00699Y00803*
X00699Y00803*
X00699Y00804*
X007Y00804*
X007Y00805*
X00701Y00806*
X00702Y00807*
X00702Y00808*
X00705*
Y00769*
G37*
G36*
X00669Y00808D02*
X0067D01*
X0067Y00808*
X00671Y00808*
X00672Y00807*
X00673Y00807*
X00674Y00807*
X00675Y00807*
X00676Y00807*
X00676*
X00676Y00807*
X00676Y00806*
X00676Y00806*
X00677Y00806*
X00677Y00806*
X00678Y00805*
X00679Y00805*
X00679Y00804*
X0068Y00803*
Y00803*
X0068Y00803*
X0068Y00803*
X0068Y00802*
X0068Y00802*
X0068Y00802*
X00681Y00802*
X00681Y00801*
X00681Y008*
X00681Y00799*
X00681Y00798*
X00681Y00797*
Y00797*
Y00797*
Y00797*
X00681Y00796*
X00681Y00796*
X00681Y00796*
X00681Y00795*
X00681Y00795*
X00681Y00794*
X00681Y00793*
X0068Y00792*
X0068Y00792*
X0068Y00791*
X00679Y00791*
X00679Y0079*
X00679Y0079*
X00679Y0079*
X00679Y0079*
X00678Y0079*
X00678Y0079*
X00678Y00789*
X00677Y00789*
X00677Y00789*
X00676Y00788*
X00676Y00788*
X00675Y00788*
X00674Y00788*
X00673Y00787*
X00673Y00787*
X00672Y00787*
X00671Y00787*
X00671*
X00671Y00787*
X00671Y00787*
X00671Y00786*
X00672Y00786*
X00672Y00786*
X00673Y00785*
X00673Y00785*
X00674Y00785*
X00674Y00785*
X00674Y00785*
X00674Y00785*
X00674Y00784*
X00674Y00784*
X00675Y00784*
X00675Y00783*
X00676Y00783*
X00676Y00782*
X00677Y00781*
X00678Y0078*
X00685Y00769*
X00678*
X00673Y00777*
X00673Y00777*
X00673Y00777*
X00673Y00778*
X00673Y00778*
X00673Y00778*
X00672Y00778*
X00672Y00779*
X00671Y0078*
X00671Y00781*
X0067Y00782*
X00669Y00782*
Y00783*
X00669Y00783*
X00669Y00783*
X00669Y00783*
X00669Y00783*
X00668Y00784*
X00668Y00784*
X00667Y00785*
X00667Y00785*
X00667Y00785*
X00667Y00785*
X00666Y00785*
X00666Y00785*
X00666Y00786*
X00665Y00786*
X00665Y00786*
X00665Y00786*
X00664*
X00664Y00786*
X00664Y00786*
X00664Y00786*
X00663*
X00663Y00786*
X00662Y00786*
X00656*
Y00769*
X00651*
Y00808*
X00669*
X00669Y00808*
G37*
G36*
X00705Y00814D02*
X00701D01*
Y00844*
X007Y00844*
X007Y00844*
X007Y00844*
X00699Y00843*
X00699Y00843*
X00698Y00842*
X00697Y00841*
X00696Y00841*
X00696*
X00696Y00841*
X00696Y00841*
X00696Y00841*
X00695Y0084*
X00695Y0084*
X00694Y0084*
X00694Y0084*
X00693Y00839*
X00692Y00839*
X00691Y00838*
Y00843*
X00691Y00843*
X00691Y00843*
X00691Y00843*
X00692Y00843*
X00692Y00843*
X00693Y00844*
X00693Y00844*
X00693Y00844*
X00695Y00845*
X00696Y00846*
X00697Y00847*
X00698Y00847*
X00698Y00848*
X00698Y00848*
X00698Y00848*
X00699Y00848*
X00699Y00848*
X00699Y00848*
X007Y00849*
X007Y0085*
X00701Y00851*
X00702Y00852*
X00702Y00853*
X00705*
Y00814*
G37*
G36*
X00669Y00852D02*
X0067D01*
X0067Y00852*
X00671Y00852*
X00672Y00852*
X00673Y00852*
X00674Y00852*
X00675Y00852*
X00676Y00851*
X00676*
X00676Y00851*
X00676Y00851*
X00676Y00851*
X00677Y00851*
X00677Y00851*
X00678Y0085*
X00679Y00849*
X00679Y00849*
X0068Y00848*
Y00848*
X0068Y00848*
X0068Y00848*
X0068Y00847*
X0068Y00847*
X0068Y00847*
X00681Y00846*
X00681Y00846*
X00681Y00845*
X00681Y00844*
X00681Y00843*
X00681Y00842*
Y00842*
Y00842*
Y00842*
X00681Y00841*
X00681Y00841*
X00681Y00841*
X00681Y0084*
X00681Y0084*
X00681Y00839*
X00681Y00838*
X0068Y00837*
X0068Y00837*
X0068Y00836*
X00679Y00836*
X00679Y00835*
X00679Y00835*
X00679Y00835*
X00679Y00835*
X00678Y00835*
X00678Y00834*
X00678Y00834*
X00677Y00834*
X00677Y00834*
X00676Y00833*
X00676Y00833*
X00675Y00833*
X00674Y00832*
X00673Y00832*
X00673Y00832*
X00672Y00832*
X00671Y00832*
X00671*
X00671Y00832*
X00671Y00831*
X00671Y00831*
X00672Y00831*
X00672Y00831*
X00673Y0083*
X00673Y0083*
X00674Y0083*
X00674Y0083*
X00674Y0083*
X00674Y00829*
X00674Y00829*
X00674Y00829*
X00675Y00829*
X00675Y00828*
X00676Y00827*
X00676Y00827*
X00677Y00826*
X00678Y00825*
X00685Y00814*
X00678*
X00673Y00822*
X00673Y00822*
X00673Y00822*
X00673Y00822*
X00673Y00823*
X00673Y00823*
X00672Y00823*
X00672Y00824*
X00671Y00825*
X00671Y00826*
X0067Y00827*
X00669Y00827*
Y00827*
X00669Y00827*
X00669Y00828*
X00669Y00828*
X00669Y00828*
X00668Y00829*
X00668Y00829*
X00667Y0083*
X00667Y0083*
X00667Y0083*
X00667Y0083*
X00666Y0083*
X00666Y0083*
X00666Y0083*
X00665Y00831*
X00665Y00831*
X00665Y00831*
X00664*
X00664Y00831*
X00664Y00831*
X00664Y00831*
X00663*
X00663Y00831*
X00662Y00831*
X00656*
Y00814*
X00651*
Y00852*
X00669*
X00669Y00852*
G37*
G36*
X00731Y00853D02*
X00731Y00853D01*
X00732Y00852*
X00733Y00852*
X00733Y00852*
X00734Y00852*
X00735Y00851*
X00735*
X00735Y00851*
X00736Y00851*
X00736Y00851*
X00736Y00851*
X00737Y0085*
X00737Y0085*
X00738Y00849*
X00739Y00849*
X00739Y00848*
Y00848*
X00739Y00848*
X00739Y00848*
X00739Y00847*
X0074Y00847*
X0074Y00847*
X0074Y00847*
X0074Y00846*
X0074Y00845*
X00741Y00844*
X00741Y00843*
X00742Y00842*
Y00842*
X00742Y00842*
X00742Y00842*
X00742Y00841*
X00742Y00841*
X00742Y00841*
X00742Y0084*
X00742Y0084*
X00742Y00839*
X00742Y00838*
X00742Y00838*
X00742Y00837*
X00742Y00836*
X00742Y00835*
X00742Y00834*
Y00833*
Y00833*
Y00833*
Y00832*
Y00832*
X00742Y00831*
X00742Y00831*
X00742Y0083*
X00742Y00829*
X00742Y00828*
X00742Y00827*
X00742Y00826*
X00741Y00824*
X00741Y00823*
X00741Y00822*
Y00822*
X00741Y00822*
X00741Y00822*
X00741Y00821*
X00741Y00821*
X0074Y00821*
X0074Y0082*
X0074Y0082*
X00739Y00819*
X00739Y00818*
X00738Y00817*
X00737Y00816*
X00737Y00816*
X00737Y00816*
X00737Y00816*
X00737Y00816*
X00736Y00815*
X00736Y00815*
X00736Y00815*
X00735Y00815*
X00735Y00815*
X00734Y00814*
X00734Y00814*
X00733Y00814*
X00733Y00814*
X00732Y00814*
X00731Y00814*
X00731Y00814*
X0073Y00813*
X0073*
X00729Y00814*
X00729Y00814*
X00728Y00814*
X00728Y00814*
X00727Y00814*
X00727Y00814*
X00726Y00814*
X00725Y00814*
X00725Y00815*
X00724Y00815*
X00723Y00816*
X00722Y00816*
X00722Y00817*
X00721Y00817*
X00721Y00817*
X00721Y00818*
X00721Y00818*
X00721Y00818*
X0072Y00819*
X0072Y0082*
X0072Y0082*
X00719Y00821*
X00719Y00822*
X00719Y00823*
X00718Y00825*
X00718Y00826*
X00718Y00828*
X00718Y00829*
X00717Y00831*
X00717Y00833*
Y00833*
Y00833*
Y00834*
X00717Y00834*
Y00835*
X00717Y00835*
X00717Y00836*
X00718Y00837*
X00718Y00838*
X00718Y00839*
X00718Y00841*
X00718Y00842*
X00718Y00843*
X00719Y00844*
Y00844*
X00719Y00844*
X00719Y00844*
X00719Y00845*
X00719Y00845*
X00719Y00845*
X0072Y00846*
X0072Y00846*
X0072Y00847*
X00721Y00848*
X00722Y00849*
X00722Y0085*
X00723Y0085*
X00723Y0085*
X00723Y0085*
X00723Y00851*
X00723Y00851*
X00724Y00851*
X00724Y00851*
X00724Y00851*
X00725Y00852*
X00725Y00852*
X00726Y00852*
X00726Y00852*
X00727Y00852*
X00728Y00852*
X00728Y00853*
X00729Y00853*
X0073Y00853*
X0073*
X00731Y00853*
G37*
G36*
X00675Y01069D02*
X00675D01*
X00676Y01068*
X00676Y01068*
X00677Y01068*
X00678Y01068*
X00679Y01068*
X00679Y01067*
X0068Y01067*
X00681Y01067*
X00681Y01067*
X00681Y01066*
X00681Y01066*
X00682Y01066*
X00682Y01066*
X00682Y01066*
X00682Y01066*
X00683Y01065*
X00683Y01065*
X00683Y01065*
X00684Y01064*
X00684Y01064*
X00685Y01063*
X00685Y01063*
X00685Y01062*
X00686Y01061*
X00686Y01061*
Y01061*
X00686Y01061*
X00686Y0106*
X00686Y0106*
X00686Y0106*
X00686Y01059*
X00687Y01059*
X00687Y01058*
X00687Y01057*
X00687Y01057*
X00687Y01056*
X00687Y01055*
X00687Y01054*
X00688Y01053*
X00688Y01051*
Y0105*
Y0105*
Y0105*
Y01049*
X00688Y01049*
Y01048*
X00688Y01047*
X00687Y01047*
X00687Y01046*
X00687Y01045*
X00687Y01044*
X00687Y01042*
X00687Y0104*
X00686Y01039*
X00686Y01038*
Y01038*
X00686Y01038*
X00686Y01038*
X00686Y01038*
X00686Y01037*
X00685Y01037*
X00685Y01036*
X00685Y01036*
X00684Y01035*
X00683Y01034*
X00682Y01033*
X00682Y01032*
X00681Y01032*
X00681Y01032*
X00681Y01032*
X00681Y01031*
X00681Y01031*
X0068Y01031*
X0068Y01031*
X0068Y01031*
X00679Y01031*
X00679Y0103*
X00678Y0103*
X00677Y0103*
X00677Y0103*
X00675Y0103*
X00675Y01029*
X00674Y01029*
X00673*
X00673Y01029*
X00673Y0103*
X00672Y0103*
X00672Y0103*
X00671Y0103*
X0067Y0103*
X00669Y0103*
X00669Y0103*
X00668Y01031*
X00668Y01031*
X00667Y01031*
X00666Y01032*
X00666Y01032*
X00666Y01032*
X00666Y01032*
X00666Y01032*
X00666Y01033*
X00666Y01033*
X00665Y01033*
X00665Y01034*
X00665Y01034*
X00664Y01035*
X00664Y01035*
X00664Y01036*
X00664Y01037*
X00663Y01037*
X00663Y01038*
X00663Y01039*
X00668Y01039*
Y01039*
X00668Y01039*
Y01039*
X00668Y01039*
X00668Y01039*
X00668Y01038*
X00668Y01038*
X00668Y01037*
X00669Y01036*
X00669Y01035*
X0067Y01035*
X0067Y01035*
X0067Y01035*
X0067Y01035*
X0067Y01034*
X00671Y01034*
X00672Y01034*
X00672Y01034*
X00673Y01033*
X00674Y01033*
X00674*
X00675Y01033*
X00675Y01033*
X00676Y01034*
X00676Y01034*
X00677Y01034*
X00678Y01034*
X00678Y01034*
X00678Y01034*
X00678Y01035*
X00679Y01035*
X00679Y01035*
X0068Y01036*
X0068Y01036*
X0068Y01037*
X0068Y01037*
X00681Y01037*
X00681Y01038*
X00681Y01038*
X00681Y01039*
X00682Y0104*
X00682Y0104*
X00682Y01041*
Y01041*
X00682Y01042*
X00682Y01042*
X00682Y01042*
X00682Y01042*
X00682Y01042*
X00682Y01043*
X00683Y01043*
X00683Y01044*
X00683Y01045*
X00683Y01046*
X00683Y01047*
Y01047*
Y01047*
Y01048*
Y01048*
X00683Y01048*
X00683Y01048*
X00683Y01048*
X00682Y01047*
X00682Y01047*
X00681Y01046*
X00681Y01046*
X0068Y01045*
X00679Y01044*
X00679*
X00679Y01044*
X00679Y01044*
X00679Y01044*
X00678Y01044*
X00678Y01044*
X00677Y01044*
X00677Y01043*
X00676Y01043*
X00675Y01043*
X00674Y01043*
X00674*
X00673Y01043*
X00673*
X00673Y01043*
X00672Y01043*
X00672Y01043*
X00671Y01043*
X0067Y01044*
X0067Y01044*
X00669Y01044*
X00668Y01045*
X00668Y01045*
X00667Y01045*
X00666Y01046*
X00666Y01046*
X00666Y01047*
X00666Y01047*
X00665Y01047*
X00665Y01047*
X00665Y01047*
X00665Y01048*
X00664Y01048*
X00664Y01049*
X00664Y0105*
X00663Y0105*
X00663Y01051*
X00663Y01052*
X00663Y01053*
X00663Y01054*
X00662Y01055*
X00662Y01056*
Y01056*
Y01056*
X00662Y01056*
Y01057*
X00663Y01057*
X00663Y01058*
X00663Y01058*
X00663Y01059*
X00663Y0106*
X00663Y0106*
X00664Y01061*
X00664Y01062*
X00664Y01063*
X00665Y01064*
X00665Y01064*
X00666Y01065*
X00666Y01065*
X00666Y01065*
X00666Y01065*
X00666Y01066*
X00667Y01066*
X00667Y01066*
X00668Y01066*
X00668Y01067*
X00669Y01067*
X00669Y01067*
X0067Y01068*
X00671Y01068*
X00672Y01068*
X00673Y01068*
X00673Y01069*
X00674Y01069*
X00675*
X00675Y01069*
G37*
G36*
X00644Y01068D02*
X00644D01*
X00645Y01068*
X00646Y01068*
X00647Y01068*
X00648Y01068*
X00649Y01068*
X0065Y01068*
X0065Y01067*
X0065*
X00651Y01067*
X00651Y01067*
X00651Y01067*
X00651Y01067*
X00652Y01067*
X00653Y01066*
X00653Y01065*
X00654Y01065*
X00655Y01064*
Y01064*
X00655Y01064*
X00655Y01064*
X00655Y01063*
X00655Y01063*
X00655Y01063*
X00655Y01062*
X00656Y01062*
X00656Y01061*
X00656Y0106*
X00656Y01059*
X00656Y01058*
Y01058*
Y01058*
Y01058*
X00656Y01057*
X00656Y01057*
X00656Y01057*
X00656Y01056*
X00656Y01056*
X00656Y01054*
X00655Y01054*
X00655Y01053*
X00655Y01053*
X00655Y01052*
X00654Y01052*
X00654Y01051*
X00654Y01051*
X00654Y01051*
X00653Y01051*
X00653Y01051*
X00653Y0105*
X00653Y0105*
X00652Y0105*
X00652Y0105*
X00651Y01049*
X00651Y01049*
X0065Y01049*
X00649Y01048*
X00648Y01048*
X00647Y01048*
X00646Y01048*
X00645Y01048*
X00646*
X00646Y01047*
X00646Y01047*
X00646Y01047*
X00647Y01047*
X00647Y01047*
X00648Y01046*
X00648Y01046*
X00649Y01046*
X00649Y01046*
X00649Y01046*
X00649Y01045*
X00649Y01045*
X00649Y01045*
X00649Y01045*
X0065Y01044*
X00651Y01043*
X00651Y01043*
X00652Y01042*
X00653Y0104*
X00659Y0103*
X00653*
X00648Y01038*
X00648Y01038*
X00648Y01038*
X00648Y01038*
X00648Y01039*
X00647Y01039*
X00647Y01039*
X00647Y0104*
X00646Y01041*
X00646Y01042*
X00645Y01043*
X00644Y01043*
Y01043*
X00644Y01043*
X00644Y01044*
X00644Y01044*
X00643Y01044*
X00643Y01045*
X00643Y01045*
X00642Y01046*
X00642Y01046*
X00642Y01046*
X00642Y01046*
X00641Y01046*
X00641Y01046*
X00641Y01046*
X0064Y01047*
X0064Y01047*
X00639Y01047*
X00639*
X00639Y01047*
X00639Y01047*
X00639Y01047*
X00638*
X00638Y01047*
X00637Y01047*
X00631*
Y0103*
X00626*
Y01068*
X00643*
X00644Y01068*
G37*
G36*
X00351Y00943D02*
X00352D01*
X00352Y00943*
X00352Y00942*
X00353Y00942*
X00354Y00942*
X00354Y00942*
X00355Y00942*
X00356Y00942*
X00356Y00941*
X00357Y00941*
X00358Y0094*
X00358Y0094*
X00359Y00939*
X00359Y00939*
X00359Y00939*
X00359Y00939*
X00359Y00939*
X0036Y00938*
X0036Y00938*
X0036Y00937*
X00361Y00937*
X00361Y00936*
X00361Y00935*
X00362Y00935*
X00362Y00934*
X00362Y00933*
X00362Y00932*
X00362Y00931*
X00362Y0093*
Y0093*
X00362Y00929*
Y00929*
X00362Y00929*
X00362Y00928*
X00362Y00927*
X00362Y00927*
X00362Y00926*
X00361Y00925*
X00361Y00924*
X00361Y00924*
X00361Y00923*
X0036Y00922*
X0036Y00921*
X00359Y00921*
X00359Y00921*
X00359Y00921*
X00359Y0092*
X00358Y0092*
X00358Y0092*
X00358Y0092*
X00357Y00919*
X00357Y00919*
X00356Y00919*
X00355Y00918*
X00355Y00918*
X00354Y00918*
X00353Y00918*
X00352Y00918*
X00351Y00917*
X00351Y00917*
X00351*
X0035*
X0035*
X0035Y00917*
X0035*
X00349Y00917*
X00349Y00918*
X00348Y00918*
X00347Y00918*
X00346Y00918*
X00345Y00919*
X00345Y00919*
X00344Y00919*
X00344Y00919*
X00344Y00919*
X00344Y00919*
X00344Y0092*
X00344Y0092*
X00343Y0092*
X00343Y0092*
X00343Y00921*
X00342Y00921*
X00342Y00922*
X00341Y00923*
X00341Y00925*
Y00925*
X00341Y00924*
X00341Y00924*
X00341Y00924*
X00341Y00924*
X0034Y00924*
X0034Y00923*
X0034Y00922*
X00339Y00922*
X00339Y00921*
X00338Y0092*
X00338*
X00338Y0092*
X00338Y0092*
X00337Y0092*
X00337Y0092*
X00337Y0092*
X00336Y00919*
X00335Y00919*
X00334Y00919*
X00333Y00919*
X00333*
X00333*
X00333Y00919*
X00332*
X00332Y00919*
X00332Y00919*
X00331Y00919*
X00331Y00919*
X0033Y00919*
X0033Y0092*
X00329Y0092*
X00328Y0092*
X00328Y00921*
X00327Y00921*
X00327Y00921*
X00326Y00922*
X00326Y00922*
X00326Y00922*
X00326Y00922*
X00326Y00922*
X00325Y00923*
X00325Y00923*
X00325Y00924*
X00325Y00924*
X00324Y00925*
X00324Y00925*
X00324Y00926*
X00324Y00926*
X00323Y00927*
X00323Y00928*
X00323Y00929*
X00323Y0093*
Y0093*
X00323Y00931*
X00323Y00931*
X00323Y00932*
X00323Y00932*
X00324Y00933*
X00324Y00933*
X00324Y00934*
X00324Y00935*
X00324Y00935*
X00325Y00936*
X00325Y00937*
X00326Y00937*
X00326Y00938*
X00326Y00938*
X00326Y00938*
X00326Y00938*
X00327Y00938*
X00327Y00939*
X00327Y00939*
X00328Y00939*
X00328Y0094*
X00329Y0094*
X00329Y0094*
X0033Y0094*
X0033Y00941*
X00331Y00941*
X00332Y00941*
X00332Y00941*
X00333Y00941*
X00333*
X00333*
X00333*
X00334*
X00334Y00941*
X00334Y00941*
X00335Y00941*
X00335Y00941*
X00336Y0094*
X00337Y0094*
X00338Y0094*
X00338*
X00338Y0094*
X00338Y00939*
X00339Y00939*
X00339Y00939*
X00339Y00938*
X0034Y00937*
X0034Y00936*
X00341Y00935*
Y00935*
X00341Y00936*
X00341Y00936*
X00341Y00936*
X00341Y00936*
X00341Y00937*
X00342Y00937*
X00342Y00938*
X00343Y00939*
X00344Y0094*
X00345Y00941*
X00345Y00941*
X00345Y00941*
X00345Y00941*
X00345Y00941*
X00345Y00941*
X00346Y00941*
X00346Y00942*
X00346Y00942*
X00347Y00942*
X00348Y00942*
X00349Y00943*
X0035Y00943*
X00351*
X00351*
X00351*
X00351Y00943*
G37*
G36*
X00362Y00908D02*
X00354Y00903D01*
X00354Y00903*
X00354Y00903*
X00353Y00903*
X00353Y00903*
X00353Y00902*
X00352Y00902*
X00352Y00902*
X00351Y00901*
X0035Y00901*
X00349Y009*
X00348Y00899*
X00348*
X00348Y00899*
X00348Y00899*
X00348Y00899*
X00347Y00898*
X00347Y00898*
X00347Y00898*
X00346Y00897*
X00346Y00897*
X00346Y00897*
X00346Y00897*
X00346Y00896*
X00345Y00896*
X00345Y00896*
X00345Y00895*
X00345Y00895*
X00345Y00894*
Y00894*
X00345Y00894*
X00345Y00894*
X00345Y00894*
Y00893*
X00345Y00893*
X00345Y00892*
Y00886*
X00362*
Y00881*
X00323*
Y00898*
X00323Y00899*
Y00899*
X00323Y009*
X00323Y00901*
X00324Y00902*
X00324Y00903*
X00324Y00904*
X00324Y00905*
X00324Y00905*
Y00905*
X00324Y00906*
X00324Y00906*
X00325Y00906*
X00325Y00906*
X00325Y00907*
X00326Y00908*
X00326Y00908*
X00327Y00909*
X00328Y0091*
X00328*
X00328Y0091*
X00328Y0091*
X00328Y0091*
X00329Y0091*
X00329Y0091*
X00329Y0091*
X0033Y00911*
X00331Y00911*
X00332Y00911*
X00333Y00911*
X00334Y00911*
X00334*
X00334*
X00334*
X00334Y00911*
X00335Y00911*
X00335Y00911*
X00336Y00911*
X00336Y00911*
X00337Y00911*
X00338Y0091*
X00338Y0091*
X00339Y0091*
X0034Y0091*
X0034Y00909*
X00341Y00909*
X00341Y00909*
X00341Y00909*
X00341Y00908*
X00341Y00908*
X00341Y00908*
X00342Y00908*
X00342Y00907*
X00342Y00907*
X00342Y00906*
X00343Y00906*
X00343Y00905*
X00343Y00904*
X00344Y00903*
X00344Y00902*
X00344Y00901*
X00344Y009*
Y00901*
X00344Y00901*
X00344Y00901*
X00345Y00901*
X00345Y00902*
X00345Y00902*
X00345Y00903*
X00346Y00903*
X00346Y00904*
X00346Y00904*
X00346Y00904*
X00346Y00904*
X00346Y00904*
X00347Y00904*
X00347Y00904*
X00348Y00905*
X00348Y00906*
X00349Y00906*
X0035Y00907*
X00351Y00908*
X00362Y00914*
Y00908*
G37*
G36*
X0041Y0098D02*
X0041D01*
X0041*
X0041*
X00409Y0098*
X00409Y0098*
X00408Y0098*
X00408Y0098*
X00407Y00981*
X00407*
X00407Y00981*
X00407Y00981*
X00407Y00981*
X00406Y00981*
X00406Y00981*
X00405Y00981*
X00405Y00982*
X00404Y00982*
X00403Y00983*
X00402Y00984*
X00402Y00984*
X00402Y00984*
X00402Y00984*
X00401Y00984*
X00401Y00984*
X00401Y00985*
X00401Y00985*
X004Y00985*
X004Y00986*
X00399Y00986*
X00399Y00987*
X00398Y00987*
X00398Y00988*
X00397Y00988*
X00397Y00989*
X00396Y0099*
X00396Y0099*
X00396Y0099*
X00396Y0099*
X00395Y00991*
X00395Y00991*
X00394Y00992*
X00394Y00993*
X00393Y00993*
X00392Y00995*
X0039Y00996*
X0039Y00997*
X00389Y00997*
X00389Y00998*
X00388Y00998*
X00388Y00998*
X00388Y00998*
X00388Y00998*
X00387Y00999*
X00387Y00999*
X00387Y00999*
X00386Y00999*
X00385Y01*
X00384Y01*
X00383Y01*
X00383Y01*
X00382Y01001*
X00382*
X00382*
X00382*
X00382Y01*
X00382*
X00381Y01*
X00381Y01*
X0038Y01*
X00379Y01*
X00379Y00999*
X00378Y00999*
X00378Y00999*
X00378Y00998*
X00378Y00998*
X00377Y00998*
X00377Y00998*
X00377Y00998*
X00377Y00998*
X00377Y00998*
X00377Y00997*
X00376Y00996*
X00376Y00995*
X00376Y00994*
X00376Y00994*
Y00993*
X00376Y00993*
Y00992*
X00376Y00992*
X00376Y00991*
X00376Y0099*
X00376Y00989*
X00377Y00989*
X00377Y00989*
X00377Y00988*
X00378Y00988*
X00378Y00988*
X00378Y00988*
X00378Y00988*
X00378Y00987*
X00378Y00987*
X00379Y00987*
X00379Y00987*
X00379Y00987*
X0038Y00987*
X0038Y00986*
X00381Y00986*
X00382Y00986*
X00383Y00986*
X00383Y00986*
X00383Y00981*
X00383*
X00383Y00981*
X00382Y00981*
X00382Y00981*
X00381Y00981*
X00381Y00981*
X0038Y00981*
X0038Y00982*
X00379Y00982*
X00378Y00982*
X00378Y00982*
X00377Y00983*
X00376Y00983*
X00376Y00984*
X00375Y00984*
X00375Y00985*
X00375Y00985*
X00374Y00985*
X00374Y00985*
X00374Y00985*
X00374Y00986*
X00374Y00986*
X00373Y00986*
X00373Y00987*
X00373Y00988*
X00373Y00988*
X00372Y00989*
X00372Y0099*
X00372Y00991*
X00372Y00991*
X00372Y00992*
X00372Y00993*
Y00994*
X00372Y00994*
X00372Y00995*
X00372Y00995*
X00372Y00996*
X00372Y00996*
X00372Y00997*
X00372Y00998*
X00373Y00999*
X00373Y00999*
X00373Y01*
X00374Y01001*
X00374Y01001*
X00375Y01002*
X00375Y01002*
X00375Y01002*
X00375Y01002*
X00375Y01003*
X00376Y01003*
X00376Y01003*
X00376Y01003*
X00377Y01004*
X00377Y01004*
X00378Y01004*
X00379Y01005*
X00379Y01005*
X0038Y01005*
X00381Y01005*
X00382Y01005*
X00382Y01005*
X00382*
X00382*
X00383*
X00383*
X00383Y01005*
X00384Y01005*
X00385Y01005*
X00385Y01005*
X00386Y01005*
X00387Y01004*
X00387*
X00387Y01004*
X00387Y01004*
X00387Y01004*
X00388Y01004*
X00388Y01004*
X00389Y01003*
X0039Y01003*
X00391Y01002*
X00392Y01001*
X00392Y01001*
X00392Y01001*
X00392Y01001*
X00392Y01001*
X00392Y01001*
X00393Y01*
X00393Y01*
X00393Y01*
X00394Y00999*
X00394Y00998*
X00395Y00998*
X00395Y00997*
X00396Y00997*
X00397Y00996*
X00398Y00995*
X00398Y00994*
X00398Y00994*
X00398Y00994*
X00399Y00994*
X00399Y00993*
X00399Y00993*
X004Y00993*
X004Y00992*
X00401Y00991*
X00402Y0099*
X00402Y00989*
X00403Y00989*
X00403Y00989*
X00403Y00989*
X00403Y00988*
X00403Y00988*
X00404Y00988*
X00404Y00988*
X00404Y00987*
X00405Y00987*
X00406Y00986*
Y01005*
X0041*
Y0098*
G37*
G36*
Y00964D02*
X0038D01*
X0038Y00964*
X00381Y00964*
X00381Y00963*
X00381Y00963*
X00382Y00962*
X00382Y00961*
X00383Y0096*
X00383Y00959*
Y00959*
X00384Y00959*
X00384Y00959*
X00384Y00959*
X00384Y00959*
X00384Y00958*
X00384Y00958*
X00385Y00957*
X00385Y00956*
X00386Y00955*
X00386Y00954*
X00381*
X00381Y00954*
X00381Y00955*
X00381Y00955*
X00381Y00955*
X00381Y00955*
X00381Y00956*
X0038Y00956*
X0038Y00957*
X00379Y00958*
X00379Y00959*
X00378Y0096*
X00377Y00961*
X00377Y00961*
X00377Y00961*
X00377Y00962*
X00376Y00962*
X00376Y00962*
X00376Y00962*
X00375Y00963*
X00374Y00964*
X00374Y00964*
X00373Y00965*
X00372Y00966*
Y00969*
X0041*
Y00964*
G37*
G36*
X00398Y00946D02*
X00399Y00946D01*
X00399Y00946*
X004Y00946*
X004Y00946*
X00401Y00945*
X00402Y00945*
X00402Y00945*
X00403Y00944*
X00404Y00944*
X00405Y00943*
X00405Y00943*
X00406Y00942*
X00407Y00941*
X00408Y00941*
X00408Y00941*
X00408Y0094*
X00408Y0094*
X00408Y0094*
X00408Y0094*
X00409Y00939*
X00409Y00939*
X00409Y00938*
X0041Y00937*
X0041Y00936*
X0041Y00936*
X0041Y00935*
X00411Y00934*
X00411Y00933*
X00411Y00932*
X00411Y00931*
Y0093*
X00411Y00929*
X00411Y00929*
X00411Y00928*
X00411Y00928*
X00411Y00927*
X0041Y00926*
X0041Y00925*
X0041Y00924*
X0041Y00924*
X0041Y00923*
X00409Y00922*
X00409Y00921*
X00408Y0092*
X00408Y0092*
X00408Y0092*
X00408Y0092*
X00408Y0092*
X00408Y00919*
X00407Y00919*
X00407Y00919*
X00406Y00918*
X00406Y00918*
X00405Y00917*
X00405Y00917*
X00404Y00916*
X00403Y00916*
X00403Y00915*
X00402Y00915*
X00401Y00915*
X00401Y00914*
X00401Y00914*
X00401Y00914*
X004Y00914*
X004Y00914*
X00399Y00914*
X00399Y00914*
X00398Y00914*
X00397Y00913*
X00396Y00913*
X00396Y00913*
X00395Y00913*
X00393Y00913*
X00392Y00913*
X00391Y00913*
X00391*
X00391*
X0039*
X0039Y00913*
X00389Y00913*
X00389Y00913*
X00388Y00913*
X00387Y00913*
X00386Y00913*
X00386Y00913*
X00384Y00913*
X00383Y00914*
X00382Y00914*
X00381Y00914*
X0038Y00915*
X0038Y00915*
X0038Y00915*
X0038Y00915*
X0038Y00915*
X00379Y00915*
X00379Y00916*
X00378Y00916*
X00378Y00916*
X00377Y00917*
X00377Y00917*
X00376Y00918*
X00376Y00918*
X00375Y00919*
X00374Y0092*
X00374Y00921*
X00373Y00921*
X00373Y00921*
X00373Y00921*
X00373Y00922*
X00373Y00922*
X00373Y00922*
X00373Y00923*
X00373Y00923*
X00372Y00924*
X00372Y00925*
X00372Y00925*
X00372Y00926*
X00372Y00927*
X00371Y00929*
X00371Y0093*
X00371Y00931*
Y00931*
X00371Y00932*
X00371Y00932*
X00371Y00933*
X00371Y00933*
X00372Y00934*
X00372Y00935*
X00372Y00936*
X00372Y00936*
X00372Y00937*
X00373Y00938*
X00373Y00939*
X00374Y0094*
X00374Y0094*
X00374Y0094*
X00374Y0094*
X00374Y00941*
X00375Y00941*
X00375Y00941*
X00375Y00942*
X00376Y00942*
X00376Y00942*
X00377Y00943*
X00377Y00943*
X00378Y00944*
X00379Y00944*
X0038Y00945*
X0038Y00945*
X00381Y00945*
X00382Y00946*
X00384Y00941*
X00383*
X00383Y00941*
X00383Y00941*
X00383Y00941*
X00382Y0094*
X00382Y0094*
X00381Y0094*
X0038Y00939*
X00379Y00939*
X00378Y00938*
X00378Y00937*
X00377Y00937*
X00377Y00937*
X00377Y00937*
X00377Y00937*
X00377Y00936*
X00377Y00936*
X00377Y00936*
X00377Y00936*
X00376Y00935*
X00376Y00935*
X00376Y00934*
X00376Y00933*
X00376Y00932*
X00375Y00931*
Y0093*
X00376Y0093*
X00376Y00929*
X00376Y00929*
X00376Y00928*
X00376Y00928*
X00376Y00927*
X00376Y00925*
X00377Y00925*
X00377Y00924*
X00377Y00924*
X00378Y00923*
X00378Y00923*
X00378Y00923*
X00378Y00923*
X00378Y00923*
X00378Y00922*
X00379Y00922*
X00379Y00922*
X00379Y00921*
X0038Y00921*
X0038Y00921*
X00381Y0092*
X00382Y00919*
X00383Y00919*
X00383*
X00384Y00919*
X00384Y00919*
X00384Y00919*
X00384Y00919*
X00385Y00919*
X00385Y00918*
X00386Y00918*
X00386Y00918*
X00387Y00918*
X00388Y00918*
X00389Y00918*
X00391Y00918*
X00391*
X00391*
X00391*
X00392Y00918*
X00392*
X00392Y00918*
X00393Y00918*
X00394Y00918*
X00394Y00918*
X00395Y00918*
X00396Y00918*
X00398Y00919*
X00399Y00919*
X00399*
X00399Y00919*
X004Y00919*
X004Y00919*
X004Y0092*
X00401Y0092*
X00401Y0092*
X00402Y00921*
X00403Y00922*
X00404Y00923*
X00404Y00923*
X00405Y00924*
Y00924*
X00405Y00924*
X00405Y00924*
X00405Y00924*
X00405Y00924*
X00405Y00925*
X00405Y00925*
X00406Y00926*
X00406Y00926*
X00406Y00928*
X00406Y00929*
X00406Y00929*
X00407Y0093*
Y00931*
X00406Y00931*
X00406Y00931*
X00406Y00932*
X00406Y00932*
X00406Y00933*
X00406Y00934*
X00406Y00934*
X00405Y00935*
X00405Y00936*
X00405Y00936*
X00404Y00937*
X00404Y00937*
X00404Y00937*
X00404Y00937*
X00404Y00938*
X00404Y00938*
X00403Y00938*
X00403Y00938*
X00403Y00939*
X00402Y00939*
X00402Y00939*
X00401Y0094*
X00401Y0094*
X004Y0094*
X00399Y00941*
X00398Y00941*
X00398Y00941*
X00397Y00941*
X00398Y00946*
X00398*
X00398Y00946*
G37*
G36*
X00538Y00989D02*
X00508D01*
X00508Y00989*
X00508Y00989*
X00509Y00989*
X00509Y00988*
X00509Y00987*
X0051Y00987*
X00511Y00986*
X00511Y00985*
Y00985*
X00511Y00985*
X00511Y00985*
X00511Y00984*
X00512Y00984*
X00512Y00984*
X00512Y00983*
X00513Y00982*
X00513Y00982*
X00513Y00981*
X00514Y0098*
X00509*
X00509Y0098*
X00509Y0098*
X00509Y0098*
X00509Y00981*
X00509Y00981*
X00508Y00981*
X00508Y00982*
X00508Y00982*
X00507Y00983*
X00506Y00984*
X00506Y00986*
X00505Y00987*
X00505Y00987*
X00504Y00987*
X00504Y00987*
X00504Y00987*
X00504Y00987*
X00504Y00988*
X00503Y00988*
X00502Y00989*
X00501Y0099*
X005Y0099*
X00499Y00991*
Y00994*
X00538*
Y00989*
G37*
G36*
Y00959D02*
X00508D01*
X00508Y00959*
X00508Y00959*
X00509Y00959*
X00509Y00958*
X00509Y00958*
X0051Y00957*
X00511Y00956*
X00511Y00955*
Y00955*
X00511Y00955*
X00511Y00955*
X00511Y00955*
X00512Y00954*
X00512Y00954*
X00512Y00953*
X00513Y00953*
X00513Y00952*
X00513Y00951*
X00514Y0095*
X00509*
X00509Y0095*
X00509Y0095*
X00509Y0095*
X00509Y00951*
X00509Y00951*
X00508Y00951*
X00508Y00952*
X00508Y00952*
X00507Y00953*
X00506Y00955*
X00506Y00956*
X00505Y00957*
X00505Y00957*
X00504Y00957*
X00504Y00957*
X00504Y00957*
X00504Y00958*
X00504Y00958*
X00503Y00959*
X00502Y00959*
X00501Y0096*
X005Y00961*
X00499Y00961*
Y00964*
X00538*
Y00959*
G37*
G36*
X00526Y00942D02*
X00526Y00942D01*
X00527Y00942*
X00527Y00942*
X00528Y00941*
X00529Y00941*
X00529Y00941*
X0053Y0094*
X00531Y0094*
X00532Y0094*
X00532Y00939*
X00533Y00938*
X00534Y00938*
X00535Y00937*
X00535Y00936*
X00535Y00936*
X00535Y00936*
X00536Y00936*
X00536Y00936*
X00536Y00935*
X00536Y00935*
X00537Y00934*
X00537Y00933*
X00537Y00933*
X00538Y00932*
X00538Y00931*
X00538Y0093*
X00538Y00929*
X00538Y00928*
X00539Y00927*
X00539Y00926*
Y00926*
X00539Y00925*
X00539Y00925*
X00538Y00924*
X00538Y00923*
X00538Y00923*
X00538Y00922*
X00538Y00921*
X00538Y0092*
X00538Y00919*
X00537Y00918*
X00537Y00918*
X00537Y00917*
X00536Y00916*
X00536Y00916*
X00536Y00916*
X00536Y00916*
X00536Y00915*
X00535Y00915*
X00535Y00915*
X00535Y00914*
X00534Y00914*
X00534Y00913*
X00533Y00913*
X00533Y00912*
X00532Y00912*
X00531Y00911*
X0053Y00911*
X0053Y00911*
X00529Y0091*
X00529Y0091*
X00529Y0091*
X00528Y0091*
X00528Y0091*
X00527Y0091*
X00527Y0091*
X00526Y00909*
X00526Y00909*
X00525Y00909*
X00524Y00909*
X00523Y00909*
X00522Y00908*
X00521Y00908*
X0052Y00908*
X00519Y00908*
X00518*
X00518*
X00518*
X00518Y00908*
X00517Y00908*
X00516Y00908*
X00516Y00908*
X00515Y00908*
X00514Y00909*
X00513Y00909*
X00512Y00909*
X00511Y00909*
X0051Y0091*
X00509Y0091*
X00508Y0091*
X00508Y0091*
X00508Y00911*
X00508Y00911*
X00507Y00911*
X00507Y00911*
X00506Y00911*
X00506Y00912*
X00505Y00912*
X00505Y00913*
X00504Y00913*
X00504Y00914*
X00503Y00914*
X00503Y00915*
X00502Y00915*
X00502Y00916*
X00501Y00917*
X00501Y00917*
X00501Y00917*
X00501Y00917*
X00501Y00918*
X00501Y00918*
X00501Y00919*
X005Y00919*
X005Y0092*
X005Y0092*
X005Y00921*
X00499Y00922*
X00499Y00923*
X00499Y00924*
X00499Y00925*
X00499Y00926*
Y00927*
X00499Y00927*
X00499Y00928*
X00499Y00928*
X00499Y00929*
X00499Y0093*
X00499Y0093*
X005Y00931*
X005Y00932*
X005Y00933*
X00501Y00934*
X00501Y00934*
X00501Y00935*
X00502Y00936*
X00502Y00936*
X00502Y00936*
X00502Y00936*
X00502Y00937*
X00503Y00937*
X00503Y00937*
X00503Y00938*
X00504Y00938*
X00505Y00939*
X00505Y00939*
X00506Y00939*
X00507Y0094*
X00507Y0094*
X00508Y00941*
X00509Y00941*
X0051Y00941*
X00511Y00936*
X00511*
X00511Y00936*
X00511Y00936*
X00511Y00936*
X0051Y00936*
X0051Y00936*
X00509Y00935*
X00508Y00935*
X00507Y00934*
X00506Y00933*
X00506Y00933*
X00505Y00933*
X00505Y00932*
X00505Y00932*
X00505Y00932*
X00505Y00932*
X00505Y00932*
X00505Y00932*
X00504Y00931*
X00504Y00931*
X00504Y0093*
X00504Y0093*
X00504Y00929*
X00503Y00928*
X00503Y00927*
Y00926*
X00503Y00925*
X00503Y00925*
X00503Y00925*
X00503Y00924*
X00503Y00924*
X00504Y00922*
X00504Y00921*
X00504Y00921*
X00505Y0092*
X00505Y00919*
X00505Y00919*
X00505Y00919*
X00505Y00919*
X00506Y00918*
X00506Y00918*
X00506Y00918*
X00506Y00918*
X00507Y00917*
X00507Y00917*
X00507Y00917*
X00508Y00916*
X00509Y00916*
X0051Y00915*
X00511Y00915*
X00511*
X00511Y00915*
X00511Y00914*
X00512Y00914*
X00512Y00914*
X00512Y00914*
X00513Y00914*
X00513Y00914*
X00514Y00914*
X00514Y00914*
X00516Y00914*
X00517Y00913*
X00518Y00913*
X00519*
X00519*
X00519*
X00519Y00913*
X0052*
X0052Y00913*
X00521Y00914*
X00521Y00914*
X00522Y00914*
X00523Y00914*
X00524Y00914*
X00526Y00914*
X00527Y00915*
X00527*
X00527Y00915*
X00527Y00915*
X00528Y00915*
X00528Y00915*
X00528Y00915*
X00529Y00916*
X0053Y00917*
X00531Y00917*
X00532Y00918*
X00532Y00919*
X00532Y00919*
Y00919*
X00533Y00919*
X00533Y0092*
X00533Y0092*
X00533Y0092*
X00533Y0092*
X00533Y00921*
X00533Y00921*
X00534Y00922*
X00534Y00923*
X00534Y00924*
X00534Y00925*
X00534Y00926*
Y00926*
X00534Y00926*
X00534Y00927*
X00534Y00927*
X00534Y00928*
X00534Y00928*
X00534Y00929*
X00533Y0093*
X00533Y00931*
X00533Y00931*
X00533Y00932*
X00532Y00932*
X00532Y00933*
X00532Y00933*
X00532Y00933*
X00532Y00933*
X00531Y00933*
X00531Y00934*
X00531Y00934*
X0053Y00934*
X0053Y00935*
X00529Y00935*
X00529Y00935*
X00528Y00936*
X00528Y00936*
X00527Y00936*
X00526Y00937*
X00525Y00937*
X00525Y00937*
X00526Y00942*
X00526*
X00526Y00942*
G37*
G36*
X00541Y00435D02*
X00542Y00435D01*
X00542Y00435*
X00543Y00435*
X00543Y00435*
X00545Y00435*
X00545Y00435*
X00546Y00434*
X00546Y00434*
X00547Y00434*
X00548Y00433*
X00548Y00433*
X00548Y00433*
X00548Y00433*
X00548Y00433*
X00549Y00432*
X00549Y00432*
X00549Y00432*
X00549Y00431*
X0055Y00431*
X0055Y00431*
X0055Y0043*
X00551Y00429*
X00551Y00429*
X00551Y00428*
X00551Y00427*
X00552Y00427*
X00552Y00426*
X00547Y00425*
Y00426*
X00547Y00426*
X00547Y00426*
X00547Y00426*
X00547Y00426*
X00547Y00427*
X00546Y00428*
X00546Y00428*
X00546Y00429*
X00545Y0043*
X00545Y0043*
X00545Y0043*
X00545Y0043*
X00545Y0043*
X00544Y0043*
X00544Y00431*
X00543Y00431*
X00542Y00431*
X00541Y00431*
X00541Y00432*
X0054Y00432*
X0054*
X0054Y00431*
X00539Y00431*
X00538Y00431*
X00538Y00431*
X00537Y00431*
X00536Y0043*
X00536*
X00536Y0043*
X00536Y0043*
X00536Y0043*
X00536Y0043*
X00535Y00429*
X00535Y00428*
X00534Y00428*
X00533Y00427*
X00533Y00426*
Y00425*
X00533Y00425*
X00533Y00425*
X00533Y00425*
X00533Y00425*
X00533Y00424*
X00532Y00424*
X00532Y00423*
X00532Y00423*
X00532Y00422*
X00532Y00421*
X00532Y00421*
X00532Y0042*
X00532Y00419*
X00532Y00418*
X00532Y00417*
Y00417*
Y00417*
Y00417*
X00532Y00417*
X00532Y00417*
X00532Y00417*
X00532Y00418*
X00533Y00418*
X00533Y00419*
X00534Y00419*
X00535Y0042*
X00536Y00421*
X00536*
X00536Y00421*
X00536Y00421*
X00536Y00421*
X00536Y00421*
X00537Y00421*
X00537Y00421*
X00538Y00421*
X00539Y00422*
X0054Y00422*
X00541Y00422*
X00541*
X00541Y00422*
X00542*
X00542Y00422*
X00543Y00422*
X00543Y00422*
X00544Y00421*
X00544Y00421*
X00545Y00421*
X00546Y00421*
X00546Y0042*
X00547Y0042*
X00548Y0042*
X00548Y00419*
X00549Y00418*
X00549Y00418*
X00549Y00418*
X00549Y00418*
X0055Y00418*
X0055Y00417*
X0055Y00417*
X0055Y00416*
X00551Y00416*
X00551Y00415*
X00551Y00415*
X00552Y00414*
X00552Y00413*
X00552Y00412*
X00552Y00411*
X00552Y0041*
X00552Y00409*
Y00409*
Y00409*
Y00409*
X00552Y00409*
Y00408*
X00552Y00408*
X00552Y00408*
X00552Y00407*
X00552Y00406*
X00552Y00405*
X00551Y00404*
X00551Y00403*
Y00403*
X00551Y00403*
X00551Y00402*
X0055Y00402*
X0055Y00402*
X0055Y00402*
X0055Y00401*
X00549Y004*
X00548Y00399*
X00547Y00399*
X00546Y00398*
X00546*
X00546Y00398*
X00546Y00398*
X00546Y00398*
X00546Y00398*
X00545Y00397*
X00545Y00397*
X00545Y00397*
X00544Y00397*
X00543Y00397*
X00541Y00396*
X0054Y00396*
X0054*
X0054Y00396*
X00539Y00396*
X00539Y00396*
X00538Y00397*
X00538Y00397*
X00537Y00397*
X00536Y00397*
X00535Y00397*
X00534Y00398*
X00534Y00398*
X00533Y00399*
X00532Y00399*
X00531Y004*
X00531Y00401*
X00531Y00401*
X0053Y00401*
X0053Y00401*
X0053Y00401*
X0053Y00402*
X00529Y00402*
X00529Y00403*
X00529Y00404*
X00528Y00405*
X00528Y00406*
X00528Y00407*
X00528Y00408*
X00527Y0041*
X00527Y00411*
X00527Y00413*
X00527Y00415*
Y00415*
Y00415*
Y00415*
Y00415*
Y00416*
X00527Y00416*
Y00416*
X00527Y00417*
X00527Y00418*
X00527Y00419*
X00527Y0042*
X00527Y00421*
X00528Y00422*
X00528Y00424*
X00528Y00425*
X00529Y00426*
X00529Y00428*
X0053Y00429*
X0053Y0043*
X00531Y00431*
X00531Y00431*
X00531Y00431*
X00531Y00431*
X00532Y00432*
X00532Y00432*
X00533Y00432*
X00533Y00433*
X00534Y00433*
X00534Y00434*
X00535Y00434*
X00536Y00434*
X00537Y00435*
X00538Y00435*
X00539Y00435*
X0054Y00435*
X00541Y00435*
X00541*
X00541Y00435*
G37*
G36*
X00521Y00413D02*
Y00413D01*
Y00413*
Y00413*
Y00412*
X00521Y00412*
X00521Y00411*
X0052Y00411*
X0052Y0041*
X0052Y00408*
X0052Y00407*
X0052Y00405*
X0052Y00405*
X00519Y00404*
Y00404*
X00519Y00404*
X00519Y00404*
X00519Y00403*
X00519Y00403*
X00519Y00403*
X00518Y00402*
X00518Y00402*
X00518Y00401*
X00517Y00401*
X00517Y004*
X00516Y004*
X00516Y00399*
X00515Y00399*
X00515Y00398*
X00514Y00398*
X00514Y00398*
X00514Y00398*
X00514Y00398*
X00514Y00398*
X00513Y00398*
X00513Y00398*
X00512Y00397*
X00512Y00397*
X00511Y00397*
X0051Y00397*
X00509Y00397*
X00508Y00396*
X00508Y00396*
X00507Y00396*
X00506Y00396*
X00505*
X00505Y00396*
X00504*
X00504Y00396*
X00503Y00396*
X00502Y00397*
X00501Y00397*
X005Y00397*
X00498Y00398*
X00497Y00398*
X00497Y00398*
X00497Y00398*
X00497Y00398*
X00496Y00398*
X00496Y00398*
X00496Y00399*
X00496Y00399*
X00495Y00399*
X00495Y00399*
X00494Y004*
X00493Y00401*
X00492Y00402*
X00492Y00403*
X00492Y00403*
Y00404*
X00492Y00404*
X00492Y00404*
X00492Y00404*
X00492Y00404*
X00491Y00405*
X00491Y00405*
X00491Y00406*
X00491Y00407*
X00491Y00407*
X00491Y00408*
X00491Y00409*
X00491Y0041*
X0049Y00411*
X0049Y00412*
Y00413*
Y00435*
X00495*
Y00413*
Y00413*
Y00413*
Y00413*
Y00412*
X00496Y00412*
Y00411*
X00496Y00411*
X00496Y0041*
X00496Y00409*
X00496Y00408*
X00496Y00407*
X00496Y00406*
X00496Y00406*
Y00406*
X00496Y00406*
X00496Y00406*
X00497Y00405*
X00497Y00405*
X00497Y00404*
X00498Y00404*
X00498Y00403*
X00499Y00403*
X005Y00402*
X005*
X005Y00402*
X005Y00402*
X005Y00402*
X005Y00402*
X005Y00402*
X00501Y00402*
X00501Y00401*
X00502Y00401*
X00503Y00401*
X00504Y00401*
X00505Y00401*
X00506*
X00506Y00401*
X00507Y00401*
X00507Y00401*
X00508Y00401*
X00508Y00401*
X0051Y00401*
X0051Y00402*
X00511Y00402*
X00511Y00402*
X00512Y00403*
X00513Y00403*
X00513Y00403*
X00513Y00403*
X00513Y00404*
X00513Y00404*
X00513Y00404*
X00514Y00404*
X00514Y00405*
X00514Y00405*
X00514Y00406*
X00515Y00406*
X00515Y00407*
X00515Y00408*
X00515Y00409*
X00515Y0041*
X00515Y00411*
X00515Y00412*
X00516Y00413*
Y00435*
X00521*
Y00413*
G37*
G36*
X0031Y00937D02*
X0032D01*
Y00933*
X0031*
Y00916*
X00306*
X00281Y00933*
Y00937*
X00306*
Y00943*
X0031*
Y00937*
G37*
G36*
X0032Y00908D02*
X00312Y00903D01*
X00312Y00903*
X00312Y00903*
X00311Y00903*
X00311Y00903*
X00311Y00903*
X0031Y00902*
X0031Y00902*
X00309Y00901*
X00308Y00901*
X00307Y009*
X00306Y00899*
X00306*
X00306Y00899*
X00306Y00899*
X00306Y00899*
X00305Y00899*
X00305Y00898*
X00305Y00898*
X00304Y00897*
X00304Y00897*
X00304Y00897*
X00304Y00897*
X00304Y00896*
X00303Y00896*
X00303Y00896*
X00303Y00895*
X00303Y00895*
X00303Y00895*
Y00894*
X00303Y00894*
X00303Y00894*
X00303Y00894*
Y00893*
X00303Y00893*
X00303Y00892*
Y00886*
X0032*
Y00881*
X00281*
Y00899*
X00281Y00899*
Y009*
X00281Y009*
X00281Y00901*
X00282Y00902*
X00282Y00903*
X00282Y00904*
X00282Y00905*
X00282Y00906*
Y00906*
X00282Y00906*
X00282Y00906*
X00283Y00906*
X00283Y00907*
X00283Y00907*
X00284Y00908*
X00284Y00909*
X00285Y00909*
X00286Y0091*
X00286*
X00286Y0091*
X00286Y0091*
X00286Y0091*
X00287Y0091*
X00287Y0091*
X00287Y00911*
X00288Y00911*
X00289Y00911*
X0029Y00911*
X00291Y00911*
X00292Y00911*
X00292*
X00292*
X00292*
X00292Y00911*
X00293Y00911*
X00293Y00911*
X00294Y00911*
X00294Y00911*
X00295Y00911*
X00296Y00911*
X00296Y0091*
X00297Y0091*
X00298Y0091*
X00298Y00909*
X00299Y00909*
X00299Y00909*
X00299Y00909*
X00299Y00909*
X00299Y00908*
X00299Y00908*
X003Y00908*
X003Y00907*
X003Y00907*
X003Y00906*
X00301Y00906*
X00301Y00905*
X00301Y00904*
X00302Y00903*
X00302Y00903*
X00302Y00902*
X00302Y00901*
Y00901*
X00302Y00901*
X00302Y00901*
X00303Y00901*
X00303Y00902*
X00303Y00902*
X00303Y00903*
X00304Y00903*
X00304Y00904*
X00304Y00904*
X00304Y00904*
X00304Y00904*
X00305Y00904*
X00305Y00904*
X00305Y00905*
X00306Y00905*
X00306Y00906*
X00307Y00906*
X00308Y00907*
X00309Y00908*
X0032Y00915*
Y00908*
G37*
G36*
X007Y00895D02*
X00701Y00895D01*
X00701Y00895*
X00702Y00894*
X00703Y00894*
X00704Y00894*
X00705Y00893*
X00705*
X00705Y00893*
X00706Y00893*
X00706Y00893*
X00706Y00893*
X00707Y00892*
X00707Y00892*
X00708Y00891*
X00709Y00891*
X00709Y0089*
Y0089*
X00709Y0089*
X0071Y00889*
X0071Y00889*
X0071Y00889*
X0071Y00889*
X0071Y00888*
X0071Y00887*
X00711Y00887*
X00711Y00886*
X00711Y00885*
Y00885*
Y00885*
Y00884*
Y00884*
X00711Y00884*
X00711Y00883*
X0071Y00883*
X0071Y00882*
X0071Y00881*
X00709Y0088*
Y0088*
X00709Y0088*
X00709Y0088*
X00709Y00879*
X00708Y00879*
X00708Y00878*
X00707Y00878*
X00706Y00877*
X00705Y00877*
X00706*
X00706Y00877*
X00706Y00877*
X00706Y00877*
X00706Y00877*
X00707Y00877*
X00707Y00876*
X00708Y00876*
X00709Y00875*
X0071Y00875*
X00711Y00874*
X00711Y00874*
X00711Y00874*
X00711Y00873*
X00711Y00873*
X00711Y00873*
X00711Y00873*
X00712Y00872*
X00712Y00872*
X00712Y00872*
X00712Y00871*
X00712Y0087*
X00713Y00869*
X00713Y00868*
Y00867*
Y00867*
Y00867*
X00713Y00867*
Y00867*
X00713Y00866*
X00712Y00866*
X00712Y00865*
X00712Y00865*
X00712Y00864*
X00712Y00863*
X00711Y00863*
X00711Y00862*
X00711Y00861*
X0071Y0086*
X0071Y0086*
X00709Y00859*
X00709Y00859*
X00709Y00859*
X00709Y00859*
X00708Y00858*
X00708Y00858*
X00708Y00858*
X00707Y00858*
X00706Y00857*
X00706Y00857*
X00705Y00857*
X00704Y00856*
X00704Y00856*
X00703Y00856*
X00702Y00856*
X00701Y00856*
X007Y00856*
X007*
X00699Y00856*
X00699*
X00698Y00856*
X00698Y00856*
X00697Y00856*
X00697Y00856*
X00696Y00856*
X00695Y00856*
X00695Y00856*
X00694Y00857*
X00693Y00857*
X00693Y00858*
X00692Y00858*
X00691Y00859*
X00691Y00859*
X00691Y00859*
X00691Y00859*
X00691Y00859*
X00691Y00859*
X0069Y0086*
X0069Y0086*
X0069Y00861*
X00689Y00861*
X00689Y00862*
X00689Y00862*
X00688Y00863*
X00688Y00864*
X00688Y00865*
X00688Y00865*
X00688Y00866*
X00692Y00867*
Y00867*
X00692Y00867*
X00692Y00867*
X00692Y00866*
X00692Y00866*
X00693Y00866*
X00693Y00865*
X00693Y00864*
X00694Y00863*
X00694Y00862*
X00695Y00862*
X00695Y00861*
X00695*
X00695Y00861*
X00695Y00861*
X00695Y00861*
X00696Y00861*
X00696Y0086*
X00697Y0086*
X00698Y0086*
X00699Y0086*
X007Y00859*
X007*
X007Y00859*
X00701Y0086*
X00701Y0086*
X00702Y0086*
X00703Y0086*
X00704Y0086*
X00704Y00861*
X00704Y00861*
X00705Y00861*
X00705Y00862*
X00705Y00862*
X00705Y00862*
X00706Y00862*
X00706Y00862*
X00706Y00862*
X00706Y00863*
X00706Y00863*
X00707Y00863*
X00707Y00864*
X00707Y00865*
X00708Y00866*
X00708Y00867*
X00708Y00867*
Y00867*
Y00868*
Y00868*
X00708Y00868*
X00708Y00868*
X00708Y00869*
X00707Y00869*
X00707Y0087*
X00707Y00871*
X00707Y00871*
X00706Y00872*
X00706Y00872*
X00706Y00873*
X00705Y00873*
X00705Y00873*
X00705Y00873*
X00705Y00873*
X00705Y00873*
X00705Y00873*
X00704Y00874*
X00703Y00874*
X00702Y00875*
X00701Y00875*
X00701Y00875*
X007Y00875*
X007*
X007Y00875*
X00699*
X00699Y00875*
X00698Y00875*
X00698Y00875*
X00697Y00874*
X00697Y00878*
X00697*
X00698Y00878*
X00698Y00878*
X00698*
X00699Y00878*
X00699*
X00699Y00878*
X007Y00879*
X00701Y00879*
X00702Y00879*
X00703Y00879*
X00704Y0088*
X00704*
X00704Y0088*
X00704Y0088*
X00704Y0088*
X00704Y00881*
X00705Y00881*
X00705Y00882*
X00706Y00883*
X00706Y00883*
X00706Y00884*
X00706Y00884*
X00706Y00885*
Y00885*
Y00885*
Y00885*
X00706Y00885*
X00706Y00886*
X00706Y00886*
X00706Y00887*
X00705Y00888*
X00705Y00888*
X00705Y00889*
X00704Y00889*
X00704Y00889*
X00704Y00889*
X00703Y0089*
X00703Y0089*
X00702Y0089*
X00702Y00891*
X00701Y00891*
X007Y00891*
X00699*
X00699Y00891*
X00699*
X00699Y00891*
X00698Y00891*
X00697Y0089*
X00697Y0089*
X00696Y0089*
X00695Y00889*
X00695Y00889*
X00695Y00889*
X00694Y00888*
X00694Y00888*
X00694Y00887*
X00693Y00886*
X00693Y00885*
X00693Y00884*
X00688Y00885*
Y00885*
X00688Y00885*
X00688Y00885*
X00688Y00886*
X00688Y00886*
X00688Y00886*
X00689Y00887*
X00689Y00887*
X00689Y00889*
X0069Y00889*
X0069Y0089*
X0069Y0089*
X00691Y00891*
X00691Y00892*
X00692Y00892*
X00692Y00892*
X00692Y00892*
X00692Y00892*
X00692Y00892*
X00693Y00893*
X00693Y00893*
X00694Y00893*
X00694Y00893*
X00695Y00894*
X00695Y00894*
X00696Y00894*
X00696Y00894*
X00697Y00894*
X00698Y00895*
X00699Y00895*
X007Y00895*
X007*
X007Y00895*
G37*
G36*
X00669Y00895D02*
X0067D01*
X0067Y00894*
X00671Y00894*
X00672Y00894*
X00673Y00894*
X00674Y00894*
X00675Y00894*
X00676Y00894*
X00676*
X00676Y00893*
X00676Y00893*
X00676Y00893*
X00677Y00893*
X00677Y00893*
X00678Y00892*
X00679Y00892*
X00679Y00891*
X0068Y0089*
Y0089*
X0068Y0089*
X0068Y0089*
X0068Y00889*
X0068Y00889*
X0068Y00889*
X00681Y00889*
X00681Y00888*
X00681Y00887*
X00681Y00886*
X00681Y00885*
X00681Y00884*
Y00884*
Y00884*
Y00884*
X00681Y00883*
X00681Y00883*
X00681Y00883*
X00681Y00882*
X00681Y00882*
X00681Y00881*
X00681Y0088*
X0068Y00879*
X0068Y00879*
X0068Y00878*
X00679Y00878*
X00679Y00877*
X00679Y00877*
X00679Y00877*
X00679Y00877*
X00678Y00877*
X00678Y00877*
X00678Y00876*
X00677Y00876*
X00677Y00876*
X00676Y00875*
X00676Y00875*
X00675Y00875*
X00674Y00875*
X00673Y00874*
X00673Y00874*
X00672Y00874*
X00671Y00874*
X00671*
X00671Y00874*
X00671Y00873*
X00671Y00873*
X00672Y00873*
X00672Y00873*
X00673Y00872*
X00673Y00872*
X00674Y00872*
X00674Y00872*
X00674Y00872*
X00674Y00872*
X00674Y00871*
X00674Y00871*
X00675Y00871*
X00675Y0087*
X00676Y0087*
X00676Y00869*
X00677Y00868*
X00678Y00867*
X00685Y00856*
X00678*
X00673Y00864*
X00673Y00864*
X00673Y00864*
X00673Y00865*
X00673Y00865*
X00673Y00865*
X00672Y00865*
X00672Y00866*
X00671Y00867*
X00671Y00868*
X0067Y00869*
X00669Y00869*
Y00869*
X00669Y0087*
X00669Y0087*
X00669Y0087*
X00669Y0087*
X00668Y00871*
X00668Y00871*
X00667Y00872*
X00667Y00872*
X00667Y00872*
X00667Y00872*
X00666Y00872*
X00666Y00872*
X00666Y00873*
X00665Y00873*
X00665Y00873*
X00665Y00873*
X00664*
X00664Y00873*
X00664Y00873*
X00664Y00873*
X00663*
X00663Y00873*
X00662Y00873*
X00656*
Y00856*
X00651*
Y00895*
X00669*
X00669Y00895*
G37*
G36*
X00787Y003D02*
X00787Y003D01*
X00788Y003*
X00788Y003*
X00789Y003*
X0079Y003*
X0079Y00299*
X00791Y00299*
X00792Y00299*
X00793Y00298*
X00793Y00298*
X00794Y00298*
X00795Y00297*
X00795Y00297*
X00795Y00297*
X00795Y00297*
X00795Y00296*
X00795Y00296*
X00796Y00296*
X00796Y00295*
X00796Y00295*
X00797Y00294*
X00797Y00294*
X00797Y00293*
X00797Y00292*
X00798Y00292*
X00798Y00291*
X00798Y0029*
X00798Y00289*
Y00289*
Y00289*
Y00289*
Y00289*
X00798Y00289*
X00798Y00288*
X00798Y00287*
X00798Y00287*
X00797Y00286*
X00797Y00285*
Y00285*
X00797Y00285*
X00797Y00285*
X00797Y00284*
X00797Y00284*
X00796Y00283*
X00796Y00283*
X00795Y00282*
X00795Y00281*
X00794Y0028*
X00794Y0028*
X00794Y0028*
X00794Y0028*
X00793Y0028*
X00793Y00279*
X00793Y00279*
X00793Y00279*
X00792Y00278*
X00792Y00278*
X00791Y00277*
X0079Y00277*
X0079Y00276*
X00789Y00276*
X00788Y00275*
X00787Y00274*
X00787Y00273*
X00786Y00273*
X00786Y00273*
X00786Y00273*
X00786Y00273*
X00786Y00273*
X00785Y00272*
X00784Y00271*
X00783Y00271*
X00782Y0027*
X00782Y00269*
X00782Y00269*
X00781Y00269*
X00781Y00269*
X00781Y00269*
X00781Y00268*
X00781Y00268*
X0078Y00268*
X0078Y00267*
X0078Y00267*
X00779Y00266*
X00798*
Y00262*
X00773*
Y00262*
Y00262*
Y00262*
X00773Y00263*
X00773Y00263*
X00773Y00264*
X00773Y00264*
X00773Y00265*
Y00265*
X00773Y00265*
X00773Y00265*
X00773Y00265*
X00773Y00265*
X00774Y00266*
X00774Y00266*
X00774Y00267*
X00775Y00268*
X00775Y00269*
X00776Y0027*
X00776Y0027*
X00776Y0027*
X00776Y0027*
X00777Y0027*
X00777Y00271*
X00777Y00271*
X00777Y00271*
X00778Y00272*
X00778Y00272*
X00779Y00272*
X00779Y00273*
X0078Y00273*
X0078Y00274*
X00781Y00274*
X00782Y00275*
X00782Y00276*
X00782Y00276*
X00783Y00276*
X00783Y00276*
X00783Y00277*
X00784Y00277*
X00784Y00277*
X00785Y00278*
X00786Y00279*
X00787Y0028*
X00789Y00281*
X00789Y00282*
X0079Y00283*
X0079Y00283*
X00791Y00284*
X00791Y00284*
X00791Y00284*
X00791Y00284*
X00791Y00284*
X00791Y00285*
X00792Y00285*
X00792Y00286*
X00792Y00287*
X00793Y00288*
X00793Y00289*
X00793Y00289*
X00793Y0029*
Y0029*
Y0029*
Y0029*
X00793Y0029*
Y0029*
X00793Y0029*
X00793Y00291*
X00793Y00292*
X00792Y00293*
X00792Y00293*
X00792Y00293*
X00791Y00294*
X00791Y00294*
X00791Y00294*
X00791Y00294*
X00791Y00294*
X00791Y00294*
X0079Y00295*
X0079Y00295*
X0079Y00295*
X00789Y00296*
X00788Y00296*
X00787Y00296*
X00786Y00296*
X00785*
X00785Y00296*
X00785*
X00785Y00296*
X00784Y00296*
X00783Y00296*
X00782Y00295*
X00782Y00295*
X00781Y00295*
X00781Y00294*
X0078Y00294*
X0078Y00294*
X0078Y00294*
X0078Y00294*
X0078Y00294*
X0078Y00293*
X0078Y00293*
X00779Y00293*
X00779Y00293*
X00779Y00292*
X00779Y00292*
X00779Y00291*
X00778Y0029*
X00778Y00289*
X00778Y00288*
X00773Y00289*
Y00289*
X00773Y00289*
X00774Y00289*
X00774Y0029*
X00774Y0029*
X00774Y00291*
X00774Y00291*
X00774Y00292*
X00774Y00293*
X00775Y00293*
X00775Y00294*
X00775Y00295*
X00776Y00295*
X00776Y00296*
X00777Y00297*
X00777Y00297*
X00777Y00297*
X00777Y00297*
X00778Y00297*
X00778Y00298*
X00778Y00298*
X00779Y00298*
X00779Y00298*
X0078Y00299*
X0078Y00299*
X00781Y00299*
X00781Y00299*
X00782Y003*
X00783Y003*
X00784Y003*
X00785Y003*
X00786Y003*
X00786*
X00787Y003*
G37*
G36*
X00755Y003D02*
X00755D01*
X00756Y003*
X00756Y003*
X00758Y003*
X00759Y00299*
X0076Y00299*
X00761Y00299*
X00761Y00299*
X00761*
X00761Y00299*
X00761Y00299*
X00762Y00299*
X00762Y00298*
X00763Y00298*
X00763Y00298*
X00764Y00297*
X00765Y00296*
X00766Y00295*
Y00295*
X00766Y00295*
X00766Y00295*
X00766Y00295*
X00766Y00295*
X00766Y00294*
X00766Y00294*
X00766Y00294*
X00767Y00293*
X00767Y00292*
X00767Y00291*
X00767Y00289*
Y00289*
Y00289*
Y00289*
X00767Y00289*
X00767Y00288*
X00767Y00288*
X00767Y00288*
X00767Y00287*
X00766Y00286*
X00766Y00285*
X00766Y00285*
X00766Y00284*
X00765Y00284*
X00765Y00283*
X00764Y00283*
X00764Y00283*
X00764Y00282*
X00764Y00282*
X00764Y00282*
X00764Y00282*
X00763Y00282*
X00763Y00281*
X00762Y00281*
X00762Y00281*
X00761Y0028*
X00761Y0028*
X0076Y0028*
X00759Y0028*
X00758Y00279*
X00757Y00279*
X00756Y00279*
X00756*
X00756Y00279*
X00757Y00279*
X00757Y00279*
X00757Y00278*
X00758Y00278*
X00758Y00278*
X00759Y00277*
X00759Y00277*
X00759Y00277*
X00759Y00277*
X0076Y00277*
X0076Y00277*
X0076Y00277*
X0076Y00276*
X00761Y00276*
X00761Y00275*
X00762Y00274*
X00763Y00273*
X00764Y00272*
X0077Y00262*
X00764*
X00759Y0027*
X00759Y0027*
X00759Y0027*
X00759Y0027*
X00758Y0027*
X00758Y0027*
X00758Y00271*
X00758Y00271*
X00757Y00272*
X00756Y00273*
X00756Y00274*
X00755Y00275*
Y00275*
X00755Y00275*
X00755Y00275*
X00755Y00275*
X00754Y00276*
X00754Y00276*
X00753Y00277*
X00753Y00277*
X00753Y00277*
X00753Y00277*
X00752Y00277*
X00752Y00278*
X00752Y00278*
X00751Y00278*
X00751Y00278*
X00751Y00278*
X0075Y00278*
X0075*
X0075Y00278*
X0075Y00278*
X0075Y00279*
X00749*
X00749Y00279*
X00748Y00279*
X00742*
Y00262*
X00736*
Y003*
X00754*
X00755Y003*
G37*
G36*
X00794Y00305D02*
X0079D01*
Y00335*
X0079Y00335*
X00789Y00335*
X00789Y00335*
X00789Y00334*
X00788Y00334*
X00787Y00333*
X00786Y00333*
X00785Y00332*
X00785*
X00785Y00332*
X00785Y00332*
X00785Y00332*
X00785Y00332*
X00784Y00332*
X00784Y00331*
X00783Y00331*
X00782Y00331*
X00781Y0033*
X0078Y0033*
Y00334*
X0078Y00334*
X0078Y00334*
X00781Y00335*
X00781Y00335*
X00781Y00335*
X00782Y00335*
X00782Y00335*
X00783Y00336*
X00784Y00336*
X00785Y00337*
X00786Y00338*
X00787Y00339*
X00787Y00339*
X00787Y00339*
X00788Y00339*
X00788Y00339*
X00788Y0034*
X00788Y0034*
X00789Y0034*
X0079Y00341*
X0079Y00342*
X00791Y00343*
X00791Y00344*
X00794*
Y00305*
G37*
G36*
X00758Y00344D02*
X00759D01*
X00759Y00344*
X0076Y00344*
X00761Y00344*
X00762Y00343*
X00764Y00343*
X00764Y00343*
X00765Y00343*
X00765*
X00765Y00343*
X00765Y00343*
X00765Y00343*
X00766Y00342*
X00766Y00342*
X00767Y00341*
X00768Y00341*
X00768Y0034*
X00769Y00339*
Y00339*
X00769Y00339*
X00769Y00339*
X00769Y00339*
X00769Y00338*
X0077Y00338*
X0077Y00338*
X0077Y00337*
X0077Y00337*
X0077Y00336*
X00771Y00335*
X00771Y00333*
Y00333*
Y00333*
Y00333*
X00771Y00333*
X00771Y00332*
X00771Y00332*
X0077Y00331*
X0077Y00331*
X0077Y0033*
X0077Y00329*
X0077Y00329*
X00769Y00328*
X00769Y00328*
X00768Y00327*
X00768Y00326*
X00768Y00326*
X00768Y00326*
X00768Y00326*
X00768Y00326*
X00767Y00326*
X00767Y00326*
X00766Y00325*
X00766Y00325*
X00765Y00325*
X00765Y00324*
X00764Y00324*
X00763Y00324*
X00763Y00324*
X00762Y00323*
X00761Y00323*
X0076Y00323*
X0076*
X0076Y00323*
X0076Y00323*
X00761Y00323*
X00761Y00322*
X00761Y00322*
X00762Y00322*
X00762Y00321*
X00763Y00321*
X00763Y00321*
X00763Y00321*
X00763Y00321*
X00763Y00321*
X00763Y0032*
X00764Y0032*
X00764Y0032*
X00765Y00319*
X00766Y00318*
X00766Y00317*
X00767Y00316*
X00774Y00305*
X00767*
X00762Y00313*
X00762Y00313*
X00762Y00314*
X00762Y00314*
X00762Y00314*
X00762Y00314*
X00762Y00315*
X00761Y00315*
X0076Y00316*
X0076Y00317*
X00759Y00318*
X00759Y00319*
Y00319*
X00759Y00319*
X00758Y00319*
X00758Y00319*
X00758Y0032*
X00757Y0032*
X00757Y00321*
X00756Y00321*
X00756Y00321*
X00756Y00321*
X00756Y00321*
X00756Y00322*
X00755Y00322*
X00755Y00322*
X00755Y00322*
X00754Y00322*
X00754Y00322*
X00754*
X00754Y00322*
X00753Y00322*
X00753Y00322*
X00753*
X00752Y00322*
X00752Y00323*
X00745*
Y00305*
X0074*
Y00344*
X00758*
X00758Y00344*
G37*
G36*
X00593Y00662D02*
X00593Y00662D01*
X00594Y00662*
X00594Y00662*
X00594Y00662*
X00595Y00662*
X00595Y00662*
X00596Y00661*
X00596Y00661*
X00597Y00661*
X00597Y00661*
X00598Y0066*
X00598Y0066*
X00598Y0066*
X00598Y0066*
X00598Y0066*
X00598Y0066*
X00599Y00659*
X00599Y00659*
X00599Y00659*
X00599Y00659*
X00599Y00658*
X006Y00658*
X006Y00657*
X006Y00657*
X006Y00656*
X006Y00656*
X006Y00655*
X006Y00655*
Y00655*
Y00655*
Y00655*
Y00655*
X006Y00654*
X006Y00654*
X006Y00653*
X006Y00653*
X006Y00652*
X006Y00652*
Y00652*
X006Y00652*
X006Y00652*
X00599Y00652*
X00599Y00651*
X00599Y00651*
X00599Y0065*
X00598Y0065*
X00598Y00649*
X00597Y00649*
X00597Y00649*
X00597Y00649*
X00597Y00649*
X00597Y00648*
X00597Y00648*
X00597Y00648*
X00597Y00648*
X00596Y00648*
X00596Y00647*
X00596Y00647*
X00595Y00647*
X00595Y00646*
X00594Y00646*
X00594Y00645*
X00593Y00645*
X00593Y00644*
X00593Y00644*
X00593Y00644*
X00592Y00644*
X00592Y00644*
X00592Y00644*
X00592Y00643*
X00591Y00643*
X00591Y00642*
X0059Y00642*
X0059Y00642*
X00589Y00641*
X00589Y00641*
X00589Y00641*
X00589Y00641*
X00589Y00641*
X00589Y00641*
X00589Y00641*
X00588Y0064*
X00588Y0064*
X00588Y00639*
X006*
Y00636*
X00583*
Y00636*
Y00637*
Y00637*
X00583Y00637*
X00583Y00637*
X00583Y00638*
X00584Y00638*
X00584Y00639*
Y00639*
X00584Y00639*
X00584Y00639*
X00584Y00639*
X00584Y00639*
X00584Y00639*
X00584Y0064*
X00584Y0064*
X00585Y00641*
X00585Y00641*
X00586Y00642*
X00586Y00642*
X00586Y00642*
X00586Y00642*
X00586Y00642*
X00586Y00642*
X00586Y00643*
X00587Y00643*
X00587Y00643*
X00587Y00643*
X00587Y00644*
X00588Y00644*
X00588Y00644*
X00588Y00645*
X00589Y00645*
X00589Y00645*
X0059Y00646*
X0059Y00646*
X0059Y00646*
X0059Y00646*
X00591Y00646*
X00591Y00647*
X00591Y00647*
X00592Y00647*
X00592Y00648*
X00593Y00649*
X00594Y0065*
X00594Y0065*
X00595Y0065*
X00595Y00651*
X00596Y00651*
X00596Y00651*
X00596Y00651*
X00596Y00651*
X00596Y00652*
X00596Y00652*
X00596Y00652*
X00596Y00652*
X00597Y00653*
X00597Y00654*
X00597Y00654*
X00597Y00655*
X00597Y00655*
Y00655*
Y00655*
Y00655*
X00597Y00655*
Y00655*
X00597Y00656*
X00597Y00656*
X00597Y00657*
X00596Y00657*
X00596Y00657*
X00596Y00658*
X00596Y00658*
X00596Y00658*
X00596Y00658*
X00596Y00658*
X00596Y00658*
X00595Y00658*
X00595Y00658*
X00595Y00659*
X00595Y00659*
X00594Y00659*
X00594Y00659*
X00593Y00659*
X00593Y00659*
X00592*
X00592Y00659*
X00592*
X00591Y00659*
X00591Y00659*
X0059Y00659*
X0059Y00659*
X00589Y00659*
X00589Y00659*
X00589Y00658*
X00588Y00658*
X00588Y00658*
X00588Y00658*
X00588Y00658*
X00588Y00658*
X00588Y00658*
X00588Y00657*
X00588Y00657*
X00588Y00657*
X00588Y00657*
X00588Y00657*
X00587Y00656*
X00587Y00655*
X00587Y00655*
X00587Y00654*
X00584Y00655*
Y00655*
X00584Y00655*
X00584Y00655*
X00584Y00655*
X00584Y00656*
X00584Y00656*
X00584Y00656*
X00584Y00657*
X00585Y00657*
X00585Y00658*
X00585Y00658*
X00585Y00658*
X00585Y00659*
X00586Y00659*
X00586Y0066*
X00586Y0066*
X00586Y0066*
X00587Y0066*
X00587Y0066*
X00587Y0066*
X00587Y00661*
X00587Y00661*
X00588Y00661*
X00588Y00661*
X00588Y00661*
X00589Y00661*
X00589Y00662*
X0059Y00662*
X0059Y00662*
X00591Y00662*
X00592Y00662*
X00592Y00662*
X00593*
X00593Y00662*
G37*
G36*
X00568Y00639D02*
X00581D01*
Y00636*
X00565*
Y00662*
X00568*
Y00639*
G37*
G36*
X00353Y00765D02*
X00353Y00765D01*
X00354Y00765*
X00355Y00765*
X00355Y00765*
X00356Y00765*
X00357Y00765*
X00358Y00764*
X00358Y00764*
X00359Y00764*
X0036Y00763*
X00361Y00763*
X00362Y00762*
X00362Y00762*
X00362Y00762*
X00362Y00762*
X00362Y00762*
X00363Y00761*
X00363Y00761*
X00363Y00761*
X00364Y0076*
X00364Y0076*
X00365Y00759*
X00365Y00758*
X00366Y00758*
X00366Y00757*
X00366Y00756*
X00367Y00755*
X00367Y00754*
X00362Y00753*
Y00753*
X00362Y00753*
X00362Y00753*
X00362Y00754*
X00362Y00754*
X00362Y00754*
X00361Y00755*
X00361Y00756*
X0036Y00757*
X00359Y00758*
X00359Y00759*
X00358Y00759*
X00358Y00759*
X00358Y00759*
X00358Y00759*
X00358Y00759*
X00358Y00759*
X00357Y0076*
X00357Y0076*
X00356Y0076*
X00356Y0076*
X00356Y0076*
X00355Y00761*
X00353Y00761*
X00353Y00761*
X00351*
X00351Y00761*
X00351Y00761*
X0035Y00761*
X0035Y00761*
X00349Y00761*
X00348Y0076*
X00347Y0076*
X00346Y0076*
X00346Y00759*
X00345Y00759*
X00344Y00759*
X00344Y00759*
X00344Y00759*
X00344Y00759*
X00344Y00758*
X00344Y00758*
X00343Y00758*
X00343Y00758*
X00343Y00757*
X00342Y00757*
X00342Y00756*
X00341Y00755*
X00341Y00754*
X0034Y00753*
Y00753*
X0034Y00753*
X0034Y00753*
X0034Y00752*
X0034Y00752*
X0034Y00752*
X0034Y00751*
X0034Y00751*
X0034Y0075*
X00339Y0075*
X00339Y00748*
X00339Y00747*
X00339Y00746*
Y00746*
Y00746*
Y00745*
X00339Y00745*
Y00744*
X00339Y00744*
X00339Y00743*
X00339Y00743*
X00339Y00742*
X00339Y00741*
X0034Y0074*
X0034Y00739*
X00341Y00737*
Y00737*
X00341Y00737*
X00341Y00737*
X00341Y00737*
X00341Y00736*
X00341Y00736*
X00342Y00735*
X00342Y00734*
X00343Y00733*
X00344Y00732*
X00344Y00732*
X00345Y00732*
X00345*
X00345Y00732*
X00345Y00732*
X00345Y00731*
X00346Y00731*
X00346Y00731*
X00346Y00731*
X00347Y00731*
X00348Y0073*
X00349Y0073*
X0035Y0073*
X00351Y0073*
X00351Y0073*
X00352*
X00352Y0073*
X00353Y0073*
X00353Y0073*
X00353Y0073*
X00354Y0073*
X00355Y0073*
X00356Y00731*
X00356Y00731*
X00357Y00731*
X00358Y00732*
X00358Y00732*
X00359Y00732*
X00359Y00732*
X00359Y00732*
X00359Y00733*
X00359Y00733*
X00359Y00733*
X0036Y00733*
X0036Y00734*
X0036Y00734*
X00361Y00735*
X00361Y00735*
X00361Y00736*
X00362Y00736*
X00362Y00737*
X00362Y00738*
X00363Y00739*
X00363Y0074*
X00368Y00738*
Y00738*
X00368Y00738*
X00368Y00738*
X00367Y00737*
X00367Y00737*
X00367Y00736*
X00367Y00736*
X00366Y00735*
X00366Y00734*
X00366Y00733*
X00365Y00732*
X00365Y00732*
X00364Y00731*
X00363Y0073*
X00363Y00729*
X00362Y00729*
X00362Y00729*
X00362Y00729*
X00362Y00729*
X00361Y00728*
X00361Y00728*
X0036Y00728*
X0036Y00728*
X00359Y00727*
X00358Y00727*
X00358Y00727*
X00357Y00726*
X00356Y00726*
X00355Y00726*
X00354Y00726*
X00353Y00726*
X00352Y00726*
X00351*
X00351Y00726*
X0035Y00726*
X0035Y00726*
X00349Y00726*
X00348Y00726*
X00348Y00726*
X00347Y00726*
X00346Y00726*
X00345Y00727*
X00344Y00727*
X00343Y00727*
X00343Y00728*
X00342Y00728*
X00342Y00728*
X00342Y00728*
X00341Y00728*
X00341Y00729*
X00341Y00729*
X0034Y00729*
X0034Y00729*
X0034Y0073*
X00339Y0073*
X00339Y00731*
X00338Y00732*
X00338Y00732*
X00337Y00733*
X00337Y00734*
X00336Y00735*
X00336Y00735*
X00336Y00735*
X00336Y00736*
X00336Y00736*
X00336Y00736*
X00335Y00737*
X00335Y00737*
X00335Y00738*
X00335Y00738*
X00335Y00739*
X00334Y0074*
X00334Y00741*
X00334Y00742*
X00334Y00744*
X00334Y00745*
X00334Y00746*
Y00746*
Y00746*
Y00746*
X00334Y00747*
X00334Y00747*
X00334Y00748*
X00334Y00749*
X00334Y00749*
X00334Y0075*
X00334Y00751*
X00335Y00753*
X00335Y00754*
X00335Y00754*
X00336Y00755*
X00336Y00756*
X00336Y00756*
X00336Y00756*
X00336Y00757*
X00337Y00757*
X00337Y00757*
X00337Y00758*
X00337Y00758*
X00338Y00759*
X00338Y00759*
X00339Y0076*
X00339Y0076*
X0034Y00761*
X0034Y00761*
X00341Y00762*
X00342Y00762*
X00343Y00763*
X00343Y00763*
X00343Y00763*
X00343Y00763*
X00343Y00763*
X00344Y00763*
X00344Y00764*
X00345Y00764*
X00345Y00764*
X00346Y00764*
X00347Y00765*
X00348Y00765*
X00348Y00765*
X0035Y00765*
X00351Y00765*
X00352Y00765*
X00353*
X00353Y00765*
G37*
G36*
X0039Y00726D02*
X00385D01*
Y00756*
X00385Y00756*
X00385Y00756*
X00385Y00756*
X00384Y00755*
X00383Y00755*
X00383Y00754*
X00382Y00754*
X00381Y00753*
X00381*
X00381Y00753*
X0038Y00753*
X0038Y00753*
X0038Y00753*
X0038Y00752*
X00379Y00752*
X00378Y00752*
X00377Y00751*
X00377Y00751*
X00376Y00751*
Y00755*
X00376Y00755*
X00376Y00755*
X00376Y00755*
X00376Y00755*
X00377Y00756*
X00377Y00756*
X00378Y00756*
X00378Y00756*
X00379Y00757*
X0038Y00758*
X00382Y00759*
X00383Y0076*
X00383Y0076*
X00383Y0076*
X00383Y0076*
X00383Y0076*
X00383Y0076*
X00384Y00761*
X00384Y00761*
X00385Y00762*
X00386Y00763*
X00386Y00764*
X00387Y00765*
X0039*
Y00726*
G37*
G36*
X00326D02*
X00321D01*
Y00765*
X00326*
Y00726*
G37*
G36*
X00898Y00378D02*
X00899Y00378D01*
X00899Y00378*
X009Y00378*
X00901Y00378*
X00902Y00378*
X00904Y00378*
X00906Y00378*
X00907Y00377*
X00907Y00377*
X00907*
X00907Y00377*
X00908Y00377*
X00908Y00377*
X00908Y00377*
X00909Y00377*
X00909Y00376*
X0091Y00376*
X00911Y00375*
X00912Y00375*
X00913Y00374*
X00913Y00373*
X00914Y00373*
X00914Y00373*
X00914Y00373*
X00914Y00373*
X00914Y00372*
X00914Y00372*
X00914Y00372*
X00915Y00371*
X00915Y00371*
X00915Y00371*
X00915Y0037*
X00915Y00369*
X00916Y00369*
X00916Y00368*
X00916Y00367*
X00916Y00367*
X00916Y00366*
Y00366*
X00916Y00365*
X00916Y00365*
X00916Y00365*
X00916Y00364*
X00916Y00364*
X00915Y00363*
X00915Y00362*
X00915Y00361*
X00915Y00361*
X00914Y0036*
X00914Y00359*
X00913Y00359*
X00913Y00358*
X00912Y00357*
X00912Y00357*
X00912Y00357*
X00912Y00357*
X00911Y00357*
X00911Y00356*
X0091Y00356*
X00909Y00356*
X00908Y00355*
X00907Y00355*
X00906Y00355*
X00905Y00354*
X00903Y00354*
X00902Y00354*
X009Y00354*
X00898Y00354*
X00896Y00354*
X00896*
X00896*
X00896*
X00895Y00354*
X00895*
X00894Y00354*
X00893Y00354*
X00893Y00354*
X00892Y00354*
X00891Y00354*
X00889Y00354*
X00887Y00354*
X00886Y00355*
X00885Y00355*
X00885*
X00885Y00355*
X00885Y00355*
X00885Y00355*
X00884Y00355*
X00884Y00355*
X00884Y00356*
X00883Y00356*
X00882Y00357*
X00881Y00357*
X0088Y00358*
X0088Y00359*
X00879Y00359*
X00879Y00359*
X00879Y00359*
X00879Y00359*
X00879Y0036*
X00879Y0036*
X00878Y0036*
X00878Y00361*
X00878Y00361*
X00878Y00361*
X00878Y00362*
X00877Y00363*
X00877Y00363*
X00877Y00364*
X00877Y00365*
X00877Y00365*
X00877Y00366*
Y00366*
X00877Y00367*
X00877Y00367*
X00877Y00368*
X00877Y00369*
X00877Y0037*
X00878Y0037*
X00878Y00371*
Y00371*
X00878Y00372*
X00878Y00372*
X00878Y00372*
X00879Y00372*
X00879Y00373*
X00879Y00373*
X0088Y00374*
X00881Y00375*
X00882Y00375*
X00882*
X00882Y00375*
X00882Y00375*
X00882Y00376*
X00882Y00376*
X00883Y00376*
X00883Y00376*
X00883Y00376*
X00884Y00377*
X00885Y00377*
X00886Y00377*
X00887Y00378*
X00887*
X00888Y00378*
X00888Y00378*
X00888Y00378*
X00888Y00378*
X00889Y00378*
X00889Y00378*
X0089Y00378*
X0089Y00378*
X00891Y00378*
X00892Y00378*
X00893Y00378*
X00893Y00378*
X00894Y00378*
X00895Y00379*
X00896*
X00897*
X00897*
X00897*
X00898*
X00898Y00378*
G37*
G36*
X00915Y00337D02*
X00885D01*
X00885Y00337*
X00886Y00336*
X00886Y00336*
X00886Y00336*
X00887Y00335*
X00887Y00334*
X00888Y00333*
X00889Y00332*
Y00332*
X00889Y00332*
X00889Y00332*
X00889Y00332*
X00889Y00332*
X00889Y00331*
X0089Y00331*
X0089Y0033*
X0089Y00329*
X00891Y00328*
X00891Y00327*
X00886*
X00886Y00327*
X00886Y00327*
X00886Y00328*
X00886Y00328*
X00886Y00328*
X00886Y00329*
X00885Y00329*
X00885Y0033*
X00885Y00331*
X00884Y00332*
X00883Y00333*
X00882Y00334*
X00882Y00334*
X00882Y00334*
X00882Y00334*
X00882Y00335*
X00881Y00335*
X00881Y00335*
X0088Y00336*
X0088Y00337*
X00879Y00337*
X00878Y00338*
X00877Y00338*
Y00341*
X00915*
Y00337*
G37*
G36*
X00903Y00319D02*
X00904Y00319D01*
X00904Y00319*
X00905Y00319*
X00905Y00319*
X00906Y00318*
X00907Y00318*
X00907Y00318*
X00908Y00317*
X00909Y00317*
X0091Y00316*
X00911Y00316*
X00911Y00315*
X00912Y00314*
X00913Y00314*
X00913Y00313*
X00913Y00313*
X00913Y00313*
X00913Y00313*
X00913Y00312*
X00914Y00312*
X00914Y00311*
X00914Y00311*
X00915Y0031*
X00915Y00309*
X00915Y00308*
X00915Y00308*
X00916Y00307*
X00916Y00306*
X00916Y00305*
X00916Y00303*
Y00303*
X00916Y00302*
X00916Y00302*
X00916Y00301*
X00916Y00301*
X00916Y003*
X00916Y00299*
X00915Y00298*
X00915Y00297*
X00915Y00297*
X00915Y00296*
X00914Y00295*
X00914Y00294*
X00913Y00293*
X00913Y00293*
X00913Y00293*
X00913Y00293*
X00913Y00293*
X00913Y00292*
X00912Y00292*
X00912Y00292*
X00912Y00291*
X00911Y00291*
X00911Y0029*
X0091Y0029*
X00909Y00289*
X00909Y00289*
X00908Y00288*
X00907Y00288*
X00906Y00287*
X00906Y00287*
X00906Y00287*
X00906Y00287*
X00905Y00287*
X00905Y00287*
X00904Y00287*
X00904Y00287*
X00903Y00286*
X00902Y00286*
X00902Y00286*
X00901Y00286*
X009Y00286*
X00898Y00285*
X00897Y00285*
X00896Y00285*
X00896*
X00896*
X00895*
X00895Y00285*
X00894Y00285*
X00894Y00286*
X00893Y00286*
X00892Y00286*
X00892Y00286*
X00891Y00286*
X00889Y00286*
X00888Y00287*
X00887Y00287*
X00886Y00287*
X00885Y00288*
X00885Y00288*
X00885Y00288*
X00885Y00288*
X00885Y00288*
X00884Y00288*
X00884Y00289*
X00883Y00289*
X00883Y00289*
X00882Y0029*
X00882Y0029*
X00881Y00291*
X00881Y00291*
X0088Y00292*
X0088Y00293*
X00879Y00293*
X00879Y00294*
X00879Y00294*
X00879Y00294*
X00878Y00295*
X00878Y00295*
X00878Y00295*
X00878Y00296*
X00878Y00296*
X00877Y00297*
X00877Y00298*
X00877Y00298*
X00877Y00299*
X00877Y003*
X00876Y00302*
X00876Y00303*
X00876Y00303*
Y00304*
X00876Y00304*
X00876Y00305*
X00876Y00306*
X00877Y00306*
X00877Y00307*
X00877Y00308*
X00877Y00308*
X00877Y00309*
X00878Y0031*
X00878Y00311*
X00878Y00312*
X00879Y00312*
X00879Y00313*
X00879Y00313*
X00879Y00313*
X0088Y00314*
X0088Y00314*
X0088Y00314*
X0088Y00314*
X00881Y00315*
X00881Y00315*
X00882Y00316*
X00883Y00316*
X00883Y00317*
X00884Y00317*
X00885Y00318*
X00886Y00318*
X00887Y00318*
X00887Y00319*
X00889Y00314*
X00889*
X00888Y00314*
X00888Y00314*
X00888Y00313*
X00888Y00313*
X00887Y00313*
X00886Y00313*
X00885Y00312*
X00884Y00311*
X00883Y00311*
X00883Y0031*
X00883Y0031*
X00882Y0031*
X00882Y0031*
X00882Y0031*
X00882Y00309*
X00882Y00309*
X00882Y00309*
X00882Y00308*
X00882Y00308*
X00881Y00308*
X00881Y00307*
X00881Y00306*
X00881Y00305*
X00881Y00304*
Y00303*
X00881Y00303*
X00881Y00302*
X00881Y00302*
X00881Y00301*
X00881Y00301*
X00881Y003*
X00882Y00298*
X00882Y00298*
X00882Y00297*
X00882Y00297*
X00883Y00296*
X00883Y00296*
X00883Y00296*
X00883Y00296*
X00883Y00295*
X00883Y00295*
X00884Y00295*
X00884Y00295*
X00884Y00294*
X00885Y00294*
X00885Y00294*
X00886Y00293*
X00887Y00292*
X00888Y00292*
X00889*
X00889Y00292*
X00889Y00292*
X00889Y00292*
X00889Y00292*
X0089Y00291*
X0089Y00291*
X00891Y00291*
X00891Y00291*
X00892Y00291*
X00893Y00291*
X00894Y00291*
X00896Y00291*
X00896*
X00896*
X00896*
X00897Y00291*
X00897*
X00898Y00291*
X00898Y00291*
X00899Y00291*
X00899Y00291*
X009Y00291*
X00902Y00291*
X00903Y00292*
X00904Y00292*
X00904*
X00905Y00292*
X00905Y00292*
X00905Y00292*
X00905Y00292*
X00906Y00293*
X00906Y00293*
X00907Y00294*
X00908Y00294*
X00909Y00295*
X00909Y00296*
X0091Y00296*
Y00296*
X0091Y00297*
X0091Y00297*
X0091Y00297*
X0091Y00297*
X0091Y00298*
X00911Y00298*
X00911Y00298*
X00911Y00299*
X00911Y003*
X00912Y00302*
X00912Y00302*
X00912Y00303*
Y00303*
X00912Y00304*
X00912Y00304*
X00912Y00304*
X00911Y00305*
X00911Y00305*
X00911Y00307*
X00911Y00307*
X00911Y00308*
X0091Y00308*
X0091Y00309*
X0091Y0031*
X00909Y0031*
X00909Y0031*
X00909Y0031*
X00909Y00311*
X00909Y00311*
X00908Y00311*
X00908Y00311*
X00908Y00312*
X00907Y00312*
X00907Y00312*
X00906Y00313*
X00906Y00313*
X00905Y00313*
X00904Y00313*
X00904Y00314*
X00903Y00314*
X00902Y00314*
X00903Y00319*
X00903*
X00903Y00319*
G37*
G36*
X00478Y00677D02*
X00478Y00677D01*
X00479Y00677*
X00479Y00677*
X0048Y00676*
X00481Y00676*
X00482Y00676*
X00482Y00676*
X00483Y00676*
X00484Y00675*
X00485Y00675*
X00486Y00674*
X00486Y00674*
X00486Y00674*
X00487Y00674*
X00487Y00674*
X00487Y00673*
X00487Y00673*
X00488Y00673*
X00488Y00672*
X00489Y00672*
X00489Y00671*
X0049Y00671*
X0049Y0067*
X0049Y00669*
X00491Y00668*
X00491Y00667*
X00492Y00667*
X00492Y00666*
X00487Y00664*
Y00664*
X00487Y00665*
X00487Y00665*
X00487Y00665*
X00487Y00665*
X00486Y00666*
X00486Y00667*
X00485Y00668*
X00485Y00669*
X00484Y0067*
X00483Y0067*
X00483Y00671*
X00483Y00671*
X00483Y00671*
X00483Y00671*
X00483Y00671*
X00482Y00671*
X00482Y00671*
X00482Y00671*
X00481Y00672*
X00481Y00672*
X0048Y00672*
X00479Y00672*
X00478Y00672*
X00477Y00672*
X00476*
X00476Y00672*
X00476Y00672*
X00475Y00672*
X00475Y00672*
X00474Y00672*
X00473Y00672*
X00472Y00672*
X00471Y00671*
X0047Y00671*
X0047Y00671*
X00469Y0067*
X00469Y0067*
X00469Y0067*
X00469Y0067*
X00469Y0067*
X00469Y0067*
X00468Y00669*
X00468Y00669*
X00468Y00669*
X00467Y00668*
X00467Y00668*
X00466Y00667*
X00466Y00666*
X00465Y00665*
Y00665*
X00465Y00664*
X00465Y00664*
X00465Y00664*
X00465Y00664*
X00465Y00663*
X00465Y00663*
X00464Y00662*
X00464Y00662*
X00464Y00661*
X00464Y0066*
X00464Y00659*
X00464Y00657*
Y00657*
Y00657*
Y00657*
X00464Y00656*
Y00656*
X00464Y00655*
X00464Y00655*
X00464Y00654*
X00464Y00654*
X00464Y00653*
X00464Y00652*
X00465Y0065*
X00465Y00649*
Y00649*
X00465Y00649*
X00465Y00648*
X00466Y00648*
X00466Y00648*
X00466Y00647*
X00466Y00647*
X00467Y00646*
X00468Y00645*
X00469Y00644*
X00469Y00644*
X0047Y00643*
X0047*
X0047Y00643*
X0047Y00643*
X0047Y00643*
X00471Y00643*
X00471Y00643*
X00471Y00643*
X00472Y00642*
X00473Y00642*
X00474Y00642*
X00475Y00642*
X00476Y00641*
X00476Y00641*
X00477*
X00477Y00641*
X00477Y00642*
X00478Y00642*
X00478Y00642*
X00479Y00642*
X0048Y00642*
X0048Y00642*
X00481Y00642*
X00482Y00643*
X00482Y00643*
X00483Y00643*
X00483Y00644*
X00484Y00644*
X00484Y00644*
X00484Y00644*
X00484Y00644*
X00484Y00645*
X00484Y00645*
X00485Y00645*
X00485Y00646*
X00485Y00646*
X00486Y00647*
X00486Y00647*
X00486Y00648*
X00487Y00649*
X00487Y0065*
X00487Y0065*
X00488Y00651*
X00493Y0065*
Y0065*
X00493Y0065*
X00492Y00649*
X00492Y00649*
X00492Y00648*
X00492Y00648*
X00492Y00647*
X00491Y00646*
X00491Y00646*
X0049Y00645*
X0049Y00644*
X00489Y00643*
X00489Y00642*
X00488Y00642*
X00488Y00641*
X00487Y0064*
X00487Y0064*
X00487Y0064*
X00486Y0064*
X00486Y0064*
X00486Y0064*
X00485Y00639*
X00485Y00639*
X00484Y00639*
X00483Y00638*
X00483Y00638*
X00482Y00638*
X00481Y00638*
X0048Y00637*
X00479Y00637*
X00478Y00637*
X00477Y00637*
X00476*
X00476Y00637*
X00475Y00637*
X00475Y00637*
X00474Y00637*
X00473Y00637*
X00472Y00638*
X00471Y00638*
X00471Y00638*
X0047Y00638*
X00469Y00638*
X00468Y00639*
X00467Y00639*
X00467Y0064*
X00467Y0064*
X00466Y0064*
X00466Y0064*
X00466Y0064*
X00466Y0064*
X00465Y00641*
X00465Y00641*
X00464Y00641*
X00464Y00642*
X00463Y00643*
X00463Y00643*
X00462Y00644*
X00462Y00644*
X00461Y00645*
X00461Y00646*
X00461Y00647*
X00461Y00647*
X00461Y00647*
X0046Y00647*
X0046Y00648*
X0046Y00648*
X0046Y00649*
X0046Y00649*
X0046Y0065*
X00459Y00651*
X00459Y00652*
X00459Y00652*
X00459Y00653*
X00459Y00655*
X00459Y00656*
X00459Y00657*
Y00657*
Y00657*
Y00658*
X00459Y00658*
X00459Y00659*
X00459Y00659*
X00459Y0066*
X00459Y00661*
X00459Y00662*
X00459Y00662*
X0046Y00664*
X0046Y00665*
X0046Y00666*
X00461Y00667*
X00461Y00668*
X00461Y00668*
X00461Y00668*
X00461Y00668*
X00461Y00668*
X00462Y00669*
X00462Y00669*
X00462Y0067*
X00463Y0067*
X00463Y00671*
X00464Y00671*
X00464Y00672*
X00465Y00672*
X00465Y00673*
X00466Y00674*
X00467Y00674*
X00467Y00674*
X00467Y00675*
X00468Y00675*
X00468Y00675*
X00468Y00675*
X00469Y00675*
X00469Y00675*
X0047Y00675*
X0047Y00676*
X00471Y00676*
X00472Y00676*
X00472Y00676*
X00473Y00676*
X00475Y00677*
X00476Y00677*
X00477Y00677*
X00477*
X00478Y00677*
G37*
G36*
X0051Y00676D02*
X0051D01*
X0051Y00676*
X00511Y00676*
X00511Y00676*
X00512Y00676*
X00513Y00675*
X00514Y00675*
X00515Y00675*
X00515Y00675*
X00516Y00674*
X00516Y00674*
X00516Y00674*
X00516Y00674*
X00516Y00674*
X00517Y00674*
X00517Y00673*
X00517Y00673*
X00518Y00673*
X00518Y00672*
X00518Y00672*
X00519Y00671*
X00519Y00671*
X0052Y0067*
X0052Y0067*
X0052Y00669*
X00521Y00668*
Y00668*
X00521Y00668*
X00521Y00668*
X00521Y00668*
X00521Y00667*
X00521Y00667*
X00521Y00666*
X00521Y00666*
X00522Y00665*
X00522Y00664*
X00522Y00663*
X00522Y00662*
X00522Y00661*
X00522Y0066*
X00522Y00659*
Y00658*
Y00658*
Y00657*
Y00657*
X00522Y00656*
Y00656*
X00522Y00655*
X00522Y00654*
X00522Y00653*
X00522Y00653*
X00522Y00652*
X00522Y0065*
X00521Y00648*
X00521Y00647*
X00521Y00646*
Y00646*
X0052Y00646*
X0052Y00646*
X0052Y00645*
X0052Y00645*
X0052Y00644*
X0052Y00644*
X00519Y00644*
X00519Y00642*
X00518Y00641*
X00517Y0064*
X00516Y0064*
X00516Y00639*
X00516Y00639*
X00516Y00639*
X00515Y00639*
X00515Y00639*
X00515Y00639*
X00515Y00639*
X00514Y00638*
X00514Y00638*
X00513Y00638*
X00513Y00638*
X00512Y00638*
X00511Y00637*
X0051Y00637*
X00509Y00637*
X00508Y00637*
X00508*
X00508Y00637*
X00507Y00637*
X00507Y00637*
X00506Y00637*
X00506Y00637*
X00505Y00638*
X00504Y00638*
X00503Y00638*
X00503Y00638*
X00502Y00639*
X00502Y00639*
X00501Y0064*
X00501Y0064*
X00501Y0064*
X00501Y0064*
X00501Y0064*
X005Y0064*
X005Y00641*
X005Y00641*
X005Y00641*
X00499Y00642*
X00499Y00642*
X00499Y00643*
X00498Y00644*
X00498Y00644*
X00498Y00645*
X00498Y00646*
X00498Y00647*
X00502Y00647*
Y00647*
X00502Y00647*
Y00647*
X00502Y00646*
X00502Y00646*
X00502Y00646*
X00503Y00645*
X00503Y00644*
X00503Y00644*
X00504Y00643*
X00504Y00643*
X00504Y00642*
X00504Y00642*
X00505Y00642*
X00505Y00642*
X00505Y00642*
X00506Y00641*
X00507Y00641*
X00508Y00641*
X00509Y00641*
X00509*
X00509Y00641*
X0051Y00641*
X0051Y00641*
X00511Y00641*
X00512Y00642*
X00512Y00642*
X00512Y00642*
X00513Y00642*
X00513Y00642*
X00513Y00643*
X00514Y00643*
X00514Y00643*
X00515Y00644*
X00515Y00645*
X00515Y00645*
X00515Y00645*
X00515Y00645*
X00516Y00646*
X00516Y00646*
X00516Y00647*
X00516Y00648*
X00517Y00649*
Y00649*
X00517Y00649*
X00517Y00649*
X00517Y0065*
X00517Y0065*
X00517Y0065*
X00517Y00651*
X00517Y00651*
X00517Y00652*
X00517Y00653*
X00517Y00654*
X00517Y00655*
Y00655*
Y00655*
Y00655*
Y00656*
X00517Y00656*
X00517Y00656*
X00517Y00655*
X00517Y00655*
X00516Y00654*
X00516Y00654*
X00515Y00653*
X00514Y00653*
X00514Y00652*
X00514*
X00513Y00652*
X00513Y00652*
X00513Y00652*
X00513Y00652*
X00513Y00652*
X00512Y00651*
X00511Y00651*
X0051Y00651*
X00509Y00651*
X00508Y00651*
X00508*
X00508Y00651*
X00507*
X00507Y00651*
X00507Y00651*
X00506Y00651*
X00505Y00651*
X00505Y00651*
X00504Y00652*
X00504Y00652*
X00503Y00652*
X00502Y00653*
X00502Y00653*
X00501Y00654*
X005Y00654*
X005Y00654*
X005Y00654*
X005Y00655*
X005Y00655*
X005Y00655*
X00499Y00656*
X00499Y00656*
X00499Y00657*
X00498Y00657*
X00498Y00658*
X00498Y00659*
X00497Y00659*
X00497Y0066*
X00497Y00661*
X00497Y00662*
X00497Y00663*
Y00663*
Y00664*
X00497Y00664*
Y00664*
X00497Y00665*
X00497Y00665*
X00497Y00666*
X00497Y00667*
X00498Y00667*
X00498Y00668*
X00498Y00669*
X00498Y0067*
X00499Y0067*
X00499Y00671*
X005Y00672*
X005Y00673*
X005Y00673*
X00501Y00673*
X00501Y00673*
X00501Y00673*
X00501Y00674*
X00502Y00674*
X00502Y00674*
X00503Y00674*
X00503Y00675*
X00504Y00675*
X00505Y00675*
X00505Y00676*
X00506Y00676*
X00507Y00676*
X00508Y00676*
X00509Y00676*
X00509*
X0051Y00676*
G37*
G36*
X0048Y00538D02*
X0048Y00538D01*
X00481Y00538*
X00482Y00538*
X00482Y00537*
X00483Y00537*
X00484Y00537*
X00485Y00537*
X00485Y00537*
X00486Y00536*
X00487Y00536*
X00488Y00535*
X00489Y00535*
X00489Y00535*
X00489Y00535*
X00489Y00535*
X00489Y00534*
X0049Y00534*
X0049Y00534*
X0049Y00533*
X00491Y00533*
X00491Y00532*
X00492Y00532*
X00492Y00531*
X00493Y0053*
X00493Y00529*
X00493Y00529*
X00494Y00528*
X00494Y00527*
X00489Y00526*
Y00526*
X00489Y00526*
X00489Y00526*
X00489Y00526*
X00489Y00527*
X00489Y00527*
X00488Y00528*
X00488Y00529*
X00487Y0053*
X00486Y00531*
X00486Y00531*
X00485Y00532*
X00485Y00532*
X00485Y00532*
X00485Y00532*
X00485Y00532*
X00485Y00532*
X00484Y00532*
X00484Y00532*
X00483Y00533*
X00483Y00533*
X00483Y00533*
X00481Y00533*
X0048Y00533*
X0048Y00534*
X00478*
X00478Y00533*
X00478Y00533*
X00477Y00533*
X00477Y00533*
X00476Y00533*
X00475Y00533*
X00474Y00533*
X00473Y00532*
X00473Y00532*
X00472Y00532*
X00471Y00531*
X00471Y00531*
X00471Y00531*
X00471Y00531*
X00471Y00531*
X00471Y00531*
X0047Y0053*
X0047Y0053*
X0047Y0053*
X00469Y00529*
X00469Y00529*
X00468Y00528*
X00468Y00527*
X00467Y00526*
Y00526*
X00467Y00526*
X00467Y00525*
X00467Y00525*
X00467Y00525*
X00467Y00524*
X00467Y00524*
X00467Y00523*
X00467Y00523*
X00466Y00522*
X00466Y00521*
X00466Y0052*
X00466Y00518*
Y00518*
Y00518*
Y00518*
X00466Y00517*
Y00517*
X00466Y00517*
X00466Y00516*
X00466Y00515*
X00466Y00515*
X00466Y00514*
X00467Y00513*
X00467Y00511*
X00468Y0051*
Y0051*
X00468Y0051*
X00468Y00509*
X00468Y00509*
X00468Y00509*
X00468Y00508*
X00469Y00508*
X00469Y00507*
X0047Y00506*
X00471Y00505*
X00471Y00505*
X00472Y00504*
X00472*
X00472Y00504*
X00472Y00504*
X00472Y00504*
X00473Y00504*
X00473Y00504*
X00473Y00504*
X00474Y00503*
X00475Y00503*
X00476Y00503*
X00477Y00503*
X00478Y00503*
X00478Y00502*
X00479*
X00479Y00503*
X0048Y00503*
X0048Y00503*
X0048Y00503*
X00481Y00503*
X00482Y00503*
X00483Y00503*
X00483Y00504*
X00484Y00504*
X00485Y00504*
X00485Y00505*
X00486Y00505*
X00486Y00505*
X00486Y00505*
X00486Y00505*
X00486Y00505*
X00486Y00506*
X00487Y00506*
X00487Y00506*
X00487Y00507*
X00488Y00507*
X00488Y00508*
X00488Y00508*
X00489Y00509*
X00489Y0051*
X00489Y00511*
X0049Y00511*
X0049Y00512*
X00495Y00511*
Y00511*
X00495Y00511*
X00495Y0051*
X00494Y0051*
X00494Y00509*
X00494Y00509*
X00494Y00508*
X00493Y00507*
X00493Y00507*
X00493Y00506*
X00492Y00505*
X00492Y00504*
X00491Y00504*
X0049Y00503*
X0049Y00502*
X00489Y00501*
X00489Y00501*
X00489Y00501*
X00489Y00501*
X00488Y00501*
X00488Y00501*
X00487Y005*
X00487Y005*
X00486Y005*
X00485Y005*
X00485Y00499*
X00484Y00499*
X00483Y00499*
X00482Y00498*
X00481Y00498*
X0048Y00498*
X00479Y00498*
X00478*
X00478Y00498*
X00477Y00498*
X00477Y00498*
X00476Y00498*
X00475Y00499*
X00474Y00499*
X00474Y00499*
X00473Y00499*
X00472Y00499*
X00471Y005*
X0047Y005*
X0047Y005*
X00469Y00501*
X00469Y00501*
X00469Y00501*
X00468Y00501*
X00468Y00501*
X00468Y00501*
X00467Y00502*
X00467Y00502*
X00467Y00503*
X00466Y00503*
X00466Y00504*
X00465Y00504*
X00465Y00505*
X00464Y00506*
X00464Y00506*
X00463Y00507*
X00463Y00508*
X00463Y00508*
X00463Y00508*
X00463Y00508*
X00463Y00509*
X00462Y00509*
X00462Y0051*
X00462Y0051*
X00462Y00511*
X00462Y00512*
X00461Y00513*
X00461Y00513*
X00461Y00514*
X00461Y00516*
X00461Y00517*
X00461Y00518*
Y00518*
Y00519*
Y00519*
X00461Y00519*
X00461Y0052*
X00461Y0052*
X00461Y00521*
X00461Y00522*
X00461Y00523*
X00461Y00523*
X00462Y00525*
X00462Y00526*
X00462Y00527*
X00463Y00528*
X00463Y00529*
X00463Y00529*
X00463Y00529*
X00463Y00529*
X00464Y00529*
X00464Y0053*
X00464Y0053*
X00464Y00531*
X00465Y00531*
X00465Y00532*
X00466Y00532*
X00466Y00533*
X00467Y00533*
X00467Y00534*
X00468Y00535*
X00469Y00535*
X0047Y00536*
X0047Y00536*
X0047Y00536*
X0047Y00536*
X0047Y00536*
X00471Y00536*
X00471Y00536*
X00472Y00536*
X00472Y00537*
X00473Y00537*
X00474Y00537*
X00475Y00537*
X00475Y00537*
X00477Y00538*
X00478Y00538*
X00479Y00538*
X00479*
X0048Y00538*
G37*
G36*
X00512Y00537D02*
X00513Y00537D01*
X00513Y00537*
X00514Y00537*
X00515Y00537*
X00515Y00537*
X00516Y00537*
X00516Y00536*
X00517Y00536*
X00518Y00536*
X00518Y00535*
X00519Y00535*
X0052Y00534*
X0052Y00534*
X0052Y00534*
X0052Y00534*
X0052Y00534*
X0052Y00534*
X00521Y00533*
X00521Y00533*
X00521Y00532*
X00522Y00532*
X00522Y00531*
X00522Y00531*
X00522Y0053*
X00523Y00529*
X00523Y00529*
X00523Y00528*
X00523Y00527*
Y00527*
Y00527*
Y00527*
Y00527*
X00523Y00527*
X00523Y00526*
X00523Y00526*
X00522Y00525*
X00522Y00524*
X00522Y00523*
X00521Y00523*
Y00523*
X00521Y00523*
X00521Y00522*
X00521Y00522*
X0052Y00522*
X0052Y00521*
X00519Y00521*
X00518Y0052*
X00517Y0052*
X00517*
X00517Y0052*
X00517Y00519*
X00518Y00519*
X00518Y00519*
X00518Y00519*
X00519Y00519*
X0052Y00518*
X00521Y00518*
X00522Y00517*
X00523Y00516*
X00523Y00516*
X00523Y00516*
X00523Y00516*
X00523Y00515*
X00523Y00515*
X00523Y00515*
X00523Y00515*
X00523Y00514*
X00524Y00513*
X00524Y00512*
X00524Y00511*
X00524Y0051*
Y0051*
Y0051*
Y0051*
X00524Y00509*
Y00509*
X00524Y00509*
X00524Y00508*
X00524Y00507*
X00524Y00507*
X00524Y00506*
X00524Y00506*
X00523Y00505*
X00523Y00504*
X00523Y00503*
X00522Y00503*
X00522Y00502*
X00521Y00501*
X00521Y00501*
X00521Y00501*
X00521Y00501*
X0052Y00501*
X0052Y00501*
X00519Y005*
X00519Y005*
X00518Y005*
X00518Y005*
X00517Y00499*
X00516Y00499*
X00516Y00499*
X00515Y00498*
X00514Y00498*
X00513Y00498*
X00512Y00498*
X00511*
X00511Y00498*
X00511*
X0051Y00498*
X0051Y00498*
X00509Y00498*
X00508Y00499*
X00508Y00499*
X00507Y00499*
X00506Y00499*
X00505Y005*
X00505Y005*
X00504Y005*
X00503Y00501*
X00503Y00501*
X00502Y00502*
X00502Y00502*
X00502Y00502*
X00502Y00502*
X00502Y00502*
X00501Y00503*
X00501Y00503*
X00501Y00504*
X005Y00504*
X005Y00505*
X005Y00506*
X005Y00506*
X00499Y00507*
X00499Y00508*
X00499Y00509*
X00499Y0051*
Y0051*
Y0051*
Y0051*
X00499Y00511*
Y00511*
X00499Y00511*
X00499Y00512*
X00499Y00512*
X005Y00513*
X005Y00514*
X005Y00515*
X00501Y00516*
X00501Y00516*
X00501Y00516*
X00501Y00516*
X00501Y00516*
X00501Y00517*
X00501Y00517*
X00502Y00517*
X00502Y00517*
X00502Y00518*
X00503Y00518*
X00504Y00519*
X00505Y00519*
X00506Y0052*
X00506*
X00506Y0052*
X00506Y0052*
X00506Y0052*
X00506Y0052*
X00505Y0052*
X00505Y0052*
X00504Y00521*
X00503Y00521*
X00503Y00522*
X00502Y00523*
Y00523*
X00502Y00523*
X00502Y00523*
X00502Y00523*
X00502Y00523*
X00501Y00524*
X00501Y00525*
X00501Y00526*
X00501Y00526*
X00501Y00527*
Y00527*
Y00528*
X00501Y00528*
Y00528*
X00501Y00528*
X00501Y00529*
X00501Y00529*
X00501Y0053*
X00501Y0053*
X00501Y00531*
X00502Y00532*
X00502Y00532*
X00502Y00533*
X00503Y00533*
X00503Y00534*
X00504Y00534*
X00504Y00534*
X00504Y00535*
X00504Y00535*
X00504Y00535*
X00504Y00535*
X00505Y00535*
X00505Y00536*
X00506Y00536*
X00506Y00536*
X00507Y00536*
X00508Y00537*
X00508Y00537*
X00509Y00537*
X0051Y00537*
X00511Y00537*
X00512Y00537*
X00512*
X00512Y00537*
G37*
G36*
X00726Y00649D02*
X00727Y00649D01*
X00727Y00648*
X00728Y00648*
X00729Y00648*
X00729Y00648*
X0073Y00648*
X00731Y00648*
X00732Y00647*
X00733Y00647*
X00733Y00647*
X00734Y00646*
X00735Y00646*
X00735Y00646*
X00735Y00646*
X00735Y00645*
X00735Y00645*
X00736Y00645*
X00736Y00644*
X00737Y00644*
X00737Y00644*
X00737Y00643*
X00738Y00642*
X00738Y00642*
X00739Y00641*
X00739Y0064*
X0074Y00639*
X0074Y00638*
X0074Y00637*
X00735Y00636*
Y00636*
X00735Y00636*
X00735Y00637*
X00735Y00637*
X00735Y00637*
X00735Y00638*
X00734Y00639*
X00734Y0064*
X00733Y00641*
X00732Y00642*
X00732Y00642*
X00731Y00642*
X00731Y00642*
X00731Y00642*
X00731Y00643*
X00731Y00643*
X00731Y00643*
X0073Y00643*
X0073Y00643*
X0073Y00643*
X00729Y00644*
X00729Y00644*
X00728Y00644*
X00726Y00644*
X00726Y00644*
X00725*
X00724Y00644*
X00724Y00644*
X00723Y00644*
X00723Y00644*
X00722Y00644*
X00721Y00644*
X0072Y00643*
X00719Y00643*
X00719Y00643*
X00718Y00643*
X00718Y00642*
X00718Y00642*
X00717Y00642*
X00717Y00642*
X00717Y00642*
X00717Y00642*
X00717Y00641*
X00716Y00641*
X00716Y00641*
X00716Y0064*
X00715Y0064*
X00715Y00639*
X00714Y00638*
X00713Y00636*
Y00636*
X00713Y00636*
X00713Y00636*
X00713Y00636*
X00713Y00636*
X00713Y00635*
X00713Y00635*
X00713Y00634*
X00713Y00634*
X00713Y00633*
X00712Y00632*
X00712Y00631*
X00712Y00629*
Y00629*
Y00629*
Y00629*
X00712Y00628*
Y00628*
X00712Y00627*
X00712Y00627*
X00712Y00626*
X00713Y00626*
X00713Y00625*
X00713Y00623*
X00713Y00622*
X00714Y00621*
Y0062*
X00714Y0062*
X00714Y0062*
X00714Y0062*
X00714Y0062*
X00714Y00619*
X00715Y00618*
X00715Y00618*
X00716Y00617*
X00717Y00616*
X00718Y00615*
X00718Y00615*
X00718*
X00718Y00615*
X00718Y00615*
X00719Y00615*
X00719Y00615*
X00719Y00614*
X0072Y00614*
X0072Y00614*
X00721Y00614*
X00722Y00614*
X00723Y00613*
X00724Y00613*
X00725Y00613*
X00725*
X00725Y00613*
X00726Y00613*
X00726Y00613*
X00727Y00613*
X00727Y00614*
X00728Y00614*
X00729Y00614*
X0073Y00614*
X0073Y00615*
X00731Y00615*
X00731Y00615*
X00732Y00616*
X00732Y00616*
X00732Y00616*
X00732Y00616*
X00732Y00616*
X00733Y00616*
X00733Y00617*
X00733Y00617*
X00734Y00618*
X00734Y00618*
X00734Y00619*
X00734Y00619*
X00735Y0062*
X00735Y00621*
X00735Y00621*
X00736Y00622*
X00736Y00623*
X00741Y00622*
Y00622*
X00741Y00621*
X00741Y00621*
X00741Y00621*
X0074Y0062*
X0074Y0062*
X0074Y00619*
X0074Y00618*
X00739Y00617*
X00739Y00617*
X00738Y00616*
X00738Y00615*
X00737Y00614*
X00737Y00614*
X00736Y00613*
X00735Y00612*
X00735Y00612*
X00735Y00612*
X00735Y00612*
X00734Y00612*
X00734Y00611*
X00734Y00611*
X00733Y00611*
X00732Y00611*
X00732Y0061*
X00731Y0061*
X0073Y0061*
X00729Y00609*
X00728Y00609*
X00727Y00609*
X00726Y00609*
X00725Y00609*
X00724*
X00724Y00609*
X00724Y00609*
X00723Y00609*
X00722Y00609*
X00721Y00609*
X00721Y00609*
X0072Y0061*
X00719Y0061*
X00718Y0061*
X00717Y0061*
X00716Y00611*
X00716Y00611*
X00715Y00611*
X00715Y00612*
X00715Y00612*
X00715Y00612*
X00714Y00612*
X00714Y00612*
X00714Y00613*
X00713Y00613*
X00713Y00613*
X00712Y00614*
X00712Y00614*
X00711Y00615*
X00711Y00616*
X0071Y00616*
X0071Y00617*
X00709Y00618*
X00709Y00619*
X00709Y00619*
X00709Y00619*
X00709Y00619*
X00709Y0062*
X00709Y0062*
X00708Y00621*
X00708Y00621*
X00708Y00622*
X00708Y00623*
X00708Y00623*
X00708Y00624*
X00707Y00625*
X00707Y00627*
X00707Y00628*
X00707Y00629*
Y00629*
Y00629*
Y0063*
X00707Y0063*
X00707Y00631*
X00707Y00631*
X00707Y00632*
X00707Y00633*
X00707Y00633*
X00708Y00634*
X00708Y00636*
X00708Y00637*
X00709Y00638*
X00709Y00639*
X00709Y0064*
X00709Y0064*
X00709Y0064*
X0071Y0064*
X0071Y0064*
X0071Y00641*
X0071Y00641*
X00711Y00642*
X00711Y00642*
X00711Y00643*
X00712Y00643*
X00712Y00644*
X00713Y00644*
X00714Y00645*
X00714Y00645*
X00715Y00646*
X00716Y00646*
X00716Y00646*
X00716Y00646*
X00716Y00647*
X00717Y00647*
X00717Y00647*
X00717Y00647*
X00718Y00647*
X00719Y00647*
X00719Y00648*
X0072Y00648*
X00721Y00648*
X00722Y00648*
X00723Y00649*
X00724Y00649*
X00725Y00649*
X00726*
X00726Y00649*
G37*
G36*
X0077Y00644D02*
X0077Y00644D01*
X0077Y00644*
X0077Y00643*
X0077Y00643*
X0077Y00643*
X00769Y00642*
X00769Y00642*
X00768Y00641*
X00768Y0064*
X00767Y0064*
X00766Y00639*
X00766Y00638*
X00765Y00637*
X00765Y00636*
X00764Y00635*
X00763Y00633*
X00763Y00633*
X00763Y00633*
X00763Y00633*
X00763Y00632*
X00762Y00632*
X00762Y00631*
X00762Y0063*
X00761Y00629*
X00761Y00628*
X0076Y00627*
X0076Y00626*
X00759Y00625*
X00759Y00624*
X00758Y00623*
X00758Y0062*
Y0062*
X00758Y0062*
X00758Y0062*
X00757Y00619*
X00757Y00619*
X00757Y00618*
X00757Y00618*
X00757Y00617*
X00757Y00616*
X00757Y00615*
X00756Y00615*
X00756Y00614*
X00756Y00613*
X00756Y00612*
X00756Y0061*
X00751*
Y0061*
Y0061*
Y0061*
X00751Y0061*
X00751Y00611*
X00751Y00611*
X00751Y00612*
X00751Y00613*
X00751Y00613*
X00751Y00614*
X00752Y00615*
X00752Y00616*
X00752Y00617*
X00752Y00618*
X00752Y00619*
X00753Y0062*
X00753Y00621*
X00753Y00621*
X00753Y00621*
X00753Y00622*
X00753Y00622*
X00753Y00623*
X00754Y00624*
X00754Y00624*
X00754Y00625*
X00755Y00626*
X00755Y00627*
X00756Y00628*
X00757Y00631*
X00758Y00633*
X00758Y00633*
X00758Y00633*
X00758Y00633*
X00758Y00634*
X00759Y00634*
X00759Y00635*
X00759Y00636*
X0076Y00636*
X0076Y00637*
X00761Y00638*
X00762Y0064*
X00763Y00641*
X00764Y00642*
X00764Y00643*
X00746*
Y00647*
X0077*
Y00644*
G37*
G36*
X00761Y00577D02*
X00761Y00577D01*
X00762Y00577*
X00762Y00577*
X00763Y00577*
X00764Y00577*
X00765Y00577*
X00765Y00576*
X00766Y00576*
X00767Y00576*
X00767Y00575*
X00768Y00575*
X00768Y00575*
X00768Y00575*
X00768Y00575*
X00768Y00574*
X00768Y00574*
X00769Y00574*
X00769Y00573*
X00769Y00573*
X0077Y00573*
X0077Y00572*
X0077Y00571*
X0077Y00571*
X00771Y0057*
X00771Y00569*
X00771Y00569*
X00771Y00568*
X00766Y00567*
Y00567*
X00766Y00568*
X00766Y00568*
X00766Y00568*
X00766Y00568*
X00766Y00569*
X00766Y0057*
X00765Y0057*
X00765Y00571*
X00765Y00571*
X00765Y00572*
X00765Y00572*
X00764Y00572*
X00764Y00572*
X00764Y00572*
X00763Y00573*
X00763Y00573*
X00762Y00573*
X00761Y00573*
X0076Y00573*
X0076Y00574*
X0076*
X00759Y00573*
X00759Y00573*
X00758Y00573*
X00757Y00573*
X00757Y00573*
X00756Y00572*
X00756*
X00756Y00572*
X00756Y00572*
X00756Y00572*
X00755Y00572*
X00755Y00571*
X00754Y0057*
X00754Y0057*
X00753Y00569*
X00752Y00567*
Y00567*
X00752Y00567*
X00752Y00567*
X00752Y00567*
X00752Y00567*
X00752Y00566*
X00752Y00566*
X00752Y00565*
X00752Y00565*
X00752Y00564*
X00751Y00563*
X00751Y00562*
X00751Y00562*
X00751Y00561*
X00751Y0056*
X00751Y00559*
Y00559*
Y00559*
Y00559*
X00751Y00559*
X00751Y00559*
X00751Y00559*
X00752Y0056*
X00752Y0056*
X00753Y00561*
X00754Y00561*
X00754Y00562*
X00755Y00562*
X00755*
X00755Y00563*
X00755Y00563*
X00756Y00563*
X00756Y00563*
X00756Y00563*
X00757Y00563*
X00758Y00563*
X00758Y00564*
X00759Y00564*
X0076Y00564*
X00761*
X00761Y00564*
X00761*
X00762Y00564*
X00762Y00564*
X00763Y00563*
X00763Y00563*
X00764Y00563*
X00764Y00563*
X00765Y00563*
X00766Y00562*
X00767Y00562*
X00767Y00561*
X00768Y00561*
X00768Y0056*
X00769Y0056*
X00769Y0056*
X00769Y0056*
X00769Y0056*
X00769Y00559*
X0077Y00559*
X0077Y00558*
X0077Y00558*
X0077Y00557*
X00771Y00557*
X00771Y00556*
X00771Y00555*
X00772Y00554*
X00772Y00553*
X00772Y00552*
X00772Y00551*
Y00551*
Y00551*
Y00551*
X00772Y00551*
Y0055*
X00772Y0055*
X00772Y0055*
X00772Y00549*
X00771Y00548*
X00771Y00547*
X00771Y00546*
X0077Y00545*
Y00545*
X0077Y00544*
X0077Y00544*
X0077Y00544*
X0077Y00544*
X0077Y00544*
X00769Y00543*
X00769Y00542*
X00768Y00541*
X00767Y00541*
X00766Y0054*
X00766*
X00766Y0054*
X00766Y0054*
X00765Y0054*
X00765Y00539*
X00765Y00539*
X00765Y00539*
X00764Y00539*
X00763Y00539*
X00762Y00538*
X00761Y00538*
X0076Y00538*
X00759*
X00759Y00538*
X00759Y00538*
X00758Y00538*
X00758Y00538*
X00757Y00539*
X00756Y00539*
X00756Y00539*
X00755Y00539*
X00754Y0054*
X00753Y0054*
X00752Y00541*
X00752Y00541*
X00751Y00542*
X0075Y00543*
X0075Y00543*
X0075Y00543*
X0075Y00543*
X0075Y00543*
X00749Y00544*
X00749Y00544*
X00749Y00545*
X00748Y00546*
X00748Y00547*
X00748Y00548*
X00747Y00549*
X00747Y0055*
X00747Y00552*
X00747Y00553*
X00746Y00555*
X00746Y00557*
Y00557*
Y00557*
Y00557*
Y00557*
Y00558*
X00746Y00558*
Y00558*
X00747Y00559*
X00747Y0056*
X00747Y00561*
X00747Y00562*
X00747Y00563*
X00747Y00564*
X00747Y00566*
X00748Y00567*
X00748Y00568*
X00749Y0057*
X00749Y00571*
X0075Y00572*
X00751Y00573*
X00751Y00573*
X00751Y00573*
X00751Y00573*
X00751Y00574*
X00752Y00574*
X00752Y00574*
X00753Y00575*
X00753Y00575*
X00754Y00576*
X00754Y00576*
X00755Y00576*
X00756Y00577*
X00757Y00577*
X00758Y00577*
X00759Y00577*
X0076Y00577*
X00761*
X00761Y00577*
G37*
G36*
X00727Y00578D02*
X00728Y00578D01*
X00728Y00578*
X00729Y00578*
X0073Y00578*
X00731Y00577*
X00731Y00577*
X00732Y00577*
X00733Y00577*
X00734Y00576*
X00735Y00576*
X00735Y00576*
X00736Y00575*
X00736Y00575*
X00736Y00575*
X00737Y00575*
X00737Y00574*
X00737Y00574*
X00737Y00574*
X00738Y00573*
X00738Y00573*
X00739Y00572*
X00739Y00572*
X0074Y00571*
X0074Y0057*
X00741Y00569*
X00741Y00569*
X00741Y00568*
X00742Y00567*
X00737Y00566*
Y00566*
X00737Y00566*
X00737Y00566*
X00736Y00566*
X00736Y00567*
X00736Y00567*
X00736Y00568*
X00735Y00569*
X00734Y0057*
X00734Y00571*
X00733Y00571*
X00733Y00572*
X00733Y00572*
X00733Y00572*
X00732Y00572*
X00732Y00572*
X00732Y00572*
X00732Y00572*
X00731Y00572*
X00731Y00573*
X00731Y00573*
X0073Y00573*
X00729Y00573*
X00728Y00574*
X00727Y00574*
X00726*
X00726Y00574*
X00725Y00574*
X00725Y00573*
X00724Y00573*
X00724Y00573*
X00723Y00573*
X00721Y00573*
X00721Y00572*
X0072Y00572*
X0072Y00572*
X00719Y00571*
X00719Y00571*
X00719Y00571*
X00719Y00571*
X00718Y00571*
X00718Y00571*
X00718Y00571*
X00718Y0057*
X00717Y0057*
X00717Y0057*
X00717Y00569*
X00716Y00568*
X00715Y00567*
X00715Y00566*
Y00566*
X00715Y00566*
X00715Y00565*
X00715Y00565*
X00715Y00565*
X00714Y00564*
X00714Y00564*
X00714Y00563*
X00714Y00563*
X00714Y00562*
X00714Y00561*
X00714Y0056*
X00714Y00558*
Y00558*
Y00558*
Y00558*
X00714Y00558*
Y00557*
X00714Y00557*
X00714Y00556*
X00714Y00555*
X00714Y00555*
X00714Y00554*
X00714Y00553*
X00715Y00551*
X00715Y0055*
Y0055*
X00715Y0055*
X00715Y00549*
X00715Y00549*
X00715Y00549*
X00716Y00549*
X00716Y00548*
X00717Y00547*
X00717Y00546*
X00718Y00545*
X00719Y00545*
X00719Y00544*
X00719*
X0072Y00544*
X0072Y00544*
X0072Y00544*
X0072Y00544*
X00721Y00544*
X00721Y00544*
X00721Y00543*
X00722Y00543*
X00723Y00543*
X00725Y00543*
X00725Y00543*
X00726Y00543*
X00726*
X00727Y00543*
X00727Y00543*
X00727Y00543*
X00728Y00543*
X00728Y00543*
X0073Y00543*
X0073Y00543*
X00731Y00544*
X00731Y00544*
X00732Y00544*
X00733Y00545*
X00733Y00545*
X00733Y00545*
X00733Y00545*
X00733Y00545*
X00734Y00545*
X00734Y00546*
X00734Y00546*
X00734Y00546*
X00735Y00547*
X00735Y00547*
X00735Y00548*
X00736Y00548*
X00736Y00549*
X00736Y0055*
X00737Y00551*
X00737Y00551*
X00737Y00552*
X00742Y00551*
Y00551*
X00742Y00551*
X00742Y0055*
X00742Y0055*
X00742Y0055*
X00742Y00549*
X00741Y00548*
X00741Y00548*
X00741Y00547*
X0074Y00546*
X0074Y00545*
X00739Y00544*
X00739Y00544*
X00738Y00543*
X00737Y00542*
X00737Y00541*
X00736Y00541*
X00736Y00541*
X00736Y00541*
X00736Y00541*
X00735Y00541*
X00735Y0054*
X00734Y0054*
X00734Y0054*
X00733Y0054*
X00732Y00539*
X00731Y00539*
X0073Y00539*
X0073Y00539*
X00729Y00538*
X00728Y00538*
X00726Y00538*
X00726*
X00725Y00538*
X00725Y00538*
X00724Y00538*
X00724Y00538*
X00723Y00539*
X00722Y00539*
X00721Y00539*
X0072Y00539*
X0072Y00539*
X00719Y0054*
X00718Y0054*
X00717Y0054*
X00716Y00541*
X00716Y00541*
X00716Y00541*
X00716Y00541*
X00716Y00541*
X00715Y00541*
X00715Y00542*
X00715Y00542*
X00714Y00543*
X00714Y00543*
X00713Y00544*
X00713Y00544*
X00712Y00545*
X00712Y00546*
X00711Y00546*
X00711Y00547*
X0071Y00548*
X0071Y00548*
X0071Y00548*
X0071Y00549*
X0071Y00549*
X0071Y00549*
X0071Y0055*
X0071Y0055*
X00709Y00551*
X00709Y00552*
X00709Y00553*
X00709Y00554*
X00709Y00554*
X00708Y00556*
X00708Y00557*
X00708Y00558*
Y00558*
Y00559*
Y00559*
X00708Y00559*
X00708Y0056*
X00708Y0056*
X00709Y00561*
X00709Y00562*
X00709Y00563*
X00709Y00564*
X00709Y00565*
X0071Y00566*
X0071Y00567*
X0071Y00568*
X00711Y00569*
X00711Y00569*
X00711Y00569*
X00711Y00569*
X00711Y0057*
X00711Y0057*
X00712Y0057*
X00712Y00571*
X00712Y00571*
X00713Y00572*
X00713Y00572*
X00714Y00573*
X00714Y00574*
X00715Y00574*
X00716Y00575*
X00716Y00575*
X00717Y00576*
X00717Y00576*
X00717Y00576*
X00718Y00576*
X00718Y00576*
X00718Y00576*
X00719Y00576*
X00719Y00577*
X0072Y00577*
X00721Y00577*
X00721Y00577*
X00722Y00577*
X00723Y00578*
X00725Y00578*
X00726Y00578*
X00726Y00578*
X00727*
X00727Y00578*
G37*
G36*
X0057Y00535D02*
X00571Y00535D01*
X00571Y00535*
X00572Y00535*
X00573Y00535*
X00573Y00535*
X00574Y00535*
X00575Y00534*
X00576Y00534*
X00577Y00534*
X00577Y00533*
X00578Y00533*
X00579Y00532*
X00579Y00532*
X00579Y00532*
X00579Y00532*
X0058Y00532*
X0058Y00532*
X0058Y00531*
X00581Y00531*
X00581Y0053*
X00582Y0053*
X00582Y00529*
X00582Y00528*
X00583Y00528*
X00583Y00527*
X00584Y00526*
X00584Y00525*
X00584Y00524*
X00579Y00523*
Y00523*
X00579Y00523*
X00579Y00523*
X00579Y00524*
X00579Y00524*
X00579Y00524*
X00578Y00525*
X00578Y00526*
X00577Y00527*
X00576Y00528*
X00576Y00529*
X00576Y00529*
X00575Y00529*
X00575Y00529*
X00575Y00529*
X00575Y00529*
X00575Y0053*
X00575Y0053*
X00574Y0053*
X00574Y0053*
X00573Y0053*
X00573Y0053*
X00572Y00531*
X00571Y00531*
X0057Y00531*
X00569*
X00568Y00531*
X00568Y00531*
X00568Y00531*
X00567Y00531*
X00567Y00531*
X00565Y0053*
X00564Y0053*
X00563Y0053*
X00563Y0053*
X00562Y00529*
X00562Y00529*
X00562Y00529*
X00562Y00529*
X00561Y00529*
X00561Y00528*
X00561Y00528*
X00561Y00528*
X0056Y00528*
X0056Y00527*
X0056Y00527*
X00559Y00526*
X00559Y00526*
X00558Y00524*
X00558Y00523*
Y00523*
X00558Y00523*
X00557Y00523*
X00557Y00522*
X00557Y00522*
X00557Y00522*
X00557Y00521*
X00557Y00521*
X00557Y0052*
X00557Y0052*
X00557Y00518*
X00556Y00517*
X00556Y00516*
Y00516*
Y00516*
Y00515*
X00556Y00515*
Y00514*
X00556Y00514*
X00557Y00513*
X00557Y00513*
X00557Y00512*
X00557Y00511*
X00557Y0051*
X00557Y00509*
X00558Y00507*
Y00507*
X00558Y00507*
X00558Y00507*
X00558Y00507*
X00558Y00506*
X00558Y00506*
X00559Y00505*
X0056Y00504*
X0056Y00503*
X00561Y00502*
X00562Y00502*
X00562Y00502*
X00562*
X00562Y00502*
X00563Y00502*
X00563Y00501*
X00563Y00501*
X00563Y00501*
X00564Y00501*
X00564Y00501*
X00565Y00501*
X00566Y005*
X00567Y005*
X00568Y005*
X00569Y005*
X00569*
X00569Y005*
X0057Y005*
X0057Y005*
X00571Y005*
X00571Y005*
X00572Y00501*
X00573Y00501*
X00574Y00501*
X00574Y00501*
X00575Y00502*
X00575Y00502*
X00576Y00502*
X00576Y00502*
X00576Y00503*
X00576Y00503*
X00576Y00503*
X00577Y00503*
X00577Y00503*
X00577Y00504*
X00578Y00504*
X00578Y00505*
X00578Y00505*
X00579Y00506*
X00579Y00506*
X00579Y00507*
X0058Y00508*
X0058Y00509*
X0058Y0051*
X00585Y00508*
Y00508*
X00585Y00508*
X00585Y00508*
X00585Y00507*
X00585Y00507*
X00584Y00506*
X00584Y00506*
X00584Y00505*
X00583Y00504*
X00583Y00503*
X00583Y00503*
X00582Y00502*
X00581Y00501*
X00581Y005*
X0058Y005*
X00579Y00499*
X00579Y00499*
X00579Y00499*
X00579Y00499*
X00579Y00498*
X00578Y00498*
X00578Y00498*
X00577Y00498*
X00576Y00497*
X00576Y00497*
X00575Y00497*
X00574Y00496*
X00573Y00496*
X00572Y00496*
X00571Y00496*
X0057Y00496*
X00569Y00496*
X00569*
X00568Y00496*
X00568Y00496*
X00567Y00496*
X00566Y00496*
X00566Y00496*
X00565Y00496*
X00564Y00496*
X00563Y00496*
X00562Y00497*
X00561Y00497*
X00561Y00497*
X0056Y00498*
X00559Y00498*
X00559Y00498*
X00559Y00498*
X00559Y00498*
X00558Y00499*
X00558Y00499*
X00558Y00499*
X00557Y005*
X00557Y005*
X00556Y005*
X00556Y00501*
X00555Y00502*
X00555Y00502*
X00554Y00503*
X00554Y00504*
X00554Y00505*
X00553Y00505*
X00553Y00505*
X00553Y00506*
X00553Y00506*
X00553Y00506*
X00553Y00507*
X00553Y00507*
X00552Y00508*
X00552Y00508*
X00552Y00509*
X00552Y0051*
X00552Y00511*
X00551Y00512*
X00551Y00514*
X00551Y00515*
X00551Y00516*
Y00516*
Y00516*
Y00516*
X00551Y00517*
X00551Y00517*
X00551Y00518*
X00551Y00519*
X00551Y00519*
X00552Y0052*
X00552Y00521*
X00552Y00523*
X00552Y00524*
X00553Y00524*
X00553Y00525*
X00553Y00526*
X00553Y00526*
X00554Y00526*
X00554Y00527*
X00554Y00527*
X00554Y00527*
X00554Y00528*
X00555Y00528*
X00555Y00529*
X00556Y00529*
X00556Y0053*
X00557Y0053*
X00557Y00531*
X00558Y00531*
X00558Y00532*
X00559Y00532*
X0056Y00533*
X0056Y00533*
X0056Y00533*
X0056Y00533*
X00561Y00533*
X00561Y00533*
X00562Y00534*
X00562Y00534*
X00563Y00534*
X00563Y00534*
X00564Y00535*
X00565Y00535*
X00566Y00535*
X00567Y00535*
X00568Y00535*
X00569Y00535*
X0057*
X0057Y00535*
G37*
G36*
X00609Y0051D02*
X00614D01*
Y00505*
X00609*
Y00496*
X00605*
Y00505*
X00588*
Y0051*
X00605Y00535*
X00609*
Y0051*
G37*
G36*
X0038Y0036D02*
X00381Y0036D01*
X00381Y0036*
X00382Y0036*
X00382Y0036*
X00383Y00359*
X00384Y00359*
X00385Y00359*
X00386Y00359*
X00386Y00358*
X00387Y00358*
X00388Y00358*
X00389Y00357*
X00389Y00357*
X00389Y00357*
X00389Y00357*
X00389Y00356*
X0039Y00356*
X0039Y00356*
X0039Y00355*
X00391Y00355*
X00391Y00354*
X00392Y00354*
X00392Y00353*
X00393Y00352*
X00393Y00352*
X00394Y00351*
X00394Y0035*
X00394Y00349*
X00389Y00348*
Y00348*
X00389Y00348*
X00389Y00348*
X00389Y00348*
X00389Y00349*
X00389Y00349*
X00388Y0035*
X00388Y00351*
X00387Y00352*
X00386Y00353*
X00386Y00353*
X00385Y00354*
X00385Y00354*
X00385Y00354*
X00385Y00354*
X00385Y00354*
X00385Y00354*
X00384Y00354*
X00384Y00355*
X00384Y00355*
X00383Y00355*
X00383Y00355*
X00382Y00355*
X0038Y00356*
X0038Y00356*
X00379*
X00378Y00356*
X00378Y00356*
X00377Y00356*
X00377Y00355*
X00376Y00355*
X00375Y00355*
X00374Y00355*
X00373Y00354*
X00373Y00354*
X00372Y00354*
X00372Y00353*
X00371Y00353*
X00371Y00353*
X00371Y00353*
X00371Y00353*
X00371Y00353*
X00371Y00353*
X0037Y00352*
X0037Y00352*
X0037Y00352*
X00369Y00351*
X00369Y0035*
X00368Y00349*
X00367Y00348*
Y00348*
X00367Y00348*
X00367Y00347*
X00367Y00347*
X00367Y00347*
X00367Y00346*
X00367Y00346*
X00367Y00346*
X00367Y00345*
X00367Y00344*
X00366Y00343*
X00366Y00342*
X00366Y0034*
Y0034*
Y0034*
Y0034*
X00366Y0034*
Y00339*
X00366Y00339*
X00366Y00338*
X00366Y00338*
X00366Y00337*
X00367Y00336*
X00367Y00335*
X00367Y00333*
X00368Y00332*
Y00332*
X00368Y00332*
X00368Y00332*
X00368Y00331*
X00368Y00331*
X00368Y00331*
X00369Y0033*
X00369Y00329*
X0037Y00328*
X00371Y00327*
X00371Y00327*
X00372Y00326*
X00372*
X00372Y00326*
X00372Y00326*
X00373Y00326*
X00373Y00326*
X00373Y00326*
X00374Y00326*
X00374Y00326*
X00375Y00325*
X00376Y00325*
X00377Y00325*
X00378Y00325*
X00379Y00325*
X00379*
X00379Y00325*
X0038Y00325*
X0038Y00325*
X00381Y00325*
X00381Y00325*
X00382Y00325*
X00383Y00325*
X00383Y00326*
X00384Y00326*
X00385Y00326*
X00385Y00327*
X00386Y00327*
X00386Y00327*
X00386Y00327*
X00386Y00327*
X00386Y00328*
X00386Y00328*
X00387Y00328*
X00387Y00328*
X00387Y00329*
X00388Y00329*
X00388Y0033*
X00388Y00331*
X00389Y00331*
X00389Y00332*
X00389Y00333*
X0039Y00334*
X0039Y00334*
X00395Y00333*
Y00333*
X00395Y00333*
X00395Y00333*
X00395Y00332*
X00394Y00332*
X00394Y00331*
X00394Y0033*
X00394Y0033*
X00393Y00329*
X00393Y00328*
X00392Y00327*
X00392Y00326*
X00391Y00326*
X00391Y00325*
X0039Y00324*
X00389Y00324*
X00389Y00323*
X00389Y00323*
X00389Y00323*
X00388Y00323*
X00388Y00323*
X00387Y00322*
X00387Y00322*
X00386Y00322*
X00386Y00322*
X00385Y00321*
X00384Y00321*
X00383Y00321*
X00382Y00321*
X00381Y0032*
X0038Y0032*
X00379Y0032*
X00378*
X00378Y0032*
X00377Y0032*
X00377Y0032*
X00376Y0032*
X00375Y00321*
X00375Y00321*
X00374Y00321*
X00373Y00321*
X00372Y00321*
X00371Y00322*
X0037Y00322*
X0037Y00322*
X00369Y00323*
X00369Y00323*
X00369Y00323*
X00368Y00323*
X00368Y00323*
X00368Y00324*
X00368Y00324*
X00367Y00324*
X00367Y00325*
X00366Y00325*
X00366Y00326*
X00365Y00326*
X00365Y00327*
X00364Y00328*
X00364Y00328*
X00363Y00329*
X00363Y0033*
X00363Y0033*
X00363Y0033*
X00363Y00331*
X00363Y00331*
X00362Y00331*
X00362Y00332*
X00362Y00333*
X00362Y00333*
X00362Y00334*
X00362Y00335*
X00361Y00336*
X00361Y00336*
X00361Y00338*
X00361Y00339*
X00361Y0034*
Y0034*
Y00341*
Y00341*
X00361Y00341*
X00361Y00342*
X00361Y00343*
X00361Y00343*
X00361Y00344*
X00361Y00345*
X00361Y00346*
X00362Y00347*
X00362Y00348*
X00362Y00349*
X00363Y0035*
X00363Y00351*
X00363Y00351*
X00363Y00351*
X00363Y00351*
X00364Y00352*
X00364Y00352*
X00364Y00352*
X00365Y00353*
X00365Y00353*
X00365Y00354*
X00366Y00354*
X00366Y00355*
X00367Y00356*
X00368Y00356*
X00368Y00357*
X00369Y00357*
X0037Y00358*
X0037Y00358*
X0037Y00358*
X0037Y00358*
X0037Y00358*
X00371Y00358*
X00371Y00358*
X00372Y00359*
X00372Y00359*
X00373Y00359*
X00374Y00359*
X00375Y00359*
X00375Y0036*
X00377Y0036*
X00378Y0036*
X00379Y0036*
X0038*
X0038Y0036*
G37*
G36*
X00412Y00359D02*
X00412Y00359D01*
X00413Y00359*
X00414Y00359*
X00415Y00359*
X00416Y00359*
X00417Y00358*
X00417*
X00417Y00358*
X00417Y00358*
X00417Y00358*
X00418Y00358*
X00419Y00357*
X00419Y00357*
X0042Y00356*
X00421Y00355*
X00421Y00354*
Y00354*
X00421Y00354*
X00421Y00354*
X00421Y00354*
X00421Y00354*
X00422Y00354*
X00422Y00353*
X00422Y00352*
X00422Y00351*
X00422Y0035*
X00423Y00349*
Y00349*
Y00349*
Y00349*
Y00349*
X00422Y00349*
X00422Y00348*
X00422Y00347*
X00422Y00346*
X00422Y00346*
X00421Y00345*
Y00345*
X00421Y00345*
X00421Y00345*
X00421Y00344*
X0042Y00344*
X0042Y00343*
X00419Y00343*
X00418Y00342*
X00417Y00342*
X00417*
X00417Y00342*
X00418Y00342*
X00418Y00341*
X00418Y00341*
X00418Y00341*
X00419Y00341*
X0042Y00341*
X00421Y0034*
X00422Y00339*
X00422Y00338*
X00423Y00338*
X00423Y00338*
X00423Y00338*
X00423Y00338*
X00423Y00338*
X00423Y00337*
X00423Y00337*
X00423Y00337*
X00424Y00336*
X00424Y00336*
X00424Y00335*
X00424Y00334*
X00424Y00333*
Y00332*
Y00332*
Y00332*
X00424Y00332*
Y00331*
X00424Y00331*
X00424Y0033*
X00424Y0033*
X00424Y00329*
X00424Y00329*
X00423Y00328*
X00423Y00327*
X00423Y00327*
X00422Y00326*
X00422Y00325*
X00421Y00324*
X00421Y00324*
X00421Y00324*
X00421Y00324*
X0042Y00323*
X0042Y00323*
X0042Y00323*
X00419Y00323*
X00419Y00322*
X00418Y00322*
X00418Y00322*
X00417Y00321*
X00416Y00321*
X00415Y00321*
X00414Y00321*
X00413Y0032*
X00412Y0032*
X00411Y0032*
X00411*
X00411Y0032*
X00411*
X0041Y0032*
X0041Y0032*
X00409Y0032*
X00409Y00321*
X00408Y00321*
X00407Y00321*
X00406Y00321*
X00406Y00321*
X00405Y00322*
X00404Y00322*
X00404Y00323*
X00403Y00323*
X00403Y00323*
X00403Y00323*
X00403Y00324*
X00403Y00324*
X00402Y00324*
X00402Y00324*
X00402Y00325*
X00401Y00325*
X00401Y00326*
X00401Y00326*
X004Y00327*
X004Y00328*
X004Y00329*
X004Y00329*
X00399Y0033*
X00399Y00331*
X00404Y00332*
Y00332*
X00404Y00332*
X00404Y00331*
X00404Y00331*
X00404Y00331*
X00404Y0033*
X00405Y00329*
X00405Y00328*
X00405Y00328*
X00406Y00327*
X00406Y00326*
X00407Y00326*
X00407*
X00407Y00326*
X00407Y00326*
X00407Y00326*
X00407Y00325*
X00408Y00325*
X00409Y00325*
X0041Y00324*
X0041Y00324*
X00411Y00324*
X00412*
X00412Y00324*
X00412Y00324*
X00413Y00324*
X00413Y00324*
X00414Y00325*
X00415Y00325*
X00416Y00325*
X00416Y00326*
X00417Y00326*
X00417Y00326*
X00417Y00326*
X00417Y00327*
X00417Y00327*
X00417Y00327*
X00418Y00327*
X00418Y00327*
X00418Y00328*
X00418Y00328*
X00419Y00329*
X00419Y0033*
X00419Y00331*
X00419Y00332*
X00419Y00332*
Y00332*
Y00332*
Y00332*
X00419Y00333*
X00419Y00333*
X00419Y00333*
X00419Y00334*
X00419Y00335*
X00418Y00336*
X00418Y00336*
X00418Y00337*
X00418Y00337*
X00417Y00337*
X00417Y00338*
X00417Y00338*
X00417Y00338*
X00417Y00338*
X00417Y00338*
X00416Y00338*
X00416Y00339*
X00415Y00339*
X00414Y00339*
X00413Y0034*
X00412Y0034*
X00412Y0034*
X00412*
X00411Y0034*
X00411*
X0041Y00339*
X0041Y00339*
X00409Y00339*
X00409Y00339*
X00409Y00343*
X00409*
X00409Y00343*
X0041Y00343*
X0041*
X0041Y00343*
X00411*
X00411Y00343*
X00412Y00343*
X00412Y00343*
X00413Y00344*
X00414Y00344*
X00415Y00345*
X00415*
X00415Y00345*
X00415Y00345*
X00416Y00345*
X00416Y00345*
X00416Y00346*
X00417Y00347*
X00417Y00347*
X00417Y00348*
X00418Y00348*
X00418Y00349*
X00418Y0035*
Y0035*
Y0035*
Y0035*
X00418Y0035*
X00418Y0035*
X00417Y00351*
X00417Y00352*
X00417Y00352*
X00416Y00353*
X00416Y00354*
X00416Y00354*
X00416Y00354*
X00416Y00354*
X00415Y00354*
X00415Y00355*
X00414Y00355*
X00413Y00355*
X00412Y00355*
X00411Y00356*
X00411*
X00411Y00356*
X00411*
X0041Y00355*
X0041Y00355*
X00409Y00355*
X00408Y00355*
X00408Y00354*
X00407Y00354*
X00407Y00354*
X00406Y00353*
X00406Y00353*
X00406Y00353*
X00405Y00352*
X00405Y00351*
X00405Y0035*
X00404Y00349*
X004Y00349*
Y0035*
X004Y0035*
X004Y0035*
X004Y0035*
X004Y00351*
X004Y00351*
X004Y00352*
X00401Y00352*
X00401Y00353*
X00401Y00354*
X00402Y00355*
X00402Y00355*
X00403Y00356*
X00403Y00356*
X00404Y00357*
X00404Y00357*
X00404Y00357*
X00404Y00357*
X00404Y00357*
X00405Y00357*
X00405Y00358*
X00405Y00358*
X00406Y00358*
X00406Y00358*
X00407Y00359*
X00407Y00359*
X00408Y00359*
X00409Y00359*
X0041Y00359*
X0041Y00359*
X00411Y00359*
X00412*
X00412Y00359*
G37*
G36*
X00786Y00414D02*
X00786D01*
X00786*
X00786*
X00785Y00414*
X00785Y00414*
X00784Y00414*
X00784Y00415*
X00783Y00415*
X00783*
X00783Y00415*
X00783Y00415*
X00783Y00415*
X00783Y00415*
X00782Y00415*
X00782Y00416*
X00781Y00416*
X0078Y00416*
X00779Y00417*
X00778Y00418*
X00778Y00418*
X00778Y00418*
X00778Y00418*
X00778Y00418*
X00777Y00418*
X00777Y00419*
X00777Y00419*
X00776Y00419*
X00776Y0042*
X00776Y0042*
X00775Y00421*
X00775Y00421*
X00774Y00422*
X00773Y00423*
X00773Y00423*
X00772Y00424*
X00772Y00424*
X00772Y00424*
X00772Y00425*
X00771Y00425*
X00771Y00426*
X00771Y00426*
X0077Y00427*
X00769Y00427*
X00768Y00429*
X00767Y0043*
X00766Y00431*
X00765Y00432*
X00765Y00432*
X00764Y00433*
X00764Y00433*
X00764Y00433*
X00764Y00433*
X00764Y00433*
X00763Y00433*
X00763Y00433*
X00762Y00434*
X00761Y00434*
X0076Y00434*
X00759Y00435*
X00759Y00435*
X00758Y00435*
X00758*
X00758*
X00758*
X00758Y00435*
X00758*
X00757Y00435*
X00757Y00435*
X00756Y00434*
X00755Y00434*
X00755Y00434*
X00755Y00433*
X00754Y00433*
X00754Y00433*
X00754Y00433*
X00754Y00433*
X00754Y00433*
X00753Y00432*
X00753Y00432*
X00753Y00432*
X00753Y00431*
X00752Y00431*
X00752Y0043*
X00752Y00429*
X00752Y00428*
Y00427*
X00752Y00427*
Y00427*
X00752Y00426*
X00752Y00425*
X00752Y00425*
X00753Y00424*
X00753Y00423*
X00753Y00423*
X00754Y00422*
X00754Y00422*
X00754Y00422*
X00754Y00422*
X00754Y00422*
X00754Y00422*
X00754Y00421*
X00755Y00421*
X00755Y00421*
X00755Y00421*
X00756Y00421*
X00756Y00421*
X00757Y0042*
X00758Y0042*
X00759Y0042*
X0076Y0042*
X00759Y00415*
X00759*
X00759Y00415*
X00759Y00415*
X00758Y00415*
X00758Y00415*
X00757Y00415*
X00757Y00416*
X00756Y00416*
X00755Y00416*
X00755Y00416*
X00754Y00417*
X00753Y00417*
X00753Y00417*
X00752Y00418*
X00751Y00418*
X00751Y00419*
X00751Y00419*
X00751Y00419*
X00751Y00419*
X0075Y00419*
X0075Y0042*
X0075Y0042*
X0075Y00421*
X00749Y00421*
X00749Y00422*
X00749Y00422*
X00749Y00423*
X00748Y00424*
X00748Y00425*
X00748Y00426*
X00748Y00427*
X00748Y00428*
Y00428*
X00748Y00428*
X00748Y00429*
X00748Y00429*
X00748Y0043*
X00748Y00431*
X00748Y00431*
X00749Y00432*
X00749Y00433*
X00749Y00434*
X0075Y00434*
X0075Y00435*
X0075Y00436*
X00751Y00436*
X00751Y00436*
X00751Y00436*
X00751Y00437*
X00752Y00437*
X00752Y00437*
X00752Y00437*
X00753Y00438*
X00753Y00438*
X00754Y00438*
X00754Y00439*
X00755Y00439*
X00755Y00439*
X00756Y00439*
X00757Y00439*
X00758Y0044*
X00759Y0044*
X00759*
X00759*
X00759*
X00759*
X00759Y0044*
X0076Y00439*
X00761Y00439*
X00761Y00439*
X00762Y00439*
X00763Y00439*
X00763*
X00763Y00439*
X00763Y00439*
X00764Y00438*
X00764Y00438*
X00765Y00438*
X00765Y00437*
X00766Y00437*
X00767Y00436*
X00768Y00435*
X00768Y00435*
X00768Y00435*
X00768Y00435*
X00768Y00435*
X00769Y00435*
X00769Y00435*
X00769Y00434*
X0077Y00434*
X0077Y00433*
X00771Y00433*
X00771Y00432*
X00772Y00431*
X00772Y00431*
X00773Y0043*
X00774Y00429*
X00775Y00428*
X00775Y00428*
X00775Y00428*
X00775Y00428*
X00775Y00428*
X00775Y00427*
X00776Y00427*
X00776Y00426*
X00777Y00425*
X00778Y00424*
X00778Y00424*
X00779Y00423*
X00779Y00423*
X00779Y00423*
X00779Y00423*
X0078Y00423*
X0078Y00422*
X0078Y00422*
X00781Y00422*
X00781Y00421*
X00782Y00421*
Y0044*
X00786*
Y00414*
G37*
G36*
X00775Y0041D02*
X00775Y0041D01*
X00775Y0041*
X00776Y0041*
X00776Y0041*
X00777Y0041*
X00778Y00409*
X00779Y00409*
X00779Y00408*
X0078Y00408*
X00781Y00407*
X00782Y00407*
X00782Y00406*
X00783Y00405*
X00784Y00405*
X00784Y00405*
X00784Y00405*
X00784Y00404*
X00784Y00404*
X00785Y00404*
X00785Y00403*
X00785Y00403*
X00785Y00402*
X00786Y00401*
X00786Y004*
X00786Y004*
X00787Y00399*
X00787Y00398*
X00787Y00397*
X00787Y00396*
X00787Y00395*
Y00394*
X00787Y00394*
X00787Y00393*
X00787Y00392*
X00787Y00392*
X00787Y00391*
X00787Y0039*
X00786Y00389*
X00786Y00389*
X00786Y00388*
X00786Y00387*
X00785Y00386*
X00785Y00385*
X00785Y00384*
X00785Y00384*
X00784Y00384*
X00784Y00384*
X00784Y00384*
X00784Y00384*
X00784Y00383*
X00783Y00383*
X00783Y00382*
X00782Y00382*
X00782Y00381*
X00781Y00381*
X0078Y0038*
X0078Y0038*
X00779Y00379*
X00778Y00379*
X00777Y00379*
X00777Y00379*
X00777Y00378*
X00777Y00378*
X00776Y00378*
X00776Y00378*
X00775Y00378*
X00775Y00378*
X00774Y00378*
X00773Y00377*
X00773Y00377*
X00772Y00377*
X00771Y00377*
X00769Y00377*
X00768Y00377*
X00767Y00377*
X00767*
X00767*
X00766*
X00766Y00377*
X00765Y00377*
X00765Y00377*
X00764Y00377*
X00763Y00377*
X00763Y00377*
X00762Y00377*
X0076Y00378*
X00759Y00378*
X00758Y00378*
X00757Y00378*
X00756Y00379*
X00756Y00379*
X00756Y00379*
X00756Y00379*
X00756Y00379*
X00755Y0038*
X00755Y0038*
X00754Y0038*
X00754Y00381*
X00753Y00381*
X00753Y00381*
X00752Y00382*
X00752Y00383*
X00751Y00383*
X00751Y00384*
X0075Y00385*
X0075Y00385*
X0075Y00385*
X0075Y00386*
X00749Y00386*
X00749Y00386*
X00749Y00386*
X00749Y00387*
X00749Y00388*
X00749Y00388*
X00748Y00389*
X00748Y0039*
X00748Y0039*
X00748Y00391*
X00747Y00393*
X00747Y00394*
X00747Y00395*
Y00395*
X00747Y00396*
X00747Y00396*
X00748Y00397*
X00748Y00397*
X00748Y00398*
X00748Y00399*
X00748Y004*
X00748Y004*
X00749Y00401*
X00749Y00402*
X00749Y00403*
X0075Y00404*
X0075Y00404*
X0075Y00404*
X0075Y00405*
X00751Y00405*
X00751Y00405*
X00751Y00405*
X00752Y00406*
X00752Y00406*
X00752Y00407*
X00753Y00407*
X00754Y00407*
X00754Y00408*
X00755Y00408*
X00756Y00409*
X00757Y00409*
X00758Y0041*
X00759Y0041*
X0076Y00405*
X0076*
X0076Y00405*
X00759Y00405*
X00759Y00405*
X00759Y00404*
X00758Y00404*
X00757Y00404*
X00756Y00403*
X00755Y00403*
X00754Y00402*
X00754Y00401*
X00754Y00401*
X00754Y00401*
X00754Y00401*
X00753Y00401*
X00753Y004*
X00753Y004*
X00753Y004*
X00753Y004*
X00753Y00399*
X00752Y00399*
X00752Y00398*
X00752Y00397*
X00752Y00396*
X00752Y00395*
Y00394*
X00752Y00394*
X00752Y00393*
X00752Y00393*
X00752Y00393*
X00752Y00392*
X00752Y00391*
X00753Y0039*
X00753Y00389*
X00753Y00388*
X00753Y00388*
X00754Y00387*
X00754Y00387*
X00754Y00387*
X00754Y00387*
X00754Y00387*
X00754Y00386*
X00755Y00386*
X00755Y00386*
X00755Y00386*
X00756Y00385*
X00756Y00385*
X00757Y00384*
X00758Y00384*
X0076Y00383*
X0076*
X0076Y00383*
X0076Y00383*
X0076Y00383*
X00761Y00383*
X00761Y00383*
X00761Y00383*
X00762Y00382*
X00762Y00382*
X00763Y00382*
X00764Y00382*
X00766Y00382*
X00767Y00382*
X00767*
X00767*
X00767*
X00768Y00382*
X00768*
X00769Y00382*
X00769Y00382*
X0077Y00382*
X00771Y00382*
X00771Y00382*
X00773Y00382*
X00774Y00383*
X00775Y00383*
X00776*
X00776Y00383*
X00776Y00383*
X00776Y00383*
X00776Y00384*
X00777Y00384*
X00778Y00384*
X00778Y00385*
X00779Y00386*
X0078Y00387*
X00781Y00387*
X00781Y00388*
Y00388*
X00781Y00388*
X00781Y00388*
X00781Y00388*
X00781Y00388*
X00782Y00389*
X00782Y00389*
X00782Y0039*
X00782Y00391*
X00782Y00392*
X00783Y00393*
X00783Y00393*
X00783Y00394*
Y00395*
X00783Y00395*
X00783Y00395*
X00783Y00396*
X00783Y00396*
X00782Y00397*
X00782Y00398*
X00782Y00398*
X00782Y00399*
X00781Y004*
X00781Y004*
X00781Y00401*
X0078Y00401*
X0078Y00401*
X0078Y00402*
X0078Y00402*
X0078Y00402*
X0078Y00402*
X00779Y00402*
X00779Y00403*
X00778Y00403*
X00778Y00403*
X00777Y00404*
X00777Y00404*
X00776Y00404*
X00775Y00405*
X00775Y00405*
X00774Y00405*
X00773Y00405*
X00774Y00411*
X00774*
X00775Y0041*
G37*
G36*
X0113Y00911D02*
X0113Y00911D01*
X01131Y00911*
X01132Y00911*
X01132Y0091*
X01133Y0091*
X01134Y0091*
X01134Y0091*
X01135Y0091*
X01136Y00909*
X01136Y00909*
X01137Y00908*
X01138Y00908*
X01138Y00908*
X01138Y00908*
X01138Y00907*
X01138Y00907*
X01138Y00907*
X01139Y00907*
X01139Y00906*
X01139Y00906*
X0114Y00905*
X0114Y00905*
X0114Y00904*
X0114Y00903*
X01141Y00902*
X01141Y00902*
X01141Y00901*
X01141Y009*
Y009*
Y009*
Y009*
Y009*
X01141Y00899*
X01141Y00899*
X01141Y00898*
X01141Y00897*
X0114Y00896*
X0114Y00896*
Y00896*
X0114Y00895*
X0114Y00895*
X0114Y00895*
X0114Y00895*
X01139Y00894*
X01139Y00893*
X01138Y00893*
X01138Y00892*
X01137Y00891*
X01137Y00891*
X01137Y00891*
X01137Y00891*
X01136Y0089*
X01136Y0089*
X01136Y0089*
X01136Y0089*
X01135Y00889*
X01135Y00889*
X01134Y00888*
X01134Y00888*
X01133Y00887*
X01132Y00886*
X01131Y00886*
X01131Y00885*
X0113Y00884*
X0113Y00884*
X01129Y00884*
X01129Y00884*
X01129Y00884*
X01129Y00883*
X01128Y00883*
X01127Y00882*
X01126Y00881*
X01126Y00881*
X01125Y0088*
X01125Y0088*
X01124Y0088*
X01124Y00879*
X01124Y00879*
X01124Y00879*
X01124Y00879*
X01123Y00879*
X01123Y00878*
X01123Y00878*
X01122Y00877*
X01141*
Y00872*
X01116*
Y00872*
Y00873*
Y00873*
X01116Y00873*
X01116Y00874*
X01116Y00874*
X01116Y00875*
X01116Y00876*
Y00876*
X01116Y00876*
X01116Y00876*
X01116Y00876*
X01116Y00876*
X01117Y00876*
X01117Y00877*
X01117Y00878*
X01118Y00879*
X01118Y0088*
X01119Y00881*
X01119Y00881*
X01119Y00881*
X01119Y00881*
X0112Y00881*
X0112Y00881*
X0112Y00882*
X0112Y00882*
X01121Y00882*
X01121Y00883*
X01122Y00883*
X01122Y00884*
X01123Y00884*
X01123Y00885*
X01124Y00885*
X01125Y00886*
X01125Y00886*
X01126Y00886*
X01126Y00887*
X01126Y00887*
X01126Y00887*
X01127Y00888*
X01128Y00888*
X01128Y00889*
X01129Y00889*
X0113Y00891*
X01132Y00892*
X01132Y00893*
X01133Y00893*
X01133Y00894*
X01134Y00895*
X01134Y00895*
X01134Y00895*
X01134Y00895*
X01134Y00895*
X01134Y00895*
X01135Y00896*
X01135Y00896*
X01135Y00897*
X01136Y00898*
X01136Y00899*
X01136Y009*
X01136Y009*
Y009*
Y009*
Y00901*
X01136Y00901*
Y00901*
X01136Y00901*
X01136Y00902*
X01136Y00903*
X01135Y00903*
X01135Y00904*
X01135Y00904*
X01135Y00905*
X01134Y00905*
X01134Y00905*
X01134Y00905*
X01134Y00905*
X01134Y00905*
X01134Y00905*
X01133Y00906*
X01133Y00906*
X01132Y00906*
X01131Y00907*
X0113Y00907*
X01129Y00907*
X01129*
X01128Y00907*
X01128*
X01128Y00907*
X01127Y00907*
X01126Y00906*
X01125Y00906*
X01125Y00906*
X01124Y00906*
X01124Y00905*
X01123Y00905*
X01123Y00905*
X01123Y00905*
X01123Y00905*
X01123Y00904*
X01123Y00904*
X01123Y00904*
X01123Y00904*
X01122Y00903*
X01122Y00903*
X01122Y00903*
X01122Y00902*
X01121Y009*
X01121Y009*
X01121Y00899*
X01116Y009*
Y009*
X01117Y009*
X01117Y009*
X01117Y00901*
X01117Y00901*
X01117Y00902*
X01117Y00902*
X01117Y00903*
X01117Y00903*
X01118Y00904*
X01118Y00905*
X01118Y00905*
X01119Y00906*
X01119Y00907*
X0112Y00907*
X0112Y00908*
X0112Y00908*
X0112Y00908*
X01121Y00908*
X01121Y00908*
X01121Y00909*
X01122Y00909*
X01122Y00909*
X01123Y00909*
X01123Y0091*
X01124Y0091*
X01125Y0091*
X01125Y0091*
X01126Y00911*
X01127Y00911*
X01128Y00911*
X01129Y00911*
X0113*
X0113Y00911*
G37*
G36*
X01099Y00911D02*
X011Y00911D01*
X01101Y00911*
X01102Y0091*
X01102Y0091*
X01103Y0091*
X01103*
X01103Y0091*
X01103*
X01103Y0091*
X01103Y0091*
X01104Y0091*
X01104Y0091*
X01105Y0091*
X01106Y00909*
X01107Y00909*
X01107Y00908*
X01107*
X01108Y00908*
X01108Y00908*
X01108Y00908*
X01109Y00908*
X01109Y00907*
X0111Y00906*
X0111Y00906*
X01111Y00905*
Y00905*
X01111Y00905*
X01111Y00905*
X01111Y00904*
X01111Y00904*
X01111Y00904*
X01111Y00903*
X01111Y00902*
X01112Y00902*
X01112Y00901*
X01112Y009*
Y00899*
Y00899*
Y00899*
X01112Y00899*
X01112Y00898*
X01112Y00898*
X01111Y00897*
X01111Y00897*
X01111Y00896*
X01111Y00895*
X01111Y00895*
X0111Y00894*
X0111Y00893*
X0111Y00893*
X01109Y00892*
X01109Y00891*
X01109Y00891*
X01108Y00891*
X01108Y00891*
X01108Y00891*
X01108Y0089*
X01107Y0089*
X01107Y0089*
X01106Y0089*
X01105Y00889*
X01104Y00889*
X01104Y00889*
X01103Y00888*
X01101Y00888*
X011Y00888*
X01099Y00888*
X01097Y00888*
X01087*
Y00872*
X01082*
Y00911*
X01098*
X01099Y00911*
G37*
G36*
X00937Y00182D02*
X00932D01*
Y00188*
X00937*
Y00182*
G37*
G36*
X00978Y00174D02*
X00979Y00174D01*
X00979Y00174*
X00979Y00174*
X00979Y00175*
X00979Y00175*
X0098Y00175*
X0098Y00175*
X00981Y00176*
X00981Y00176*
X00982Y00177*
X00983Y00177*
X00983Y00177*
X00984Y00177*
X00985Y00178*
X00986Y00178*
X00987Y00178*
X00987*
X00988Y00178*
X00988Y00178*
X00989Y00178*
X00989Y00177*
X0099Y00177*
X00991Y00177*
X00992Y00177*
X00992*
X00992Y00176*
X00992Y00176*
X00992Y00176*
X00993Y00176*
X00993Y00176*
X00994Y00175*
X00994Y00175*
X00995Y00174*
X00995Y00173*
Y00173*
X00995Y00173*
X00995Y00173*
X00996Y00173*
X00996Y00173*
X00996Y00172*
X00996Y00172*
X00996Y00172*
X00996Y00171*
X00996Y00171*
X00996Y0017*
X00996Y0017*
X00996Y00169*
X00996Y00168*
X00996Y00168*
Y00167*
Y00149*
X00992*
Y00167*
Y00167*
Y00167*
Y00167*
X00992Y00168*
Y00168*
X00992Y00168*
X00991Y00169*
X00991Y0017*
X00991Y00171*
X00991Y00171*
X0099Y00172*
X0099Y00172*
X0099Y00172*
X0099Y00172*
X00989Y00173*
X00989Y00173*
X00988Y00173*
X00988Y00173*
X00987Y00174*
X00986Y00174*
X00985*
X00985Y00174*
X00984Y00174*
X00984Y00173*
X00983Y00173*
X00983Y00173*
X00982Y00173*
X00982Y00173*
X00982Y00172*
X00981Y00172*
X00981Y00172*
X0098Y00171*
X0098Y00171*
X0098Y0017*
X00979Y0017*
X00979Y0017*
X00979Y00169*
X00979Y00169*
X00979Y00169*
X00979Y00168*
X00979Y00168*
X00979Y00167*
X00979Y00166*
X00978Y00165*
Y00149*
X00974*
Y00188*
X00978*
Y00174*
G37*
G36*
X00937Y00149D02*
X00932D01*
Y00177*
X00937*
Y00149*
G37*
G36*
X00912Y00188D02*
X00913D01*
X00913Y00188*
X00914Y00188*
X00915Y00187*
X00916Y00187*
X00918Y00187*
X00918Y00187*
X00919Y00187*
X00919*
X00919Y00187*
X00919Y00187*
X00919Y00186*
X0092Y00186*
X0092Y00186*
X00921Y00185*
X00922Y00185*
X00922Y00184*
X00923Y00183*
Y00183*
X00923Y00183*
X00923Y00183*
X00923Y00183*
X00923Y00182*
X00924Y00182*
X00924Y00182*
X00924Y00181*
X00924Y0018*
X00924Y00179*
X00925Y00178*
X00925Y00177*
Y00177*
Y00177*
Y00177*
X00925Y00177*
X00925Y00176*
X00925Y00176*
X00924Y00175*
X00924Y00175*
X00924Y00174*
X00924Y00173*
X00924Y00173*
X00923Y00172*
X00923Y00171*
X00922Y00171*
X00922Y0017*
X00922Y0017*
X00922Y0017*
X00922Y0017*
X00922Y0017*
X00921Y0017*
X00921Y00169*
X0092Y00169*
X0092Y00169*
X00919Y00169*
X00919Y00168*
X00918Y00168*
X00917Y00168*
X00917Y00167*
X00916Y00167*
X00915Y00167*
X00914Y00167*
X00914*
X00914Y00167*
X00914Y00167*
X00915Y00166*
X00915Y00166*
X00915Y00166*
X00916Y00166*
X00916Y00165*
X00917Y00165*
X00917Y00165*
X00917Y00165*
X00917Y00165*
X00917Y00165*
X00917Y00164*
X00918Y00164*
X00918Y00163*
X00919Y00163*
X0092Y00162*
X0092Y00161*
X00921Y0016*
X00928Y00149*
X00921*
X00916Y00157*
X00916Y00157*
X00916Y00157*
X00916Y00158*
X00916Y00158*
X00916Y00158*
X00916Y00159*
X00915Y00159*
X00914Y0016*
X00914Y00161*
X00913Y00162*
X00913Y00163*
Y00163*
X00913Y00163*
X00912Y00163*
X00912Y00163*
X00912Y00164*
X00911Y00164*
X00911Y00164*
X0091Y00165*
X0091Y00165*
X0091Y00165*
X0091Y00165*
X0091Y00165*
X00909Y00166*
X00909Y00166*
X00909Y00166*
X00908Y00166*
X00908Y00166*
X00908*
X00908Y00166*
X00907Y00166*
X00907Y00166*
X00907*
X00906Y00166*
X00906Y00166*
X00899*
Y00149*
X00894*
Y00188*
X00912*
X00912Y00188*
G37*
G36*
X01009Y00177D02*
X01014D01*
Y00173*
X01009*
Y00157*
Y00157*
Y00157*
Y00157*
Y00157*
X01009Y00156*
Y00156*
X01009Y00155*
X01009Y00155*
X01009Y00155*
Y00155*
X01009Y00155*
X0101Y00154*
X0101Y00154*
X0101Y00154*
X0101*
X0101Y00154*
X0101Y00154*
X01011Y00154*
X01011Y00153*
X01011Y00153*
X01011Y00153*
X01012*
X01012Y00153*
X01013*
X01013Y00153*
X01013Y00153*
X01014Y00154*
X01014Y00149*
X01014*
X01014Y00149*
X01014Y00149*
X01013Y00149*
X01013Y00149*
X01012Y00149*
X01011Y00149*
X0101*
X0101Y00149*
X01009Y00149*
X01009Y00149*
X01008Y00149*
X01007Y00149*
X01007Y0015*
X01007Y0015*
X01007Y0015*
X01006Y0015*
X01006Y0015*
X01006Y00151*
X01005Y00151*
X01005Y00151*
X01005Y00152*
X01005Y00152*
X01005Y00152*
X01005Y00152*
X01005Y00153*
X01005Y00153*
X01005Y00153*
X01005Y00153*
X01005Y00154*
X01005Y00154*
X01004Y00155*
X01004Y00155*
Y00156*
X01004Y00157*
Y00157*
Y00173*
X01001*
Y00177*
X01004*
Y00184*
X01009Y00187*
Y00177*
G37*
G36*
X00955Y00178D02*
X00955D01*
X00955Y00178*
X00956Y00178*
X00956Y00177*
X00957Y00177*
X00958Y00177*
X00958Y00177*
X00959Y00176*
X0096Y00176*
X0096Y00176*
X00961Y00175*
X00962Y00174*
X00962Y00174*
Y00177*
X00967*
Y00153*
Y00153*
Y00153*
Y00152*
Y00152*
X00967Y00152*
X00967Y00151*
X00966Y0015*
X00966Y0015*
X00966Y00148*
X00966Y00146*
X00966Y00146*
X00966Y00145*
X00966Y00144*
X00965Y00144*
Y00144*
X00965Y00144*
X00965Y00144*
X00965Y00143*
X00965Y00143*
X00964Y00142*
X00964Y00142*
X00963Y00141*
X00962Y0014*
X00961Y0014*
X00961*
X00961Y0014*
X00961Y0014*
X00961Y00139*
X0096Y00139*
X0096Y00139*
X0096Y00139*
X00959Y00139*
X00959Y00139*
X00958Y00139*
X00958Y00138*
X00957Y00138*
X00956Y00138*
X00954Y00138*
X00954*
X00953Y00138*
X00953Y00138*
X00952Y00138*
X00952Y00138*
X00951Y00138*
X0095Y00139*
X00949Y00139*
X00948Y00139*
X00947Y0014*
X00947Y0014*
X00946Y0014*
X00946Y0014*
X00946Y0014*
X00946Y00141*
X00946Y00141*
X00945Y00141*
X00945Y00141*
X00945Y00142*
X00944Y00142*
X00944Y00142*
X00944Y00143*
X00944Y00144*
X00943Y00144*
X00943Y00145*
X00943Y00145*
X00943Y00146*
Y00147*
X00948Y00146*
Y00146*
Y00146*
X00948Y00146*
X00948Y00146*
X00948Y00145*
X00948Y00145*
X00948Y00144*
X00949Y00144*
X00949Y00143*
X00949Y00143*
X0095Y00143*
X0095Y00143*
X0095Y00143*
X00951Y00142*
X00952Y00142*
X00953Y00142*
X00954Y00142*
X00954*
X00955Y00142*
X00955*
X00955Y00142*
X00956Y00142*
X00957Y00142*
X00957Y00143*
X00958Y00143*
X00959Y00143*
X00959*
X00959Y00143*
X00959Y00144*
X0096Y00144*
X0096Y00144*
X0096Y00145*
X00961Y00145*
X00961Y00146*
X00961Y00147*
Y00147*
X00962Y00147*
Y00147*
X00962Y00147*
X00962Y00148*
Y00148*
X00962Y00148*
X00962Y00149*
X00962Y00149*
Y0015*
X00962Y0015*
Y00151*
X00962Y00151*
Y00152*
Y00153*
X00962Y00153*
X00962Y00153*
X00961Y00153*
X00961Y00152*
X00961Y00152*
X00961Y00152*
X0096Y00151*
X0096Y00151*
X00959Y00151*
X00959Y0015*
X00958Y0015*
X00957Y0015*
X00957Y0015*
X00956Y00149*
X00955Y00149*
X00954Y00149*
X00954*
X00954Y00149*
X00953Y00149*
X00953Y00149*
X00952Y0015*
X00952Y0015*
X00951Y0015*
X0095Y0015*
X00949Y0015*
X00949Y00151*
X00948Y00151*
X00947Y00152*
X00947Y00152*
X00946Y00153*
X00945Y00153*
X00945Y00153*
X00945Y00154*
X00945Y00154*
X00945Y00154*
X00945Y00155*
X00944Y00155*
X00944Y00156*
X00944Y00156*
X00943Y00157*
X00943Y00158*
X00943Y00159*
X00943Y00159*
X00942Y0016*
X00942Y00161*
X00942Y00162*
X00942Y00163*
Y00163*
Y00164*
Y00164*
X00942Y00164*
Y00164*
X00942Y00165*
X00942Y00165*
X00942Y00166*
X00942Y00167*
X00943Y00168*
X00943Y00169*
X00944Y00171*
Y00171*
X00944Y00171*
X00944Y00171*
X00944Y00171*
X00944Y00172*
X00944Y00172*
X00945Y00173*
X00945Y00173*
X00946Y00174*
X00947Y00175*
X00948Y00176*
X00948Y00176*
X00948Y00176*
X00948Y00176*
X00948Y00176*
X00948Y00176*
X00949Y00176*
X00949Y00177*
X0095Y00177*
X0095Y00177*
X00951Y00177*
X00952Y00177*
X00953Y00178*
X00953Y00178*
X00954*
X00955Y00178*
G37*
G36*
X00073Y00977D02*
X00068D01*
Y01007*
X00068Y01007*
X00068Y01006*
X00067Y01006*
X00067Y01006*
X00066Y01005*
X00065Y01005*
X00064Y01004*
X00063Y01003*
X00063*
X00063Y01003*
X00063Y01003*
X00063Y01003*
X00063Y01003*
X00062Y01003*
X00062Y01002*
X00061Y01002*
X0006Y01002*
X00059Y01001*
X00058Y01001*
Y01005*
X00058Y01006*
X00059Y01006*
X00059Y01006*
X00059Y01006*
X00059Y01006*
X0006Y01006*
X0006Y01006*
X00061Y01007*
X00062Y01007*
X00063Y01008*
X00064Y01009*
X00065Y0101*
X00065Y0101*
X00065Y0101*
X00066Y0101*
X00066Y0101*
X00066Y01011*
X00066Y01011*
X00067Y01012*
X00068Y01012*
X00068Y01013*
X00069Y01014*
X0007Y01015*
X00073*
Y00977*
G37*
G36*
X00038Y01015D02*
X00039Y01015D01*
X00039Y01015*
X0004Y01015*
X00041Y01015*
X00041Y01015*
X00041*
X00041Y01015*
X00042*
X00042Y01015*
X00042Y01014*
X00042Y01014*
X00043Y01014*
X00044Y01014*
X00044Y01014*
X00045Y01013*
X00046Y01013*
X00046*
X00046Y01013*
X00046Y01013*
X00047Y01012*
X00047Y01012*
X00048Y01011*
X00048Y01011*
X00049Y0101*
X00049Y01009*
Y01009*
X00049Y01009*
X00049Y01009*
X00049Y01009*
X00049Y01008*
X00049Y01008*
X0005Y01008*
X0005Y01007*
X0005Y01006*
X0005Y01005*
X0005Y01004*
Y01004*
Y01004*
Y01003*
X0005Y01003*
X0005Y01003*
X0005Y01002*
X0005Y01002*
X0005Y01001*
X0005Y01*
X0005Y01*
X00049Y00999*
X00049Y00998*
X00049Y00998*
X00048Y00997*
X00048Y00996*
X00047Y00996*
X00047Y00996*
X00047Y00995*
X00047Y00995*
X00047Y00995*
X00046Y00995*
X00046Y00994*
X00045Y00994*
X00045Y00994*
X00044Y00994*
X00043Y00993*
X00042Y00993*
X00041Y00993*
X0004Y00993*
X00039Y00992*
X00037Y00992*
X00036Y00992*
X00026*
Y00977*
X00021*
Y01015*
X00037*
X00038Y01015*
G37*
G36*
X00197Y00191D02*
X00198D01*
X00198Y0019*
X00199Y0019*
X002Y0019*
X00201Y0019*
X002Y00186*
X002*
X002Y00186*
X00199Y00186*
X00199Y00186*
X00199Y00186*
X00198Y00186*
X00197Y00186*
X00197*
X00196Y00186*
X00196Y00186*
X00196Y00186*
X00195Y00186*
X00195Y00186*
X00194Y00185*
X00194Y00185*
X00194Y00185*
X00194Y00185*
X00194Y00185*
X00194Y00184*
X00193Y00184*
X00193Y00183*
X00193Y00182*
Y00179*
X00199*
Y00176*
X00193*
Y00152*
X00189*
Y00176*
X00184*
Y00179*
X00189*
Y00182*
Y00182*
Y00182*
Y00183*
Y00183*
X00189Y00183*
X00189Y00184*
X00189Y00185*
X00189Y00185*
X00189Y00186*
X00189Y00186*
Y00187*
X00189Y00187*
X00189Y00187*
X00189Y00187*
X0019Y00188*
X0019Y00188*
X0019Y00189*
X00191Y00189*
X00191Y00189*
X00192Y00189*
X00192Y0019*
X00192Y0019*
X00193Y0019*
X00193Y0019*
X00194Y0019*
X00195Y00191*
X00196Y00191*
X00197*
X00197Y00191*
G37*
G36*
X00133Y00156D02*
X00152D01*
Y00152*
X00128*
Y0019*
X00133*
Y00156*
G37*
G36*
X00208Y00179D02*
X00213D01*
Y00176*
X00208*
Y00159*
Y00159*
Y00159*
Y00159*
Y00159*
X00208Y00158*
Y00158*
X00208Y00158*
X00208Y00157*
X00208Y00157*
Y00157*
X00208Y00157*
X00208Y00157*
X00209Y00156*
X00209Y00156*
X00209*
X00209Y00156*
X00209Y00156*
X00209Y00156*
X0021Y00156*
X0021Y00156*
X0021Y00156*
X00211*
X00211Y00156*
X00211*
X00212Y00156*
X00212Y00156*
X00213Y00156*
X00213Y00152*
X00213*
X00213Y00152*
X00213Y00151*
X00212Y00151*
X00212Y00151*
X00211Y00151*
X0021Y00151*
X00209*
X00209Y00151*
X00208Y00151*
X00208Y00151*
X00207Y00152*
X00206Y00152*
X00206Y00152*
X00206Y00152*
X00206Y00152*
X00205Y00152*
X00205Y00153*
X00205Y00153*
X00204Y00153*
X00204Y00154*
X00204Y00154*
X00204Y00154*
X00204Y00154*
X00204Y00155*
X00204Y00155*
X00204Y00155*
X00203Y00155*
X00203Y00156*
X00203Y00156*
X00203Y00157*
X00203Y00157*
X00203Y00158*
Y00158*
X00203Y00159*
Y0016*
Y00176*
X002*
Y00179*
X00203*
Y00186*
X00208Y00189*
Y00179*
G37*
G36*
X0017Y0018D02*
X0017D01*
X0017Y0018*
X00171Y0018*
X00172Y0018*
X00172Y0018*
X00173Y00179*
X00174Y00179*
X00175Y00179*
X00175Y00178*
X00176Y00178*
X00177Y00177*
X00178Y00177*
X00178Y00176*
X00178Y00176*
X00178Y00176*
X00179Y00176*
X00179Y00175*
X00179Y00175*
X00179Y00175*
X0018Y00174*
X0018Y00173*
X0018Y00173*
X00181Y00172*
X00181Y00171*
X00181Y0017*
X00181Y00169*
X00182Y00168*
X00182Y00167*
X00182Y00166*
Y00165*
Y00165*
Y00165*
X00182Y00164*
X00161*
Y00164*
Y00164*
X00161Y00164*
X00161Y00164*
X00161Y00163*
X00161Y00163*
X00161Y00162*
X00161Y00162*
X00162Y00161*
X00162Y00159*
X00162Y00159*
X00163Y00158*
X00163Y00158*
X00164Y00157*
X00164Y00157*
X00164Y00157*
X00164Y00157*
X00164Y00157*
X00164Y00157*
X00164Y00156*
X00165Y00156*
X00165Y00156*
X00166Y00156*
X00167Y00155*
X00167Y00155*
X00168Y00155*
X00169Y00155*
X00169Y00155*
X0017*
X0017Y00155*
X0017Y00155*
X00171Y00155*
X00172Y00155*
X00172Y00155*
X00173Y00156*
X00174Y00156*
X00174*
X00174Y00156*
X00174Y00156*
X00174Y00157*
X00175Y00157*
X00175Y00158*
X00176Y00159*
X00176Y0016*
X00177Y00161*
X00182Y0016*
Y0016*
X00182Y0016*
X00181Y0016*
X00181Y00159*
X00181Y00159*
X00181Y00158*
X00181Y00158*
X00181Y00157*
X0018Y00156*
X00179Y00155*
X00179Y00155*
X00178Y00154*
X00178Y00154*
X00177Y00153*
X00177Y00153*
X00177Y00153*
X00177Y00153*
X00177Y00153*
X00176Y00153*
X00176Y00153*
X00176Y00152*
X00175Y00152*
X00175Y00152*
X00174Y00152*
X00173Y00151*
X00173Y00151*
X00172Y00151*
X00171Y00151*
X0017Y00151*
X00169Y00151*
X00169*
X00169Y00151*
X00168*
X00168Y00151*
X00167Y00151*
X00167Y00151*
X00166Y00151*
X00165Y00152*
X00164Y00152*
X00163Y00152*
X00163Y00153*
X00162Y00153*
X00161Y00153*
X0016Y00154*
X0016Y00155*
X0016Y00155*
X00159Y00155*
X00159Y00155*
X00159Y00155*
X00159Y00156*
X00159Y00156*
X00158Y00157*
X00158Y00157*
X00158Y00158*
X00157Y00159*
X00157Y0016*
X00157Y00161*
X00156Y00162*
X00156Y00163*
X00156Y00164*
X00156Y00165*
Y00165*
Y00165*
X00156Y00166*
Y00166*
X00156Y00167*
X00156Y00168*
X00156Y00168*
X00157Y00169*
X00157Y0017*
X00157Y00171*
X00157Y00172*
X00158Y00173*
X00158Y00174*
X00159Y00175*
X00159Y00175*
X0016Y00176*
X0016Y00176*
X0016Y00176*
X0016Y00176*
X0016Y00177*
X00161Y00177*
X00161Y00177*
X00162Y00178*
X00162Y00178*
X00163Y00178*
X00164Y00179*
X00164Y00179*
X00165Y00179*
X00166Y0018*
X00167Y0018*
X00168Y0018*
X00169Y0018*
X00169*
X0017Y0018*
G37*
%LNdeck-2*%
%LPC*%
G36*
X00816Y0044D02*
X00803D01*
Y00427*
X00814*
X00815Y00427*
X00815*
X00816Y00428*
X00817Y00428*
X00818Y00428*
X00819Y00428*
X00819Y00428*
X00819*
X00819Y00428*
X0082Y00428*
X0082Y00428*
X0082Y00429*
X00821Y00429*
X00821Y00429*
X00822Y0043*
X00822Y0043*
X00822Y00431*
X00822Y00431*
X00823Y00431*
X00823Y00431*
X00823Y00432*
X00823Y00433*
X00823Y00433*
X00823Y00434*
Y00434*
Y00434*
Y00434*
X00823Y00434*
Y00435*
X00823Y00435*
X00823Y00435*
X00823Y00436*
X00823Y00437*
X00822Y00438*
X00822Y00438*
X00821Y00438*
X00821Y00438*
X00821Y00438*
X00821Y00439*
X00821Y00439*
X00821Y00439*
X0082Y00439*
X0082Y00439*
X0082Y00439*
X00819Y00439*
X00819Y0044*
X00818Y0044*
X00818Y0044*
X00817Y0044*
X00817Y0044*
X00816Y0044*
G37*
G36*
X00669Y0076D02*
X00656D01*
Y00748*
X00667*
X00668Y00748*
X00668*
X00669Y00748*
X0067Y00748*
X00671Y00748*
X00671Y00748*
X00672Y00748*
X00672*
X00672Y00748*
X00673Y00748*
X00673Y00749*
X00673Y00749*
X00674Y00749*
X00674Y0075*
X00675Y0075*
X00675Y00751*
X00675Y00751*
X00675Y00751*
X00676Y00751*
X00676Y00752*
X00676Y00752*
X00676Y00753*
X00676Y00753*
X00676Y00754*
Y00754*
Y00754*
Y00754*
X00676Y00755*
Y00755*
X00676Y00755*
X00676Y00756*
X00676Y00756*
X00675Y00757*
X00675Y00758*
X00675Y00758*
X00674Y00759*
X00674Y00759*
X00674Y00759*
X00674Y00759*
X00674Y00759*
X00674Y00759*
X00673Y00759*
X00673Y00759*
X00673Y00759*
X00672Y0076*
X00672Y0076*
X00671Y0076*
X00671Y0076*
X0067Y0076*
X00669Y0076*
X00669Y0076*
G37*
G36*
Y00803D02*
X00656D01*
Y00791*
X00667*
X00668Y00791*
X00668*
X00669Y00791*
X0067Y00791*
X00671Y00791*
X00671Y00791*
X00672Y00791*
X00672*
X00672Y00791*
X00673Y00792*
X00673Y00792*
X00673Y00792*
X00674Y00792*
X00674Y00793*
X00675Y00793*
X00675Y00794*
X00675Y00794*
X00675Y00794*
X00676Y00794*
X00676Y00795*
X00676Y00795*
X00676Y00796*
X00676Y00796*
X00676Y00797*
Y00797*
Y00797*
Y00797*
X00676Y00798*
Y00798*
X00676Y00798*
X00676Y00799*
X00676Y00799*
X00675Y008*
X00675Y00801*
X00675Y00801*
X00674Y00802*
X00674Y00802*
X00674Y00802*
X00674Y00802*
X00674Y00802*
X00674Y00802*
X00673Y00802*
X00673Y00802*
X00673Y00803*
X00672Y00803*
X00672Y00803*
X00671Y00803*
X00671Y00803*
X0067Y00803*
X00669Y00803*
X00669Y00803*
G37*
G36*
Y00848D02*
X00656D01*
Y00836*
X00667*
X00668Y00836*
X00668*
X00669Y00836*
X0067Y00836*
X00671Y00836*
X00671Y00836*
X00672Y00836*
X00672*
X00672Y00836*
X00673Y00836*
X00673Y00837*
X00673Y00837*
X00674Y00837*
X00674Y00838*
X00675Y00838*
X00675Y00839*
X00675Y00839*
X00675Y00839*
X00676Y00839*
X00676Y0084*
X00676Y0084*
X00676Y00841*
X00676Y00841*
X00676Y00842*
Y00842*
Y00842*
Y00842*
X00676Y00842*
Y00843*
X00676Y00843*
X00676Y00844*
X00676Y00844*
X00675Y00845*
X00675Y00846*
X00675Y00846*
X00674Y00846*
X00674Y00847*
X00674Y00847*
X00674Y00847*
X00674Y00847*
X00674Y00847*
X00673Y00847*
X00673Y00847*
X00673Y00847*
X00672Y00848*
X00672Y00848*
X00671Y00848*
X00671Y00848*
X0067Y00848*
X00669Y00848*
X00669Y00848*
G37*
G36*
X0073Y00849D02*
X0073D01*
X00729Y00849*
X00729Y00849*
X00729Y00849*
X00728Y00848*
X00727Y00848*
X00727Y00848*
X00726Y00848*
X00726Y00847*
X00725Y00847*
X00725Y00846*
X00725Y00846*
X00725Y00846*
X00725Y00846*
X00724Y00846*
X00724Y00845*
X00724Y00845*
X00724Y00844*
X00724Y00844*
X00723Y00843*
X00723Y00842*
X00723Y00841*
X00723Y0084*
X00723Y00839*
X00722Y00838*
X00722Y00836*
X00722Y00835*
X00722Y00833*
Y00833*
Y00833*
Y00833*
Y00833*
Y00832*
Y00832*
X00722Y00831*
X00722Y00831*
X00722Y0083*
X00722Y00829*
X00722Y00828*
X00723Y00826*
X00723Y00825*
X00723Y00824*
X00723Y00823*
X00724Y00822*
X00724Y00821*
X00724Y0082*
X00724Y0082*
X00724Y0082*
X00725Y0082*
X00725Y0082*
X00725Y0082*
X00725Y00819*
X00726Y00819*
X00727Y00818*
X00728Y00818*
X00728Y00818*
X00729Y00817*
X00729Y00817*
X0073Y00817*
X0073*
X0073Y00817*
X0073*
X00731Y00817*
X00731Y00818*
X00732Y00818*
X00732Y00818*
X00733Y00818*
X00733Y00818*
X00734Y00819*
X00734Y00819*
X00734Y00819*
X00735Y0082*
X00735Y0082*
X00735Y00821*
X00735Y00821*
X00736Y00821*
X00736Y00821*
X00736Y00821*
X00736Y00822*
X00736Y00823*
X00736Y00823*
X00737Y00824*
X00737Y00825*
X00737Y00826*
X00737Y00827*
X00737Y00828*
X00737Y0083*
X00738Y00831*
X00738Y00833*
Y00833*
Y00833*
Y00833*
Y00833*
Y00834*
Y00834*
X00738Y00835*
X00737Y00835*
X00737Y00836*
X00737Y00837*
X00737Y00838*
X00737Y0084*
X00737Y00841*
X00737Y00842*
X00736Y00843*
X00736Y00844*
X00736Y00845*
X00735Y00846*
X00735Y00846*
X00735Y00846*
X00735Y00846*
X00735Y00846*
X00735Y00846*
X00734Y00847*
X00734Y00847*
X00734Y00847*
X00733Y00848*
X00732Y00848*
X00732Y00848*
X00731Y00849*
X0073Y00849*
X0073Y00849*
G37*
G36*
X00675Y01065D02*
X00675D01*
X00674Y01065*
X00674Y01065*
X00674Y01065*
X00673Y01064*
X00672Y01064*
X00672Y01064*
X00671Y01064*
X00671Y01063*
X0067Y01063*
X0067Y01063*
X0067Y01062*
X00669Y01062*
X00669Y01062*
X00669Y01062*
X00669Y01062*
X00669Y01061*
X00669Y01061*
X00669Y01061*
X00668Y0106*
X00668Y0106*
X00668Y01059*
X00668Y01059*
X00668Y01058*
X00667Y01057*
X00667Y01056*
X00667Y01055*
Y01055*
Y01055*
Y01055*
X00667Y01055*
X00667Y01055*
X00667Y01054*
X00668Y01053*
X00668Y01052*
X00668Y01051*
X00668Y01051*
X00669Y0105*
X00669Y0105*
X00669Y01049*
X00669Y01049*
X00669Y01049*
X0067Y01049*
X0067Y01049*
X0067Y01049*
X0067Y01049*
X00671Y01049*
X00671Y01048*
X00672Y01048*
X00673Y01048*
X00674Y01047*
X00674Y01047*
X00675Y01047*
X00675*
X00675Y01047*
X00676Y01047*
X00676Y01047*
X00677Y01048*
X00678Y01048*
X00679Y01048*
X00679Y01048*
X00679Y01049*
X0068Y01049*
X0068Y01049*
X0068Y0105*
X0068Y0105*
X0068Y0105*
X00681Y0105*
X00681Y0105*
X00681Y0105*
X00681Y01051*
X00681Y01051*
X00681Y01052*
X00682Y01052*
X00682Y01053*
X00682Y01053*
X00682Y01054*
X00682Y01054*
X00682Y01055*
X00682Y01056*
Y01056*
Y01056*
Y01056*
X00682Y01057*
X00682Y01057*
X00682Y01057*
X00682Y01058*
X00682Y01058*
X00682Y01059*
X00681Y0106*
X00681Y01061*
X00681Y01061*
X00681Y01062*
X0068Y01062*
X0068Y01062*
X0068Y01062*
X0068Y01062*
X0068Y01063*
X0068Y01063*
X00679Y01063*
X00679Y01063*
X00678Y01064*
X00677Y01064*
X00677Y01064*
X00676Y01065*
X00676Y01065*
X00675Y01065*
G37*
G36*
X00644Y01064D02*
X00631D01*
Y01052*
X00642*
X00642Y01052*
X00643*
X00644Y01052*
X00644Y01052*
X00645Y01052*
X00646Y01052*
X00647Y01052*
X00647*
X00647Y01052*
X00647Y01052*
X00648Y01053*
X00648Y01053*
X00649Y01053*
X00649Y01053*
X0065Y01054*
X0065Y01055*
X0065Y01055*
X0065Y01055*
X0065Y01055*
X00651Y01056*
X00651Y01056*
X00651Y01057*
X00651Y01057*
X00651Y01058*
Y01058*
Y01058*
Y01058*
X00651Y01058*
Y01059*
X00651Y01059*
X00651Y0106*
X00651Y0106*
X0065Y01061*
X0065Y01062*
X00649Y01062*
X00649Y01062*
X00649Y01062*
X00649Y01063*
X00649Y01063*
X00649Y01063*
X00649Y01063*
X00648Y01063*
X00648Y01063*
X00648Y01063*
X00647Y01064*
X00647Y01064*
X00646Y01064*
X00646Y01064*
X00645Y01064*
X00644Y01064*
X00644Y01064*
G37*
G36*
X00333Y00936D02*
X00333D01*
X00333*
X00333*
X00333Y00936*
X00332Y00936*
X00332Y00936*
X00331Y00936*
X0033Y00935*
X0033Y00935*
X00329Y00935*
X00329Y00934*
X00329*
X00329Y00934*
X00329Y00934*
X00328Y00934*
X00328Y00933*
X00328Y00933*
X00327Y00932*
X00327Y00931*
X00327Y0093*
Y0093*
X00327Y00929*
Y00929*
X00327Y00929*
X00327Y00928*
X00327Y00928*
X00328Y00927*
X00328Y00926*
X00329Y00925*
X00329Y00925*
X00329Y00925*
X00329Y00925*
X0033Y00925*
X00331Y00924*
X00331Y00924*
X00332Y00924*
X00333Y00924*
X00333*
X00333*
X00333*
X00333Y00924*
X00334*
X00334Y00924*
X00334Y00924*
X00335Y00924*
X00336Y00924*
X00337Y00925*
X00337Y00925*
X00337Y00925*
X00338Y00926*
X00338Y00926*
X00338Y00927*
X00339Y00927*
X00339Y00928*
X00339Y00929*
X00339Y0093*
Y0093*
X00339Y0093*
Y00931*
X00339Y00931*
X00339Y00932*
X00339Y00932*
X00338Y00933*
X00338Y00934*
X00337Y00934*
X00337Y00935*
X00337Y00935*
X00337Y00935*
X00336Y00935*
X00336Y00936*
X00335Y00936*
X00334Y00936*
X00333Y00936*
G37*
G36*
X00351Y00938D02*
X00351D01*
X00351*
X0035*
X0035Y00938*
X0035Y00938*
X0035Y00938*
X00349Y00938*
X00348Y00937*
X00347Y00937*
X00346Y00937*
X00346Y00936*
X00346Y00936*
X00345Y00936*
X00345Y00935*
X00345Y00935*
X00345Y00935*
X00345Y00935*
X00345Y00935*
X00344Y00935*
X00344Y00934*
X00344Y00934*
X00344Y00933*
X00343Y00932*
X00343Y00931*
X00343Y0093*
X00343Y0093*
Y0093*
X00343Y00929*
X00343Y00929*
X00343Y00929*
X00343Y00928*
X00343Y00927*
X00344Y00926*
X00344Y00926*
X00344Y00925*
X00345Y00925*
X00345Y00924*
X00345Y00924*
X00345Y00924*
X00345Y00924*
X00345Y00924*
X00346Y00924*
X00346Y00924*
X00346Y00923*
X00347Y00923*
X00347Y00923*
X00348Y00923*
X00349Y00922*
X0035Y00922*
X00351Y00922*
X00351*
X00351*
X00351*
X00351Y00922*
X00352Y00922*
X00352Y00922*
X00353Y00923*
X00354Y00923*
X00355Y00923*
X00355Y00923*
X00355Y00923*
X00355Y00924*
X00356Y00924*
X00356Y00924*
X00357Y00925*
X00357Y00925*
X00357Y00926*
Y00926*
X00357Y00926*
X00358Y00926*
X00358Y00927*
X00358Y00927*
X00358Y00928*
X00358Y00928*
X00358Y00929*
X00358Y0093*
Y0093*
X00358Y00931*
X00358Y00931*
X00358Y00931*
X00358Y00932*
X00358Y00933*
X00358Y00934*
X00357Y00934*
X00357Y00935*
X00357Y00935*
X00356Y00936*
X00356Y00936*
X00356Y00936*
X00356Y00936*
X00356Y00936*
X00356Y00936*
X00355Y00936*
X00355Y00937*
X00355Y00937*
X00354Y00937*
X00353Y00937*
X00352Y00938*
X00351Y00938*
X00351Y00938*
G37*
G36*
X00334Y00906D02*
X00334D01*
X00334*
X00334*
X00333Y00906*
X00333*
X00333Y00906*
X00332Y00906*
X00331Y00906*
X00331Y00905*
X0033Y00905*
X0033Y00904*
X00329Y00904*
X00329Y00904*
X00329Y00904*
X00329Y00904*
X00329Y00904*
X00329Y00904*
X00329Y00903*
X00329Y00903*
X00328Y00903*
X00328Y00902*
X00328Y00902*
X00328Y00901*
X00328Y00901*
X00328Y009*
X00328Y00899*
X00328Y00899*
Y00886*
X0034*
Y00897*
X0034Y00898*
Y00898*
X0034Y00899*
X0034Y00899*
X0034Y009*
X0034Y00901*
X0034Y00902*
Y00902*
X00339Y00902*
X00339Y00902*
X00339Y00903*
X00339Y00903*
X00339Y00904*
X00338Y00904*
X00338Y00905*
X00337Y00905*
X00337Y00905*
X00337Y00905*
X00337Y00905*
X00336Y00906*
X00336Y00906*
X00335Y00906*
X00334Y00906*
X00334Y00906*
G37*
G36*
X0054Y00418D02*
X0054D01*
X00539Y00418*
X00539Y00418*
X00539Y00418*
X00538Y00417*
X00537Y00417*
X00536Y00417*
X00536Y00416*
X00535Y00416*
X00535Y00416*
X00535Y00415*
X00534Y00415*
X00534Y00415*
X00534Y00415*
X00534Y00415*
X00534Y00415*
X00534Y00414*
X00534Y00414*
X00533Y00414*
X00533Y00413*
X00533Y00413*
X00533Y00412*
X00532Y00411*
X00532Y0041*
X00532Y00409*
Y00409*
Y00409*
Y00409*
Y00409*
X00532Y00409*
Y00408*
X00532Y00408*
X00533Y00407*
X00533Y00406*
X00533Y00406*
X00533Y00405*
Y00405*
X00533Y00405*
X00533Y00404*
X00534Y00404*
X00534Y00404*
X00534Y00403*
X00534Y00403*
X00535Y00402*
X00536Y00402*
X00536Y00401*
X00536*
X00536Y00401*
X00537Y00401*
X00537Y00401*
X00537Y00401*
X00538Y00401*
X00539Y004*
X00539Y004*
X0054Y004*
X0054*
X00541Y004*
X00541Y004*
X00541Y004*
X00542Y004*
X00543Y00401*
X00543Y00401*
X00544Y00401*
X00544Y00401*
X00544Y00402*
X00545Y00402*
X00545Y00403*
X00545Y00403*
X00545Y00403*
X00546Y00403*
X00546Y00403*
X00546Y00403*
X00546Y00404*
X00546Y00404*
X00546Y00404*
X00547Y00405*
X00547Y00405*
X00547Y00406*
X00547Y00406*
X00547Y00407*
X00547Y00408*
X00547Y00408*
X00547Y00409*
Y00409*
Y00409*
Y00409*
X00547Y0041*
X00547Y0041*
X00547Y0041*
X00547Y00411*
X00547Y00411*
X00547Y00412*
X00547Y00413*
X00546Y00414*
X00546Y00414*
X00546Y00415*
X00545Y00415*
X00545Y00415*
X00545Y00415*
X00545Y00416*
X00545Y00416*
X00545Y00416*
X00545Y00416*
X00544Y00417*
X00543Y00417*
X00542Y00417*
X00541Y00418*
X00541Y00418*
X0054Y00418*
G37*
G36*
X00306Y00933D02*
X00289D01*
X00306Y00921*
Y00933*
G37*
G36*
X00292Y00906D02*
X00292D01*
X00292*
X00292*
X00291Y00906*
X00291*
X00291Y00906*
X0029Y00906*
X00289Y00906*
X00289Y00905*
X00288Y00905*
X00288Y00905*
X00287Y00904*
X00287Y00904*
X00287Y00904*
X00287Y00904*
X00287Y00904*
X00287Y00904*
X00287Y00903*
X00287Y00903*
X00286Y00903*
X00286Y00902*
X00286Y00902*
X00286Y00901*
X00286Y00901*
X00286Y009*
X00286Y00899*
X00286Y00899*
Y00886*
X00298*
Y00897*
X00298Y00898*
Y00898*
X00298Y00899*
X00298Y009*
X00298Y00901*
X00298Y00901*
X00298Y00902*
Y00902*
X00297Y00902*
X00297Y00903*
X00297Y00903*
X00297Y00903*
X00297Y00904*
X00296Y00904*
X00296Y00905*
X00295Y00905*
X00295Y00905*
X00295Y00905*
X00295Y00906*
X00294Y00906*
X00294Y00906*
X00293Y00906*
X00292Y00906*
X00292Y00906*
G37*
G36*
X00669Y0089D02*
X00656D01*
Y00878*
X00667*
X00668Y00878*
X00668*
X00669Y00878*
X0067Y00878*
X00671Y00878*
X00671Y00878*
X00672Y00878*
X00672*
X00672Y00878*
X00673Y00878*
X00673Y00879*
X00673Y00879*
X00674Y00879*
X00674Y0088*
X00675Y0088*
X00675Y00881*
X00675Y00881*
X00675Y00881*
X00676Y00881*
X00676Y00882*
X00676Y00882*
X00676Y00883*
X00676Y00883*
X00676Y00884*
Y00884*
Y00884*
Y00884*
X00676Y00885*
Y00885*
X00676Y00885*
X00676Y00886*
X00676Y00886*
X00675Y00887*
X00675Y00888*
X00675Y00888*
X00674Y00889*
X00674Y00889*
X00674Y00889*
X00674Y00889*
X00674Y00889*
X00674Y00889*
X00673Y00889*
X00673Y00889*
X00673Y00889*
X00672Y0089*
X00672Y0089*
X00671Y0089*
X00671Y0089*
X0067Y0089*
X00669Y0089*
X00669Y0089*
G37*
G36*
X00754Y00296D02*
X00742D01*
Y00283*
X00753*
X00753Y00283*
X00754*
X00754Y00283*
X00755Y00283*
X00756Y00283*
X00757Y00283*
X00758Y00284*
X00758*
X00758Y00284*
X00758Y00284*
X00759Y00284*
X00759Y00284*
X00759Y00285*
X0076Y00285*
X0076Y00285*
X00761Y00286*
X00761Y00286*
X00761Y00286*
X00761Y00287*
X00761Y00287*
X00762Y00288*
X00762Y00288*
X00762Y00289*
X00762Y00289*
Y0029*
Y0029*
Y0029*
X00762Y0029*
Y0029*
X00762Y0029*
X00762Y00291*
X00761Y00292*
X00761Y00292*
X00761Y00293*
X0076Y00294*
X0076Y00294*
X0076Y00294*
X0076Y00294*
X0076Y00294*
X0076Y00294*
X00759Y00294*
X00759Y00294*
X00759Y00295*
X00758Y00295*
X00758Y00295*
X00758Y00295*
X00757Y00295*
X00756Y00295*
X00756Y00296*
X00755Y00296*
X00754Y00296*
G37*
G36*
X00758Y0034D02*
X00745D01*
Y00327*
X00757*
X00757Y00327*
X00757*
X00758Y00327*
X00759Y00327*
X0076Y00327*
X00761Y00327*
X00761Y00328*
X00761*
X00761Y00328*
X00762Y00328*
X00762Y00328*
X00763Y00328*
X00763Y00329*
X00763Y00329*
X00764Y00329*
X00764Y0033*
X00764Y0033*
X00765Y0033*
X00765Y00331*
X00765Y00331*
X00765Y00331*
X00765Y00332*
X00765Y00333*
X00765Y00333*
Y00333*
Y00334*
Y00334*
X00765Y00334*
Y00334*
X00765Y00334*
X00765Y00335*
X00765Y00336*
X00765Y00336*
X00764Y00337*
X00764Y00337*
X00763Y00338*
X00763Y00338*
X00763Y00338*
X00763Y00338*
X00763Y00338*
X00763Y00338*
X00763Y00338*
X00762Y00339*
X00762Y00339*
X00761Y00339*
X00761Y00339*
X00761Y00339*
X0076Y00339*
X00759Y00339*
X00759Y0034*
X00758Y0034*
G37*
G36*
X00896Y00374D02*
X00896D01*
X00896*
X00896*
X00896*
X00896*
X00896*
X00895Y00374*
X00894Y00374*
X00893Y00374*
X00892Y00374*
X00891Y00373*
X00889Y00373*
X00888Y00373*
X00887Y00373*
X00886Y00372*
X00885Y00372*
X00885Y00372*
X00884Y00371*
X00884Y00371*
X00884Y00371*
X00884Y00371*
X00883Y00371*
X00883Y00371*
X00883Y00371*
X00883Y0037*
X00882Y0037*
X00882Y00369*
X00881Y00368*
X00881Y00368*
X00881Y00367*
X00881Y00367*
X00881Y00366*
Y00366*
X00881Y00365*
X00881Y00365*
X00881Y00365*
X00881Y00364*
X00881Y00363*
X00882Y00363*
X00882Y00362*
X00882Y00362*
X00883Y00362*
X00883Y00361*
X00883Y00361*
X00884Y00361*
X00884Y00361*
X00884Y00361*
X00884Y0036*
X00885Y0036*
X00885Y0036*
X00886Y0036*
X00886Y0036*
X00887Y00359*
X00888Y00359*
X00889Y00359*
X0089Y00359*
X00892Y00359*
X00893Y00358*
X00895Y00358*
X00896Y00358*
X00896*
X00897*
X00897*
X00897*
X00897*
X00897*
X00898Y00358*
X00899Y00358*
X009Y00358*
X00901Y00359*
X00902Y00359*
X00904Y00359*
X00905Y00359*
X00906Y00359*
X00907Y0036*
X00908Y0036*
X00908Y0036*
X00909Y00361*
X00909Y00361*
X00909Y00361*
X00909Y00361*
X0091Y00361*
X0091Y00361*
X0091Y00361*
X00911Y00362*
X00911Y00363*
X00912Y00364*
X00912Y00364*
X00912Y00365*
X00912Y00365*
X00912Y00366*
Y00366*
X00912Y00366*
Y00367*
X00912Y00367*
X00912Y00367*
X00912Y00368*
X00912Y00368*
X00911Y00369*
X00911Y00369*
X00911Y0037*
X0091Y0037*
X0091Y00371*
X0091Y00371*
X00909Y00371*
X00909Y00371*
X00909Y00372*
X00909Y00372*
X00908Y00372*
X00908Y00372*
X00907Y00372*
X00907Y00372*
X00906Y00373*
X00905Y00373*
X00905Y00373*
X00904Y00373*
X00902Y00373*
X00901Y00373*
X009Y00374*
X00898Y00374*
X00896Y00374*
G37*
G36*
X0051Y00672D02*
X00509D01*
X00509Y00672*
X00509Y00672*
X00508Y00672*
X00508Y00672*
X00507Y00672*
X00506Y00672*
X00506Y00671*
X00505Y00671*
X00505Y00671*
X00505Y0067*
X00504Y0067*
X00504Y0067*
X00504Y0067*
X00504Y0067*
X00504Y00669*
X00504Y00669*
X00503Y00669*
X00503Y00668*
X00503Y00668*
X00503Y00668*
X00502Y00667*
X00502Y00666*
X00502Y00666*
X00502Y00665*
X00502Y00664*
X00502Y00663*
Y00663*
Y00663*
Y00663*
X00502Y00662*
X00502Y00662*
X00502Y00662*
X00502Y00661*
X00502Y0066*
X00503Y00659*
X00503Y00659*
X00503Y00658*
X00504Y00658*
X00504Y00657*
X00504Y00657*
X00504Y00657*
X00504Y00657*
X00504Y00657*
X00505Y00657*
X00505Y00656*
X00505Y00656*
X00505Y00656*
X00506Y00656*
X00507Y00655*
X00508Y00655*
X00509Y00655*
X00509Y00655*
X0051*
X0051Y00655*
X0051Y00655*
X00511Y00655*
X00511Y00655*
X00512Y00655*
X00513Y00656*
X00514Y00656*
X00514Y00656*
X00514Y00657*
X00515Y00657*
X00515Y00657*
X00515Y00657*
X00515Y00657*
X00515Y00658*
X00515Y00658*
X00515Y00658*
X00516Y00658*
X00516Y00659*
X00516Y00659*
X00516Y0066*
X00516Y0066*
X00517Y00661*
X00517Y00661*
X00517Y00662*
X00517Y00663*
X00517Y00664*
Y00664*
Y00664*
Y00664*
X00517Y00664*
X00517Y00665*
X00517Y00665*
X00517Y00665*
X00517Y00666*
X00516Y00667*
X00516Y00668*
X00516Y00668*
X00515Y00669*
X00515Y00669*
X00515Y0067*
X00515Y0067*
X00515Y0067*
X00515Y0067*
X00514Y0067*
X00514Y0067*
X00514Y00671*
X00513Y00671*
X00513Y00672*
X00512Y00672*
X00511Y00672*
X00511Y00672*
X0051Y00672*
X0051Y00672*
G37*
G36*
X00512Y00533D02*
X00511D01*
X00511Y00533*
X00511*
X00511Y00533*
X0051Y00533*
X00509Y00533*
X00509Y00533*
X00508Y00532*
X00507Y00532*
X00507Y00532*
X00507Y00531*
X00507Y00531*
X00506Y00531*
X00506Y0053*
X00506Y00529*
X00506Y00528*
X00505Y00528*
Y00528*
Y00527*
Y00527*
X00505Y00527*
Y00527*
X00506Y00527*
X00506Y00526*
X00506Y00525*
X00506Y00525*
X00507Y00524*
X00507Y00523*
X00507Y00523*
X00507Y00523*
X00508Y00523*
X00508Y00522*
X00509Y00522*
X0051Y00522*
X00511Y00522*
X00512Y00521*
X00512*
X00512Y00521*
X00512*
X00513Y00522*
X00513Y00522*
X00514Y00522*
X00515Y00522*
X00516Y00523*
X00516Y00523*
X00516Y00523*
X00517Y00523*
X00517Y00524*
X00517Y00524*
X00517Y00525*
X00518Y00526*
X00518Y00526*
X00518Y00527*
Y00527*
Y00527*
Y00528*
X00518Y00528*
X00518Y00528*
X00518Y00529*
X00518Y00529*
X00517Y0053*
X00517Y00531*
X00517Y00531*
X00516Y00532*
Y00532*
X00516Y00532*
X00516Y00532*
X00515Y00532*
X00515Y00533*
X00514Y00533*
X00514Y00533*
X00513Y00533*
X00512Y00533*
G37*
G36*
X00512Y00518D02*
X00511D01*
X00511Y00518*
X00511Y00517*
X0051Y00517*
X0051Y00517*
X00509Y00517*
X00508Y00517*
X00507Y00516*
X00507Y00516*
X00506Y00516*
X00506Y00515*
X00506Y00515*
X00506Y00515*
X00506Y00515*
X00506Y00515*
X00506Y00515*
X00505Y00514*
X00505Y00514*
X00505Y00514*
X00505Y00513*
X00504Y00512*
X00504Y00511*
X00504Y0051*
X00504Y0051*
Y0051*
Y0051*
Y0051*
X00504Y00509*
X00504Y00509*
X00504Y00508*
X00504Y00507*
X00505Y00507*
X00505Y00506*
X00505Y00506*
X00505Y00506*
X00505Y00505*
X00506Y00505*
X00506Y00504*
X00506Y00504*
X00507Y00503*
X00508Y00503*
X00508*
X00508Y00503*
X00508Y00503*
X00508Y00503*
X00509Y00503*
X00509Y00502*
X0051Y00502*
X00511Y00502*
X00512Y00502*
X00512*
X00512Y00502*
X00513Y00502*
X00513Y00502*
X00514Y00502*
X00515Y00503*
X00516Y00503*
X00516Y00503*
X00516Y00503*
X00517Y00504*
X00517Y00504*
X00517Y00504*
X00517Y00504*
X00518Y00504*
X00518Y00505*
X00518Y00505*
X00518Y00505*
X00518Y00505*
X00518Y00506*
X00519Y00506*
X00519Y00507*
X00519Y00508*
X0052Y00509*
X0052Y0051*
Y0051*
Y0051*
Y0051*
X0052Y0051*
X00519Y00511*
X00519Y00511*
X00519Y00512*
X00519Y00513*
X00519Y00514*
X00518Y00514*
X00518Y00514*
X00518Y00515*
X00517Y00515*
X00517Y00515*
X00517Y00515*
X00517Y00516*
X00517Y00516*
X00517Y00516*
X00516Y00516*
X00516Y00516*
X00516Y00516*
X00515Y00517*
X00514Y00517*
X00513Y00517*
X00512Y00518*
X00512Y00518*
G37*
G36*
X00759Y0056D02*
X00759D01*
X00759Y0056*
X00759Y0056*
X00758Y00559*
X00758Y00559*
X00757Y00559*
X00756Y00559*
X00755Y00558*
X00755Y00558*
X00754Y00558*
X00754Y00557*
X00754Y00557*
X00754Y00557*
X00754Y00557*
X00754Y00557*
X00754Y00557*
X00753Y00556*
X00753Y00556*
X00753Y00556*
X00753Y00555*
X00753Y00555*
X00752Y00554*
X00752Y00553*
X00752Y00552*
X00752Y00551*
Y00551*
Y00551*
Y00551*
Y00551*
X00752Y00551*
Y0055*
X00752Y0055*
X00752Y00549*
X00752Y00548*
X00753Y00547*
X00753Y00547*
Y00547*
X00753Y00547*
X00753Y00546*
X00753Y00546*
X00753Y00546*
X00754Y00545*
X00754Y00545*
X00754Y00544*
X00755Y00544*
X00756Y00543*
X00756*
X00756Y00543*
X00756Y00543*
X00756Y00543*
X00757Y00543*
X00757Y00542*
X00758Y00542*
X00759Y00542*
X0076Y00542*
X0076*
X0076Y00542*
X0076Y00542*
X00761Y00542*
X00761Y00542*
X00762Y00543*
X00763Y00543*
X00763Y00543*
X00764Y00543*
X00764Y00544*
X00764Y00544*
X00765Y00544*
X00765Y00545*
X00765Y00545*
X00765Y00545*
X00765Y00545*
X00765Y00545*
X00765Y00545*
X00766Y00546*
X00766Y00546*
X00766Y00547*
X00766Y00547*
X00766Y00548*
X00767Y00548*
X00767Y00549*
X00767Y0055*
X00767Y0055*
X00767Y00551*
Y00551*
Y00551*
Y00551*
X00767Y00552*
X00767Y00552*
X00767Y00552*
X00767Y00553*
X00767Y00553*
X00766Y00554*
X00766Y00555*
X00766Y00556*
X00766Y00556*
X00765Y00557*
X00765Y00557*
X00765Y00557*
X00765Y00557*
X00765Y00558*
X00764Y00558*
X00764Y00558*
X00764Y00558*
X00763Y00558*
X00763Y00559*
X00762Y00559*
X00761Y0056*
X0076Y0056*
X00759Y0056*
G37*
G36*
X00605Y00527D02*
X00592Y0051D01*
X00605*
Y00527*
G37*
G36*
X01098Y00906D02*
X01087D01*
Y00892*
X01098*
X01098Y00892*
X01099*
X01099Y00892*
X011Y00893*
X011Y00893*
X01101Y00893*
X01102Y00893*
X01103Y00893*
X01103Y00894*
X01104Y00894*
X01104Y00894*
X01104Y00894*
X01104Y00894*
X01105Y00894*
X01105Y00895*
X01105Y00895*
X01105Y00896*
X01106Y00896*
X01106Y00897*
X01106Y00898*
X01106Y00899*
X01106Y00899*
Y00899*
Y009*
Y009*
Y009*
X01106Y009*
X01106Y00901*
X01106Y00901*
X01106Y00902*
X01106Y00903*
X01105Y00904*
X01105Y00904*
X01105Y00904*
X01105Y00904*
X01104Y00904*
X01104Y00905*
X01103Y00905*
X01103Y00906*
X01102Y00906*
X01102*
X01102Y00906*
X01101Y00906*
X01101Y00906*
X01101*
X011Y00906*
X011Y00906*
X01099Y00906*
X01099*
X01098Y00906*
G37*
G36*
X00912Y00183D02*
X00899D01*
Y00171*
X00911*
X00911Y00171*
X00911*
X00912Y00171*
X00913Y00171*
X00914Y00171*
X00915Y00171*
X00915Y00171*
X00915*
X00915Y00172*
X00916Y00172*
X00916Y00172*
X00917Y00172*
X00917Y00172*
X00917Y00173*
X00918Y00173*
X00918Y00174*
X00918Y00174*
X00919Y00174*
X00919Y00174*
X00919Y00175*
X00919Y00175*
X00919Y00176*
X00919Y00177*
X00919Y00177*
Y00177*
Y00177*
Y00177*
X00919Y00178*
Y00178*
X00919Y00178*
X00919Y00179*
X00919Y0018*
X00919Y0018*
X00918Y00181*
X00918Y00181*
X00917Y00182*
X00917Y00182*
X00917Y00182*
X00917Y00182*
X00917Y00182*
X00917Y00182*
X00917Y00182*
X00916Y00182*
X00916Y00183*
X00915Y00183*
X00915Y00183*
X00915Y00183*
X00914Y00183*
X00913Y00183*
X00913Y00183*
X00912Y00183*
G37*
G36*
X00954Y00174D02*
X00954D01*
X00954Y00174*
X00954Y00174*
X00953Y00174*
X00953Y00174*
X00952Y00173*
X00951Y00173*
X00951Y00173*
X0095Y00172*
X0095Y00172*
X0095Y00172*
X00949Y00171*
X00949Y00171*
X00949Y00171*
X00949Y00171*
X00949Y00171*
X00949Y00171*
X00948Y0017*
X00948Y0017*
X00948Y00169*
X00948Y00169*
X00948Y00168*
X00947Y00168*
X00947Y00167*
X00947Y00166*
X00947Y00166*
X00947Y00165*
X00947Y00164*
Y00164*
Y00163*
Y00163*
X00947Y00163*
X00947Y00162*
X00947Y00162*
X00947Y00161*
X00947Y00161*
X00947Y00159*
X00948Y00158*
X00948Y00157*
X00948Y00157*
X00949Y00156*
X00949Y00156*
X00949Y00156*
X00949Y00156*
X00949Y00155*
X00949Y00155*
X0095Y00155*
X0095Y00155*
X00951Y00154*
X00951Y00154*
X00952Y00154*
X00953Y00153*
X00953Y00153*
X00954Y00153*
X00955Y00153*
X00955*
X00955Y00153*
X00955Y00153*
X00956Y00153*
X00956Y00154*
X00957Y00154*
X00958Y00154*
X00958Y00154*
X00959Y00155*
X00959Y00155*
X0096Y00155*
X0096Y00156*
X0096Y00156*
X0096Y00156*
X0096Y00156*
X0096Y00156*
X0096Y00156*
X00961Y00157*
X00961Y00157*
X00961Y00158*
X00961Y00158*
X00961Y00159*
X00962Y00159*
X00962Y0016*
X00962Y00161*
X00962Y00162*
X00962Y00163*
X00962Y00164*
Y00164*
Y00164*
Y00164*
X00962Y00164*
X00962Y00165*
X00962Y00165*
X00962Y00166*
X00962Y00166*
X00962Y00168*
X00961Y00169*
X00961Y0017*
X00961Y0017*
X0096Y00171*
X0096Y00171*
X0096Y00171*
X0096Y00171*
X0096Y00171*
X00959Y00172*
X00959Y00172*
X00959Y00172*
X00958Y00173*
X00958Y00173*
X00957Y00173*
X00956Y00174*
X00956Y00174*
X00955Y00174*
X00954Y00174*
G37*
G36*
X00037Y0101D02*
X00026D01*
Y00997*
X00036*
X00037Y00997*
X00037*
X00038Y00997*
X00038Y00997*
X00039Y00997*
X0004Y00997*
X00041Y00998*
X00042Y00998*
X00042Y00998*
X00043Y00998*
X00043Y00999*
X00043Y00999*
X00043Y00999*
X00043Y00999*
X00043Y00999*
X00044Y00999*
X00044Y01*
X00044Y01001*
X00045Y01002*
X00045Y01003*
X00045Y01003*
X00045Y01004*
Y01004*
Y01004*
Y01004*
Y01004*
X00045Y01005*
X00045Y01005*
X00045Y01006*
X00044Y01006*
X00044Y01007*
X00044Y01008*
X00044Y01008*
X00044Y01008*
X00043Y01008*
X00043Y01009*
X00042Y01009*
X00042Y0101*
X00041Y0101*
X00041Y0101*
X00041*
X0004Y0101*
X0004Y0101*
X00039Y0101*
X00039*
X00039Y0101*
X00038Y0101*
X00038Y0101*
X00038*
X00037Y0101*
G37*
G36*
X00169Y00176D02*
X00169D01*
X00169Y00176*
X00168Y00176*
X00168Y00176*
X00167Y00176*
X00166Y00176*
X00165Y00175*
X00165Y00175*
X00164Y00175*
X00164Y00174*
X00164Y00174*
X00164Y00174*
X00164Y00174*
X00163Y00174*
X00163Y00174*
X00163Y00173*
X00163Y00173*
X00163Y00173*
X00162Y00172*
X00162Y00172*
X00162Y00172*
X00162Y00171*
X00161Y00169*
X00161Y00169*
X00161Y00168*
X00177*
Y00168*
Y00168*
X00177Y00168*
X00177Y00169*
X00177Y00169*
X00177Y00169*
X00176Y0017*
X00176Y00171*
X00176Y00172*
X00175Y00173*
X00175Y00173*
X00175Y00173*
X00175Y00174*
X00175Y00174*
X00175Y00174*
X00174Y00174*
X00174Y00174*
X00174Y00175*
X00173Y00175*
X00173Y00175*
X00172Y00175*
X00171Y00176*
X00171Y00176*
X0017Y00176*
X0017Y00176*
X00169Y00176*
G37*
%LNdeck-3*%
%LPD*%
G54D10*
X00289Y0109D02*
D01*
X00289Y0109*
X00289Y0109*
X00289Y0109*
X00289Y01091*
X00289Y01091*
X00289Y01091*
X00289Y01091*
X00289Y01091*
X00288Y01091*
X00288Y01091*
X00288Y01091*
X00288Y01092*
X00288Y01092*
X00288Y01092*
X00288Y01092*
X00288Y01092*
X00288Y01092*
X00288Y01092*
X00287Y01092*
X00287Y01092*
X00287Y01092*
X00287Y01092*
X00287*
X00287Y01092*
X00287Y01092*
X00286Y01092*
X00286Y01092*
X00286Y01092*
X00286Y01092*
X00286Y01092*
X00286Y01092*
X00286Y01092*
X00286Y01092*
X00285Y01091*
X00285Y01091*
X00285Y01091*
X00285Y01091*
X00285Y01091*
X00285Y01091*
X00285Y01091*
X00285Y01091*
X00285Y0109*
X00285Y0109*
X00285Y0109*
X00285Y0109*
X00285Y0109*
X00285Y0109*
X00285Y0109*
X00285Y0109*
X00285Y01089*
X00285Y01089*
X00285Y01089*
X00285Y01089*
X00285Y01089*
X00285Y01089*
X00285Y01089*
X00286Y01089*
X00286Y01088*
X00286Y01088*
X00286Y01088*
X00286Y01088*
X00286Y01088*
X00286Y01088*
X00286Y01088*
X00287Y01088*
X00287Y01088*
X00287Y01088*
X00287*
X00287Y01088*
X00287Y01088*
X00287Y01088*
X00288Y01088*
X00288Y01088*
X00288Y01088*
X00288Y01088*
X00288Y01088*
X00288Y01088*
X00288Y01089*
X00288Y01089*
X00288Y01089*
X00288Y01089*
X00289Y01089*
X00289Y01089*
X00289Y01089*
X00289Y01089*
X00289Y0109*
X00289Y0109*
X00289Y0109*
X00289Y0109*
X00289Y0109*
X00303D02*
D01*
X00303Y01091*
X00302Y01092*
X00302Y01093*
X00302Y01094*
X00302Y01095*
X00301Y01096*
X00301Y01097*
X003Y01098*
X003Y01099*
X00299Y011*
X00298Y01101*
X00297Y01102*
X00297Y01102*
X00296Y01103*
X00295Y01104*
X00294Y01104*
X00293Y01105*
X00292Y01105*
X00291Y01105*
X0029Y01106*
X00289Y01106*
X00287Y01106*
X00286*
X00285Y01106*
X00284Y01106*
X00283Y01105*
X00282Y01105*
X00281Y01105*
X0028Y01104*
X00279Y01104*
X00278Y01103*
X00277Y01102*
X00276Y01102*
X00276Y01101*
X00275Y011*
X00274Y01099*
X00274Y01098*
X00273Y01097*
X00273Y01096*
X00272Y01095*
X00272Y01094*
X00271Y01093*
X00271Y01092*
X00271Y01091*
X00271Y0109*
X00271Y01089*
X00271Y01088*
X00271Y01087*
X00272Y01086*
X00272Y01085*
X00273Y01084*
X00273Y01083*
X00274Y01082*
X00274Y01081*
X00275Y0108*
X00276Y01079*
X00276Y01078*
X00277Y01078*
X00278Y01077*
X00279Y01076*
X0028Y01076*
X00281Y01075*
X00282Y01075*
X00283Y01075*
X00284Y01075*
X00285Y01074*
X00286Y01074*
X00287*
X00289Y01074*
X0029Y01075*
X00291Y01075*
X00292Y01075*
X00293Y01075*
X00294Y01076*
X00295Y01076*
X00296Y01077*
X00297Y01078*
X00297Y01078*
X00298Y01079*
X00299Y0108*
X003Y01081*
X003Y01082*
X00301Y01083*
X00301Y01084*
X00302Y01085*
X00302Y01086*
X00302Y01087*
X00302Y01088*
X00303Y01089*
X00303Y0109*
X00606Y00334D02*
D01*
X00606Y00334*
X00606Y00334*
X00606Y00334*
X00606Y00334*
X00606Y00334*
X00605Y00334*
X00605Y00335*
X00605Y00335*
X00605Y00335*
X00605Y00335*
X00605Y00335*
X00605Y00335*
X00605Y00335*
X00605Y00335*
X00605Y00335*
X00605Y00335*
X00604Y00335*
X00604Y00335*
X00604Y00335*
X00604Y00336*
X00604Y00336*
X00604Y00336*
X00604*
X00603Y00336*
X00603Y00336*
X00603Y00335*
X00603Y00335*
X00603Y00335*
X00603Y00335*
X00603Y00335*
X00603Y00335*
X00602Y00335*
X00602Y00335*
X00602Y00335*
X00602Y00335*
X00602Y00335*
X00602Y00335*
X00602Y00335*
X00602Y00334*
X00602Y00334*
X00602Y00334*
X00602Y00334*
X00602Y00334*
X00602Y00334*
X00602Y00334*
X00602Y00333*
X00602Y00333*
X00602Y00333*
X00602Y00333*
X00602Y00333*
X00602Y00333*
X00602Y00333*
X00602Y00333*
X00602Y00332*
X00602Y00332*
X00602Y00332*
X00602Y00332*
X00602Y00332*
X00603Y00332*
X00603Y00332*
X00603Y00332*
X00603Y00332*
X00603Y00332*
X00603Y00332*
X00603Y00332*
X00603Y00332*
X00604Y00332*
X00604*
X00604Y00332*
X00604Y00332*
X00604Y00332*
X00604Y00332*
X00604Y00332*
X00605Y00332*
X00605Y00332*
X00605Y00332*
X00605Y00332*
X00605Y00332*
X00605Y00332*
X00605Y00332*
X00605Y00332*
X00605Y00333*
X00605Y00333*
X00605Y00333*
X00606Y00333*
X00606Y00333*
X00606Y00333*
X00606Y00333*
X00606Y00333*
X00606Y00334*
X00278Y01125D02*
X00287Y01133D01*
Y01106D02*
Y01133D01*
X00296Y01125*
G54D11*
X00844Y00925D02*
D01*
Y00925*
Y00925*
X00844Y00925*
Y00925*
X00844Y00925*
X00844Y00925*
X00844Y00925*
X00844Y00925*
X00844Y00925*
X00844Y00925*
X00844Y00925*
X00844Y00925*
X00844Y00925*
X00844Y00925*
X00844Y00925*
X00844Y00925*
X00844Y00925*
X00844*
X00844Y00925*
X00844Y00925*
X00844*
X00844*
X00844*
X00844*
X00844*
X00844Y00925*
X00844Y00925*
X00844*
X00844Y00925*
X00844Y00925*
X00844Y00925*
X00844Y00925*
X00844Y00925*
X00844Y00925*
X00844Y00925*
X00844Y00925*
X00844Y00925*
X00844Y00925*
X00844Y00925*
X00844Y00925*
X00844Y00925*
X00844Y00925*
Y00925*
Y00925*
X00844Y00925*
X00844Y00925*
Y00925*
Y00925*
X00844Y00925*
X00844Y00925*
X00844Y00925*
X00844Y00925*
X00844Y00925*
X00844Y00925*
X00844Y00925*
X00844Y00925*
X00844Y00925*
X00844Y00925*
X00844Y00925*
X00844Y00925*
X00844Y00925*
X00844Y00925*
X00844Y00925*
X00844Y00925*
X00844Y00925*
X00844*
X00844*
X00844*
X00844*
X00844*
X00844Y00925*
X00844Y00925*
X00844Y00925*
X00844Y00925*
X00844Y00925*
X00844Y00925*
X00844Y00925*
X00844Y00925*
X00844Y00925*
X00844Y00925*
X00844Y00925*
X00844Y00925*
X00844Y00925*
X00844Y00925*
X00844Y00925*
X00844Y00925*
Y00925*
X00844Y00925*
Y00925*
Y00925*
Y00942D02*
D01*
Y00942*
Y00942*
X00844Y00942*
Y00942*
X00844Y00942*
X00844Y00942*
X00844Y00942*
X00844Y00942*
X00844Y00942*
X00844Y00942*
X00844Y00942*
X00844Y00942*
X00844Y00942*
X00844Y00942*
X00844Y00942*
X00844Y00942*
X00844Y00942*
X00844Y00942*
X00844Y00942*
X00844Y00942*
X00844*
X00844*
X00844*
X00844*
X00844*
X00844Y00942*
X00844Y00942*
X00844Y00942*
X00844Y00942*
X00844Y00942*
X00844Y00942*
X00844Y00942*
X00844Y00942*
X00844Y00942*
X00844Y00942*
X00844Y00942*
X00844Y00942*
X00844Y00942*
X00844Y00942*
X00844Y00942*
X00844Y00942*
X00844Y00942*
Y00942*
Y00942*
X00844Y00942*
X00844Y00942*
Y00942*
Y00942*
X00844Y00942*
X00844Y00942*
X00844Y00942*
X00844Y00942*
X00844Y00942*
X00844Y00942*
X00844Y00942*
X00844Y00942*
X00844Y00942*
X00844Y00942*
X00844Y00942*
X00844Y00942*
X00844Y00942*
X00844Y00942*
X00844Y00942*
X00844*
X00844Y00942*
X00844*
X00844Y00942*
X00844*
X00844Y00942*
X00844*
X00844Y00942*
X00844*
X00844Y00942*
X00844Y00942*
X00844Y00942*
X00844Y00942*
X00844Y00942*
X00844Y00942*
X00844Y00942*
X00844Y00942*
X00844Y00942*
X00844Y00942*
X00844Y00942*
X00844Y00942*
X00844Y00942*
X00844Y00942*
Y00942*
X00844Y00942*
Y00942*
Y00942*
G54D12*
X00845Y00998D02*
D01*
Y00998*
X00845Y00998*
Y00998*
X00845Y00998*
X00845Y00998*
X00845Y00998*
X00845Y00998*
X00845Y00998*
X00845Y00998*
X00845Y00998*
X00845Y00998*
X00845Y00998*
X00845Y00998*
X00845Y00998*
X00845Y00998*
X00845Y00998*
X00845Y00998*
X00845Y00998*
X00845Y00998*
X00845*
X00845Y00998*
X00845*
X00845*
X00845*
X00845Y00998*
X00845*
X00845Y00998*
X00845Y00998*
X00845Y00998*
X00845Y00998*
X00845Y00998*
X00845Y00998*
X00845Y00998*
X00845Y00998*
X00845Y00998*
X00845Y00998*
X00845Y00998*
X00845Y00998*
X00845Y00998*
X00845Y00998*
Y00998*
X00845Y00998*
X00845Y00998*
Y00998*
Y00998*
Y00998*
Y00998*
X00845Y00998*
X00845Y00998*
Y00998*
X00845Y00998*
X00845Y00998*
X00845Y00998*
X00845Y00998*
X00845Y00998*
X00845Y00998*
X00845Y00998*
X00845Y00998*
X00845Y00998*
X00845Y00998*
X00845Y00998*
X00845Y00998*
X00845Y00998*
X00845Y00998*
X00845*
X00845Y00998*
X00845*
X00845*
X00845*
X00845Y00998*
X00845*
X00845Y00998*
X00845Y00998*
X00845Y00998*
X00845Y00998*
X00845Y00998*
X00845Y00998*
X00845Y00998*
X00845Y00998*
X00845Y00998*
X00845Y00998*
X00845Y00998*
X00845Y00998*
X00845Y00998*
X00845Y00998*
X00845Y00998*
X00845Y00998*
Y00998*
X00845Y00998*
Y00998*
X00236Y01007D02*
D01*
X00236Y01008*
X00236Y01008*
X00236Y01008*
X00236Y01009*
X00235Y01009*
X00235Y0101*
X00235Y0101*
X00235Y0101*
X00235Y01011*
X00234Y01011*
X00234Y01011*
X00234Y01012*
X00234Y01012*
X00233Y01012*
X00233Y01012*
X00233Y01013*
X00232Y01013*
X00232Y01013*
X00231Y01013*
X00231Y01013*
X00231Y01013*
X0023Y01013*
X0023*
X00229Y01013*
X00229Y01013*
X00229Y01013*
X00228Y01013*
X00228Y01013*
X00227Y01013*
X00227Y01012*
X00227Y01012*
X00226Y01012*
X00226Y01012*
X00226Y01011*
X00225Y01011*
X00225Y01011*
X00225Y0101*
X00225Y0101*
X00225Y0101*
X00224Y01009*
X00224Y01009*
X00224Y01008*
X00224Y01008*
X00224Y01008*
X00224Y01007*
X00224Y01007*
X00224Y01006*
X00224Y01006*
X00224Y01006*
X00224Y01005*
X00225Y01005*
X00225Y01004*
X00225Y01004*
X00225Y01004*
X00225Y01003*
X00226Y01003*
X00226Y01003*
X00226Y01003*
X00227Y01002*
X00227Y01002*
X00227Y01002*
X00228Y01002*
X00228Y01002*
X00229Y01001*
X00229Y01001*
X00229Y01001*
X0023Y01001*
X0023*
X00231Y01001*
X00231Y01001*
X00231Y01001*
X00232Y01002*
X00232Y01002*
X00233Y01002*
X00233Y01002*
X00233Y01002*
X00234Y01003*
X00234Y01003*
X00234Y01003*
X00234Y01003*
X00235Y01004*
X00235Y01004*
X00235Y01004*
X00235Y01005*
X00235Y01005*
X00236Y01006*
X00236Y01006*
X00236Y01006*
X00236Y01007*
X00236Y01007*
X01102D02*
D01*
X01102Y01008*
X01102Y01008*
X01102Y01008*
X01102Y01009*
X01101Y01009*
X01101Y0101*
X01101Y0101*
X01101Y0101*
X01101Y01011*
X011Y01011*
X011Y01011*
X011Y01012*
X011Y01012*
X01099Y01012*
X01099Y01012*
X01099Y01013*
X01098Y01013*
X01098Y01013*
X01097Y01013*
X01097Y01013*
X01097Y01013*
X01096Y01013*
X01096*
X01095Y01013*
X01095Y01013*
X01095Y01013*
X01094Y01013*
X01094Y01013*
X01093Y01013*
X01093Y01012*
X01093Y01012*
X01092Y01012*
X01092Y01012*
X01092Y01011*
X01091Y01011*
X01091Y01011*
X01091Y0101*
X01091Y0101*
X01091Y0101*
X0109Y01009*
X0109Y01009*
X0109Y01008*
X0109Y01008*
X0109Y01008*
X0109Y01007*
X0109Y01007*
X0109Y01006*
X0109Y01006*
X0109Y01006*
X0109Y01005*
X01091Y01005*
X01091Y01004*
X01091Y01004*
X01091Y01004*
X01091Y01003*
X01092Y01003*
X01092Y01003*
X01092Y01003*
X01093Y01002*
X01093Y01002*
X01093Y01002*
X01094Y01002*
X01094Y01002*
X01095Y01001*
X01095Y01001*
X01095Y01001*
X01096Y01001*
X01096*
X01097Y01001*
X01097Y01001*
X01097Y01001*
X01098Y01002*
X01098Y01002*
X01099Y01002*
X01099Y01002*
X01099Y01002*
X011Y01003*
X011Y01003*
X011Y01003*
X011Y01003*
X01101Y01004*
X01101Y01004*
X01101Y01004*
X01101Y01005*
X01101Y01005*
X01102Y01006*
X01102Y01006*
X01102Y01006*
X01102Y01007*
X01102Y01007*
G54D13*
X0041Y00871D02*
D01*
X0041Y00871*
X0041Y00872*
X0041Y00872*
X0041Y00872*
X0041Y00872*
X0041Y00873*
X00409Y00873*
X00409Y00873*
X00409Y00873*
X00409Y00874*
X00409Y00874*
X00409Y00874*
X00408Y00874*
X00408Y00874*
X00408Y00875*
X00408Y00875*
X00407Y00875*
X00407Y00875*
X00407Y00875*
X00407Y00875*
X00406Y00875*
X00406Y00875*
X00406*
X00406Y00875*
X00405Y00875*
X00405Y00875*
X00405Y00875*
X00405Y00875*
X00404Y00875*
X00404Y00875*
X00404Y00874*
X00404Y00874*
X00403Y00874*
X00403Y00874*
X00403Y00874*
X00403Y00873*
X00403Y00873*
X00403Y00873*
X00402Y00873*
X00402Y00872*
X00402Y00872*
X00402Y00872*
X00402Y00872*
X00402Y00871*
X00402Y00871*
X00402Y00871*
X00402Y00871*
X00402Y0087*
X00402Y0087*
X00402Y0087*
X00402Y0087*
X00403Y00869*
X00403Y00869*
X00403Y00869*
X00403Y00869*
X00403Y00868*
X00403Y00868*
X00404Y00868*
X00404Y00868*
X00404Y00868*
X00404Y00868*
X00405Y00867*
X00405Y00867*
X00405Y00867*
X00405Y00867*
X00406Y00867*
X00406Y00867*
X00406*
X00406Y00867*
X00407Y00867*
X00407Y00867*
X00407Y00867*
X00407Y00867*
X00408Y00868*
X00408Y00868*
X00408Y00868*
X00408Y00868*
X00409Y00868*
X00409Y00868*
X00409Y00869*
X00409Y00869*
X00409Y00869*
X00409Y00869*
X0041Y0087*
X0041Y0087*
X0041Y0087*
X0041Y0087*
X0041Y00871*
X0041Y00871*
X0041Y00871*
X00106Y01011D02*
X00184D01*
Y00993D02*
Y01011D01*
X00106Y00917D02*
Y01011D01*
Y00204D02*
X00184D01*
X00106D02*
Y00221D01*
X00184Y00204D02*
Y00297D01*
X00972Y01011D02*
X0105D01*
Y00993D02*
Y01011D01*
X00972Y00917D02*
Y01011D01*
Y00204D02*
X0105D01*
X00972D02*
Y00221D01*
X0105Y00204D02*
Y00297D01*
G54D14*
X0043Y0095D02*
X00445D01*
X00586Y00867D02*
Y00883D01*
Y00825D02*
Y00841D01*
Y00783D02*
Y00798D01*
Y0074D02*
Y00756D01*
X00826Y00376D02*
Y00391D01*
X00866Y00285D02*
Y00309D01*
X00823Y00285D02*
Y00309D01*
X00658Y00996D02*
Y01012D01*
X007Y00318D02*
Y00334D01*
Y00278D02*
Y00294D01*
X00662Y00555D02*
Y00571D01*
Y00608D02*
Y00624D01*
X00728Y00407D02*
Y0043D01*
X00685Y00407D02*
Y0043D01*
X00495Y00555D02*
Y00571D01*
Y00608D02*
Y00624D01*
X0034Y00822D02*
X00356D01*
X003D02*
X00316D01*
X0047Y0095D02*
X00486D01*
M02*