%FSTAX23Y23*%
%MOIN*%
%SFA1B1*%

%IPPOS*%
%ADD10C,0.003937*%
%ADD13C,0.007874*%
%ADD14C,0.005905*%
%ADD54C,0.009843*%
%ADD55C,0.015748*%
%LNdeck-1*%
%LPD*%
G36*
X00362Y01125D02*
X00346D01*
Y01116*
X00346Y01114*
X00346Y01113*
X00346Y01111*
X00346Y0111*
X00345Y01109*
X00345Y01108*
X00345Y01108*
X00344Y01107*
X00344Y01106*
X00344Y01106*
X00343Y01105*
X00343Y01105*
X00343Y01105*
X00343Y01104*
X00343Y01104*
X00343Y01104*
X00342Y01104*
X00341Y01103*
X00341Y01103*
X0034Y01102*
X00339Y01102*
X00339Y01102*
X00338Y01102*
X00337Y01101*
X00337Y01101*
X00336Y01101*
X00336Y01101*
X00335Y01101*
X00335Y01101*
X00335*
X00334*
X00334*
X00333Y01101*
X00332Y01101*
X00331Y01101*
X00331Y01102*
X0033Y01102*
X0033Y01102*
X0033Y01102*
X00329Y01102*
X00329Y01102*
X00329Y01102*
X00329*
X00328Y01103*
X00328Y01103*
X00327Y01104*
X00326Y01104*
X00326Y01105*
X00326Y01105*
X00326Y01105*
X00325Y01105*
Y01105*
X00325Y01106*
X00325Y01107*
X00324Y01108*
X00324Y01108*
X00324Y01109*
X00324Y01109*
X00324Y0111*
X00324Y0111*
Y0111*
X00324Y0111*
Y0111*
X00324Y0111*
X00324Y01111*
X00323Y01112*
X00323Y01113*
X00323Y01114*
X00323Y01115*
Y0113*
X00362*
Y01125*
G37*
G36*
X00352Y01096D02*
X00353Y01096D01*
X00354Y01096*
X00355Y01096*
X00355Y01095*
X00356Y01095*
X00357Y01095*
X00357Y01094*
X00358Y01094*
X00358Y01094*
X00358Y01093*
X00359Y01093*
X00359Y01093*
X00359Y01093*
X00359Y01093*
X00359Y01093*
X0036Y01092*
X0036Y01091*
X00361Y01091*
X00361Y0109*
X00361Y01089*
X00362Y01089*
X00362Y01088*
X00362Y01087*
X00362Y01087*
X00362Y01086*
X00362Y01086*
X00362Y01085*
Y01085*
X00362Y01085*
Y01084*
X00362Y01083*
X00362Y01082*
X00362Y01081*
X00362Y01081*
X00362Y0108*
X00361Y01079*
X00361Y01078*
X00361Y01078*
X0036Y01077*
X0036Y01077*
X0036Y01076*
X00359Y01076*
X00359Y01075*
X00359Y01075*
X00359Y01075*
X00359Y01075*
X00358Y01074*
X00357Y01074*
X00357Y01073*
X00356Y01073*
X00355Y01073*
X00355Y01072*
X00354Y01072*
X00353Y01072*
X00353Y01072*
X00352Y01072*
X00352Y01071*
X00351Y01071*
X00351*
X00351Y01071*
X0035*
X0035*
X0035*
X00349Y01071*
X00348Y01072*
X00347Y01072*
X00346Y01072*
X00346Y01072*
X00345Y01072*
X00345Y01073*
X00345Y01073*
X00345Y01073*
X00344Y01073*
X00344Y01073*
X00344Y01073*
X00344Y01073*
X00343Y01074*
X00343Y01075*
X00342Y01076*
X00342Y01077*
X00341Y01077*
X00341Y01078*
X00341Y01078*
X00341Y01078*
X00341Y01078*
X00341Y01079*
Y01079*
X0034Y01078*
X0034Y01077*
X00339Y01076*
X00339Y01076*
X00338Y01075*
X00338Y01075*
X00338Y01075*
X00338Y01075*
X00338*
X00337Y01074*
X00336Y01074*
X00335Y01074*
X00335Y01073*
X00334Y01073*
X00334Y01073*
X00333*
X00333*
X00333*
X00333*
X00332Y01073*
X00331Y01073*
X0033Y01074*
X0033Y01074*
X00329Y01074*
X00329Y01074*
X00329Y01074*
X00328Y01075*
X00328Y01075*
X00328Y01075*
X00328*
X00327Y01075*
X00327Y01076*
X00326Y01077*
X00325Y01077*
X00325Y01078*
X00325Y01078*
X00325Y01078*
X00325Y01079*
X00325Y01079*
Y01079*
X00324Y0108*
X00324Y01081*
X00323Y01082*
X00323Y01083*
X00323Y01083*
X00323Y01084*
X00323Y01084*
Y01085*
X00323Y01085*
X00323Y01086*
X00323Y01087*
X00324Y01088*
X00324Y01088*
X00324Y01089*
X00324Y0109*
X00324Y0109*
X00325Y01091*
X00325Y01091*
X00325Y01091*
X00325Y01092*
X00326Y01092*
X00326Y01092*
X00326Y01092*
X00326Y01092*
X00326Y01093*
X00327Y01093*
X00327Y01094*
X00328Y01094*
X00329Y01094*
X00329Y01095*
X0033Y01095*
X00331Y01095*
X00331Y01096*
X00332Y01096*
X00332Y01096*
X00333Y01096*
X00333Y01096*
X00333Y01096*
X00333*
X00334Y01091*
X00333Y01091*
X00332Y01091*
X00331Y0109*
X0033Y0109*
X00329Y0109*
X00329Y01089*
X00329Y01089*
X00329Y01089*
X00328Y01088*
X00328Y01088*
X00327Y01087*
X00327Y01086*
X00327Y01085*
X00327Y01085*
Y01085*
X00327Y01085*
Y01084*
X00327Y01083*
X00327Y01083*
X00328Y01082*
X00328Y01081*
X00328Y01081*
X00328Y0108*
X00329Y0108*
X00329Y0108*
X00329Y0108*
X00329Y01079*
X0033Y01079*
X00331Y01078*
X00331Y01078*
X00332Y01078*
X00333Y01078*
X00333Y01078*
X00333*
X00333*
X00333*
X00334Y01078*
X00334Y01078*
X00335Y01078*
X00335Y01078*
X00336Y01079*
X00337Y01079*
X00337Y0108*
X00338Y0108*
X00338Y0108*
X00338Y0108*
X00338Y0108*
Y01081*
X00338Y01081*
X00339Y01082*
X00339Y01083*
X00339Y01084*
X00339Y01085*
X00339Y01085*
Y01085*
X00339Y01086*
Y01086*
X00339Y01086*
X00339Y01087*
Y01087*
X00343Y01087*
X00343Y01087*
X00343Y01086*
X00343Y01085*
X00343Y01085*
Y01084*
X00343Y01084*
Y01084*
X00343Y01083*
X00343Y01083*
X00343Y01082*
X00344Y01081*
X00344Y0108*
X00344Y01079*
X00345Y01079*
X00345Y01079*
X00345Y01079*
X00345Y01079*
X00345Y01079*
X00345Y01079*
X00346Y01078*
X00346Y01078*
X00346Y01078*
X00347Y01077*
X00348Y01077*
X00349Y01077*
X00349Y01076*
X0035Y01076*
X0035Y01076*
X0035Y01076*
X0035*
X0035*
X0035*
X00351Y01076*
X00352Y01076*
X00353Y01077*
X00354Y01077*
X00355Y01077*
X00355Y01078*
X00355Y01078*
X00356Y01078*
X00356Y01078*
X00356Y01078*
X00356Y01079*
X00356Y01079*
X00356Y01079*
X00357Y01079*
X00357Y0108*
X00357Y0108*
X00357Y0108*
X00358Y01081*
X00358Y01082*
X00358Y01083*
X00358Y01083*
X00358Y01084*
X00358Y01084*
Y01084*
X00358Y01085*
X00358Y01086*
X00358Y01087*
X00358Y01088*
X00357Y01088*
X00357Y01089*
X00357Y01089*
X00357Y01089*
X00357Y01089*
Y01089*
X00356Y01089*
X00356Y0109*
X00355Y0109*
X00354Y01091*
X00353Y01091*
X00352Y01091*
X00352Y01092*
X00352Y01092*
X00351Y01092*
X00351Y01092*
X00351Y01092*
X00351*
X00352Y01096*
X00352Y01096*
G37*
G36*
X0082Y01102D02*
X00821Y01102D01*
X00822Y01102*
X00823Y01101*
X00823Y01101*
X00824Y01101*
X00825Y01101*
X00825Y011*
X00826Y011*
X00826Y011*
X00826Y01099*
X00827Y01099*
X00827Y01099*
X00827Y01099*
X00827Y01099*
X00827Y01099*
X00828Y01098*
X00828Y01097*
X00829Y01097*
X00829Y01096*
X00829Y01095*
X0083Y01094*
X0083Y01094*
X0083Y01093*
X0083Y01092*
X0083Y01092*
X0083Y01091*
X0083Y01091*
Y0109*
X0083Y0109*
Y0109*
Y0109*
X0083Y01089*
X0083Y01088*
X0083Y01087*
X0083Y01086*
X0083Y01085*
X00829Y01084*
X00829Y01084*
X00829Y01083*
X00829Y01083*
X00828Y01082*
X00828Y01082*
X00828Y01081*
X00828Y01081*
X00827Y01081*
X00827Y01081*
X00827Y01081*
X00827Y0108*
X00826Y0108*
X00825Y01079*
X00825Y01079*
X00824Y01079*
X00823Y01078*
X00823Y01078*
X00822Y01078*
X00822Y01078*
X00821Y01078*
X00821Y01078*
X0082Y01078*
X0082*
X00819Y01078*
X00819*
X00819Y01078*
X00818Y01078*
X00817Y01078*
X00816Y01078*
X00816Y01078*
X00815Y01078*
X00815Y01078*
X00814Y01079*
X00814Y01079*
X00814Y01079*
X00813Y01079*
X00813Y01079*
X00813Y01079*
X00813Y0108*
X00813Y0108*
X00813Y0108*
X00812Y0108*
X00812Y0108*
X00811Y01081*
X00811Y01081*
X0081Y01082*
X0081Y01083*
X0081Y01084*
X00809Y01084*
X00809Y01084*
X00809Y01085*
X00809Y01085*
X00809Y01085*
X00809Y01085*
Y01085*
X00813Y01086*
X00813Y01085*
X00814Y01084*
X00814Y01083*
X00815Y01083*
X00815Y01083*
X00815Y01082*
X00815Y01082*
X00816Y01082*
X00816*
X00816Y01082*
X00817Y01081*
X00817Y01081*
X00818Y01081*
X00818Y01081*
X00819Y01081*
X00819Y01081*
X00819*
X0082Y01081*
X0082Y01081*
X00821Y01081*
X00821Y01081*
X00822Y01082*
X00823Y01082*
X00823Y01082*
X00823Y01082*
X00824Y01082*
X00824Y01083*
X00824Y01083*
X00824Y01083*
X00824Y01083*
X00824Y01083*
X00824Y01083*
X00825Y01084*
X00825Y01084*
X00825Y01085*
X00826Y01086*
X00826Y01087*
X00826Y01087*
X00826Y01088*
X00826Y01088*
X00826Y01088*
X00826Y01088*
X00826Y01089*
Y01089*
Y01089*
X00809*
X00809Y01089*
Y0109*
Y0109*
Y0109*
X00809Y01091*
X00809Y01092*
X00809Y01093*
X00809Y01094*
X0081Y01094*
X0081Y01095*
X0081Y01096*
X0081Y01096*
X00811Y01097*
X00811Y01097*
X00811Y01098*
X00811Y01098*
X00812Y01098*
X00812Y01099*
X00812Y01099*
X00812Y01099*
X00812Y01099*
X00813Y011*
X00814Y011*
X00814Y01101*
X00815Y01101*
X00816Y01101*
X00816Y01101*
X00817Y01102*
X00817Y01102*
X00818Y01102*
X00818Y01102*
X00819Y01102*
X00819*
X00819Y01102*
X00819*
X0082Y01102*
G37*
G36*
X00794D02*
X00795Y01102D01*
X00796Y01102*
X00796Y01101*
X00797Y01101*
X00798Y01101*
X00798Y011*
X00799Y011*
X00799Y011*
X00799Y01099*
X008Y01099*
X008Y01099*
X008Y01098*
X008Y01098*
X008Y01098*
X00801Y01098*
Y01101*
X00804*
Y01078*
X008*
Y01091*
X008Y01092*
X008Y01092*
X008Y01093*
X008Y01094*
X008Y01094*
X008Y01095*
X00799Y01095*
X00799Y01096*
X00799Y01096*
X00799Y01096*
X00799Y01096*
X00799Y01097*
X00799Y01097*
X00798Y01097*
X00798Y01097*
X00798Y01097*
X00798Y01097*
X00798Y01097*
X00797Y01098*
X00796Y01098*
X00795Y01098*
X00795Y01098*
X00795Y01099*
X00794*
X00794Y01099*
X00794*
X00793Y01099*
X00793Y01098*
X00792Y01098*
X00792Y01098*
X00792Y01098*
X00791Y01098*
X00791Y01098*
X00791Y01098*
X00791Y01098*
X00791Y01097*
X0079Y01097*
X0079Y01097*
X0079Y01096*
X0079Y01096*
X0079Y01096*
X0079Y01096*
X00789Y01095*
X00789Y01095*
X00789Y01094*
X00789Y01094*
X00789Y01093*
X00789Y01093*
Y01093*
Y01093*
Y01092*
Y01092*
Y01092*
Y01078*
X00785*
Y01092*
Y01093*
Y01093*
X00785Y01094*
Y01094*
X00785Y01095*
Y01095*
X00785Y01095*
X00785Y01096*
X00785Y01096*
X00785Y01096*
Y01096*
X00786Y01097*
X00786Y01097*
X00786Y01098*
X00786Y01098*
X00786Y01099*
X00787Y01099*
X00787Y01099*
X00787Y01099*
X00787Y011*
X00787Y011*
X00788Y011*
X00788Y01101*
X00789Y01101*
X00789Y01101*
X00789Y01101*
X00789Y01101*
X00789*
X0079Y01101*
X00791Y01102*
X00791Y01102*
X00792Y01102*
X00792Y01102*
X00793*
X00793Y01102*
X00793*
X00794Y01102*
G37*
G36*
X00724D02*
X00724Y01102D01*
X00725Y01102*
X00725Y01102*
X00725Y01101*
X00726Y01101*
X00726Y01101*
X00726Y01101*
X00726Y01101*
X00726Y01101*
X00727Y011*
X00727Y011*
X00728Y01099*
X00728Y01099*
X00728Y01098*
X00728Y01098*
X00728Y01098*
X00728Y01098*
Y01101*
X00732*
Y01078*
X00728*
Y0109*
X00728Y01091*
X00728Y01092*
X00728Y01093*
X00728Y01094*
X00728Y01094*
X00728Y01094*
X00728Y01095*
X00727Y01095*
X00727Y01095*
X00727Y01095*
Y01095*
X00727Y01095*
X00727Y01096*
X00727Y01096*
X00727Y01097*
X00726Y01097*
X00726Y01097*
X00726Y01097*
X00726Y01097*
X00726Y01097*
X00725Y01098*
X00725Y01098*
X00724Y01098*
X00724Y01098*
X00724Y01098*
X00724*
X00723Y01098*
X00723Y01098*
X00722Y01098*
X00722Y01097*
X00721Y01097*
X00721Y01097*
X00721Y01097*
X00721Y01097*
X00719Y01101*
X0072Y01101*
X00721Y01101*
X00722Y01102*
X00722Y01102*
X00723Y01102*
X00723Y01102*
X00723*
X00723Y01102*
X00723*
X00724Y01102*
G37*
G36*
X00691Y01078D02*
X00687D01*
Y01093*
X00672*
Y01097*
X00687*
Y01106*
X0067*
Y0111*
X00691*
Y01078*
G37*
G36*
X00848Y01111D02*
X0085Y01111D01*
X0085Y0111*
X00851Y0111*
X00851Y0111*
X00852Y0111*
X00852Y0111*
X00852Y0111*
X00853Y0111*
X00853Y0111*
X00853Y0111*
X00853Y0111*
X00853*
X00854Y01109*
X00855Y01109*
X00856Y01108*
X00856Y01108*
X00857Y01107*
X00857Y01107*
X00857Y01107*
X00857Y01107*
X00857Y01106*
Y01106*
X00858Y01106*
X00858Y01105*
X00858Y01104*
X00858Y01103*
X00858Y01103*
X00858Y01103*
Y01102*
X00858Y01102*
Y01102*
Y01102*
Y01102*
X00858Y01101*
X00858Y011*
X00858Y011*
X00858Y01099*
X00858Y01099*
X00858Y01098*
X00857Y01098*
X00857Y01098*
X00857Y01098*
Y01098*
X00857Y01097*
X00856Y01097*
X00856Y01096*
X00855Y01096*
X00855Y01095*
X00854Y01095*
X00854Y01095*
X00854Y01095*
X00854Y01095*
X00854*
X00854Y01095*
X00853Y01095*
X00853Y01094*
X00852Y01094*
X00851Y01094*
X0085Y01094*
X0085Y01093*
X00849Y01093*
X00849Y01093*
X00848Y01093*
X00848Y01093*
X00848Y01093*
X00848Y01093*
X00848*
X00847Y01093*
X00846Y01093*
X00846Y01092*
X00845Y01092*
X00845Y01092*
X00844Y01092*
X00844Y01092*
X00843Y01092*
X00843Y01092*
X00843Y01092*
X00843Y01092*
X00842Y01091*
X00842Y01091*
X00842Y01091*
X00842Y01091*
X00841Y01091*
X00841Y01091*
X0084Y0109*
X0084Y0109*
X0084Y0109*
X00839Y0109*
X00839Y0109*
X00839Y0109*
X00839Y01089*
X00839Y01089*
X00839Y01088*
X00838Y01088*
X00838Y01087*
X00838Y01087*
Y01087*
Y01087*
Y01087*
X00838Y01086*
X00838Y01086*
X00839Y01085*
X00839Y01085*
X00839Y01085*
X00839Y01084*
X00839Y01084*
X00839Y01084*
X0084Y01084*
X0084Y01083*
X00841Y01083*
X00841Y01083*
X00841Y01082*
X00842Y01082*
X00842Y01082*
X00842Y01082*
X00842Y01082*
X00842*
X00843Y01082*
X00843Y01082*
X00844Y01082*
X00845Y01082*
X00845Y01081*
X00846*
X00846Y01081*
X00846*
X00847Y01081*
X00848Y01082*
X00849Y01082*
X0085Y01082*
X0085Y01082*
X0085Y01082*
X00851Y01082*
X00851Y01082*
X00851Y01082*
X00851Y01082*
X00851Y01082*
X00851*
X00852Y01083*
X00853Y01083*
X00853Y01084*
X00854Y01084*
X00854Y01084*
X00854Y01085*
X00854Y01085*
X00854Y01085*
X00855Y01085*
X00855Y01086*
X00855Y01087*
X00855Y01087*
X00856Y01088*
X00856Y01088*
X00856Y01088*
X00856Y01089*
X00856Y01089*
Y01089*
Y01089*
X0086Y01089*
X0086Y01088*
X0086Y01087*
X00859Y01086*
X00859Y01085*
X00859Y01085*
X00859Y01084*
X00859Y01084*
X00858Y01084*
X00858Y01083*
X00858Y01083*
X00858Y01083*
X00858Y01083*
X00858Y01083*
X00858Y01083*
X00857Y01082*
X00857Y01081*
X00856Y0108*
X00855Y0108*
X00854Y01079*
X00854Y01079*
X00854Y01079*
X00854Y01079*
X00854Y01079*
X00853Y01079*
X00853*
X00852Y01079*
X00851Y01078*
X0085Y01078*
X00849Y01078*
X00848Y01078*
X00848Y01078*
X00847Y01078*
X00847*
X00846Y01078*
X00846*
X00845Y01078*
X00844Y01078*
X00843Y01078*
X00842Y01078*
X00842Y01078*
X00841Y01078*
X00841Y01079*
X00841Y01079*
X0084Y01079*
X0084Y01079*
X0084Y01079*
X0084Y01079*
X0084*
X00839Y01079*
X00838Y0108*
X00837Y01081*
X00837Y01081*
X00836Y01082*
X00836Y01082*
X00836Y01082*
X00836Y01082*
X00836Y01082*
Y01082*
X00835Y01083*
X00835Y01083*
X00835Y01084*
X00835Y01085*
X00834Y01086*
X00834Y01086*
X00834Y01087*
Y01087*
X00834Y01087*
Y01087*
Y01087*
Y01087*
X00834Y01088*
X00834Y01089*
X00835Y0109*
X00835Y0109*
X00835Y01091*
X00835Y01091*
X00835Y01091*
X00835Y01092*
X00836Y01092*
X00836Y01092*
Y01092*
X00836Y01092*
X00836Y01092*
X00837Y01093*
X00837Y01094*
X00838Y01094*
X00839Y01095*
X00839Y01095*
X00839Y01095*
X00839Y01095*
X0084Y01095*
X0084Y01095*
X0084*
X0084Y01095*
X00841Y01095*
X00841Y01096*
X00842Y01096*
X00843Y01096*
X00844Y01096*
X00845Y01097*
X00845Y01097*
X00846Y01097*
X00846Y01097*
X00846Y01097*
X00847Y01097*
X00847Y01097*
X00847*
X00848Y01097*
X00849Y01097*
X00849Y01098*
X0085Y01098*
X00851Y01098*
X00851Y01098*
X00852Y01098*
X00852Y01099*
X00852Y01099*
X00853Y01099*
X00853Y01099*
X00853Y01099*
X00853Y01099*
X00853Y01099*
X00853Y01099*
X00854Y011*
X00854Y011*
X00854Y01101*
X00854Y01101*
X00854Y01102*
X00854Y01102*
X00854Y01102*
Y01102*
Y01102*
X00854Y01103*
X00854Y01103*
X00854Y01104*
X00854Y01104*
X00854Y01105*
X00853Y01105*
X00853Y01105*
X00853Y01106*
X00853Y01106*
X00853*
X00852Y01106*
X00852Y01106*
X00851Y01106*
X0085Y01107*
X00849Y01107*
X00849Y01107*
X00848Y01107*
X00848Y01107*
X00848*
X00847Y01107*
X00846*
X00846Y01107*
X00845Y01107*
X00845Y01107*
X00844Y01107*
X00844Y01107*
X00843Y01106*
X00843Y01106*
X00843Y01106*
X00842Y01106*
X00842Y01106*
X00842Y01106*
X00842Y01106*
X00842Y01106*
X00842Y01105*
X00842Y01105*
X00841Y01105*
X00841Y01105*
X0084Y01104*
X0084Y01103*
X0084Y01103*
X00839Y01102*
X00839Y01102*
X00839Y01101*
X00839Y01101*
Y01101*
X00839Y01101*
Y01101*
X00835Y01101*
X00835Y01102*
X00836Y01103*
X00836Y01104*
X00836Y01105*
X00836Y01105*
X00836Y01105*
X00836Y01106*
X00837Y01106*
X00837Y01106*
X00837Y01106*
X00837Y01106*
X00837Y01106*
X00837Y01107*
X00838Y01108*
X00839Y01108*
X00839Y01109*
X0084Y01109*
X0084Y01109*
X00841Y01109*
X00841Y0111*
X00841Y0111*
X00841Y0111*
X00841*
X00842Y0111*
X00843Y0111*
X00844Y01111*
X00845Y01111*
X00846Y01111*
X00846Y01111*
X00846Y01111*
X00847Y01111*
X00847*
X00848Y01111*
G37*
G36*
X00772Y01102D02*
X00773Y01102D01*
X00773Y01102*
X00774Y01102*
X00774Y01102*
X00775Y01102*
X00775Y01101*
X00775Y01101*
X00775*
X00776Y01101*
X00776Y01101*
X00776Y01101*
X00777Y01101*
X00777Y01101*
X00777Y011*
X00777Y011*
X00777Y011*
X00778Y011*
X00778Y011*
X00779Y01099*
X00779Y01099*
X00779Y01099*
X00779Y01098*
X00779Y01098*
X00779Y01098*
X0078Y01098*
X0078Y01097*
X0078Y01097*
X0078Y01096*
X0078Y01096*
X0078Y01096*
Y01095*
Y01095*
Y01095*
X0078Y01095*
X0078Y01094*
X0078Y01094*
X0078Y01093*
X0078Y01093*
X00779Y01092*
X00779Y01092*
X00779Y01092*
X00779Y01092*
X00778Y01091*
X00778Y01091*
X00778Y01091*
X00777Y0109*
X00777Y0109*
X00777Y0109*
X00777Y0109*
X00777*
X00776Y0109*
X00776Y0109*
X00776Y01089*
X00775Y01089*
X00774Y01089*
X00773Y01089*
X00773Y01089*
X00772Y01088*
X00772Y01088*
X00771Y01088*
X00771Y01088*
X00771Y01088*
X00771Y01088*
X00771*
X0077Y01088*
X0077Y01088*
X00769Y01088*
X00769Y01087*
X00768Y01087*
X00768Y01087*
X00768Y01087*
X00767Y01087*
X00767Y01087*
X00767Y01087*
X00767Y01087*
X00767Y01087*
X00767Y01087*
X00766Y01086*
X00766Y01086*
X00766Y01086*
X00766Y01085*
X00766Y01085*
X00765Y01085*
Y01085*
Y01085*
X00766Y01084*
X00766Y01084*
X00766Y01083*
X00766Y01083*
X00766Y01082*
X00767Y01082*
X00767Y01082*
X00767Y01082*
X00767Y01082*
X00768Y01081*
X00769Y01081*
X00769Y01081*
X0077Y01081*
X0077Y01081*
X0077*
X00771Y01081*
X00771*
X00772Y01081*
X00773Y01081*
X00773Y01081*
X00774Y01082*
X00774Y01082*
X00775Y01082*
X00775Y01082*
X00775Y01082*
X00775*
X00776Y01083*
X00776Y01083*
X00776Y01084*
X00777Y01084*
X00777Y01085*
X00777Y01085*
X00777Y01085*
X00777Y01086*
Y01086*
X00777Y01086*
Y01086*
X00781Y01085*
X00781Y01084*
X0078Y01084*
X0078Y01083*
X0078Y01083*
X0078Y01082*
X0078Y01082*
X00779Y01081*
X00779Y01081*
X00779Y01081*
X00779Y0108*
X00778Y0108*
X00778Y0108*
X00778Y0108*
X00778Y0108*
X00778Y0108*
X00778Y0108*
X00777Y01079*
X00777Y01079*
X00776Y01079*
X00776Y01078*
X00775Y01078*
X00773Y01078*
X00773Y01078*
X00772Y01078*
X00772Y01078*
X00772Y01078*
X00771Y01078*
X00771*
X0077Y01078*
X00769Y01078*
X00768Y01078*
X00767Y01078*
X00767Y01078*
X00767Y01078*
X00767Y01078*
X00766Y01078*
X00766Y01079*
X00766Y01079*
X00766Y01079*
X00766*
X00765Y01079*
X00765Y01079*
X00764Y0108*
X00763Y0108*
X00763Y01081*
X00763Y01081*
X00763Y01081*
X00763Y01081*
Y01081*
X00762Y01082*
X00762Y01083*
X00762Y01083*
X00762Y01084*
X00762Y01084*
X00761Y01085*
Y01085*
Y01085*
Y01085*
Y01085*
X00761Y01086*
X00762Y01086*
X00762Y01087*
X00762Y01087*
X00762Y01088*
X00762Y01088*
X00762Y01088*
X00762Y01088*
X00763Y01089*
X00763Y01089*
X00764Y0109*
X00764Y0109*
X00764Y0109*
X00765Y0109*
X00765Y0109*
X00765Y0109*
X00765*
X00765Y01091*
X00766Y01091*
X00766Y01091*
X00767Y01091*
X00768Y01091*
X00769Y01092*
X00769Y01092*
X00769Y01092*
X0077Y01092*
X0077Y01092*
X0077Y01092*
X00771Y01092*
X00771Y01092*
X00771*
X00771Y01092*
X00772Y01093*
X00772Y01093*
X00773Y01093*
X00773Y01093*
X00773Y01093*
X00773Y01093*
X00774Y01093*
X00774Y01093*
X00774Y01093*
X00774Y01093*
X00774*
X00775Y01093*
X00775Y01094*
X00775Y01094*
X00775Y01094*
X00776Y01094*
X00776Y01094*
X00776Y01094*
X00776Y01094*
X00776Y01095*
X00776Y01095*
X00776Y01095*
X00776Y01095*
X00776Y01096*
Y01096*
Y01096*
X00776Y01096*
X00776Y01097*
X00776Y01097*
X00776Y01097*
X00775Y01097*
X00775Y01098*
X00775Y01098*
X00775Y01098*
X00775Y01098*
X00775Y01098*
X00774Y01098*
X00773Y01099*
X00773Y01099*
X00772Y01099*
X00772*
X00772Y01099*
X00771*
X0077Y01099*
X0077Y01099*
X00769Y01098*
X00769Y01098*
X00768Y01098*
X00768Y01098*
X00768Y01098*
X00768Y01098*
X00767Y01097*
X00767Y01097*
X00767Y01096*
X00766Y01096*
X00766Y01096*
X00766Y01095*
X00766Y01095*
Y01095*
Y01095*
X00762Y01095*
X00762Y01096*
X00763Y01097*
X00763Y01098*
X00763Y01098*
X00763Y01098*
X00764Y01099*
X00764Y01099*
X00764Y01099*
X00764Y01099*
X00765Y011*
X00765Y011*
X00766Y01101*
X00766Y01101*
X00766Y01101*
X00767Y01101*
X00767Y01101*
X00767Y01101*
X00767*
X00768Y01101*
X00768Y01102*
X00769Y01102*
X0077Y01102*
X00771Y01102*
X00771*
X00771Y01102*
X00772*
X00772Y01102*
G37*
G36*
X00748D02*
X00749Y01102D01*
X0075Y01102*
X0075Y01102*
X00751Y01101*
X00752Y01101*
X00752Y01101*
X00753Y01101*
X00753Y011*
X00754Y011*
X00754Y011*
X00754Y011*
X00754Y011*
X00755Y01099*
X00755Y01099*
X00755Y01099*
X00755Y01099*
X00756Y01098*
X00756Y01097*
X00757Y01097*
X00757Y01096*
X00757Y01095*
X00758Y01094*
X00758Y01093*
X00758Y01093*
X00758Y01092*
X00758Y01091*
X00758Y01091*
X00758Y0109*
X00758Y0109*
Y0109*
Y0109*
Y0109*
X00758Y01089*
X00758Y01088*
X00758Y01087*
X00758Y01086*
X00758Y01085*
X00757Y01084*
X00757Y01084*
X00757Y01083*
X00756Y01083*
X00756Y01082*
X00756Y01082*
X00756Y01081*
X00756Y01081*
X00755Y01081*
X00755Y01081*
X00755Y01081*
X00755Y0108*
X00754Y0108*
X00753Y01079*
X00753Y01079*
X00752Y01079*
X00751Y01078*
X00751Y01078*
X0075Y01078*
X0075Y01078*
X00749Y01078*
X00749Y01078*
X00748Y01078*
X00748*
X00748Y01078*
X00747*
X00746Y01078*
X00745Y01078*
X00744Y01078*
X00744Y01078*
X00743Y01078*
X00743Y01079*
X00743Y01079*
X00743Y01079*
X00742Y01079*
X00742Y01079*
X00742Y01079*
X00742Y01079*
X00742*
X00741Y0108*
X0074Y0108*
X00739Y01081*
X00739Y01082*
X00738Y01082*
X00738Y01082*
X00738Y01083*
X00738Y01083*
X00738Y01083*
X00738Y01083*
Y01083*
X00738Y01084*
X00737Y01084*
X00737Y01085*
X00737Y01086*
X00737Y01088*
X00737Y01088*
X00737Y01089*
X00737Y01089*
Y01089*
X00737Y0109*
Y0109*
Y0109*
Y0109*
X00737Y01091*
X00737Y01092*
X00737Y01093*
X00737Y01094*
X00737Y01095*
X00738Y01095*
X00738Y01096*
X00738Y01097*
X00738Y01097*
X00739Y01097*
X00739Y01098*
X00739Y01098*
X00739Y01098*
X00739Y01099*
X0074Y01099*
X0074Y01099*
X0074Y01099*
X00741Y011*
X00741Y011*
X00742Y01101*
X00743Y01101*
X00743Y01101*
X00744Y01101*
X00745Y01102*
X00745Y01102*
X00746Y01102*
X00746Y01102*
X00747Y01102*
X00747*
X00747Y01102*
X00747*
X00748Y01102*
G37*
G36*
X00721Y01069D02*
X00695D01*
Y01072*
X00721*
Y01069*
G37*
G36*
X00592Y00281D02*
X00593Y00281D01*
X00593Y00281*
X00594Y0028*
X00595Y0028*
X00596Y0028*
X00596Y0028*
X00597Y00279*
X00598Y00279*
X00598Y00279*
X00598Y00279*
X00599Y00278*
X00599Y00278*
X00599Y00278*
X00599Y00278*
X00599Y00278*
X006Y00277*
X006Y00277*
X00601Y00276*
X00601Y00275*
X00602Y00275*
X00602Y00274*
X00602Y00273*
X00602Y00273*
X00603Y00272*
X00603Y00272*
X00603Y00271*
X00603Y00271*
X00603Y0027*
X00603Y0027*
X00603Y0027*
Y0027*
X00598Y00269*
X00598Y0027*
X00598Y0027*
X00598Y00272*
X00598Y00273*
X00597Y00273*
X00597Y00273*
X00597Y00274*
X00597Y00274*
X00597Y00274*
X00597Y00274*
X00596Y00275*
X00596Y00275*
X00596Y00275*
X00596Y00275*
X00596Y00275*
X00595Y00276*
X00595Y00276*
X00594Y00276*
X00594Y00276*
X00593Y00277*
X00592Y00277*
X00592Y00277*
X00591*
X00591Y00277*
X0059*
X0059Y00277*
X00588Y00277*
X00588Y00276*
X00587Y00276*
X00586Y00276*
X00586Y00275*
X00586Y00275*
X00586Y00275*
X00585Y00275*
X00585Y00275*
X00585Y00275*
X00585Y00275*
X00585Y00274*
X00584Y00274*
X00584Y00273*
X00584Y00273*
X00584Y00272*
X00583Y00271*
X00583Y00271*
Y00271*
X00583Y00271*
Y0027*
Y0027*
Y0027*
X00583Y0027*
X00583Y00269*
X00584Y00268*
X00584Y00267*
X00584Y00266*
X00585Y00266*
X00585Y00265*
X00585Y00265*
X00585Y00265*
X00586Y00265*
X00586Y00265*
X00586Y00265*
X00586Y00264*
X00587Y00263*
X00587Y00263*
X00588Y00262*
X00589Y00261*
X00591Y00259*
X00591Y00259*
X00592Y00258*
X00593Y00258*
X00593Y00257*
X00594Y00257*
X00594Y00257*
X00594Y00256*
X00594Y00256*
X00595Y00256*
X00596Y00255*
X00596Y00255*
X00597Y00254*
X00597Y00254*
X00598Y00253*
X00598Y00253*
X00599Y00252*
X00599Y00252*
X00599Y00252*
X006Y00251*
X006Y00251*
X006Y00251*
X006Y00251*
X006Y00251*
X006Y00251*
X00601Y0025*
X00602Y00249*
X00602Y00248*
X00603Y00247*
X00603Y00246*
X00603Y00246*
X00603Y00246*
X00603Y00246*
X00603Y00246*
X00603Y00246*
Y00246*
X00604Y00245*
X00604Y00244*
X00604Y00244*
X00604Y00243*
X00604Y00243*
Y00243*
Y00242*
Y00242*
X00578*
Y00247*
X00597*
X00597Y00248*
X00596Y00248*
X00596Y00249*
X00596Y00249*
X00596Y00249*
X00595Y00249*
X00595Y00249*
X00595Y0025*
X00595Y0025*
X00594Y0025*
X00594Y00251*
X00593Y00251*
X00592Y00252*
X00591Y00253*
X00591Y00253*
X00591Y00254*
X0059Y00254*
X0059Y00254*
X0059Y00254*
X0059Y00254*
X00589Y00255*
X00588Y00256*
X00587Y00256*
X00587Y00257*
X00586Y00258*
X00585Y00258*
X00585Y00259*
X00584Y00259*
X00584Y0026*
X00584Y0026*
X00583Y0026*
X00583Y0026*
X00583Y00261*
X00583Y00261*
X00583Y00261*
X00583Y00261*
X00582Y00262*
X00581Y00263*
X00581Y00263*
X0058Y00264*
X0058Y00265*
X0058Y00265*
X0058Y00265*
X0058Y00265*
X00579Y00266*
Y00266*
X00579Y00266*
X00579Y00267*
X00579Y00268*
X00579Y00269*
X00579Y00269*
X00579Y0027*
Y0027*
Y0027*
Y0027*
Y0027*
X00579Y00271*
X00579Y00272*
X00579Y00272*
X00579Y00273*
X00579Y00274*
X0058Y00275*
X0058Y00275*
X0058Y00276*
X0058Y00276*
X00581Y00277*
X00581Y00277*
X00581Y00277*
X00581Y00277*
X00582Y00278*
X00582Y00278*
X00582Y00278*
X00582Y00278*
X00583Y00279*
X00584Y00279*
X00585Y0028*
X00585Y0028*
X00586Y0028*
X00587Y0028*
X00587Y0028*
X00588Y00281*
X00589Y00281*
X00589Y00281*
X0059Y00281*
X0059Y00281*
X00591*
X00592Y00281*
G37*
G36*
X00673Y00276D02*
X0066D01*
Y00242*
X00655*
Y00276*
X00642*
Y00281*
X00673*
Y00276*
G37*
G36*
X00637Y00242D02*
X00632D01*
Y00258*
X00622*
X00621Y00258*
X00619Y00258*
X00618Y00258*
X00617Y00258*
X00616Y00259*
X00615Y00259*
X00614Y00259*
X00614Y0026*
X00613Y0026*
X00612Y0026*
X00612Y0026*
X00612Y00261*
X00611Y00261*
X00611Y00261*
X00611Y00261*
X00611Y00261*
X0061Y00262*
X0061Y00263*
X00609Y00263*
X00609Y00264*
X00609Y00265*
X00609Y00265*
X00608Y00266*
X00608Y00267*
X00608Y00267*
X00608Y00268*
X00608Y00268*
X00608Y00269*
X00608Y00269*
Y00269*
Y00269*
Y0027*
X00608Y00271*
X00608Y00272*
X00608Y00272*
X00608Y00273*
X00609Y00274*
X00609Y00274*
X00609Y00274*
X00609Y00275*
X00609Y00275*
X00609Y00275*
Y00275*
X00609Y00276*
X0061Y00276*
X00611Y00277*
X00611Y00278*
X00611Y00278*
X00612Y00278*
X00612Y00278*
X00612Y00278*
X00612*
X00613Y00279*
X00614Y00279*
X00614Y0028*
X00615Y0028*
X00616Y0028*
X00616Y0028*
X00616Y0028*
X00617Y0028*
X00617*
X00617Y0028*
X00617*
X00617Y0028*
X00618Y0028*
X00619Y00281*
X0062Y00281*
X00621Y00281*
X00621Y00281*
X00637*
Y00242*
G37*
G36*
X00534Y00356D02*
X00522Y00352D01*
Y00335*
X00534Y00331*
Y00325*
X00495Y00341*
Y00346*
X00534Y00361*
Y00356*
G37*
G36*
Y0031D02*
Y00305D01*
X00495Y0029*
Y00295*
X00523Y00305*
X00524Y00306*
X00525Y00306*
X00526Y00307*
X00527Y00307*
X00528Y00307*
X00528Y00307*
X00529Y00307*
X00529Y00307*
X00529Y00307*
X00529Y00308*
X00529Y00308*
X00529*
X00528Y00308*
X00527Y00308*
X00526Y00309*
X00525Y00309*
X00525Y00309*
X00524Y00309*
X00524Y00309*
X00524Y00309*
X00523Y00309*
X00523Y0031*
X00523Y0031*
X00523*
X00495Y0032*
Y00325*
X00534Y0031*
G37*
G36*
Y00272D02*
X00534Y0027D01*
X00534Y00269*
X00533Y00268*
X00533Y00267*
X00533Y00267*
X00533Y00266*
X00533Y00266*
X00533Y00266*
X00533Y00266*
Y00266*
X00533Y00265*
Y00265*
X00533Y00264*
X00532Y00264*
X00532Y00263*
X00532Y00262*
X00531Y00262*
X00531Y00261*
X00531Y00261*
X00531Y00261*
Y00261*
X00531Y0026*
X0053Y00259*
X00529Y00259*
X00529Y00258*
X00528Y00258*
X00528Y00258*
X00528Y00257*
X00528Y00257*
X00528Y00257*
X00528*
X00527Y00257*
X00526Y00256*
X00525Y00256*
X00524Y00255*
X00523Y00255*
X00523Y00255*
X00523Y00255*
X00522Y00255*
X00522Y00255*
X00522Y00255*
X00522*
X00521Y00254*
X00519Y00254*
X00518Y00254*
X00517Y00254*
X00516Y00254*
X00516Y00254*
X00515*
X00515Y00254*
X00515*
X00514*
X00514*
X00514*
X00512Y00254*
X00511Y00254*
X00511Y00254*
X0051Y00254*
X00509Y00254*
X00508Y00254*
X00508Y00254*
X00507Y00255*
X00507Y00255*
X00506Y00255*
X00506Y00255*
X00506Y00255*
X00505Y00255*
X00505Y00255*
X00505*
X00504Y00256*
X00502Y00257*
X00502Y00257*
X00501Y00257*
X00501Y00258*
X005Y00258*
X005Y00258*
X005Y00259*
X00499Y00259*
X00499Y00259*
X00499Y00259*
X00499Y0026*
X00499Y0026*
X00499Y0026*
X00498Y00261*
X00497Y00262*
X00497Y00263*
X00496Y00263*
X00496Y00264*
X00496Y00265*
X00496Y00265*
X00496Y00265*
X00496Y00265*
X00496Y00265*
Y00265*
X00496Y00266*
X00496Y00266*
X00495Y00267*
X00495Y00269*
X00495Y0027*
X00495Y0027*
Y00271*
X00495Y00271*
Y00285*
X00534*
Y00272*
G37*
G36*
Y00233D02*
X00534Y00232D01*
X00534Y0023*
X00533Y00229*
X00533Y00228*
X00533Y00228*
X00533Y00228*
X00533Y00227*
X00533Y00227*
X00533Y00227*
Y00227*
X00533Y00227*
Y00227*
X00533Y00226*
X00532Y00225*
X00532Y00224*
X00532Y00223*
X00531Y00223*
X00531Y00222*
X00531Y00222*
X00531Y00222*
Y00222*
X00531Y00221*
X0053Y00221*
X00529Y0022*
X00529Y0022*
X00528Y00219*
X00528Y00219*
X00528Y00219*
X00528Y00219*
X00528Y00219*
X00528*
X00527Y00218*
X00526Y00217*
X00525Y00217*
X00524Y00217*
X00523Y00216*
X00523Y00216*
X00523Y00216*
X00522Y00216*
X00522Y00216*
X00522Y00216*
X00522*
X00521Y00216*
X00519Y00215*
X00518Y00215*
X00517Y00215*
X00516Y00215*
X00516Y00215*
X00515*
X00515Y00215*
X00515*
X00514*
X00514*
X00514*
X00512Y00215*
X00511Y00215*
X00511Y00215*
X0051Y00215*
X00509Y00215*
X00508Y00216*
X00508Y00216*
X00507Y00216*
X00507Y00216*
X00506Y00216*
X00506Y00216*
X00506Y00216*
X00505Y00216*
X00505Y00216*
X00505*
X00504Y00217*
X00502Y00218*
X00502Y00218*
X00501Y00219*
X00501Y00219*
X005Y00219*
X005Y0022*
X005Y0022*
X00499Y0022*
X00499Y0022*
X00499Y00221*
X00499Y00221*
X00499Y00221*
X00499Y00221*
X00498Y00222*
X00497Y00223*
X00497Y00224*
X00496Y00225*
X00496Y00225*
X00496Y00226*
X00496Y00226*
X00496Y00226*
X00496Y00226*
X00496Y00227*
Y00227*
X00496Y00227*
X00496Y00228*
X00495Y00229*
X00495Y0023*
X00495Y00231*
X00495Y00231*
Y00232*
X00495Y00232*
Y00247*
X00534*
Y00233*
G37*
G36*
X00524Y00195D02*
X00525Y00195D01*
X00526Y00194*
X00527Y00194*
X00527Y00194*
X00528Y00193*
X00529Y00193*
X00529Y00193*
X0053Y00192*
X0053Y00192*
X0053Y00192*
X00531Y00192*
X00531Y00191*
X00531Y00191*
X00531Y00191*
X00531Y00191*
X00532Y0019*
X00532Y0019*
X00533Y00189*
X00533Y00188*
X00533Y00188*
X00534Y00187*
X00534Y00186*
X00534Y00186*
X00534Y00185*
X00534Y00185*
X00534Y00184*
X00534Y00184*
Y00183*
X00534Y00183*
Y00183*
X00534Y00182*
X00534Y00181*
X00534Y0018*
X00534Y00179*
X00533Y00178*
X00533Y00177*
X00533Y00177*
X00533Y00176*
X00532Y00175*
X00532Y00175*
X00532Y00174*
X00531Y00174*
X00531Y00174*
X00531Y00174*
X00531Y00174*
X00531Y00173*
X0053Y00173*
X00529Y00172*
X00529Y00172*
X00528Y00171*
X00527Y00171*
X00527Y00171*
X00526Y0017*
X00525Y0017*
X00525Y0017*
X00524Y0017*
X00524Y0017*
X00523Y0017*
X00523*
X00522Y0017*
X00522*
X00522*
X00522*
X00521Y0017*
X0052Y0017*
X00519Y0017*
X00518Y00171*
X00518Y00171*
X00517Y00171*
X00517Y00171*
X00517Y00171*
X00517Y00171*
X00516Y00172*
X00516Y00172*
X00516Y00172*
X00516Y00172*
X00515Y00172*
X00515Y00173*
X00514Y00174*
X00514Y00175*
X00513Y00176*
X00513Y00176*
X00513Y00176*
X00513Y00177*
X00513Y00177*
X00513Y00177*
Y00177*
X00512Y00176*
X00512Y00175*
X00511Y00175*
X00511Y00174*
X0051Y00174*
X0051Y00173*
X0051Y00173*
X0051Y00173*
X0051*
X00509Y00173*
X00508Y00172*
X00507Y00172*
X00507Y00172*
X00506Y00172*
X00505Y00172*
X00505*
X00505*
X00505*
X00505*
X00504Y00172*
X00503Y00172*
X00502Y00172*
X00502Y00172*
X00501Y00173*
X00501Y00173*
X00501Y00173*
X005Y00173*
X005Y00173*
X005Y00173*
X005*
X00499Y00174*
X00499Y00174*
X00498Y00175*
X00497Y00176*
X00497Y00176*
X00497Y00177*
X00497Y00177*
X00496Y00177*
X00496Y00177*
Y00177*
X00496Y00178*
X00496Y00179*
X00495Y0018*
X00495Y00181*
X00495Y00182*
X00495Y00182*
X00495Y00182*
Y00183*
X00495Y00184*
X00495Y00185*
X00495Y00185*
X00495Y00186*
X00496Y00187*
X00496Y00187*
X00496Y00188*
X00496Y00188*
X00497Y00189*
X00497Y00189*
X00497Y0019*
X00497Y0019*
X00497Y0019*
X00498Y0019*
X00498Y0019*
X00498Y00191*
X00498Y00191*
X00499Y00192*
X00499Y00192*
X005Y00192*
X00501Y00193*
X00501Y00193*
X00502Y00194*
X00503Y00194*
X00503Y00194*
X00504Y00194*
X00504Y00194*
X00505Y00194*
X00505Y00194*
X00505Y00194*
X00505*
X00506Y0019*
X00505Y00189*
X00504Y00189*
X00503Y00189*
X00502Y00188*
X00501Y00188*
X00501Y00188*
X00501Y00188*
X00501Y00187*
X005Y00187*
X005Y00186*
X00499Y00185*
X00499Y00184*
X00499Y00184*
X00499Y00184*
Y00183*
X00499Y00183*
Y00183*
X00499Y00182*
X00499Y00181*
X00499Y0018*
X005Y00179*
X005Y00179*
X005Y00179*
X00501Y00178*
X00501Y00178*
X00501Y00178*
X00501Y00178*
X00502Y00177*
X00503Y00177*
X00503Y00177*
X00504Y00177*
X00505Y00177*
X00505Y00176*
X00505*
X00505*
X00505*
X00506Y00177*
X00506Y00177*
X00507Y00177*
X00507Y00177*
X00508Y00177*
X00509Y00178*
X00509Y00178*
X0051Y00179*
X0051Y00179*
X0051Y00179*
X0051Y00179*
Y00179*
X0051Y0018*
X00511Y00181*
X00511Y00182*
X00511Y00183*
X00511Y00183*
X00511Y00184*
Y00184*
X00511Y00184*
Y00185*
X00511Y00185*
X00511Y00185*
Y00185*
X00515Y00186*
X00515Y00185*
X00515Y00184*
X00515Y00184*
X00515Y00183*
Y00183*
X00515Y00183*
Y00182*
X00515Y00182*
X00515Y00181*
X00515Y0018*
X00516Y00179*
X00516Y00178*
X00516Y00178*
X00517Y00178*
X00517Y00177*
X00517Y00177*
X00517Y00177*
X00517Y00177*
X00517Y00177*
X00517Y00177*
X00518Y00176*
X00518Y00176*
X00519Y00176*
X0052Y00175*
X0052Y00175*
X00521Y00175*
X00522Y00175*
X00522Y00175*
X00522Y00175*
X00522*
X00522*
X00522*
X00523Y00175*
X00524Y00175*
X00525Y00175*
X00526Y00175*
X00526Y00176*
X00527Y00176*
X00527Y00176*
X00527Y00177*
X00528Y00177*
X00528Y00177*
X00528Y00177*
X00528Y00177*
X00528Y00177*
X00528Y00178*
X00529Y00178*
X00529Y00178*
X00529Y00179*
X0053Y0018*
X0053Y00181*
X0053Y00182*
X0053Y00182*
X0053Y00182*
X0053Y00182*
Y00183*
X0053Y00184*
X0053Y00185*
X0053Y00185*
X00529Y00186*
X00529Y00187*
X00529Y00187*
X00529Y00187*
X00529Y00187*
X00529Y00187*
Y00188*
X00528Y00188*
X00528Y00188*
X00527Y00189*
X00526Y00189*
X00525Y0019*
X00524Y0019*
X00524Y0019*
X00523Y0019*
X00523Y0019*
X00523Y0019*
X00523Y0019*
X00523*
X00523Y00195*
X00524Y00195*
G37*
G36*
X00534Y00152D02*
Y00147D01*
X00495Y00132*
Y00137*
X00523Y00148*
X00524Y00148*
X00525Y00148*
X00526Y00149*
X00527Y00149*
X00528Y00149*
X00528Y00149*
X00529Y00149*
X00529Y00149*
X00529Y0015*
X00529Y0015*
X00529Y0015*
X00529*
X00528Y0015*
X00527Y0015*
X00526Y00151*
X00525Y00151*
X00525Y00151*
X00524Y00151*
X00524Y00151*
X00524Y00151*
X00523Y00151*
X00523Y00152*
X00523Y00152*
X00523*
X00495Y00162*
Y00167*
X00534Y00152*
G37*
G36*
X0043Y00573D02*
X00431Y00572D01*
X00431Y00571*
X00432Y00571*
X00433Y0057*
X00433Y0057*
X00433Y0057*
X00433Y00569*
X00433Y00569*
X00434Y00569*
X00434Y00569*
X00435Y00568*
X00436Y00567*
X00437Y00566*
X00438Y00566*
X00439Y00566*
X00439Y00565*
X0044Y00565*
X0044Y00565*
X0044Y00565*
X0044Y00565*
X0044Y00565*
X00441Y00565*
Y0056*
X0044Y0056*
X00439Y00561*
X00438Y00561*
X00437Y00562*
X00437Y00562*
X00436Y00562*
X00436Y00562*
X00436Y00562*
X00436Y00562*
X00436Y00562*
X00436*
X00435Y00563*
X00434Y00564*
X00433Y00564*
X00432Y00565*
X00432Y00565*
X00431Y00565*
X00431Y00566*
X00431Y00566*
Y00536*
X00426*
Y00574*
X00429*
X0043Y00573*
G37*
G36*
X00514Y0057D02*
X00501D01*
Y00536*
X00496*
Y0057*
X00483*
Y00574*
X00514*
Y0057*
G37*
G36*
X00478Y00536D02*
X00473D01*
Y00551*
X00463*
X00462Y00551*
X0046Y00551*
X00459Y00552*
X00458Y00552*
X00457Y00552*
X00456Y00552*
X00455Y00553*
X00454Y00553*
X00454Y00553*
X00453Y00554*
X00453Y00554*
X00452Y00554*
X00452Y00554*
X00452Y00555*
X00452Y00555*
X00452Y00555*
X00451Y00555*
X00451Y00556*
X0045Y00557*
X0045Y00557*
X0045Y00558*
X00449Y00559*
X00449Y00559*
X00449Y0056*
X00449Y00561*
X00449Y00561*
X00449Y00562*
X00449Y00562*
X00449Y00562*
Y00563*
Y00563*
Y00563*
X00449Y00564*
X00449Y00565*
X00449Y00566*
X00449Y00567*
X00449Y00567*
X0045Y00568*
X0045Y00568*
X0045Y00568*
X0045Y00568*
X0045Y00568*
Y00568*
X0045Y00569*
X00451Y0057*
X00451Y0057*
X00452Y00571*
X00452Y00571*
X00453Y00572*
X00453Y00572*
X00453Y00572*
X00453*
X00454Y00572*
X00454Y00573*
X00455Y00573*
X00456Y00573*
X00457Y00574*
X00457Y00574*
X00457Y00574*
X00457Y00574*
X00458*
X00458Y00574*
X00458*
X00458Y00574*
X00459Y00574*
X00459Y00574*
X0046Y00574*
X00461Y00574*
X00462Y00574*
X00478*
Y00536*
G37*
G36*
X00378Y00646D02*
X0035Y00636D01*
X00349Y00636*
X00348Y00635*
X00347Y00635*
X00346Y00634*
X00345Y00634*
X00345Y00634*
X00345Y00634*
X00344Y00634*
X00344Y00634*
X00344Y00634*
X00344Y00634*
X00344*
X00345Y00634*
X00346Y00633*
X00347Y00633*
X00348Y00633*
X00349Y00632*
X00349Y00632*
X00349Y00632*
X0035Y00632*
X0035Y00632*
X0035Y00632*
X0035Y00632*
X0035*
X00378Y00622*
Y00616*
X0034Y00631*
Y00637*
X00378Y00651*
Y00646*
G37*
G36*
X00352Y00614D02*
X00353Y00613D01*
X00355Y00613*
X00355Y00613*
X00355Y00613*
X00356Y00613*
X00356Y00612*
X00356Y00612*
X00357Y00612*
X00357Y00612*
X00357Y00612*
X00357Y00612*
X00357Y00612*
X00358Y00611*
X00359Y0061*
X00359Y00609*
X0036Y00608*
X0036Y00608*
X0036Y00607*
X0036Y00607*
X0036Y00607*
X0036Y00607*
X0036Y00607*
Y00607*
X00361Y00607*
X00361Y00608*
X00362Y00609*
X00362Y00609*
X00363Y0061*
X00363Y0061*
X00364Y0061*
X00364Y0061*
X00364*
X00364Y00611*
X00365Y00611*
X00366Y00612*
X00367Y00612*
X00367Y00612*
X00368Y00612*
X00368*
X00368*
X00368*
X00368*
X00369Y00612*
X0037Y00612*
X00371Y00611*
X00372Y00611*
X00372Y00611*
X00372Y00611*
X00373Y00611*
X00373Y00611*
X00373Y0061*
X00373Y0061*
X00373*
X00374Y0061*
X00375Y00609*
X00375Y00609*
X00376Y00608*
X00376Y00607*
X00377Y00607*
X00377Y00607*
X00377Y00606*
X00377Y00606*
Y00606*
X00377Y00605*
X00378Y00604*
X00378Y00603*
X00378Y00602*
X00378Y00602*
X00378Y00601*
X00378Y00601*
Y00601*
X00378Y006*
X00378Y00599*
X00378Y00598*
X00378Y00597*
X00378Y00597*
X00377Y00596*
X00377Y00596*
X00377Y00595*
X00377Y00595*
X00376Y00594*
X00376Y00594*
X00376Y00593*
X00376Y00593*
X00376Y00593*
X00376Y00593*
X00376Y00593*
X00375Y00592*
X00374Y00592*
X00374Y00591*
X00373Y00591*
X00373Y00591*
X00372Y0059*
X00371Y0059*
X0037Y0059*
X0037Y00589*
X00369Y00589*
X00369Y00589*
X00369Y00589*
X00368Y00589*
X00368Y00589*
X00368*
X00367Y00594*
X00369Y00594*
X0037Y00594*
X00371Y00595*
X00371Y00595*
X00372Y00595*
X00372Y00596*
X00372Y00596*
X00373Y00596*
X00373Y00597*
X00374Y00598*
X00374Y00598*
X00374Y00599*
X00374Y006*
X00374Y006*
Y006*
X00374Y006*
Y00601*
X00374Y00602*
X00374Y00603*
X00374Y00603*
X00373Y00604*
X00373Y00605*
X00373Y00605*
X00373Y00605*
X00373Y00605*
X00372Y00606*
X00372Y00606*
X00371Y00606*
X0037Y00607*
X0037Y00607*
X00369Y00607*
X00369Y00607*
X00368Y00607*
X00368*
X00368*
X00368*
X00368Y00607*
X00367Y00607*
X00367Y00607*
X00366Y00607*
X00365Y00606*
X00365Y00606*
X00364Y00605*
X00364Y00605*
X00364Y00605*
X00364Y00605*
X00363Y00605*
Y00605*
X00363Y00604*
X00363Y00603*
X00362Y00602*
X00362Y00601*
X00362Y006*
X00362Y006*
Y006*
X00362Y00599*
Y00599*
X00362Y00599*
X00362Y00598*
Y00598*
X00358Y00598*
X00358Y00599*
X00358Y00599*
X00358Y006*
X00358Y006*
Y00601*
X00358Y00601*
Y00601*
X00358Y00602*
X00358Y00602*
X00358Y00603*
X00358Y00604*
X00357Y00605*
X00357Y00606*
X00357Y00606*
X00357Y00606*
X00356Y00606*
X00356Y00606*
X00356Y00607*
X00356Y00607*
X00356Y00607*
X00355Y00607*
X00355Y00608*
X00354Y00608*
X00354Y00608*
X00353Y00608*
X00352Y00609*
X00352Y00609*
X00351Y00609*
X00351Y00609*
X00351*
X00351*
X00351*
X0035Y00609*
X0035Y00609*
X00349Y00608*
X00348Y00608*
X00347Y00608*
X00346Y00607*
X00346Y00607*
X00346Y00607*
X00346Y00607*
X00345Y00607*
X00345Y00607*
X00345Y00606*
X00345Y00606*
X00345Y00606*
X00344Y00606*
X00344Y00605*
X00344Y00605*
X00343Y00604*
X00343Y00603*
X00343Y00602*
X00343Y00602*
X00343Y00601*
X00343Y00601*
Y00601*
X00343Y006*
X00343Y00599*
X00343Y00598*
X00344Y00597*
X00344Y00597*
X00344Y00596*
X00344Y00596*
X00345Y00596*
X00345Y00596*
Y00596*
X00345Y00596*
X00345Y00595*
X00346Y00595*
X00347Y00594*
X00348Y00594*
X00349Y00594*
X00349Y00594*
X0035Y00593*
X0035Y00593*
X0035Y00593*
X0035Y00593*
X0035*
X0035Y00589*
X00349Y00589*
X00348Y00589*
X00347Y00589*
X00347Y00589*
X00346Y0059*
X00345Y0059*
X00345Y0059*
X00344Y00591*
X00344Y00591*
X00343Y00591*
X00343Y00592*
X00342Y00592*
X00342Y00592*
X00342Y00592*
X00342Y00592*
X00342Y00592*
X00341Y00593*
X00341Y00594*
X00341Y00594*
X0034Y00595*
X0034Y00596*
X0034Y00596*
X0034Y00597*
X00339Y00598*
X00339Y00598*
X00339Y00599*
X00339Y00599*
X00339Y006*
Y006*
X00339Y00601*
Y00601*
X00339Y00602*
X00339Y00603*
X00339Y00604*
X0034Y00605*
X0034Y00605*
X0034Y00606*
X0034Y00607*
X00341Y00607*
X00341Y00608*
X00341Y00609*
X00342Y00609*
X00342Y00609*
X00342Y0061*
X00342Y0061*
X00342Y0061*
X00342Y0061*
X00343Y00611*
X00344Y00611*
X00344Y00612*
X00345Y00612*
X00346Y00613*
X00347Y00613*
X00347Y00613*
X00348Y00613*
X00349Y00613*
X00349Y00614*
X0035Y00614*
X0035Y00614*
X0035*
X00351Y00614*
X00351*
X00351*
X00352*
X00352Y00614*
G37*
G36*
X00361Y00568D02*
X00362Y00568D01*
X00363Y00568*
X00363Y00568*
X00364Y00568*
X00365Y00568*
X00366Y00568*
X00366Y00568*
X00367Y00568*
X00367Y00567*
X00367Y00567*
X00368Y00567*
X00368Y00567*
X00368Y00567*
X00368*
X0037Y00566*
X00371Y00566*
X00371Y00565*
X00372Y00565*
X00372Y00565*
X00373Y00564*
X00373Y00564*
X00374Y00564*
X00374Y00563*
X00374Y00563*
X00374Y00563*
X00375Y00563*
X00375Y00563*
X00375Y00563*
X00375Y00562*
X00376Y00561*
X00376Y0056*
X00377Y00559*
X00377Y00558*
X00377Y00558*
X00377Y00557*
X00377Y00557*
X00377Y00557*
X00377Y00557*
Y00557*
X00378Y00556*
X00378Y00556*
X00378Y00555*
X00378Y00554*
X00378Y00553*
X00378Y00552*
Y00552*
X00378Y00551*
Y00537*
X0034*
Y00551*
X0034Y00552*
X0034Y00553*
X0034Y00554*
X0034Y00555*
X0034Y00555*
X0034Y00556*
X0034Y00556*
X0034Y00556*
X0034Y00557*
Y00557*
X0034Y00557*
Y00557*
X00341Y00558*
X00341Y00559*
X00341Y00559*
X00341Y0056*
X00342Y00561*
X00342Y00561*
X00342Y00561*
X00342Y00561*
Y00561*
X00343Y00562*
X00343Y00563*
X00344Y00563*
X00344Y00564*
X00345Y00564*
X00345Y00565*
X00345Y00565*
X00346Y00565*
X00346Y00565*
X00346*
X00347Y00565*
X00347Y00566*
X00348Y00566*
X00349Y00567*
X0035Y00567*
X0035Y00567*
X00351Y00567*
X00351Y00567*
X00351Y00567*
X00351Y00568*
X00351*
X00353Y00568*
X00354Y00568*
X00355Y00568*
X00356Y00568*
X00357Y00568*
X00357Y00569*
X00358*
X00358Y00569*
X00359*
X00359*
X00359*
X00359*
X00361Y00568*
G37*
G36*
Y0053D02*
X00362Y0053D01*
X00363Y0053*
X00363Y00529*
X00364Y00529*
X00365Y00529*
X00366Y00529*
X00366Y00529*
X00367Y00529*
X00367Y00529*
X00367Y00529*
X00368Y00528*
X00368Y00528*
X00368Y00528*
X00368*
X0037Y00528*
X00371Y00527*
X00371Y00527*
X00372Y00526*
X00372Y00526*
X00373Y00525*
X00373Y00525*
X00374Y00525*
X00374Y00525*
X00374Y00524*
X00374Y00524*
X00375Y00524*
X00375Y00524*
X00375Y00524*
X00375Y00523*
X00376Y00522*
X00376Y00521*
X00377Y0052*
X00377Y00519*
X00377Y00519*
X00377Y00519*
X00377Y00518*
X00377Y00518*
X00377Y00518*
Y00518*
X00378Y00518*
X00378Y00517*
X00378Y00516*
X00378Y00515*
X00378Y00514*
X00378Y00513*
Y00513*
X00378Y00512*
Y00498*
X0034*
Y00512*
X0034Y00513*
X0034Y00514*
X0034Y00515*
X0034Y00516*
X0034Y00517*
X0034Y00517*
X0034Y00517*
X0034Y00518*
X0034Y00518*
Y00518*
X0034Y00518*
Y00518*
X00341Y00519*
X00341Y0052*
X00341Y00521*
X00341Y00521*
X00342Y00522*
X00342Y00522*
X00342Y00523*
X00342Y00523*
Y00523*
X00343Y00523*
X00343Y00524*
X00344Y00525*
X00344Y00525*
X00345Y00526*
X00345Y00526*
X00345Y00526*
X00346Y00526*
X00346Y00526*
X00346*
X00347Y00527*
X00347Y00527*
X00348Y00528*
X00349Y00528*
X0035Y00528*
X0035Y00529*
X00351Y00529*
X00351Y00529*
X00351Y00529*
X00351Y00529*
X00351*
X00353Y00529*
X00354Y00529*
X00355Y0053*
X00356Y0053*
X00357Y0053*
X00357Y0053*
X00358*
X00358Y0053*
X00359*
X00359*
X00359*
X00359*
X00361Y0053*
G37*
G36*
X00378Y00488D02*
X0035Y00478D01*
X00349Y00478*
X00348Y00477*
X00347Y00477*
X00346Y00477*
X00345Y00476*
X00345Y00476*
X00345Y00476*
X00344Y00476*
X00344Y00476*
X00344Y00476*
X00344Y00476*
X00344*
X00345Y00476*
X00346Y00475*
X00347Y00475*
X00348Y00475*
X00349Y00474*
X00349Y00474*
X00349Y00474*
X0035Y00474*
X0035Y00474*
X0035Y00474*
X0035Y00474*
X0035*
X00378Y00464*
Y00458*
X0034Y00473*
Y00479*
X00378Y00494*
Y00488*
G37*
G36*
X00908Y00378D02*
X00909Y00378D01*
X00911Y00378*
X00912Y00378*
X00913Y00377*
X00914Y00377*
X00914Y00377*
X00915Y00377*
X00916Y00377*
X00916Y00377*
X00917Y00376*
X00917Y00376*
X00917Y00376*
X00917Y00376*
X00917Y00376*
X00918Y00376*
X00919Y00375*
X0092Y00375*
X00921Y00374*
X00921Y00374*
X00922Y00373*
X00922Y00373*
X00923Y00372*
X00923Y00372*
X00924Y00371*
X00924Y00371*
X00924Y00371*
X00924Y00371*
X00925Y0037*
X00925Y0037*
X00925Y0037*
X00925Y00369*
X00926Y00369*
X00926Y00368*
X00926Y00367*
X00926Y00366*
X00927Y00365*
X00927Y00364*
X00927Y00364*
X00927Y00363*
X00927Y00362*
X00927Y00362*
X00927Y00361*
X00927Y00361*
Y0036*
X00927Y00359*
X00927Y00358*
X00927Y00357*
X00927Y00356*
X00926Y00355*
X00926Y00354*
X00926Y00353*
X00926Y00353*
X00925Y00352*
X00925Y00352*
X00925Y00351*
X00924Y00351*
X00924Y0035*
X00924Y0035*
X00924Y0035*
X00924Y0035*
X00923Y00349*
X00923Y00348*
X00922Y00348*
X00921Y00347*
X0092Y00347*
X00919Y00346*
X00919Y00346*
X00918Y00345*
X00917Y00345*
X00917Y00345*
X00916Y00345*
X00915Y00344*
X00915Y00344*
X00915Y00344*
X00914Y00344*
X00914*
X00913Y00349*
X00914Y00349*
X00915Y0035*
X00916Y0035*
X00916Y0035*
X00917Y00351*
X00918Y00351*
X00918Y00351*
X00919Y00352*
X00919Y00352*
X00919Y00352*
X0092Y00353*
X0092Y00353*
X0092Y00353*
X0092Y00353*
X0092Y00353*
X0092Y00353*
X00921Y00354*
X00921Y00354*
X00922Y00355*
X00922Y00356*
X00922Y00356*
X00922Y00357*
X00923Y00358*
X00923Y00358*
X00923Y00359*
X00923Y00359*
X00923Y0036*
X00923Y0036*
Y0036*
X00923Y00361*
X00923Y00362*
X00923Y00363*
X00922Y00364*
X00922Y00365*
X00922Y00365*
X00922Y00366*
X00922Y00366*
X00921Y00366*
X00921Y00367*
X00921Y00367*
X00921Y00367*
Y00367*
X00921Y00368*
X0092Y00368*
X00919Y00369*
X00919Y0037*
X00918Y0037*
X00917Y00371*
X00917Y00371*
X00916Y00371*
X00916Y00371*
X00916Y00371*
X00916Y00371*
X00916*
X00914Y00372*
X00913Y00372*
X00911Y00372*
X00911Y00373*
X0091Y00373*
X00909Y00373*
X00909Y00373*
X00908Y00373*
X00908*
X00908Y00373*
X00907*
X00907*
X00907*
X00906Y00373*
X00904Y00373*
X00903Y00372*
X00903Y00372*
X00902Y00372*
X00902Y00372*
X00901Y00372*
X00901Y00372*
X009Y00372*
X009Y00372*
X009Y00372*
X009Y00372*
X009*
X00898Y00371*
X00897Y0037*
X00896Y0037*
X00896Y00369*
X00896Y00369*
X00895Y00369*
X00895Y00368*
X00895Y00368*
X00894Y00368*
X00894Y00368*
X00894Y00368*
X00894Y00368*
X00894Y00367*
X00894Y00367*
X00893Y00366*
X00893Y00366*
X00893Y00365*
X00892Y00364*
X00892Y00363*
X00892Y00362*
X00892Y00362*
X00892Y00361*
X00892Y00361*
X00892Y0036*
Y00359*
X00892Y00359*
X00892Y00357*
X00892Y00356*
X00893Y00356*
X00893Y00355*
X00893Y00355*
X00893Y00355*
X00893Y00354*
X00893Y00354*
X00894Y00354*
X00894Y00354*
X00894Y00354*
X00894Y00354*
X00894Y00353*
X00895Y00353*
X00896Y00352*
X00897Y00351*
X00898Y00351*
X00898Y0035*
X00899Y0035*
X00899Y0035*
X00899Y0035*
X009Y0035*
X009Y0035*
X009*
X00899Y00345*
X00898Y00345*
X00897Y00345*
X00896Y00346*
X00895Y00346*
X00894Y00347*
X00894Y00347*
X00893Y00348*
X00893Y00348*
X00892Y00349*
X00892Y00349*
X00891Y00349*
X00891Y0035*
X00891Y0035*
X00891Y0035*
X00891Y0035*
X0089Y0035*
X0089Y00351*
X0089Y00352*
X00889Y00353*
X00889Y00353*
X00888Y00354*
X00888Y00355*
X00888Y00356*
X00888Y00357*
X00888Y00357*
X00888Y00358*
X00888Y00358*
X00888Y00359*
X00888Y00359*
Y0036*
X00888Y00361*
X00888Y00362*
X00888Y00364*
X00888Y00364*
X00888Y00365*
X00888Y00366*
X00889Y00367*
X00889Y00367*
X00889Y00368*
X00889Y00368*
X00889Y00369*
X0089Y00369*
X0089Y00369*
X0089Y00369*
X0089Y00369*
X0089Y0037*
X00891Y00371*
X00891Y00371*
X00892Y00372*
X00892Y00373*
X00893Y00373*
X00894Y00374*
X00894Y00374*
X00895Y00374*
X00895Y00375*
X00896Y00375*
X00896Y00375*
X00896Y00376*
X00896Y00376*
X00897Y00376*
X00897Y00376*
X00897Y00376*
X00898Y00377*
X00899Y00377*
X009Y00377*
X00902Y00378*
X00903Y00378*
X00904Y00378*
X00904Y00378*
X00905Y00378*
X00906Y00378*
X00906Y00378*
X00907Y00378*
X00907*
X00907*
X00907*
X00908Y00378*
G37*
G36*
X00917Y0034D02*
X00918Y00339D01*
X00919Y00339*
X0092Y00339*
X0092Y00339*
X00921Y00338*
X00922Y00338*
X00922Y00338*
X00923Y00337*
X00923Y00337*
X00923Y00337*
X00924Y00336*
X00924Y00336*
X00924Y00336*
X00924Y00336*
X00924Y00336*
X00925Y00335*
X00925Y00335*
X00926Y00334*
X00926Y00333*
X00926Y00333*
X00927Y00332*
X00927Y00331*
X00927Y0033*
X00927Y0033*
X00927Y00329*
X00927Y00329*
X00927Y00328*
X00927Y00328*
Y00327*
X00927Y00326*
X00927Y00325*
X00927Y00324*
X00926Y00323*
X00926Y00322*
X00926Y00321*
X00925Y00321*
X00925Y0032*
X00924Y00319*
X00924Y00319*
X00924Y00318*
X00923Y00318*
X00923Y00318*
X00923Y00318*
X00923Y00317*
X00923Y00317*
X00922Y00317*
X00921Y00316*
X0092Y00316*
X0092Y00316*
X00919Y00315*
X00918Y00315*
X00917Y00315*
X00917Y00315*
X00916Y00315*
X00915Y00314*
X00915Y00314*
X00914Y00314*
X00914Y00314*
X00914*
X00914*
X00914*
X00913Y00314*
X00912Y00314*
X00911Y00315*
X0091Y00315*
X00909Y00315*
X00908Y00315*
X00908Y00316*
X00907Y00316*
X00906Y00316*
X00906Y00317*
X00906Y00317*
X00905Y00317*
X00905Y00317*
X00905Y00318*
X00905Y00318*
X00905Y00318*
X00904Y00318*
X00903Y00319*
X00903Y0032*
X00903Y00321*
X00902Y00321*
X00902Y00322*
X00902Y00323*
X00902Y00323*
X00901Y00324*
X00901Y00325*
X00901Y00325*
X00901Y00325*
Y00326*
X00901Y00326*
Y00326*
X00901Y00327*
X00901Y00328*
X00901Y00328*
X00901Y00329*
X00902Y0033*
X00902Y00331*
X00902Y00331*
X00903Y00332*
X00903Y00332*
X00903Y00333*
X00903Y00333*
X00903Y00333*
X00903Y00333*
X00903Y00333*
X00903Y00333*
X00893Y00331*
Y00316*
X00889*
Y00335*
X00908Y00339*
X00909Y00334*
X00908Y00334*
X00908Y00334*
X00907Y00333*
X00907Y00333*
X00907Y00332*
X00906Y00332*
X00906Y00332*
X00906Y00332*
X00906Y00331*
X00906Y0033*
X00905Y0033*
X00905Y00329*
X00905Y00328*
X00905Y00328*
Y00328*
X00905Y00327*
X00905Y00326*
X00905Y00326*
X00906Y00325*
X00906Y00324*
X00906Y00324*
X00906Y00323*
X00907Y00323*
X00907Y00323*
X00907Y00322*
X00907Y00322*
X00907Y00322*
X00908Y00322*
X00908Y00322*
X00908Y00322*
X00908Y00321*
X00909Y00321*
X00909Y00321*
X0091Y0032*
X00911Y0032*
X00912Y0032*
X00912Y0032*
X00913Y00319*
X00913Y00319*
X00913Y00319*
X00914Y00319*
X00914*
X00914*
X00914*
X00915Y00319*
X00915Y00319*
X00916Y0032*
X00917Y0032*
X00917Y0032*
X00918Y0032*
X00919Y0032*
X00919Y0032*
X00919Y00321*
X0092Y00321*
X0092Y00321*
X0092Y00321*
X00921Y00321*
X00921Y00322*
X00921Y00322*
X00921Y00322*
X00921Y00322*
X00922Y00323*
X00922Y00323*
X00922Y00324*
X00923Y00324*
X00923Y00325*
X00923Y00325*
X00923Y00326*
X00923Y00327*
X00923Y00327*
X00923Y00327*
Y00327*
X00923Y00328*
X00923Y00328*
X00923Y00329*
X00923Y0033*
X00922Y00331*
X00922Y00331*
X00922Y00332*
X00922Y00332*
X00922Y00332*
X00922Y00332*
Y00332*
X00921Y00333*
X00921Y00333*
X0092Y00333*
X00919Y00334*
X00918Y00334*
X00917Y00334*
X00917Y00335*
X00917Y00335*
X00916Y00335*
X00916Y00335*
X00916Y00335*
X00916*
X00917Y0034*
X00917Y0034*
G37*
G36*
X00867Y00081D02*
X00852D01*
Y00071*
X00852Y0007*
X00852Y00068*
X00851Y00067*
X00851Y00066*
X00851Y00065*
X00851Y00064*
X0085Y00063*
X0085Y00062*
X0085Y00062*
X00849Y00061*
X00849Y00061*
X00849Y0006*
X00849Y0006*
X00849Y0006*
X00848Y0006*
X00848Y0006*
X00848Y00059*
X00847Y00059*
X00846Y00058*
X00846Y00058*
X00845Y00058*
X00844Y00057*
X00844Y00057*
X00843Y00057*
X00842Y00057*
X00842Y00057*
X00841Y00057*
X00841Y00057*
X00841Y00057*
X0084*
X0084*
X0084*
X00839Y00057*
X00838Y00057*
X00837Y00057*
X00836Y00057*
X00836Y00058*
X00836Y00058*
X00835Y00058*
X00835Y00058*
X00835Y00058*
X00835Y00058*
X00835*
X00834Y00058*
X00833Y00059*
X00833Y00059*
X00832Y0006*
X00832Y0006*
X00831Y00061*
X00831Y00061*
X00831Y00061*
Y00061*
X00831Y00062*
X0083Y00063*
X0083Y00063*
X0083Y00064*
X0083Y00065*
X0083Y00065*
X00829Y00065*
X00829Y00065*
Y00066*
X00829Y00066*
Y00066*
X00829Y00066*
X00829Y00067*
X00829Y00067*
X00829Y00068*
X00829Y00069*
X00829Y0007*
Y00086*
X00867*
Y00081*
G37*
G36*
X00858Y00037D02*
X00867D01*
Y00032*
X00858*
Y00027*
X00854*
Y00032*
X00829*
Y00036*
X00854Y00054*
X00858*
Y00037*
G37*
G36*
X00289Y00241D02*
X0029Y0024D01*
X00291Y0024*
X00292Y0024*
X00292Y00239*
X00293Y00239*
X00293Y00239*
X00293Y00239*
X00293Y00239*
X00293Y00239*
X00294Y00239*
X00294Y00239*
X00294Y00238*
X00295Y00237*
X00296Y00236*
X00296Y00235*
X00297Y00235*
X00297Y00234*
X00297Y00234*
X00297Y00234*
X00297Y00234*
X00297Y00233*
Y00233*
X00298Y00234*
X00298Y00235*
X00299Y00236*
X00299Y00236*
X003Y00237*
X003Y00237*
X003Y00237*
X003Y00237*
X00301Y00237*
X00301*
X00301Y00238*
X00302Y00238*
X00303Y00238*
X00304Y00239*
X00304Y00239*
X00305Y00239*
X00305*
X00305*
X00305*
X00305*
X00306Y00239*
X00307Y00238*
X00308Y00238*
X00309Y00238*
X00309Y00238*
X0031Y00238*
X0031Y00237*
X0031Y00237*
X0031Y00237*
X0031Y00237*
X0031*
X00311Y00237*
X00312Y00236*
X00312Y00235*
X00313Y00235*
X00313Y00234*
X00314Y00233*
X00314Y00233*
X00314Y00233*
X00314Y00233*
Y00233*
X00314Y00232*
X00315Y00231*
X00315Y0023*
X00315Y00229*
X00315Y00228*
X00315Y00228*
Y00227*
X00315Y00227*
Y00212*
X00277*
Y00226*
X00277Y00228*
X00277Y00229*
X00277Y0023*
X00277Y0023*
X00277Y00231*
X00277Y00231*
X00277Y00231*
X00277Y00232*
X00277Y00232*
X00277Y00232*
Y00232*
X00277Y00232*
Y00232*
X00278Y00233*
X00278Y00234*
X00278Y00235*
X00278Y00235*
X00279Y00236*
X00279Y00236*
X00279Y00237*
X00279Y00237*
X0028Y00237*
X0028Y00238*
X00281Y00238*
X00281Y00239*
X00282Y00239*
X00282Y00239*
X00282Y00239*
X00283Y00239*
X00283Y00239*
X00283*
X00284Y0024*
X00284Y0024*
X00285Y0024*
X00286Y0024*
X00287Y00241*
X00287*
X00287Y00241*
X00287*
X00288*
X00288*
X00288*
X00288*
X00289Y00241*
G37*
G36*
X00269Y00177D02*
X00266D01*
Y00208*
X00269*
Y00177*
G37*
G36*
X00304Y00178D02*
X00304Y00177D01*
X00305Y00176*
X00305Y00175*
X00305Y00175*
X00305Y00174*
Y00174*
X00305Y00174*
Y00174*
X00305Y00173*
X00305Y00173*
X00305Y00172*
X00305Y00172*
X00304Y00171*
X00304Y00171*
X00304Y00171*
X00304Y00171*
X00304Y0017*
X00304Y0017*
X00303Y0017*
X00302Y00169*
X00302Y00169*
X00301Y00168*
X00301Y00168*
X00301Y00168*
X003Y00168*
X003Y00168*
X00304*
Y00164*
X00277*
Y00168*
X00291*
X00292Y00168*
X00293Y00168*
X00294Y00168*
X00295Y00169*
X00296Y00169*
X00296Y00169*
X00296Y00169*
X00296Y00169*
X00297Y00169*
X00297Y00169*
X00297*
X00297Y00169*
X00298Y00169*
X00298Y0017*
X00299Y0017*
X00299Y0017*
X00299Y0017*
X00299Y00171*
X00299Y00171*
X003Y00171*
X003Y00172*
X003Y00172*
X003Y00173*
X003Y00173*
X003Y00173*
Y00173*
X003Y00174*
X003Y00175*
X003Y00175*
X003Y00176*
X003Y00176*
X00299Y00177*
X00299Y00177*
X00299Y00177*
X00304Y00179*
X00304Y00178*
G37*
G36*
X00292Y00158D02*
X00293Y00158D01*
X00294Y00158*
X00295Y00157*
X00296Y00157*
X00297Y00157*
X00298Y00157*
X00299Y00156*
X00299Y00156*
X003Y00156*
X003Y00155*
X00301Y00155*
X00301Y00155*
X00301Y00155*
X00301Y00154*
X00301Y00154*
X00302Y00154*
X00303Y00153*
X00303Y00152*
X00304Y00151*
X00304Y00151*
X00304Y0015*
X00304Y00149*
X00305Y00148*
X00305Y00148*
X00305Y00147*
X00305Y00146*
X00305Y00146*
Y00146*
X00305Y00145*
Y00145*
X00305Y00144*
X00305Y00143*
X00305Y00142*
X00305Y00141*
X00304Y00141*
X00304Y0014*
X00304Y00139*
X00304Y00139*
X00303Y00138*
X00303Y00138*
X00303Y00137*
X00302Y00137*
X00302Y00137*
X00302Y00136*
X00302Y00136*
X00302Y00136*
X00301Y00136*
X003Y00135*
X003Y00134*
X00299Y00134*
X00298Y00133*
X00297Y00133*
X00296Y00133*
X00295Y00133*
X00294Y00132*
X00293Y00132*
X00292Y00132*
X00292Y00132*
X00291Y00132*
X00291Y00132*
X00291*
X00291*
X00291*
X00289Y00132*
X00288Y00132*
X00287Y00132*
X00286Y00133*
X00285Y00133*
X00284Y00133*
X00283Y00133*
X00282Y00134*
X00282Y00134*
X00281Y00134*
X00281Y00135*
X0028Y00135*
X0028Y00135*
X0028Y00135*
X0028Y00136*
X0028Y00136*
X00279Y00136*
X00279Y00137*
X00278Y00138*
X00278Y00139*
X00277Y00139*
X00277Y0014*
X00277Y00141*
X00276Y00142*
X00276Y00142*
X00276Y00143*
X00276Y00144*
X00276Y00144*
Y00144*
X00276Y00145*
Y00145*
X00276Y00146*
X00276Y00148*
X00277Y00149*
X00277Y00149*
X00277Y0015*
X00277Y0015*
X00277Y00151*
X00277Y00151*
X00277Y00151*
X00278Y00151*
X00278Y00152*
X00278Y00152*
Y00152*
X00278Y00153*
X00279Y00154*
X0028Y00155*
X00281Y00155*
X00281Y00156*
X00282Y00156*
X00282Y00156*
X00282Y00156*
X00282Y00156*
X00282Y00156*
X00282*
X00283Y00157*
X00284Y00157*
X00285Y00157*
X00286Y00158*
X00288Y00158*
X00288Y00158*
X00289Y00158*
X0029Y00158*
X0029*
X0029Y00158*
X00291*
X00291*
X00291*
X00292Y00158*
G37*
G36*
X00286Y00128D02*
X00286Y00128D01*
X00287Y00128*
X00288Y00128*
X00288Y00127*
X00289Y00127*
X00289Y00127*
X00289Y00127*
X00289Y00127*
X0029Y00126*
X0029Y00125*
X00291Y00125*
X00291Y00125*
X00291Y00124*
X00291Y00124*
X00291Y00124*
Y00124*
X00291Y00123*
X00292Y00123*
X00292Y00122*
X00292Y00122*
X00292Y00121*
X00293Y0012*
X00293Y00119*
X00293Y00119*
X00293Y00118*
X00293Y00118*
X00293Y00117*
X00293Y00117*
X00293Y00117*
Y00117*
X00294Y00116*
X00294Y00116*
X00294Y00115*
X00294Y00115*
X00294Y00114*
X00294Y00114*
X00294Y00114*
X00294Y00114*
X00295Y00113*
X00295Y00113*
X00295Y00113*
Y00113*
X00295Y00112*
X00295Y00112*
X00295Y00112*
X00296Y00111*
X00296Y00111*
X00296Y00111*
X00296Y00111*
X00296Y00111*
X00296Y00111*
X00297Y00111*
X00297Y0011*
X00297Y0011*
X00297Y0011*
X00298*
X00298*
X00298Y0011*
X00299Y00111*
X00299Y00111*
X00299Y00111*
X003Y00111*
X003Y00112*
X003Y00112*
X003Y00112*
X003Y00112*
X00301Y00112*
X00301Y00113*
X00301Y00114*
X00301Y00115*
X00301Y00115*
Y00116*
X00301Y00116*
Y00116*
X00301Y00117*
X00301Y00118*
X00301Y00119*
X00301Y0012*
X003Y0012*
X003Y0012*
X003Y00121*
X003Y00121*
X00299Y00121*
X00299Y00122*
X00298Y00122*
X00298Y00122*
X00297Y00122*
X00297Y00122*
X00297Y00122*
X00297*
X00297*
X00297Y00127*
X00298Y00127*
X00299Y00127*
X003Y00126*
X003Y00126*
X00301Y00126*
X00301Y00126*
X00301Y00125*
X00302Y00125*
X00302Y00125*
X00303Y00124*
X00303Y00124*
X00303Y00123*
X00304Y00123*
X00304Y00122*
X00304Y00122*
X00304Y00122*
X00304Y00122*
Y00122*
X00304Y00121*
X00305Y0012*
X00305Y00119*
X00305Y00118*
X00305Y00117*
Y00117*
X00305Y00117*
Y00116*
X00305Y00115*
X00305Y00115*
X00305Y00114*
X00305Y00113*
X00305Y00113*
X00305Y00112*
X00305Y00112*
X00305Y00112*
Y00112*
X00304Y00111*
X00304Y00111*
X00304Y0011*
X00304Y0011*
X00303Y00109*
X00303Y00109*
X00303Y00109*
X00303Y00109*
X00303Y00108*
X00302Y00108*
X00302Y00108*
X00301Y00107*
X00301Y00107*
X00301Y00107*
X00301Y00107*
X00301Y00107*
X003Y00106*
X00299Y00106*
X00299Y00106*
X00298Y00106*
X00298Y00106*
X00297Y00106*
X00297*
X00297*
X00297*
X00296Y00106*
X00296Y00106*
X00295Y00106*
X00294Y00106*
X00294Y00106*
X00294Y00107*
X00293Y00107*
X00293Y00107*
X00293Y00107*
X00292Y00108*
X00292Y00108*
X00291Y00109*
X00291Y00109*
X00291Y0011*
X00291Y0011*
X00291Y0011*
Y0011*
X00291Y0011*
X0029Y00111*
X0029Y00111*
X0029Y00112*
X0029Y00113*
X00289Y00114*
X00289Y00115*
X00289Y00115*
X00289Y00116*
X00289Y00116*
X00289Y00117*
X00288Y00117*
X00288Y00117*
Y00117*
X00288Y00118*
X00288Y00118*
X00288Y00119*
X00288Y00119*
X00288Y0012*
X00287Y0012*
X00287Y00121*
X00287Y00121*
X00287Y00121*
X00287Y00121*
X00287Y00122*
X00287Y00122*
X00287Y00122*
X00286Y00122*
X00286Y00123*
X00286Y00123*
X00285Y00123*
X00285Y00123*
X00285Y00123*
X00284*
X00284*
X00284Y00123*
X00283Y00123*
X00282Y00123*
X00282Y00123*
X00282Y00122*
X00281Y00122*
X00281Y00122*
X00281Y00122*
X00281Y00121*
X0028Y0012*
X0028Y00119*
X0028Y00119*
X0028Y00118*
X0028Y00118*
Y00117*
X0028Y00117*
Y00117*
X0028Y00116*
X0028Y00115*
X0028Y00114*
X00281Y00113*
X00281Y00113*
X00281Y00112*
X00281Y00112*
X00281Y00112*
Y00112*
X00282Y00111*
X00283Y00111*
X00283Y0011*
X00284Y0011*
X00285Y0011*
X00285Y0011*
X00285Y0011*
X00285Y0011*
X00286*
X00286Y0011*
X00286*
X00285Y00105*
X00284Y00105*
X00283Y00105*
X00283Y00106*
X00282Y00106*
X00281Y00106*
X00281Y00106*
X0028Y00107*
X0028Y00107*
X0028Y00107*
X00279Y00108*
X00279Y00108*
X00279Y00108*
X00278Y00108*
X00278Y00108*
X00278Y00109*
X00278Y00109*
X00278Y00109*
X00278Y0011*
X00277Y0011*
X00277Y00111*
X00277Y00113*
X00276Y00114*
X00276Y00114*
X00276Y00115*
X00276Y00116*
X00276Y00116*
X00276Y00116*
Y00117*
X00276Y00118*
X00276Y00119*
X00276Y0012*
X00277Y00121*
X00277Y00121*
X00277Y00122*
X00277Y00122*
X00277Y00122*
X00277Y00123*
X00277Y00123*
X00277Y00123*
Y00123*
X00278Y00124*
X00278Y00124*
X00279Y00125*
X00279Y00126*
X0028Y00126*
X0028Y00126*
X0028Y00127*
X0028Y00127*
X0028*
X00281Y00127*
X00282Y00128*
X00283Y00128*
X00283Y00128*
X00284Y00128*
X00284Y00128*
X00285*
X00285*
X00285*
X00285*
X00286Y00128*
G37*
G36*
X00295Y001D02*
X00296D01*
X00296Y001*
X00297*
X00297Y001*
X00298Y00099*
X00298Y00099*
X00298Y00099*
X00298*
X00299Y00099*
X003Y00099*
X003Y00099*
X00301Y00098*
X00301Y00098*
X00302Y00098*
X00302Y00098*
X00302Y00098*
X00302Y00097*
X00303Y00097*
X00303Y00096*
X00304Y00096*
X00304Y00095*
X00304Y00095*
X00304Y00095*
X00304Y00095*
Y00095*
X00304Y00094*
X00305Y00093*
X00305Y00092*
X00305Y00092*
X00305Y00091*
Y00091*
X00305Y00091*
Y0009*
X00305Y00089*
X00305Y00088*
X00305Y00087*
X00304Y00086*
X00304Y00086*
X00304Y00085*
X00303Y00084*
X00303Y00084*
X00302Y00083*
X00302Y00083*
X00302Y00082*
X00301Y00082*
X00301Y00082*
X00301Y00081*
X00301Y00081*
X003Y00081*
X00304*
Y00077*
X00277*
Y00082*
X00292*
X00293Y00082*
X00294Y00082*
X00294Y00082*
X00295Y00082*
X00296Y00082*
X00296Y00082*
X00297Y00083*
X00297Y00083*
X00298Y00083*
X00298Y00083*
X00298Y00083*
X00299Y00084*
X00299Y00084*
X00299Y00084*
X00299Y00084*
X00299Y00084*
X00299Y00084*
X003Y00085*
X003Y00086*
X00301Y00087*
X00301Y00087*
X00301Y00088*
X00301Y00088*
Y00089*
X00301Y00089*
Y00089*
X00301Y0009*
X00301Y0009*
X00301Y00091*
X00301Y00091*
X003Y00092*
X003Y00092*
X003Y00092*
X003Y00092*
X003Y00093*
X00299Y00093*
X00299Y00094*
X00299Y00094*
X00298Y00094*
X00298Y00094*
X00298Y00094*
X00298Y00094*
X00297Y00095*
X00297Y00095*
X00296Y00095*
X00295Y00095*
X00295Y00095*
X00294Y00095*
X00294*
X00294*
X00294*
X00294*
X00294*
X00277*
Y001*
X00294*
X00294*
X00295*
X00295Y001*
G37*
G36*
X00292Y00071D02*
X00293Y00071D01*
X00294Y00071*
X00295Y00071*
X00296Y0007*
X00297Y0007*
X00298Y0007*
X00299Y0007*
X00299Y00069*
X003Y00069*
X003Y00069*
X00301Y00068*
X00301Y00068*
X00301Y00068*
X00301Y00068*
X00301Y00068*
X00302Y00067*
X00303Y00066*
X00303Y00066*
X00303Y00065*
X00304Y00064*
X00304Y00063*
X00304Y00063*
X00305Y00062*
X00305Y00061*
X00305Y00061*
X00305Y0006*
X00305Y0006*
Y00059*
X00305Y00059*
Y00059*
X00305Y00058*
X00305Y00057*
X00305Y00056*
X00304Y00055*
X00304Y00054*
X00304Y00053*
X00304Y00052*
X00303Y00052*
X00303Y00051*
X00302Y00051*
X00302Y0005*
X00302Y0005*
X00302Y0005*
X00301Y00049*
X00301Y00049*
X00301Y00049*
X003Y00049*
X003Y00048*
X00299Y00048*
X00298Y00047*
X00297Y00047*
X00296Y00047*
X00295Y00046*
X00294Y00046*
X00293Y00046*
X00293Y00046*
X00292Y00046*
X00291Y00046*
X00291*
X00291Y00046*
X0029*
X0029*
X00289Y00046*
X00288Y00046*
X00287Y00046*
X00286Y00046*
X00285Y00046*
X00284Y00047*
X00283Y00047*
X00282Y00047*
X00282Y00048*
X00281Y00048*
X00281Y00048*
X0028Y00049*
X0028Y00049*
X0028Y00049*
X0028Y00049*
X0028Y00049*
X00279Y0005*
X00279Y00051*
X00278Y00051*
X00278Y00052*
X00277Y00053*
X00277Y00054*
X00277Y00055*
X00276Y00055*
X00276Y00056*
X00276Y00057*
X00276Y00057*
X00276Y00058*
Y00058*
X00276Y00059*
Y00059*
X00276Y0006*
X00276Y00061*
X00276Y00061*
X00276Y00062*
X00277Y00063*
X00277Y00064*
X00277Y00064*
X00277Y00065*
X00277Y00065*
X00278Y00066*
X00278Y00066*
X00278Y00066*
X00278Y00066*
X00278Y00067*
X00278Y00067*
X00278Y00067*
X00279Y00067*
X00279Y00068*
X0028Y00068*
X0028Y00069*
X00282Y0007*
X00283Y0007*
X00283Y0007*
X00283Y00071*
X00284Y00071*
X00284Y00071*
X00285Y00071*
X00285Y00071*
X00285Y00071*
X00285*
X00286Y00066*
X00285Y00066*
X00284Y00065*
X00283Y00065*
X00282Y00064*
X00282Y00064*
X00281Y00064*
X00281Y00063*
X00281Y00063*
Y00063*
X00281Y00063*
X0028Y00062*
X0028Y00061*
X0028Y0006*
X0028Y0006*
X0028Y00059*
X0028Y00059*
Y00059*
X0028Y00058*
X0028Y00058*
X0028Y00057*
X0028Y00057*
X00281Y00056*
X00281Y00055*
X00281Y00054*
X00282Y00054*
X00282Y00054*
X00282Y00053*
X00282Y00053*
X00282Y00053*
X00282Y00053*
X00282Y00053*
X00283Y00053*
X00283Y00052*
X00284Y00052*
X00284Y00052*
X00286Y00051*
X00287Y00051*
X00287Y00051*
X00288Y00051*
X00288Y00051*
X00289Y00051*
X00289Y00051*
X00289Y0005*
X00289*
X00289*
Y00071*
X0029Y00071*
X0029*
X00291*
X00291*
X00292Y00071*
G37*
G36*
X00289Y00041D02*
X0029Y00041D01*
X00291Y0004*
X00291Y0004*
X00292Y0004*
X00292Y0004*
X00292Y0004*
X00293Y00039*
X00293Y00039*
X00293Y00039*
X00293*
X00293Y00039*
X00294Y00039*
X00295Y00038*
X00295Y00037*
X00296Y00036*
X00296Y00036*
X00296Y00035*
X00297Y00035*
X00297Y00035*
X00297Y00035*
X00297Y00034*
Y00034*
X00297Y00034*
X00297Y00033*
X00297Y00033*
X00298Y00032*
X00298Y00031*
X00298Y00029*
X00299Y00029*
X00299Y00028*
X00299Y00027*
X00299Y00027*
X00299Y00026*
X00299Y00026*
X00299Y00026*
Y00026*
X00299Y00025*
X003Y00024*
X003Y00023*
X003Y00022*
X00301Y00021*
X00301Y00021*
X00301Y0002*
X00301Y0002*
X00301Y00019*
X00302Y00019*
X00302Y00019*
X00302Y00019*
X00302Y00018*
X00302Y00018*
X00302Y00018*
X00303Y00018*
X00303Y00017*
X00304Y00017*
X00304Y00017*
X00305Y00017*
X00305Y00017*
X00305Y00017*
X00305*
X00305*
X00306Y00017*
X00306Y00017*
X00307Y00017*
X00308Y00017*
X00308Y00018*
X00309Y00018*
X00309Y00018*
X00309Y00019*
X00309Y00019*
Y00019*
X0031Y00019*
X0031Y0002*
X0031Y00021*
X00311Y00022*
X00311Y00023*
X00311Y00023*
X00311Y00024*
X00311Y00024*
Y00025*
X00311Y00025*
Y00026*
X00311Y00027*
X00311Y00028*
X00311Y00028*
X00311Y00029*
X00311Y0003*
X0031Y0003*
X0031Y00031*
X0031Y00031*
X0031Y00031*
X0031Y00032*
X0031Y00032*
X00309Y00032*
X00309Y00032*
X00309Y00032*
X00309Y00032*
X00309Y00033*
X00309Y00033*
X00308Y00034*
X00307Y00034*
X00306Y00034*
X00305Y00035*
X00305Y00035*
X00304Y00035*
X00304Y00035*
X00304*
X00304Y00035*
X00304*
X00304Y0004*
X00305Y0004*
X00307Y00039*
X00308Y00039*
X00308Y00039*
X00309Y00039*
X00309Y00038*
X0031Y00038*
X0031Y00038*
X0031Y00038*
X0031Y00038*
X0031Y00038*
X0031Y00038*
X00311Y00037*
X00312Y00036*
X00313Y00036*
X00313Y00035*
X00314Y00034*
X00314Y00034*
X00314Y00033*
X00314Y00033*
X00314Y00033*
X00314Y00033*
Y00033*
X00315Y00032*
X00315Y0003*
X00315Y00029*
X00316Y00028*
X00316Y00027*
X00316Y00027*
X00316Y00026*
X00316Y00026*
Y00025*
X00316Y00024*
X00315Y00023*
X00315Y00021*
X00315Y00021*
X00315Y0002*
X00315Y0002*
X00315Y00019*
X00315Y00019*
X00315Y00019*
X00314Y00019*
X00314Y00018*
X00314Y00018*
Y00018*
X00314Y00017*
X00313Y00016*
X00313Y00015*
X00312Y00015*
X00311Y00014*
X00311Y00014*
X00311Y00014*
X00311Y00014*
X00311Y00013*
X0031*
X0031Y00013*
X00309Y00013*
X00308Y00012*
X00307Y00012*
X00306Y00012*
X00306Y00012*
X00306*
X00305Y00012*
X00305*
X00305*
X00305*
X00304Y00012*
X00303Y00012*
X00302Y00012*
X00302Y00013*
X00301Y00013*
X00301Y00013*
X003Y00013*
X003Y00013*
X003Y00013*
X003*
X003Y00014*
X00299Y00014*
X00298Y00015*
X00298Y00016*
X00297Y00016*
X00297Y00017*
X00297Y00017*
X00297Y00017*
X00297Y00017*
Y00017*
X00297Y00018*
X00296Y00018*
X00296Y00019*
X00296Y00019*
X00295Y00021*
X00295Y00022*
X00295Y00022*
X00295Y00023*
X00295Y00023*
X00295Y00024*
X00294Y00024*
X00294Y00024*
X00294Y00025*
Y00025*
X00294Y00026*
X00294Y00026*
X00294Y00027*
X00293Y00028*
X00293Y00029*
X00293Y00029*
X00293Y0003*
X00293Y0003*
X00293Y0003*
X00293Y00031*
X00293Y00031*
X00293Y00031*
X00293Y00031*
X00292Y00031*
X00292Y00031*
X00292Y00032*
X00292Y00033*
X00291Y00034*
X00291Y00034*
X00291Y00034*
X0029Y00035*
X0029Y00035*
X0029Y00035*
X0029Y00035*
X00289Y00036*
X00289Y00036*
X00288Y00036*
X00288Y00036*
X00287Y00036*
X00287*
X00287*
X00287*
X00286Y00036*
X00286Y00036*
X00285Y00036*
X00285Y00035*
X00284Y00035*
X00284Y00035*
X00284Y00035*
X00284Y00035*
X00283Y00034*
X00283Y00034*
X00282Y00033*
X00282Y00033*
X00282Y00032*
X00282Y00032*
X00281Y00032*
X00281Y00032*
X00281Y00032*
Y00032*
X00281Y00031*
X00281Y0003*
X00281Y00029*
X00281Y00028*
X00281Y00028*
Y00027*
X00281Y00027*
Y00026*
X00281Y00025*
X00281Y00024*
X00281Y00023*
X00281Y00022*
X00281Y00022*
X00281Y00022*
X00281Y00021*
X00282Y00021*
X00282Y00021*
X00282Y00021*
X00282Y00021*
Y00021*
X00282Y0002*
X00283Y00019*
X00283Y00018*
X00284Y00018*
X00284Y00017*
X00284Y00017*
X00285Y00017*
X00285Y00017*
X00285Y00016*
X00286Y00016*
X00287Y00016*
X00288Y00015*
X00288Y00015*
X00289Y00015*
X00289Y00015*
X00289Y00015*
X00289Y00015*
X00289*
X00289*
X00289Y0001*
X00288Y0001*
X00288Y00011*
X00286Y00011*
X00285Y00011*
X00285Y00011*
X00284Y00011*
X00284Y00012*
X00283Y00012*
X00283Y00012*
X00283Y00012*
X00282Y00012*
X00282Y00012*
X00282Y00012*
X00282Y00012*
X00281Y00013*
X0028Y00014*
X00279Y00015*
X00279Y00016*
X00278Y00017*
X00278Y00017*
X00278Y00017*
X00278Y00018*
X00278Y00018*
X00278Y00018*
Y00018*
X00277Y00019*
X00277Y00021*
X00276Y00022*
X00276Y00024*
X00276Y00024*
X00276Y00025*
X00276Y00025*
Y00026*
X00276Y00026*
Y00027*
X00276Y00028*
X00276Y0003*
X00276Y00031*
X00277Y00031*
X00277Y00032*
X00277Y00032*
X00277Y00033*
X00277Y00033*
X00277Y00034*
X00277Y00034*
X00277Y00034*
X00278Y00034*
Y00034*
X00278Y00035*
X00279Y00036*
X0028Y00037*
X0028Y00038*
X00281Y00038*
X00281Y00039*
X00281Y00039*
X00282Y00039*
X00282Y00039*
X00282*
X00282Y00039*
X00283Y0004*
X00284Y0004*
X00285Y0004*
X00286Y00041*
X00286Y00041*
X00287Y00041*
X00287*
X00287Y00041*
X00287*
X00287*
X00287*
X00289Y00041*
G37*
G36*
X00837Y01024D02*
X00837Y01023D01*
X00838Y01022*
X00839Y01021*
X00839Y0102*
X0084Y0102*
X0084Y0102*
X0084Y0102*
X0084Y01019*
X0084Y01019*
X0084Y01019*
X00841Y01018*
X00843Y01018*
X00844Y01017*
X00845Y01016*
X00845Y01016*
X00846Y01016*
X00846Y01015*
X00846Y01015*
X00847Y01015*
X00847Y01015*
X00847Y01015*
X00847Y01015*
Y0101*
X00846Y01011*
X00845Y01011*
X00845Y01011*
X00844Y01012*
X00843Y01012*
X00843Y01012*
X00843Y01012*
X00842Y01013*
X00842Y01013*
X00842Y01013*
X00842*
X00841Y01013*
X0084Y01014*
X0084Y01014*
X00839Y01015*
X00838Y01015*
X00838Y01016*
X00838Y01016*
X00838Y01016*
Y00986*
X00833*
Y01024*
X00836*
X00837Y01024*
G37*
G36*
X00923Y00986D02*
X0091D01*
X00908Y00986*
X00907Y00986*
X00906Y00986*
X00905Y00986*
X00905Y00986*
X00904Y00986*
X00904Y00986*
X00904Y00987*
X00904Y00987*
X00904*
X00903Y00987*
X00903*
X00902Y00987*
X00902Y00987*
X00901Y00988*
X009Y00988*
X009Y00988*
X00899Y00988*
X00899Y00988*
X00899Y00989*
X00899*
X00898Y00989*
X00897Y0099*
X00897Y0099*
X00896Y00991*
X00896Y00991*
X00896Y00992*
X00895Y00992*
X00895Y00992*
X00895Y00992*
Y00992*
X00895Y00993*
X00894Y00994*
X00894Y00995*
X00893Y00996*
X00893Y00996*
X00893Y00997*
X00893Y00997*
X00893Y00997*
X00893Y00997*
X00893Y00998*
Y00998*
X00892Y00999*
X00892Y01*
X00892Y01002*
X00892Y01003*
X00892Y01003*
X00892Y01004*
Y01004*
X00892Y01005*
Y01005*
Y01005*
Y01005*
Y01005*
X00892Y01007*
X00892Y01008*
X00892Y01009*
X00892Y0101*
X00892Y0101*
X00892Y01011*
X00892Y01012*
X00893Y01012*
X00893Y01013*
X00893Y01013*
X00893Y01014*
X00893Y01014*
X00893Y01014*
X00893Y01014*
Y01014*
X00894Y01016*
X00894Y01017*
X00895Y01018*
X00895Y01018*
X00896Y01019*
X00896Y01019*
X00896Y0102*
X00897Y0102*
X00897Y0102*
X00897Y01021*
X00897Y01021*
X00898Y01021*
X00898Y01021*
X00898Y01021*
X00899Y01022*
X009Y01022*
X009Y01023*
X00901Y01023*
X00902Y01023*
X00902Y01024*
X00903Y01024*
X00903Y01024*
X00903Y01024*
X00903Y01024*
X00903*
X00904Y01024*
X00904Y01024*
X00905Y01024*
X00907Y01024*
X00908Y01024*
X00908Y01024*
X00909*
X00909Y01024*
X00923*
Y00986*
G37*
G36*
X00873Y01025D02*
X00874Y01025D01*
X00875Y01025*
X00876Y01024*
X00876Y01024*
X00877Y01024*
X00877Y01024*
X00878Y01024*
X00878Y01024*
X00878Y01024*
X00878Y01024*
X00878Y01024*
X00878*
X0088Y01023*
X0088Y01023*
X00881Y01022*
X00882Y01021*
X00883Y01021*
X00883Y0102*
X00883Y0102*
X00883Y0102*
X00883Y0102*
Y0102*
X00884Y01019*
X00884Y01018*
X00884Y01017*
X00885Y01016*
X00885Y01015*
X00885Y01015*
Y01015*
X00885Y01015*
Y01015*
Y01014*
Y01014*
X00885Y01013*
X00885Y01013*
X00884Y01012*
X00884Y01011*
X00884Y0101*
X00884Y0101*
X00884Y0101*
X00884Y0101*
X00884Y0101*
Y0101*
X00883Y01009*
X00882Y01008*
X00882Y01008*
X00881Y01007*
X0088Y01007*
X0088Y01006*
X0088Y01006*
X0088Y01006*
X00879Y01006*
X00879*
X00879Y01006*
X00878Y01006*
X00878Y01005*
X00877Y01005*
X00876Y01005*
X00875Y01004*
X00874Y01004*
X00874Y01004*
X00873Y01004*
X00873Y01004*
X00873Y01004*
X00872Y01004*
X00872Y01004*
X00872*
X00871Y01003*
X0087Y01003*
X00869Y01003*
X00869Y01003*
X00868Y01003*
X00868Y01003*
X00867Y01002*
X00867Y01002*
X00866Y01002*
X00866Y01002*
X00866Y01002*
X00866Y01002*
X00865Y01002*
X00865Y01002*
X00865Y01002*
X00864Y01001*
X00864Y01001*
X00863Y01001*
X00863Y01*
X00862Y01*
X00862Y01*
X00862Y01*
X00862Y01*
X00861Y00999*
X00861Y00998*
X00861Y00998*
X00861Y00997*
X00861Y00997*
X00861Y00997*
Y00996*
Y00996*
Y00996*
X00861Y00996*
X00861Y00995*
X00861Y00995*
X00861Y00994*
X00861Y00994*
X00862Y00993*
X00862Y00993*
X00862Y00993*
X00862Y00993*
X00863Y00992*
X00863Y00992*
X00864Y00991*
X00864Y00991*
X00865Y00991*
X00865Y00991*
X00865Y00991*
X00865Y00991*
X00865*
X00866Y0099*
X00867Y0099*
X00868Y0099*
X00868Y0099*
X00869Y0099*
X00869*
X0087Y0099*
X0087*
X00871Y0099*
X00872Y0099*
X00874Y0099*
X00874Y0099*
X00875Y00991*
X00875Y00991*
X00875Y00991*
X00876Y00991*
X00876Y00991*
X00876Y00991*
X00876Y00991*
X00876*
X00877Y00991*
X00878Y00992*
X00878Y00992*
X00879Y00993*
X00879Y00993*
X0088Y00994*
X0088Y00994*
X0088Y00994*
X0088Y00995*
X00881Y00995*
X00881Y00996*
X00881Y00997*
X00881Y00998*
X00881Y00998*
X00881Y00998*
X00881Y00998*
X00882Y00999*
Y00999*
Y00999*
X00886Y00998*
X00886Y00998*
X00886Y00997*
X00886Y00996*
X00886Y00994*
X00885Y00994*
X00885Y00993*
X00885Y00993*
X00885Y00993*
X00885Y00992*
X00885Y00992*
X00884Y00992*
X00884Y00992*
X00884Y00991*
X00884Y00991*
X00883Y0099*
X00883Y00989*
X00882Y00989*
X00881Y00988*
X0088Y00987*
X0088Y00987*
X00879Y00987*
X00879Y00987*
X00879Y00987*
X00879Y00987*
X00879*
X00877Y00986*
X00876Y00986*
X00874Y00986*
X00873Y00986*
X00872Y00985*
X00872Y00985*
X00871Y00985*
X00871*
X0087Y00985*
X0087*
X00868Y00985*
X00867Y00986*
X00866Y00986*
X00865Y00986*
X00865Y00986*
X00864Y00986*
X00864Y00986*
X00863Y00987*
X00863Y00987*
X00863Y00987*
X00863Y00987*
X00863Y00987*
X00863*
X00861Y00987*
X0086Y00988*
X0086Y00989*
X00859Y0099*
X00858Y0099*
X00858Y00991*
X00858Y00991*
X00858Y00991*
X00858Y00991*
Y00991*
X00857Y00992*
X00857Y00992*
X00857Y00993*
X00856Y00994*
X00856Y00995*
X00856Y00996*
X00856Y00996*
Y00996*
X00856Y00996*
Y00997*
Y00997*
Y00997*
X00856Y00998*
X00856Y00999*
X00856Y01*
X00857Y01001*
X00857Y01001*
X00857Y01002*
X00857Y01002*
X00857Y01002*
X00857Y01002*
X00857Y01002*
Y01002*
X00858Y01003*
X00858Y01003*
X00859Y01004*
X0086Y01005*
X0086Y01005*
X00861Y01006*
X00861Y01006*
X00862Y01006*
X00862Y01006*
X00862Y01006*
X00862Y01006*
X00862*
X00863Y01006*
X00863Y01007*
X00864Y01007*
X00865Y01007*
X00866Y01007*
X00867Y01008*
X00868Y01008*
X00869Y01008*
X00869Y01008*
X0087Y01008*
X0087Y01008*
X00871Y01009*
X00871Y01009*
X00871*
X00872Y01009*
X00873Y01009*
X00874Y01009*
X00875Y0101*
X00875Y0101*
X00876Y0101*
X00877Y0101*
X00877Y0101*
X00877Y01011*
X00878Y01011*
X00878Y01011*
X00878Y01011*
X00878Y01011*
X00878Y01011*
X00878Y01011*
X00879Y01012*
X00879Y01012*
X0088Y01013*
X0088Y01014*
X0088Y01014*
X0088Y01014*
X0088Y01015*
Y01015*
Y01015*
X0088Y01015*
X0088Y01016*
X0088Y01016*
X00879Y01017*
X00879Y01018*
X00879Y01018*
X00878Y01018*
X00878Y01019*
X00878Y01019*
X00878*
X00877Y01019*
X00877Y01019*
X00876Y0102*
X00875Y0102*
X00874Y0102*
X00873Y0102*
X00873Y0102*
X00872Y0102*
X00872*
X00872Y0102*
X0087*
X0087Y0102*
X00869Y0102*
X00868Y0102*
X00868Y0102*
X00867Y0102*
X00867Y0102*
X00866Y0102*
X00866Y01019*
X00865Y01019*
X00865Y01019*
X00865Y01019*
X00865Y01019*
X00865Y01019*
X00865Y01019*
X00864Y01019*
X00864Y01018*
X00864Y01018*
X00863Y01017*
X00863Y01016*
X00862Y01015*
X00862Y01014*
X00862Y01014*
X00862Y01014*
X00862Y01014*
Y01013*
X00862Y01013*
Y01013*
X00857Y01014*
X00857Y01015*
X00857Y01016*
X00858Y01017*
X00858Y01018*
X00858Y01018*
X00858Y01019*
X00858Y01019*
X00859Y01019*
X00859Y01019*
X00859Y01019*
X00859Y0102*
X00859Y0102*
X0086Y01021*
X0086Y01021*
X00861Y01022*
X00862Y01023*
X00863Y01023*
X00863Y01023*
X00863Y01023*
X00863Y01023*
X00864Y01024*
X00864Y01024*
X00864*
X00865Y01024*
X00866Y01024*
X00868Y01025*
X00869Y01025*
X00869Y01025*
X0087Y01025*
X0087Y01025*
X00871Y01025*
X00871*
X00873Y01025*
G37*
G36*
X00721Y00223D02*
X00722Y00223D01*
X00723Y00223*
X00723Y00223*
X00724Y00222*
X00725Y00222*
X00726Y00222*
X00726Y00222*
X00727Y00221*
X00727Y00221*
X00728Y00221*
X00728Y00221*
X00728Y0022*
X00728Y0022*
X00728Y0022*
X00728Y0022*
X00729Y0022*
X0073Y00219*
X0073Y00218*
X0073Y00218*
X00731Y00217*
X00731Y00216*
X00731Y00216*
X00732Y00215*
X00732Y00214*
X00732Y00214*
X00732Y00213*
X00732Y00213*
X00732Y00212*
X00732Y00212*
X00732Y00212*
Y00212*
X00727Y00211*
X00727Y00212*
X00727Y00213*
X00727Y00214*
X00727Y00215*
X00727Y00215*
X00726Y00216*
X00726Y00216*
X00726Y00216*
X00726Y00216*
X00726Y00217*
X00726Y00217*
X00725Y00217*
X00725Y00217*
X00725Y00217*
X00725Y00217*
X00725Y00218*
X00724Y00218*
X00724Y00218*
X00723Y00219*
X00722Y00219*
X00721Y00219*
X00721Y00219*
X0072*
X0072Y00219*
X00719*
X00719Y00219*
X00718Y00219*
X00717Y00218*
X00716Y00218*
X00715Y00218*
X00715Y00218*
X00715Y00217*
X00715Y00217*
X00715Y00217*
X00715Y00217*
X00715Y00217*
X00714Y00217*
X00714Y00216*
X00714Y00216*
X00713Y00216*
X00713Y00215*
X00713Y00214*
X00713Y00213*
X00713Y00213*
Y00213*
X00713Y00213*
Y00213*
Y00212*
Y00212*
X00713Y00212*
X00713Y00211*
X00713Y0021*
X00713Y00209*
X00714Y00209*
X00714Y00208*
X00714Y00208*
X00714Y00207*
X00715Y00207*
X00715Y00207*
X00715Y00207*
X00715Y00207*
X00715Y00206*
X00716Y00206*
X00716Y00205*
X00717Y00204*
X00718Y00203*
X0072Y00202*
X00721Y00201*
X00721Y002*
X00722Y002*
X00722Y00199*
X00723Y00199*
X00723Y00199*
X00723Y00199*
X00723Y00199*
X00724Y00198*
X00725Y00197*
X00725Y00197*
X00726Y00196*
X00727Y00196*
X00727Y00195*
X00727Y00195*
X00728Y00194*
X00728Y00194*
X00729Y00194*
X00729Y00193*
X00729Y00193*
X00729Y00193*
X00729Y00193*
X00729Y00193*
X00729Y00193*
X0073Y00192*
X00731Y00191*
X00731Y0019*
X00732Y00189*
X00732Y00189*
X00732Y00188*
X00732Y00188*
X00732Y00188*
X00733Y00188*
X00733Y00188*
Y00188*
X00733Y00187*
X00733Y00187*
X00733Y00186*
X00733Y00186*
X00733Y00185*
Y00185*
Y00185*
Y00184*
X00708*
Y00189*
X00727*
X00726Y0019*
X00726Y0019*
X00725Y00191*
X00725Y00191*
X00725Y00191*
X00725Y00191*
X00725Y00191*
X00724Y00192*
X00724Y00192*
X00724Y00192*
X00723Y00193*
X00722Y00194*
X00721Y00194*
X00721Y00195*
X0072Y00195*
X0072Y00196*
X0072Y00196*
X00719Y00196*
X00719Y00196*
X00719Y00196*
X00718Y00197*
X00717Y00198*
X00717Y00199*
X00716Y00199*
X00715Y002*
X00715Y002*
X00714Y00201*
X00714Y00201*
X00713Y00202*
X00713Y00202*
X00713Y00202*
X00712Y00203*
X00712Y00203*
X00712Y00203*
X00712Y00203*
X00712Y00203*
X00711Y00204*
X0071Y00205*
X0071Y00206*
X00709Y00206*
X00709Y00207*
X00709Y00207*
X00709Y00208*
X00709Y00208*
X00709Y00208*
Y00208*
X00708Y00209*
X00708Y00209*
X00708Y0021*
X00708Y00211*
X00708Y00211*
X00708Y00212*
Y00212*
Y00212*
Y00212*
Y00212*
X00708Y00213*
X00708Y00214*
X00708Y00215*
X00708Y00215*
X00708Y00216*
X00709Y00217*
X00709Y00217*
X00709Y00218*
X0071Y00218*
X0071Y00219*
X0071Y00219*
X0071Y00219*
X00711Y0022*
X00711Y0022*
X00711Y0022*
X00711Y0022*
X00712Y0022*
X00712Y00221*
X00713Y00221*
X00714Y00222*
X00714Y00222*
X00715Y00222*
X00716Y00222*
X00717Y00223*
X00717Y00223*
X00718Y00223*
X00718Y00223*
X00719Y00223*
X00719Y00223*
X0072*
X00721Y00223*
G37*
G36*
X00805Y00184D02*
X00791D01*
X0079Y00185*
X00789Y00185*
X00788Y00185*
X00787Y00185*
X00786Y00185*
X00786Y00185*
X00786Y00185*
X00786Y00185*
X00785Y00185*
X00785*
X00785Y00185*
X00785*
X00784Y00185*
X00783Y00186*
X00782Y00186*
X00782Y00186*
X00781Y00187*
X00781Y00187*
X00781Y00187*
X00781Y00187*
X0078*
X0078Y00188*
X00779Y00188*
X00779Y00189*
X00778Y00189*
X00778Y0019*
X00777Y0019*
X00777Y0019*
X00777Y0019*
X00777Y0019*
Y0019*
X00776Y00191*
X00776Y00192*
X00775Y00193*
X00775Y00194*
X00775Y00195*
X00775Y00195*
X00775Y00196*
X00774Y00196*
X00774Y00196*
X00774Y00196*
Y00196*
X00774Y00197*
X00774Y00199*
X00774Y002*
X00773Y00201*
X00773Y00202*
X00773Y00202*
Y00203*
X00773Y00203*
Y00203*
Y00204*
Y00204*
Y00204*
X00773Y00206*
X00773Y00207*
X00774Y00207*
X00774Y00208*
X00774Y00209*
X00774Y0021*
X00774Y0021*
X00774Y00211*
X00774Y00211*
X00774Y00212*
X00775Y00212*
X00775Y00213*
X00775Y00213*
X00775Y00213*
Y00213*
X00775Y00214*
X00776Y00216*
X00777Y00216*
X00777Y00217*
X00777Y00217*
X00778Y00218*
X00778Y00218*
X00778Y00218*
X00779Y00219*
X00779Y00219*
X00779Y00219*
X00779Y00219*
X00779Y00219*
X00779Y0022*
X0078Y0022*
X00781Y00221*
X00782Y00221*
X00783Y00222*
X00784Y00222*
X00784Y00222*
X00784Y00222*
X00785Y00222*
X00785Y00222*
X00785Y00222*
X00785*
X00785Y00222*
X00786Y00222*
X00787Y00223*
X00788Y00223*
X00789Y00223*
X0079Y00223*
X0079*
X00791Y00223*
X00805*
Y00184*
G37*
G36*
X00754Y00223D02*
X00756Y00223D01*
X00757Y00223*
X00758Y00223*
X00758Y00223*
X00758Y00223*
X00759Y00223*
X00759Y00222*
X0076Y00222*
X0076Y00222*
X0076Y00222*
X0076Y00222*
X0076*
X00761Y00222*
X00762Y00221*
X00763Y0022*
X00764Y0022*
X00764Y00219*
X00765Y00219*
X00765Y00219*
X00765Y00218*
X00765Y00218*
Y00218*
X00765Y00217*
X00766Y00216*
X00766Y00216*
X00766Y00215*
X00766Y00214*
X00767Y00214*
Y00213*
X00767Y00213*
Y00213*
Y00213*
Y00213*
X00767Y00212*
X00766Y00211*
X00766Y0021*
X00766Y0021*
X00766Y00209*
X00765Y00208*
X00765Y00208*
X00765Y00208*
X00765Y00208*
Y00208*
X00765Y00207*
X00764Y00207*
X00763Y00206*
X00763Y00206*
X00762Y00205*
X00762Y00205*
X00761Y00205*
X00761Y00205*
X00761Y00205*
X00761*
X00761Y00204*
X0076Y00204*
X0076Y00204*
X00759Y00204*
X00758Y00203*
X00757Y00203*
X00756Y00203*
X00756Y00203*
X00755Y00202*
X00755Y00202*
X00754Y00202*
X00754Y00202*
X00754Y00202*
X00754*
X00753Y00202*
X00752Y00202*
X00751Y00202*
X0075Y00201*
X0075Y00201*
X00749Y00201*
X00749Y00201*
X00748Y00201*
X00748Y00201*
X00748Y00201*
X00747Y002*
X00747Y002*
X00747Y002*
X00747Y002*
X00747Y002*
X00746Y002*
X00745Y002*
X00745Y00199*
X00744Y00199*
X00744Y00198*
X00744Y00198*
X00743Y00198*
X00743Y00198*
X00743Y00198*
X00743Y00197*
X00743Y00196*
X00742Y00196*
X00742Y00196*
X00742Y00195*
Y00195*
Y00195*
Y00195*
X00742Y00194*
X00743Y00194*
X00743Y00193*
X00743Y00193*
X00743Y00192*
X00743Y00192*
X00743Y00192*
X00743Y00192*
X00744Y00191*
X00744Y00191*
X00745Y0019*
X00746Y0019*
X00746Y0019*
X00746Y00189*
X00747Y00189*
X00747Y00189*
X00747Y00189*
X00747*
X00748Y00189*
X00749Y00189*
X00749Y00189*
X0075Y00188*
X00751Y00188*
X00751*
X00751Y00188*
X00752*
X00753Y00188*
X00754Y00189*
X00755Y00189*
X00756Y00189*
X00756Y00189*
X00757Y00189*
X00757Y00189*
X00757Y00189*
X00758Y00189*
X00758Y00189*
X00758Y00189*
X00758*
X00759Y0019*
X0076Y0019*
X0076Y00191*
X00761Y00191*
X00761Y00192*
X00761Y00192*
X00762Y00192*
X00762Y00192*
X00762Y00193*
X00762Y00194*
X00763Y00195*
X00763Y00196*
X00763Y00196*
X00763Y00196*
X00763Y00197*
X00763Y00197*
X00763Y00197*
Y00197*
Y00197*
X00768Y00197*
X00768Y00196*
X00768Y00195*
X00768Y00194*
X00767Y00193*
X00767Y00192*
X00767Y00192*
X00767Y00191*
X00767Y00191*
X00766Y00191*
X00766Y0019*
X00766Y0019*
X00766Y0019*
X00766Y0019*
X00766Y0019*
X00765Y00189*
X00764Y00188*
X00763Y00187*
X00762Y00186*
X00762Y00186*
X00761Y00186*
X00761Y00186*
X00761Y00186*
X00761Y00185*
X0076Y00185*
X0076*
X00759Y00185*
X00758Y00184*
X00756Y00184*
X00755Y00184*
X00754Y00184*
X00753Y00184*
X00753Y00184*
X00753*
X00752Y00184*
X00752*
X0075Y00184*
X00749Y00184*
X00748Y00184*
X00747Y00184*
X00746Y00185*
X00746Y00185*
X00746Y00185*
X00745Y00185*
X00745Y00185*
X00745Y00185*
X00744Y00185*
X00744Y00185*
X00744*
X00743Y00186*
X00742Y00187*
X00741Y00187*
X00741Y00188*
X0074Y00189*
X0074Y00189*
X00739Y00189*
X00739Y00189*
X00739Y00189*
Y0019*
X00739Y0019*
X00739Y00191*
X00738Y00192*
X00738Y00193*
X00738Y00193*
X00738Y00194*
X00738Y00194*
Y00195*
X00737Y00195*
Y00195*
Y00195*
Y00195*
X00738Y00196*
X00738Y00197*
X00738Y00198*
X00738Y00199*
X00739Y002*
X00739Y002*
X00739Y002*
X00739Y002*
X00739Y00201*
X00739Y00201*
Y00201*
X00739Y00201*
X0074Y00202*
X00741Y00202*
X00741Y00203*
X00742Y00204*
X00743Y00204*
X00743Y00204*
X00743Y00204*
X00744Y00204*
X00744Y00205*
X00744Y00205*
X00744*
X00744Y00205*
X00745Y00205*
X00746Y00205*
X00746Y00205*
X00748Y00206*
X00749Y00206*
X0075Y00206*
X0075Y00207*
X00751Y00207*
X00752Y00207*
X00752Y00207*
X00752Y00207*
X00752Y00207*
X00753*
X00754Y00207*
X00755Y00208*
X00756Y00208*
X00756Y00208*
X00757Y00208*
X00758Y00209*
X00758Y00209*
X00759Y00209*
X00759Y00209*
X00759Y00209*
X0076Y00209*
X0076Y0021*
X0076Y0021*
X0076Y0021*
X0076Y0021*
X00761Y0021*
X00761Y00211*
X00761Y00212*
X00761Y00212*
X00762Y00212*
X00762Y00213*
X00762Y00213*
Y00213*
Y00213*
X00762Y00214*
X00762Y00214*
X00761Y00215*
X00761Y00216*
X00761Y00216*
X0076Y00217*
X0076Y00217*
X0076Y00217*
X0076Y00217*
X0076*
X00759Y00218*
X00759Y00218*
X00758Y00218*
X00757Y00219*
X00755Y00219*
X00755Y00219*
X00754Y00219*
X00754Y00219*
X00754*
X00753Y00219*
X00752*
X00751Y00219*
X00751Y00219*
X0075Y00219*
X00749Y00219*
X00749Y00218*
X00748Y00218*
X00748Y00218*
X00747Y00218*
X00747Y00218*
X00747Y00218*
X00747Y00217*
X00746Y00217*
X00746Y00217*
X00746Y00217*
X00746Y00217*
X00746Y00217*
X00745Y00216*
X00745Y00215*
X00744Y00215*
X00744Y00214*
X00744Y00213*
X00744Y00213*
X00744Y00212*
X00744Y00212*
Y00212*
X00743Y00212*
Y00212*
X00739Y00212*
X00739Y00213*
X00739Y00214*
X00739Y00215*
X0074Y00216*
X0074Y00217*
X0074Y00217*
X0074Y00217*
X0074Y00218*
X0074Y00218*
X0074Y00218*
X00741Y00218*
X00741Y00218*
X00741Y00219*
X00742Y0022*
X00743Y00221*
X00744Y00221*
X00744Y00222*
X00745Y00222*
X00745Y00222*
X00745Y00222*
X00745Y00222*
X00745Y00222*
X00746*
X00747Y00223*
X00748Y00223*
X00749Y00223*
X00751Y00223*
X00751Y00223*
X00752Y00223*
X00752Y00223*
X00752Y00224*
X00753*
X00754Y00223*
G37*
G36*
X00842Y00965D02*
X00843Y00965D01*
X00844Y00965*
X00845Y00965*
X00845Y00964*
X00846Y00964*
X00846Y00964*
X00847Y00964*
X00847Y00964*
X00848Y00963*
X00848Y00963*
X00849Y00963*
X00849Y00963*
X00849Y00963*
X00849Y00962*
X00849Y00962*
X0085Y00962*
X0085Y00961*
X00851Y00961*
X00851Y0096*
X00851Y0096*
X00852Y00959*
X00852Y00958*
X00852Y00957*
X00853Y00957*
X00853Y00956*
X00853Y00956*
X00853Y00956*
X00853Y00955*
X00853Y00955*
Y00955*
X00848Y00954*
X00848Y00956*
X00848Y00957*
X00847Y00957*
X00847Y00958*
X00847Y00959*
X00846Y00959*
X00846Y00959*
X00846Y00959*
X00845Y0096*
X00844Y0096*
X00844Y00961*
X00843Y00961*
X00842Y00961*
X00842Y00961*
X00842*
X00842Y00961*
X00841*
X0084Y00961*
X00839Y00961*
X00839Y00961*
X00838Y0096*
X00837Y0096*
X00837Y0096*
X00837Y0096*
X00837Y00959*
X00836Y00959*
X00836Y00959*
X00836Y00958*
X00835Y00957*
X00835Y00957*
X00835Y00956*
X00835Y00956*
X00835Y00955*
Y00955*
Y00955*
Y00955*
X00835Y00955*
X00835Y00954*
X00835Y00954*
X00835Y00953*
X00836Y00952*
X00836Y00952*
X00837Y00951*
X00837Y00951*
X00837Y00951*
X00837Y0095*
X00837Y0095*
X00837*
X00838Y0095*
X00839Y00949*
X0084Y00949*
X00841Y00949*
X00842Y00949*
X00842Y00949*
X00842*
X00843Y00949*
X00843*
X00843Y00949*
X00844Y00949*
X00844*
X00844Y00945*
X00843Y00945*
X00843Y00945*
X00842Y00945*
X00842Y00945*
X00841*
X00841Y00945*
X00841*
X0084Y00945*
X0084Y00945*
X00839Y00945*
X00838Y00945*
X00837Y00944*
X00836Y00944*
X00836Y00944*
X00836Y00943*
X00836Y00943*
X00836Y00943*
X00835Y00943*
X00835Y00943*
X00835Y00943*
X00835Y00942*
X00834Y00942*
X00834Y00941*
X00834Y00941*
X00834Y0094*
X00833Y00939*
X00833Y00939*
X00833Y00938*
X00833Y00938*
Y00938*
Y00938*
Y00938*
X00833Y00937*
X00833Y00937*
X00834Y00935*
X00834Y00934*
X00834Y00934*
X00835Y00933*
X00835Y00933*
X00835Y00933*
X00835Y00932*
X00835Y00932*
X00835Y00932*
X00836Y00932*
X00836Y00932*
X00836Y00932*
X00836Y00931*
X00837Y00931*
X00837Y00931*
X00838Y0093*
X00839Y0093*
X0084Y0093*
X0084Y0093*
X00841Y0093*
X00841Y0093*
X00841*
X00842Y0093*
X00843Y0093*
X00844Y0093*
X00845Y00931*
X00845Y00931*
X00846Y00931*
X00846Y00931*
X00846Y00931*
X00846Y00932*
X00846*
X00846Y00932*
X00847Y00932*
X00847Y00933*
X00848Y00934*
X00848Y00935*
X00848Y00936*
X00848Y00936*
X00849Y00937*
X00849Y00937*
X00849Y00937*
X00849Y00937*
Y00937*
X00853Y00937*
X00853Y00936*
X00853Y00935*
X00853Y00934*
X00853Y00933*
X00852Y00933*
X00852Y00932*
X00852Y00932*
X00851Y00931*
X00851Y00931*
X00851Y0093*
X0085Y0093*
X0085Y00929*
X0085Y00929*
X0085Y00929*
X0085Y00929*
X0085Y00929*
X00849Y00928*
X00848Y00928*
X00848Y00928*
X00847Y00927*
X00846Y00927*
X00846Y00927*
X00845Y00926*
X00844Y00926*
X00844Y00926*
X00843Y00926*
X00843Y00926*
X00842Y00926*
X00842*
X00841Y00926*
X00841*
X0084Y00926*
X00839Y00926*
X00838Y00926*
X00837Y00926*
X00837Y00927*
X00836Y00927*
X00835Y00927*
X00835Y00928*
X00834Y00928*
X00833Y00928*
X00833Y00929*
X00833Y00929*
X00832Y00929*
X00832Y00929*
X00832Y00929*
X00832Y00929*
X00831Y0093*
X00831Y00931*
X0083Y00931*
X0083Y00932*
X00829Y00933*
X00829Y00934*
X00829Y00934*
X00829Y00935*
X00829Y00936*
X00829Y00936*
X00828Y00937*
X00828Y00937*
Y00937*
X00828Y00938*
Y00938*
Y00938*
Y00939*
X00828Y00939*
X00829Y0094*
X00829Y00941*
X00829Y00942*
X00829Y00942*
X00829Y00943*
X0083Y00943*
X0083Y00943*
X0083Y00944*
X0083Y00944*
X0083Y00944*
X0083Y00944*
X0083Y00944*
X00831Y00945*
X00832Y00946*
X00833Y00946*
X00834Y00947*
X00834Y00947*
X00835Y00947*
X00835Y00947*
X00835Y00947*
X00835Y00947*
X00835Y00947*
X00835*
X00835Y00948*
X00834Y00948*
X00833Y00949*
X00833Y00949*
X00832Y0095*
X00832Y0095*
X00832Y0095*
X00832Y00951*
Y00951*
X00831Y00951*
X00831Y00952*
X0083Y00953*
X0083Y00954*
X0083Y00954*
X0083Y00955*
Y00955*
Y00955*
Y00955*
Y00955*
X0083Y00956*
X0083Y00957*
X00831Y00958*
X00831Y00959*
X00831Y00959*
X00831Y00959*
X00831Y0096*
X00831Y0096*
X00832Y0096*
X00832Y0096*
Y0096*
X00832Y00961*
X00833Y00962*
X00833Y00962*
X00834Y00963*
X00835Y00963*
X00835Y00963*
X00835Y00964*
X00836Y00964*
X00836Y00964*
X00836*
X00837Y00964*
X00838Y00964*
X00839Y00965*
X0084Y00965*
X0084Y00965*
X00841Y00965*
X00841Y00965*
X00841*
X00842Y00965*
G37*
G36*
X00926Y00927D02*
X00912D01*
X00911Y00927*
X0091Y00927*
X00909Y00927*
X00908Y00927*
X00907Y00927*
X00907Y00927*
X00907Y00927*
X00907Y00927*
X00906Y00927*
X00906*
X00906Y00927*
X00906*
X00905Y00927*
X00904Y00928*
X00903Y00928*
X00903Y00928*
X00902Y00929*
X00902Y00929*
X00902Y00929*
X00902Y00929*
X00901*
X00901Y0093*
X009Y0093*
X009Y00931*
X00899Y00931*
X00899Y00932*
X00898Y00932*
X00898Y00932*
X00898Y00932*
X00898Y00933*
Y00933*
X00897Y00933*
X00897Y00934*
X00896Y00935*
X00896Y00936*
X00896Y00937*
X00896Y00937*
X00896Y00938*
X00895Y00938*
X00895Y00938*
X00895Y00938*
Y00938*
X00895Y00939*
X00895Y00941*
X00895Y00942*
X00894Y00943*
X00894Y00944*
X00894Y00944*
Y00945*
X00894Y00945*
Y00946*
Y00946*
Y00946*
Y00946*
X00894Y00948*
X00894Y00949*
X00895Y0095*
X00895Y0095*
X00895Y00951*
X00895Y00952*
X00895Y00952*
X00895Y00953*
X00895Y00954*
X00895Y00954*
X00896Y00954*
X00896Y00955*
X00896Y00955*
X00896Y00955*
Y00955*
X00896Y00956*
X00897Y00958*
X00898Y00958*
X00898Y00959*
X00898Y00959*
X00899Y0096*
X00899Y0096*
X00899Y00961*
X009Y00961*
X009Y00961*
X009Y00961*
X009Y00961*
X009Y00962*
X009Y00962*
X00901Y00962*
X00902Y00963*
X00903Y00963*
X00904Y00964*
X00905Y00964*
X00905Y00964*
X00905Y00964*
X00906Y00964*
X00906Y00964*
X00906Y00964*
X00906*
X00906Y00964*
X00907Y00965*
X00908Y00965*
X00909Y00965*
X0091Y00965*
X00911Y00965*
X00911*
X00912Y00965*
X00926*
Y00927*
G37*
G36*
X00875Y00966D02*
X00877Y00965D01*
X00878Y00965*
X00879Y00965*
X00879Y00965*
X00879Y00965*
X0088Y00965*
X0088Y00965*
X00881Y00964*
X00881Y00964*
X00881Y00964*
X00881Y00964*
X00881*
X00882Y00964*
X00883Y00963*
X00884Y00962*
X00885Y00962*
X00885Y00961*
X00886Y00961*
X00886Y00961*
X00886Y00961*
X00886Y0096*
Y0096*
X00886Y00959*
X00887Y00958*
X00887Y00958*
X00887Y00957*
X00887Y00956*
X00887Y00956*
Y00956*
X00888Y00955*
Y00955*
Y00955*
Y00955*
X00887Y00954*
X00887Y00953*
X00887Y00952*
X00887Y00952*
X00887Y00951*
X00886Y00951*
X00886Y0095*
X00886Y0095*
X00886Y0095*
Y0095*
X00886Y00949*
X00885Y00949*
X00884Y00948*
X00884Y00948*
X00883Y00947*
X00883Y00947*
X00882Y00947*
X00882Y00947*
X00882Y00947*
X00882*
X00882Y00946*
X00881Y00946*
X00881Y00946*
X0088Y00946*
X00879Y00945*
X00878Y00945*
X00877Y00945*
X00877Y00945*
X00876Y00945*
X00876Y00944*
X00875Y00944*
X00875Y00944*
X00875Y00944*
X00875*
X00874Y00944*
X00873Y00944*
X00872Y00944*
X00871Y00943*
X00871Y00943*
X0087Y00943*
X0087Y00943*
X00869Y00943*
X00869Y00943*
X00869Y00943*
X00868Y00943*
X00868Y00942*
X00868Y00942*
X00868Y00942*
X00868Y00942*
X00867Y00942*
X00866Y00942*
X00866Y00941*
X00865Y00941*
X00865Y00941*
X00865Y0094*
X00864Y0094*
X00864Y0094*
X00864Y0094*
X00864Y00939*
X00864Y00939*
X00863Y00938*
X00863Y00938*
X00863Y00937*
Y00937*
Y00937*
Y00937*
X00863Y00936*
X00864Y00936*
X00864Y00935*
X00864Y00935*
X00864Y00934*
X00864Y00934*
X00864Y00934*
X00864Y00934*
X00865Y00933*
X00865Y00933*
X00866Y00932*
X00867Y00932*
X00867Y00932*
X00867Y00931*
X00868Y00931*
X00868Y00931*
X00868Y00931*
X00868*
X00869Y00931*
X0087Y00931*
X0087Y00931*
X00871Y00931*
X00872Y00931*
X00872*
X00872Y0093*
X00873*
X00874Y00931*
X00875Y00931*
X00876Y00931*
X00877Y00931*
X00877Y00931*
X00878Y00931*
X00878Y00931*
X00878Y00931*
X00879Y00932*
X00879Y00932*
X00879Y00932*
X00879*
X0088Y00932*
X00881Y00933*
X00881Y00933*
X00882Y00933*
X00882Y00934*
X00882Y00934*
X00883Y00934*
X00883Y00935*
X00883Y00935*
X00883Y00936*
X00884Y00937*
X00884Y00938*
X00884Y00938*
X00884Y00939*
X00884Y00939*
X00884Y00939*
X00884Y00939*
Y00939*
Y00939*
X00889Y00939*
X00889Y00938*
X00889Y00937*
X00889Y00936*
X00888Y00935*
X00888Y00934*
X00888Y00934*
X00888Y00934*
X00888Y00933*
X00887Y00933*
X00887Y00932*
X00887Y00932*
X00887Y00932*
X00887Y00932*
X00887Y00932*
X00886Y00931*
X00885Y0093*
X00884Y00929*
X00883Y00929*
X00883Y00928*
X00882Y00928*
X00882Y00928*
X00882Y00928*
X00882Y00928*
X00881Y00927*
X00881*
X0088Y00927*
X00879Y00927*
X00877Y00926*
X00876Y00926*
X00875Y00926*
X00874Y00926*
X00874Y00926*
X00874*
X00873Y00926*
X00873*
X00871Y00926*
X0087Y00926*
X00869Y00926*
X00868Y00927*
X00867Y00927*
X00867Y00927*
X00867Y00927*
X00866Y00927*
X00866Y00927*
X00866Y00927*
X00865Y00927*
X00865Y00927*
X00865*
X00864Y00928*
X00863Y00929*
X00862Y00929*
X00862Y0093*
X00861Y00931*
X00861Y00931*
X0086Y00931*
X0086Y00932*
X0086Y00932*
Y00932*
X0086Y00932*
X0086Y00933*
X00859Y00934*
X00859Y00935*
X00859Y00935*
X00859Y00936*
X00858Y00937*
Y00937*
X00858Y00937*
Y00937*
Y00937*
Y00937*
X00859Y00938*
X00859Y0094*
X00859Y0094*
X00859Y00941*
X0086Y00942*
X0086Y00942*
X0086Y00942*
X0086Y00943*
X0086Y00943*
X0086Y00943*
Y00943*
X0086Y00943*
X00861Y00944*
X00862Y00944*
X00862Y00945*
X00863Y00946*
X00864Y00946*
X00864Y00946*
X00864Y00946*
X00865Y00947*
X00865Y00947*
X00865Y00947*
X00865*
X00865Y00947*
X00866Y00947*
X00867Y00947*
X00867Y00948*
X00869Y00948*
X0087Y00948*
X00871Y00949*
X00871Y00949*
X00872Y00949*
X00873Y00949*
X00873Y00949*
X00873Y00949*
X00873Y00949*
X00874*
X00875Y00949*
X00876Y0095*
X00877Y0095*
X00877Y0095*
X00878Y0095*
X00879Y00951*
X00879Y00951*
X0088Y00951*
X0088Y00951*
X0088Y00951*
X00881Y00952*
X00881Y00952*
X00881Y00952*
X00881Y00952*
X00881Y00952*
X00882Y00952*
X00882Y00953*
X00882Y00954*
X00882Y00954*
X00883Y00955*
X00883Y00955*
X00883Y00955*
Y00955*
Y00955*
X00883Y00956*
X00883Y00956*
X00882Y00957*
X00882Y00958*
X00882Y00958*
X00881Y00959*
X00881Y00959*
X00881Y00959*
X00881Y00959*
X00881*
X0088Y0096*
X0088Y0096*
X00879Y0096*
X00878Y00961*
X00876Y00961*
X00876Y00961*
X00875Y00961*
X00875Y00961*
X00875*
X00874Y00961*
X00873*
X00872Y00961*
X00872Y00961*
X00871Y00961*
X0087Y00961*
X0087Y0096*
X00869Y0096*
X00869Y0096*
X00868Y0096*
X00868Y0096*
X00868Y0096*
X00868Y00959*
X00867Y00959*
X00867Y00959*
X00867Y00959*
X00867Y00959*
X00867Y00959*
X00866Y00958*
X00866Y00958*
X00865Y00957*
X00865Y00956*
X00865Y00955*
X00865Y00955*
X00865Y00954*
X00865Y00954*
Y00954*
X00864Y00954*
Y00954*
X0086Y00954*
X0086Y00955*
X0086Y00957*
X0086Y00958*
X00861Y00958*
X00861Y00959*
X00861Y00959*
X00861Y00959*
X00861Y0096*
X00861Y0096*
X00861Y0096*
X00861Y0096*
X00862Y0096*
X00862Y00961*
X00863Y00962*
X00864Y00963*
X00865Y00963*
X00865Y00964*
X00866Y00964*
X00866Y00964*
X00866Y00964*
X00866Y00964*
X00866Y00964*
X00867*
X00868Y00965*
X00869Y00965*
X0087Y00965*
X00872Y00965*
X00872Y00965*
X00873Y00966*
X00873Y00966*
X00873Y00966*
X00874*
X00875Y00966*
G37*
G36*
X00688Y0089D02*
X00682D01*
Y00907*
X00676*
X00675Y00907*
X00675Y00907*
X00674*
X00674Y00907*
X00674Y00907*
X00674Y00907*
X00674*
X00673Y00906*
X00673Y00906*
X00673Y00906*
X00672Y00906*
X00672Y00906*
X00672Y00906*
X00672Y00906*
X00671Y00906*
X00671Y00905*
X00671Y00905*
X0067Y00904*
X0067Y00904*
X00669Y00904*
X00669Y00903*
X00669Y00903*
X00669Y00903*
Y00903*
X00668Y00902*
X00668Y00901*
X00667Y00901*
X00667Y009*
X00666Y00899*
X00666Y00899*
X00666Y00898*
X00665Y00898*
X00665Y00898*
X00665Y00898*
X00665Y00898*
X0066Y0089*
X00654*
X0066Y009*
X00661Y00901*
X00662Y00902*
X00663Y00903*
X00663Y00904*
X00664Y00904*
X00664Y00905*
X00664Y00905*
X00664Y00905*
X00665Y00905*
X00665Y00905*
X00665Y00905*
X00665Y00906*
X00666Y00906*
X00666Y00906*
X00667Y00907*
X00667Y00907*
X00667Y00907*
X00668Y00907*
X00668Y00907*
X00668*
X00667Y00907*
X00666Y00908*
X00665Y00908*
X00664Y00908*
X00663Y00908*
X00663Y00909*
X00662Y00909*
X00662Y00909*
X00661Y0091*
X00661Y0091*
X0066Y0091*
X0066Y0091*
X0066Y00911*
X0066Y00911*
X0066Y00911*
X0066Y00911*
X00659Y00911*
X00659Y00912*
X00658Y00912*
X00658Y00913*
X00658Y00914*
X00658Y00914*
X00657Y00915*
X00657Y00916*
X00657Y00916*
X00657Y00917*
X00657Y00917*
X00657Y00917*
Y00917*
Y00918*
Y00918*
X00657Y00919*
X00657Y0092*
X00657Y00921*
X00658Y00922*
X00658Y00922*
X00658Y00922*
X00658Y00923*
X00658Y00923*
X00658Y00923*
X00658Y00923*
X00658Y00923*
Y00923*
X00659Y00924*
X0066Y00925*
X00661Y00926*
X00661Y00926*
X00662Y00927*
X00662Y00927*
X00663Y00927*
X00663Y00927*
X00663Y00927*
X00663*
X00663Y00927*
X00664Y00927*
X00665Y00928*
X00666Y00928*
X00668Y00928*
X00668Y00928*
X00669Y00928*
X00669*
X0067Y00928*
X00688*
Y0089*
G37*
G36*
X00651Y00923D02*
X00632D01*
X00632Y00922*
X00633Y00921*
X00634Y0092*
X00635Y00918*
X00636Y00917*
X00636Y00917*
X00637Y00916*
X00637Y00915*
X00638Y00915*
X00638Y00914*
X00638Y00914*
X00638Y00913*
X00638Y00913*
X00639Y00913*
X0064Y00911*
X00641Y00909*
X00641Y00908*
X00641Y00907*
X00642Y00906*
X00642Y00905*
X00642Y00904*
X00643Y00903*
X00643Y00902*
X00643Y00902*
X00643Y00901*
X00643Y00901*
X00643Y00901*
X00643Y00901*
X00644Y00899*
X00644Y00898*
X00644Y00897*
X00644Y00896*
X00645Y00895*
X00645Y00894*
X00645Y00894*
X00645Y00893*
X00645Y00892*
X00645Y00891*
X00645Y00891*
X00645Y00891*
X00645Y0089*
Y0089*
Y0089*
Y0089*
X0064*
X0064Y00892*
X0064Y00893*
X0064Y00894*
X0064Y00895*
X0064Y00896*
X00639Y00896*
X00639Y00897*
X00639Y00898*
X00639Y00898*
X00639Y00899*
X00639Y00899*
X00639Y009*
X00639Y009*
X00639Y009*
Y009*
X00638Y00903*
X00637Y00904*
X00637Y00905*
X00636Y00906*
X00636Y00908*
X00635Y00909*
X00635Y0091*
X00635Y0091*
X00634Y00911*
X00634Y00912*
X00634Y00912*
X00633Y00913*
X00633Y00913*
X00633Y00914*
X00633Y00914*
X00632Y00915*
X00632Y00916*
X00631Y00917*
X0063Y00918*
X0063Y00919*
X00629Y0092*
X00628Y0092*
X00628Y00921*
X00627Y00922*
X00627Y00922*
X00627Y00923*
X00626Y00923*
X00626Y00924*
X00626Y00924*
X00626Y00924*
X00626Y00924*
Y00928*
X00651*
Y00923*
G37*
G36*
X00638Y00223D02*
X00639Y00223D01*
X0064Y00223*
X00641Y00223*
X00642Y00222*
X00643Y00222*
X00644Y00221*
X00644Y00221*
X00645Y00221*
X00645Y0022*
X00646Y0022*
X00646Y0022*
X00647Y00219*
X00647Y00219*
X00647Y00219*
X00647Y00219*
X00648Y00218*
X00648Y00217*
X00649Y00215*
X00649Y00214*
X0065Y00213*
X0065Y00212*
X0065Y0021*
X00651Y00209*
X00651Y00208*
X00651Y00206*
X00651Y00205*
X00651Y00204*
X00651Y00204*
Y00204*
X00651Y00203*
Y00203*
Y00203*
Y00203*
Y00203*
Y00203*
X00651Y00201*
X00651Y00199*
X00651Y00198*
X0065Y00196*
X0065Y00195*
X0065Y00194*
X0065Y00193*
X00649Y00192*
X00649Y00191*
X00649Y0019*
X00648Y0019*
X00648Y00189*
X00648Y00189*
X00648Y00189*
X00647Y00188*
X00647Y00188*
X00647Y00188*
X00646Y00187*
X00645Y00186*
X00644Y00186*
X00643Y00186*
X00643Y00185*
X00642Y00185*
X00641Y00185*
X0064Y00184*
X0064Y00184*
X00639Y00184*
X00639Y00184*
X00638Y00184*
X00638Y00184*
X00638*
X00636Y00184*
X00635Y00184*
X00634Y00185*
X00633Y00185*
X00633Y00185*
X00633Y00185*
X00632Y00185*
X00632Y00185*
X00632Y00186*
X00632Y00186*
X00632Y00186*
X00632*
X00631Y00186*
X0063Y00187*
X00629Y00188*
X00628Y00189*
X00628Y00189*
X00628Y0019*
X00628Y0019*
X00627Y0019*
X00627Y0019*
X00627Y0019*
Y0019*
X00627Y00192*
X00626Y00193*
X00626Y00194*
X00626Y00195*
X00626Y00195*
X00626Y00196*
X00626Y00196*
Y00197*
X00626Y00197*
Y00197*
Y00197*
Y00197*
X00626Y00198*
X00626Y00199*
X00626Y002*
X00626Y00201*
X00626Y00202*
X00627Y00202*
X00627Y00203*
X00627Y00204*
X00628Y00204*
X00628Y00205*
X00628Y00205*
X00628Y00206*
X00629Y00206*
X00629Y00206*
X00629Y00206*
X00629Y00206*
X0063Y00207*
X0063Y00207*
X00631Y00208*
X00632Y00208*
X00632Y00209*
X00633Y00209*
X00634Y00209*
X00634Y00209*
X00635Y00209*
X00635Y00209*
X00636Y0021*
X00636Y0021*
X00637*
X00637Y0021*
X00637*
X00638Y0021*
X00639Y00209*
X0064Y00209*
X00641Y00209*
X00641Y00209*
X00642Y00209*
X00642Y00209*
X00642Y00208*
X00642Y00208*
X00642Y00208*
X00642*
X00643Y00208*
X00644Y00207*
X00645Y00207*
X00645Y00206*
X00646Y00205*
X00646Y00205*
X00646Y00205*
X00646Y00205*
X00646Y00205*
Y00205*
Y00205*
Y00205*
X00646Y00206*
X00646Y00207*
X00646Y00207*
X00646Y00208*
X00646Y00209*
X00646Y0021*
X00646Y00211*
X00646Y00211*
X00646Y00212*
X00645Y00212*
X00645Y00212*
X00645Y00213*
X00645Y00213*
X00645Y00213*
X00645Y00213*
Y00213*
X00644Y00214*
X00644Y00215*
X00643Y00216*
X00643Y00217*
X00642Y00217*
X00642Y00218*
X00642Y00218*
X00642Y00218*
X00642Y00218*
X00642*
X00641Y00219*
X0064Y00219*
X0064Y00219*
X00639Y00219*
X00638Y00219*
X00638Y00219*
X00638*
X00637Y00219*
X00637Y00219*
X00636Y00219*
X00635Y00219*
X00634Y00218*
X00634Y00218*
X00633Y00218*
X00633Y00218*
X00633Y00217*
X00633Y00217*
X00633Y00217*
X00632Y00217*
X00632Y00216*
X00632Y00216*
X00631Y00215*
X00631Y00214*
X00631Y00214*
X00631Y00214*
X00631Y00213*
X00631Y00213*
Y00213*
X00626Y00214*
X00626Y00215*
X00627Y00215*
X00627Y00216*
X00627Y00217*
X00627Y00217*
X00628Y00218*
X00628Y00218*
X00628Y00219*
X00629Y00219*
X00629Y0022*
X00629Y0022*
X00629Y0022*
X00629Y0022*
X0063Y00221*
X0063Y00221*
X0063Y00221*
X0063Y00221*
X00631Y00222*
X00632Y00222*
X00632Y00222*
X00633Y00222*
X00633Y00223*
X00635Y00223*
X00635Y00223*
X00636Y00223*
X00636Y00223*
X00636Y00223*
X00637Y00223*
X00637*
X00638Y00223*
G37*
G36*
X00688Y00185D02*
X00682D01*
Y00202*
X00676*
X00675Y00202*
X00675Y00202*
X00674*
X00674Y00202*
X00674Y00202*
X00674Y00202*
X00674*
X00673Y00201*
X00673Y00201*
X00673Y00201*
X00672Y00201*
X00672Y00201*
X00672Y00201*
X00672Y00201*
X00671Y00201*
X00671Y002*
X00671Y002*
X0067Y00199*
X0067Y00199*
X00669Y00199*
X00669Y00198*
X00669Y00198*
X00669Y00198*
Y00198*
X00668Y00197*
X00668Y00196*
X00667Y00196*
X00667Y00195*
X00666Y00194*
X00666Y00194*
X00666Y00193*
X00665Y00193*
X00665Y00193*
X00665Y00193*
X00665Y00193*
X0066Y00185*
X00654*
X0066Y00195*
X00661Y00196*
X00662Y00197*
X00663Y00198*
X00663Y00199*
X00664Y00199*
X00664Y002*
X00664Y002*
X00664Y002*
X00665Y002*
X00665Y002*
X00665Y002*
X00665Y00201*
X00666Y00201*
X00666Y00201*
X00667Y00202*
X00667Y00202*
X00667Y00202*
X00668Y00202*
X00668Y00202*
X00668*
X00667Y00202*
X00666Y00203*
X00665Y00203*
X00664Y00203*
X00663Y00203*
X00663Y00204*
X00662Y00204*
X00662Y00204*
X00661Y00205*
X00661Y00205*
X0066Y00205*
X0066Y00205*
X0066Y00205*
X0066Y00206*
X0066Y00206*
X0066Y00206*
X00659Y00206*
X00659Y00207*
X00658Y00207*
X00658Y00208*
X00658Y00209*
X00658Y00209*
X00657Y0021*
X00657Y00211*
X00657Y00211*
X00657Y00212*
X00657Y00212*
X00657Y00212*
Y00212*
Y00213*
Y00213*
X00657Y00214*
X00657Y00215*
X00657Y00216*
X00658Y00217*
X00658Y00217*
X00658Y00217*
X00658Y00218*
X00658Y00218*
X00658Y00218*
X00658Y00218*
X00658Y00218*
Y00218*
X00659Y00219*
X0066Y0022*
X00661Y00221*
X00661Y00221*
X00662Y00222*
X00662Y00222*
X00663Y00222*
X00663Y00222*
X00663Y00222*
X00663*
X00663Y00222*
X00664Y00222*
X00665Y00223*
X00666Y00223*
X00668Y00223*
X00668Y00223*
X00669Y00223*
X00669*
X0067Y00223*
X00688*
Y00185*
G37*
G36*
X0065Y01048D02*
X00646Y01048D01*
X00645Y01048*
X00645Y01049*
X00644Y01049*
X00644Y0105*
X00643Y0105*
X00643Y0105*
X00643Y0105*
X00643Y0105*
X00642Y01051*
X00641Y01051*
X00641Y01051*
X0064Y01051*
X0064Y01051*
X00639Y01051*
X00639*
X00638Y01051*
X00637Y01051*
X00637Y01051*
X00636Y01051*
X00635Y01051*
X00635Y01051*
X00634Y0105*
X00634Y0105*
X00634Y0105*
X00633Y0105*
X00633Y01049*
X00633Y01049*
X00633Y01049*
X00633Y01049*
X00633Y01049*
X00632Y01049*
X00632Y01048*
X00632Y01048*
X00631Y01047*
X00631Y01046*
X00631Y01045*
X00631Y01045*
X00631Y01044*
X00631Y01044*
X00631Y01043*
X00631Y01043*
Y01043*
Y01043*
Y01043*
X00631Y01042*
X00631Y01041*
X00631Y01041*
X00631Y0104*
X00631Y01039*
X00631Y01039*
X00631Y01038*
X00632Y01038*
X00632Y01037*
X00632Y01037*
X00632Y01037*
X00633Y01036*
X00633Y01036*
X00633Y01036*
X00633Y01036*
X00633Y01036*
X00633Y01035*
X00634Y01035*
X00634Y01035*
X00635Y01034*
X00635Y01034*
X00636Y01034*
X00637Y01034*
X00637Y01033*
X00638Y01033*
X00638Y01033*
X00638Y01033*
X00639*
X00639Y01033*
X0064Y01033*
X00641Y01034*
X00641Y01034*
X00642Y01034*
X00643Y01035*
X00643Y01035*
X00643Y01035*
X00643Y01035*
X00643Y01035*
X00643*
X00644Y01036*
X00644Y01036*
X00645Y01037*
X00645Y01038*
X00645Y01039*
X00646Y01039*
X00646Y0104*
X00646Y0104*
X00646Y0104*
X00646Y0104*
X00646Y01041*
Y01041*
X00651Y0104*
X00651Y01039*
X00651Y01038*
X0065Y01038*
X0065Y01037*
X0065Y01036*
X0065Y01036*
X00649Y01035*
X00649Y01034*
X00649Y01034*
X00648Y01034*
X00648Y01033*
X00648Y01033*
X00647Y01033*
X00647Y01033*
X00647Y01032*
X00647Y01032*
X00647Y01032*
X00646Y01031*
X00645Y01031*
X00644Y01031*
X00644Y0103*
X00643Y0103*
X00642Y0103*
X00642Y0103*
X00641Y0103*
X0064Y0103*
X0064Y0103*
X0064Y0103*
X00639Y01029*
X00639*
X00637Y0103*
X00636Y0103*
X00635Y0103*
X00634Y0103*
X00633Y01031*
X00633Y01031*
X00632Y01031*
X00631Y01032*
X00631Y01032*
X0063Y01033*
X0063Y01033*
X00629Y01033*
X00629Y01034*
X00629Y01034*
X00629Y01034*
X00629Y01034*
X00628Y01035*
X00628Y01036*
X00627Y01036*
X00627Y01037*
X00627Y01038*
X00626Y01039*
X00626Y01039*
X00626Y0104*
X00626Y01041*
X00626Y01041*
X00626Y01042*
X00626Y01042*
X00626Y01043*
Y01043*
Y01043*
Y01043*
X00626Y01044*
X00626Y01045*
X00626Y01046*
X00626Y01047*
X00626Y01048*
X00627Y01048*
X00627Y01049*
X00627Y0105*
X00628Y0105*
X00628Y01051*
X00628Y01051*
X00628Y01052*
X00629Y01052*
X00629Y01052*
X00629Y01052*
X00629Y01052*
X0063Y01053*
X0063Y01053*
X00631Y01054*
X00632Y01054*
X00633Y01054*
X00633Y01055*
X00634Y01055*
X00635Y01055*
X00635Y01055*
X00636Y01055*
X00636Y01055*
X00637Y01056*
X00637*
X00637Y01056*
X00637*
X00638Y01056*
X00639Y01056*
X0064Y01055*
X0064Y01055*
X00641Y01055*
X00642Y01055*
X00642Y01054*
X00643Y01054*
X00643Y01054*
X00644Y01054*
X00644Y01054*
X00644Y01053*
X00645Y01053*
X00645Y01053*
X00645Y01053*
X00643Y01064*
X00627*
Y01068*
X00646*
X0065Y01048*
G37*
G36*
X00688Y0103D02*
X00683D01*
Y01047*
X00676*
X00676Y01047*
X00675Y01047*
X00675*
X00674Y01047*
X00674Y01047*
X00674Y01047*
X00674*
X00673Y01047*
X00673Y01047*
X00673Y01047*
X00672Y01046*
X00672Y01046*
X00672Y01046*
X00672Y01046*
X00672Y01046*
X00671Y01046*
X00671Y01045*
X0067Y01045*
X0067Y01044*
X0067Y01044*
X00669Y01044*
X00669Y01043*
X00669Y01043*
Y01043*
X00668Y01043*
X00668Y01042*
X00667Y01041*
X00667Y0104*
X00666Y01039*
X00666Y01039*
X00666Y01039*
X00666Y01038*
X00665Y01038*
X00665Y01038*
X00665Y01038*
X0066Y0103*
X00654*
X00661Y01041*
X00661Y01042*
X00662Y01043*
X00663Y01044*
X00663Y01044*
X00664Y01045*
X00664Y01045*
X00664Y01045*
X00665Y01045*
X00665Y01046*
X00665Y01046*
X00665Y01046*
X00665Y01046*
X00666Y01046*
X00666Y01047*
X00667Y01047*
X00667Y01047*
X00668Y01047*
X00668Y01048*
X00668Y01048*
X00668*
X00667Y01048*
X00666Y01048*
X00665Y01048*
X00664Y01048*
X00664Y01049*
X00663Y01049*
X00662Y01049*
X00662Y0105*
X00661Y0105*
X00661Y0105*
X0066Y0105*
X0066Y01051*
X0066Y01051*
X0066Y01051*
X0066Y01051*
X0066Y01051*
X00659Y01052*
X00659Y01052*
X00658Y01053*
X00658Y01053*
X00658Y01054*
X00658Y01055*
X00657Y01056*
X00657Y01056*
X00657Y01057*
X00657Y01057*
X00657Y01057*
X00657Y01058*
Y01058*
Y01058*
Y01058*
X00657Y01059*
X00657Y0106*
X00658Y01061*
X00658Y01062*
X00658Y01062*
X00658Y01063*
X00658Y01063*
X00658Y01063*
X00658Y01064*
X00659Y01064*
X00659Y01064*
Y01064*
X00659Y01065*
X0066Y01065*
X00661Y01066*
X00661Y01067*
X00662Y01067*
X00662Y01067*
X00663Y01067*
X00663Y01067*
X00663Y01067*
X00663*
X00663Y01068*
X00664Y01068*
X00665Y01068*
X00667Y01068*
X00668Y01068*
X00668Y01068*
X00669Y01068*
X00669*
X0067Y01069*
X00688*
Y0103*
G37*
%LNdeck-2*%
%LPC*%
G36*
X00342Y01125D02*
X00328D01*
Y01114*
X00328Y01114*
Y01113*
X00328Y01113*
X00328Y01112*
X00328Y01112*
Y01112*
X00328Y01111*
X00328Y01111*
X00328Y01111*
Y01111*
X00328Y0111*
X00329Y01109*
X00329Y01109*
X0033Y01108*
X0033Y01108*
X0033Y01108*
X0033Y01108*
X0033Y01108*
X00331Y01107*
X00332Y01107*
X00332Y01107*
X00333Y01106*
X00334Y01106*
X00334Y01106*
X00334*
X00334*
X00334*
X00335*
X00335Y01106*
X00336Y01106*
X00337Y01107*
X00338Y01107*
X00338Y01107*
X00339Y01108*
X00339Y01108*
X00339Y01108*
X0034Y01108*
X0034Y01108*
X0034Y01108*
X0034Y01109*
X0034Y01109*
X00341Y0111*
X00341Y0111*
X00341Y01112*
X00341Y01113*
X00341Y01113*
X00341Y01114*
X00341Y01114*
Y01115*
X00342Y01115*
Y01125*
G37*
G36*
X0082Y01099D02*
X00819D01*
X00819Y01099*
X00818Y01099*
X00818Y01099*
X00817Y01098*
X00817Y01098*
X00816Y01098*
X00816Y01098*
X00816Y01097*
X00815Y01097*
X00815Y01097*
X00815Y01097*
X00815Y01097*
X00815Y01097*
X00815Y01096*
X00815Y01096*
X00814Y01096*
X00814Y01095*
X00814Y01094*
X00813Y01094*
X00813Y01093*
X00813Y01093*
X00813Y01093*
X00813Y01092*
X00813Y01092*
Y01092*
Y01092*
X00826*
X00826Y01093*
X00826Y01093*
X00826Y01094*
X00825Y01095*
X00825Y01095*
X00825Y01096*
X00825Y01096*
X00825Y01096*
X00824Y01096*
X00824Y01097*
X00824Y01097*
X00824Y01097*
X00824Y01097*
X00824Y01097*
X00824Y01097*
X00823Y01097*
X00823Y01098*
X00823Y01098*
X00822Y01098*
X00821Y01098*
X0082Y01099*
X0082Y01099*
X0082Y01099*
X0082Y01099*
G37*
G36*
X00748Y01099D02*
X00747D01*
X00747Y01099*
X00746Y01099*
X00746Y01098*
X00745Y01098*
X00745Y01098*
X00744Y01098*
X00744Y01097*
X00743Y01097*
X00743Y01097*
X00743Y01097*
X00743Y01097*
X00743Y01097*
X00743Y01096*
X00743Y01096*
X00742Y01096*
X00742Y01096*
X00742Y01095*
X00741Y01095*
X00741Y01094*
X00741Y01093*
X00741Y01092*
X00741Y01092*
X00741Y01091*
X00741Y01091*
X00741Y01091*
X00741Y0109*
Y0109*
Y0109*
Y0109*
X00741Y01089*
X00741Y01088*
X00741Y01088*
X00741Y01087*
X00741Y01086*
X00741Y01086*
X00741Y01085*
X00742Y01085*
X00742Y01084*
X00742Y01084*
X00742Y01084*
X00742Y01084*
X00742Y01083*
X00742Y01083*
X00743Y01083*
X00743Y01083*
X00743Y01083*
X00743Y01082*
X00744Y01082*
X00744Y01082*
X00745Y01082*
X00745Y01081*
X00746Y01081*
X00746Y01081*
X00747Y01081*
X00747Y01081*
X00747Y01081*
X00747*
X00748Y01081*
X00748Y01081*
X00749Y01081*
X00749Y01081*
X0075Y01082*
X00751Y01082*
X00751Y01082*
X00752Y01082*
X00752Y01083*
X00752Y01083*
X00752Y01083*
X00752Y01083*
X00752Y01083*
X00752Y01083*
X00753Y01084*
X00753Y01084*
X00753Y01085*
X00753Y01085*
X00754Y01086*
X00754Y01087*
X00754Y01088*
X00754Y01088*
X00754Y01089*
X00754Y01089*
X00754Y01089*
Y0109*
Y0109*
Y0109*
X00754Y01091*
X00754Y01091*
X00754Y01092*
X00754Y01093*
X00754Y01093*
X00754Y01094*
X00753Y01094*
X00753Y01095*
X00753Y01095*
X00753Y01096*
X00753Y01096*
X00753Y01096*
X00752Y01096*
X00752Y01096*
X00752Y01096*
X00752Y01096*
X00752Y01097*
X00752Y01097*
X00751Y01097*
X00751Y01098*
X0075Y01098*
X0075Y01098*
X00749Y01098*
X00748Y01099*
X00748Y01099*
X00748Y01099*
X00748Y01099*
G37*
G36*
X00632Y00276D02*
X00621D01*
X00621Y00276*
X0062*
X0062Y00276*
X00619Y00276*
X00619Y00276*
X00619*
X00618Y00276*
X00618Y00276*
X00618Y00276*
X00618*
X00617Y00276*
X00616Y00275*
X00616Y00275*
X00615Y00274*
X00615Y00274*
X00615Y00274*
X00614Y00274*
X00614Y00274*
X00614Y00273*
X00614Y00272*
X00613Y00271*
X00613Y00271*
X00613Y0027*
X00613Y0027*
Y0027*
Y0027*
Y00269*
Y00269*
X00613Y00269*
X00613Y00268*
X00613Y00267*
X00614Y00266*
X00614Y00266*
X00614Y00265*
X00615Y00265*
X00615Y00264*
X00615Y00264*
X00615Y00264*
X00615Y00264*
X00616Y00264*
X00616Y00264*
X00617Y00263*
X00617Y00263*
X00618Y00263*
X00619Y00263*
X0062Y00263*
X00621Y00263*
X00621Y00262*
X00621*
X00622Y00262*
X00632*
Y00276*
G37*
G36*
X00518Y0035D02*
X00507Y00346D01*
X00505Y00345*
X00504Y00345*
X00503Y00345*
X00502Y00344*
X00502Y00344*
X00501Y00344*
X00501Y00344*
X005Y00344*
X005Y00344*
X005Y00344*
X00499Y00344*
X00499Y00344*
X00499*
X005Y00343*
X00502Y00343*
X00503Y00343*
X00504Y00342*
X00505Y00342*
X00506Y00342*
X00506Y00342*
X00506Y00341*
X00507Y00341*
X00507Y00341*
X00507Y00341*
X00507*
X00518Y00337*
Y0035*
G37*
G36*
X00529Y0028D02*
X005D01*
Y00271*
X005Y00271*
X005Y0027*
X005Y00269*
X005Y00269*
X005Y00268*
X005Y00268*
X005Y00267*
X005Y00267*
X005Y00267*
X005Y00266*
X005Y00266*
X005Y00266*
X005Y00266*
X00501Y00266*
Y00266*
X00501Y00265*
X00501Y00265*
X00502Y00264*
X00502Y00263*
X00503Y00262*
X00504Y00262*
X00504Y00261*
X00504Y00261*
X00505Y00261*
X00505Y00261*
X00505Y00261*
X00505Y00261*
X00506Y00261*
X00506Y0026*
X00508Y0026*
X00509Y00259*
X00511Y00259*
X00511Y00259*
X00512Y00259*
X00513Y00259*
X00513*
X00514Y00259*
X00514*
X00514*
X00514*
X00516Y00259*
X00517Y00259*
X00518Y00259*
X00518Y00259*
X00519Y00259*
X00519Y00259*
X0052Y0026*
X0052Y0026*
X00521Y0026*
X00521Y0026*
X00521Y0026*
X00521Y0026*
X00521Y0026*
X00522*
X00523Y0026*
X00524Y00261*
X00524Y00261*
X00525Y00262*
X00526Y00262*
X00526Y00262*
X00526Y00263*
X00526Y00263*
X00526Y00263*
X00527Y00263*
X00527Y00264*
X00528Y00264*
X00528Y00265*
X00528Y00265*
X00528Y00266*
X00528Y00266*
X00528Y00266*
X00528Y00266*
Y00266*
X00529Y00267*
X00529Y00268*
X00529Y00269*
X00529Y0027*
X00529Y00271*
Y00271*
X00529Y00271*
Y0028*
G37*
G36*
Y00242D02*
X005D01*
Y00233*
X005Y00232*
X005Y00231*
X005Y00231*
X005Y0023*
X005Y00229*
X005Y00229*
X005Y00229*
X005Y00228*
X005Y00228*
X005Y00228*
X005Y00227*
X005Y00227*
X005Y00227*
X00501Y00227*
Y00227*
X00501Y00226*
X00501Y00226*
X00502Y00225*
X00502Y00224*
X00503Y00223*
X00504Y00223*
X00504Y00223*
X00504Y00223*
X00505Y00222*
X00505Y00222*
X00505Y00222*
X00505Y00222*
X00506Y00222*
X00506Y00221*
X00508Y00221*
X00509Y00221*
X00511Y0022*
X00511Y0022*
X00512Y0022*
X00513Y0022*
X00513*
X00514Y0022*
X00514*
X00514*
X00514*
X00516Y0022*
X00517Y0022*
X00518Y0022*
X00518Y0022*
X00519Y00221*
X00519Y00221*
X0052Y00221*
X0052Y00221*
X00521Y00221*
X00521Y00221*
X00521Y00221*
X00521Y00221*
X00521Y00221*
X00522*
X00523Y00222*
X00524Y00222*
X00524Y00223*
X00525Y00223*
X00526Y00223*
X00526Y00224*
X00526Y00224*
X00526Y00224*
X00526Y00224*
X00527Y00224*
X00527Y00225*
X00528Y00226*
X00528Y00226*
X00528Y00227*
X00528Y00227*
X00528Y00227*
X00528Y00227*
X00528Y00227*
Y00227*
X00529Y00228*
X00529Y00229*
X00529Y0023*
X00529Y00231*
X00529Y00232*
Y00232*
X00529Y00233*
Y00242*
G37*
G36*
X00473Y0057D02*
X00462D01*
X00461Y0057*
X00461*
X0046Y00569*
X0046Y00569*
X0046Y00569*
X00459*
X00459Y00569*
X00459Y00569*
X00458Y00569*
X00458*
X00458Y00569*
X00457Y00569*
X00456Y00568*
X00456Y00568*
X00456Y00568*
X00455Y00567*
X00455Y00567*
X00455Y00567*
X00455Y00566*
X00454Y00566*
X00454Y00565*
X00454Y00564*
X00454Y00564*
X00454Y00563*
Y00563*
Y00563*
Y00563*
Y00563*
X00454Y00562*
X00454Y00562*
X00454Y00561*
X00455Y0056*
X00455Y00559*
X00455Y00558*
X00456Y00558*
X00456Y00558*
X00456Y00558*
X00456Y00558*
X00456Y00558*
X00456Y00557*
X00457Y00557*
X00457Y00557*
X00458Y00557*
X00459Y00556*
X0046Y00556*
X00461Y00556*
X00461Y00556*
X00462Y00556*
X00462*
X00463Y00556*
X00473*
Y0057*
G37*
G36*
X0036Y00563D02*
X00359D01*
X00359*
X00359*
X00358Y00563*
X00356Y00563*
X00355Y00563*
X00355Y00563*
X00354Y00563*
X00354Y00563*
X00353Y00563*
X00353Y00563*
X00353Y00563*
X00352Y00562*
X00352Y00562*
X00352Y00562*
X00352Y00562*
X00352*
X00351Y00562*
X0035Y00561*
X00349Y00561*
X00348Y00561*
X00348Y0056*
X00347Y0056*
X00347Y0056*
X00347Y0056*
X00347Y0056*
X00346Y00559*
X00346Y00558*
X00346Y00558*
X00345Y00557*
X00345Y00557*
X00345Y00556*
X00345Y00556*
X00345Y00556*
X00345Y00556*
Y00556*
X00345Y00555*
X00344Y00554*
X00344Y00553*
X00344Y00552*
X00344Y00551*
Y00551*
X00344Y00551*
Y00542*
X00373*
Y00551*
X00373Y00552*
X00373Y00552*
X00373Y00553*
X00373Y00553*
X00373Y00554*
X00373Y00555*
X00373Y00555*
X00373Y00555*
X00373Y00556*
X00373Y00556*
X00373Y00556*
X00373Y00556*
X00373Y00556*
X00373Y00556*
Y00557*
X00372Y00557*
X00372Y00558*
X00372Y00558*
X00371Y00559*
X0037Y0056*
X00369Y00561*
X00369Y00561*
X00369Y00561*
X00369Y00561*
X00368Y00561*
X00368Y00561*
X00368Y00561*
X00368Y00562*
X00367Y00562*
X00366Y00563*
X00364Y00563*
X00363Y00563*
X00362Y00563*
X00361Y00563*
X00361Y00563*
X0036*
X0036Y00563*
G37*
G36*
Y00525D02*
X00359D01*
X00359*
X00359*
X00358Y00525*
X00356Y00524*
X00355Y00524*
X00355Y00524*
X00354Y00524*
X00354Y00524*
X00353Y00524*
X00353Y00524*
X00353Y00524*
X00352Y00524*
X00352Y00524*
X00352Y00524*
X00352Y00524*
X00352*
X00351Y00523*
X0035Y00523*
X00349Y00522*
X00348Y00522*
X00348Y00521*
X00347Y00521*
X00347Y00521*
X00347Y00521*
X00347Y00521*
X00346Y0052*
X00346Y0052*
X00346Y00519*
X00345Y00519*
X00345Y00518*
X00345Y00518*
X00345Y00518*
X00345Y00517*
X00345Y00517*
Y00517*
X00345Y00516*
X00344Y00515*
X00344Y00514*
X00344Y00514*
X00344Y00513*
Y00512*
X00344Y00512*
Y00503*
X00373*
Y00512*
X00373Y00513*
X00373Y00513*
X00373Y00514*
X00373Y00515*
X00373Y00515*
X00373Y00516*
X00373Y00516*
X00373Y00517*
X00373Y00517*
X00373Y00517*
X00373Y00517*
X00373Y00518*
X00373Y00518*
X00373Y00518*
Y00518*
X00372Y00518*
X00372Y00519*
X00372Y0052*
X00371Y00521*
X0037Y00521*
X00369Y00522*
X00369Y00522*
X00369Y00522*
X00369Y00522*
X00368Y00523*
X00368Y00523*
X00368Y00523*
X00368Y00523*
X00367Y00523*
X00366Y00524*
X00364Y00524*
X00363Y00524*
X00362Y00524*
X00361Y00525*
X00361Y00525*
X0036*
X0036Y00525*
G37*
G36*
X00847Y00081D02*
X00834D01*
Y0007*
X00834Y00069*
Y00069*
X00834Y00069*
X00834Y00068*
X00834Y00068*
Y00067*
X00834Y00067*
X00834Y00067*
X00834Y00066*
Y00066*
X00834Y00066*
X00834Y00065*
X00835Y00065*
X00835Y00064*
X00836Y00064*
X00836Y00063*
X00836Y00063*
X00836Y00063*
X00837Y00063*
X00838Y00062*
X00838Y00062*
X00839Y00062*
X00839Y00062*
X0084Y00062*
X0084*
X0084*
X0084*
X0084*
X00841Y00062*
X00841Y00062*
X00842Y00062*
X00843Y00063*
X00844Y00063*
X00845Y00063*
X00845Y00064*
X00845Y00064*
X00845Y00064*
X00845Y00064*
X00845Y00064*
X00846Y00064*
X00846Y00065*
X00846Y00065*
X00846Y00066*
X00847Y00067*
X00847Y00068*
X00847Y00069*
X00847Y00069*
X00847Y0007*
Y0007*
X00847Y00071*
Y00081*
G37*
G36*
X00854Y00049D02*
X00837Y00037D01*
X00854*
Y00049*
G37*
G36*
X00305Y00234D02*
X00305D01*
X00305*
X00305*
X00304Y00234*
X00303Y00234*
X00303Y00233*
X00302Y00233*
X00302Y00233*
X00301Y00233*
X00301Y00233*
X00301Y00233*
X00301Y00232*
X003Y00232*
X003Y00231*
X003Y00231*
X003Y0023*
X00299Y0023*
X00299Y0023*
X00299Y0023*
Y0023*
X00299Y0023*
X00299Y00229*
X00299Y00228*
X00299Y00228*
X00299Y00227*
Y00226*
X00299Y00226*
Y00217*
X0031*
Y00225*
X0031Y00226*
Y00226*
X0031Y00227*
X0031Y00228*
X0031Y00228*
X0031Y00228*
X0031Y00229*
X0031Y00229*
X0031Y00229*
X0031Y0023*
X0031Y0023*
X0031Y0023*
Y0023*
X0031Y0023*
X0031Y00231*
X00309Y00231*
X00309Y00232*
X00309Y00232*
X00308Y00232*
X00308Y00233*
X00308Y00233*
X00308Y00233*
X00307Y00233*
X00307Y00233*
X00306Y00233*
X00306Y00234*
X00305Y00234*
X00305Y00234*
G37*
G36*
X00288Y00235D02*
X00288D01*
X00288*
X00288*
X00288*
X00287Y00235*
X00286Y00235*
X00286Y00235*
X00285Y00235*
X00285Y00235*
X00285Y00235*
X00285Y00235*
X00284Y00235*
X00284Y00234*
X00284Y00234*
X00283Y00234*
X00283Y00233*
X00283Y00233*
X00282Y00233*
X00282Y00233*
X00282Y00233*
X00282Y00232*
X00282Y00232*
X00282Y00231*
X00282Y00231*
X00281Y0023*
X00281Y0023*
X00281Y0023*
Y0023*
X00281Y00229*
X00281Y00229*
X00281Y00228*
Y00228*
X00281Y00227*
Y00217*
X00294*
Y00226*
X00294Y00227*
X00294Y00228*
X00294Y00228*
X00294Y00229*
X00294Y00229*
X00294Y0023*
X00294Y0023*
X00294Y0023*
X00294Y00231*
X00294Y00231*
X00294Y00231*
X00294Y00231*
X00294Y00231*
Y00231*
X00293Y00232*
X00293Y00232*
X00293Y00233*
X00292Y00233*
X00292Y00234*
X00292Y00234*
X00292Y00234*
X00291Y00234*
X00291Y00235*
X0029Y00235*
X0029Y00235*
X00289Y00235*
X00288Y00235*
X00288Y00235*
G37*
G36*
X00291Y00153D02*
X00291D01*
X00291*
X00291*
X0029Y00153*
X00289Y00153*
X00288Y00153*
X00287Y00153*
X00286Y00153*
X00286Y00152*
X00285Y00152*
X00285Y00152*
X00284Y00152*
X00284Y00152*
X00283Y00151*
X00283Y00151*
X00283Y00151*
X00283Y00151*
X00283Y00151*
X00283Y00151*
X00282Y0015*
X00282Y0015*
X00281Y00149*
X00281Y00149*
X00281Y00148*
X00281Y00148*
X0028Y00147*
X0028Y00146*
X0028Y00146*
X0028Y00146*
X0028Y00145*
Y00145*
X0028Y00144*
X0028Y00144*
X0028Y00143*
X0028Y00143*
X00281Y00142*
X00281Y00141*
X00281Y0014*
X00282Y0014*
X00282Y0014*
X00282Y0014*
X00282Y00139*
X00282Y00139*
X00282Y00139*
X00282Y00139*
X00283Y00139*
X00284Y00138*
X00284Y00138*
X00285Y00138*
X00286Y00137*
X00288Y00137*
X00288Y00137*
X00289Y00137*
X00289Y00137*
X0029Y00137*
X0029Y00137*
X0029*
X0029*
X00291*
X00291Y00137*
X00292Y00137*
X00293Y00137*
X00294Y00137*
X00295Y00137*
X00295Y00138*
X00296Y00138*
X00297Y00138*
X00297Y00138*
X00297Y00138*
X00298Y00139*
X00298Y00139*
X00298Y00139*
X00298Y00139*
X00298Y00139*
X00299Y00139*
X00299Y0014*
X00299Y0014*
X003Y00141*
X003Y00141*
X003Y00142*
X00301Y00142*
X00301Y00143*
X00301Y00144*
X00301Y00144*
X00301Y00144*
X00301Y00145*
Y00145*
X00301Y00146*
X00301Y00146*
X00301Y00147*
X00301Y00147*
X003Y00148*
X003Y00149*
X003Y0015*
X00299Y0015*
X00299Y0015*
X00299Y0015*
X00299Y00151*
X00299Y00151*
X00299Y00151*
X00299Y00151*
X00298Y00151*
X00297Y00152*
X00297Y00152*
X00296Y00152*
X00296Y00152*
X00295Y00153*
X00294Y00153*
X00293Y00153*
X00292Y00153*
X00292Y00153*
X00292Y00153*
X00291Y00153*
G37*
G36*
X00293Y00066D02*
X00293D01*
X00293*
Y00051*
X00294Y00051*
X00295Y00051*
X00296Y00051*
X00297Y00052*
X00297Y00052*
X00297Y00052*
X00298Y00052*
X00298Y00052*
X00298Y00053*
X00299Y00053*
X00299Y00053*
X00299Y00053*
X00299Y00053*
X00299Y00053*
X00299Y00054*
X003Y00054*
X003Y00054*
X003Y00055*
X00301Y00056*
X00301Y00057*
X00301Y00058*
X00301Y00058*
X00301Y00058*
X00301Y00058*
Y00059*
X00301Y00059*
X00301Y0006*
X00301Y00061*
X00301Y00061*
X003Y00062*
X003Y00063*
X003Y00063*
X003Y00063*
X00299Y00064*
X00299Y00064*
X00299Y00064*
X00299Y00064*
X00299Y00064*
X00299Y00064*
X00298Y00065*
X00298Y00065*
X00297Y00065*
X00296Y00066*
X00295Y00066*
X00294Y00066*
X00294Y00066*
X00294Y00066*
X00294Y00066*
X00293Y00066*
G37*
G36*
X00918Y0102D02*
X00909D01*
X00909Y0102*
X00908Y0102*
X00907Y0102*
X00907Y0102*
X00906Y0102*
X00906Y01019*
X00905Y01019*
X00905Y01019*
X00905Y01019*
X00904Y01019*
X00904Y01019*
X00904Y01019*
X00904Y01019*
X00904Y01019*
X00904*
X00903Y01019*
X00903Y01019*
X00902Y01018*
X00901Y01017*
X009Y01016*
X009Y01016*
X00899Y01015*
X00899Y01015*
X00899Y01015*
X00899Y01015*
X00899Y01015*
X00899Y01015*
X00899Y01014*
X00898Y01013*
X00898Y01012*
X00897Y0101*
X00897Y01009*
X00897Y01008*
X00897Y01008*
X00897Y01007*
Y01006*
X00897Y01006*
Y01006*
Y01006*
Y01005*
X00897Y01004*
X00897Y01002*
X00897Y01002*
X00897Y01001*
X00897Y01001*
X00897Y01*
X00897Y01*
X00898Y00999*
X00898Y00999*
X00898Y00999*
X00898Y00998*
X00898Y00998*
X00898Y00998*
Y00998*
X00898Y00997*
X00899Y00996*
X00899Y00995*
X009Y00994*
X009Y00994*
X009Y00993*
X00901Y00993*
X00901Y00993*
X00901Y00993*
X00901Y00993*
X00902Y00992*
X00902Y00992*
X00903Y00992*
X00903Y00991*
X00904Y00991*
X00904Y00991*
X00904Y00991*
X00904Y00991*
X00904*
X00905Y00991*
X00906Y00991*
X00907Y00991*
X00908Y00991*
X00909Y00991*
X00909*
X00909Y00991*
X00918*
Y0102*
G37*
G36*
X008Y00218D02*
X00791D01*
X0079Y00218*
X0079Y00218*
X00789Y00218*
X00788Y00218*
X00788Y00218*
X00787Y00218*
X00787Y00218*
X00787Y00218*
X00786Y00218*
X00786Y00218*
X00786Y00218*
X00786Y00218*
X00785Y00218*
X00785Y00218*
X00785*
X00785Y00217*
X00784Y00217*
X00783Y00216*
X00783Y00216*
X00782Y00215*
X00781Y00214*
X00781Y00214*
X00781Y00214*
X00781Y00213*
X00781Y00213*
X00781Y00213*
X00781Y00213*
X0078Y00213*
X0078Y00212*
X00779Y0021*
X00779Y00209*
X00779Y00207*
X00779Y00207*
X00779Y00206*
X00779Y00205*
Y00205*
X00779Y00205*
Y00204*
Y00204*
Y00204*
X00779Y00202*
X00779Y00201*
X00779Y002*
X00779Y002*
X00779Y00199*
X00779Y00199*
X00779Y00198*
X00779Y00198*
X00779Y00197*
X00779Y00197*
X0078Y00197*
X0078Y00197*
X0078Y00197*
Y00197*
X0078Y00195*
X0078Y00194*
X00781Y00194*
X00781Y00193*
X00782Y00192*
X00782Y00192*
X00782Y00192*
X00782Y00192*
X00782Y00192*
X00783Y00191*
X00783Y00191*
X00784Y0019*
X00785Y0019*
X00785Y0019*
X00785Y0019*
X00786Y0019*
X00786Y0019*
X00786Y0019*
X00786*
X00787Y00189*
X00788Y00189*
X00789Y00189*
X0079Y00189*
X0079Y00189*
X00791*
X00791Y00189*
X008*
Y00218*
G37*
G36*
X00921Y0096D02*
X00912D01*
X00911Y0096*
X00911Y0096*
X0091Y0096*
X00909Y0096*
X00909Y0096*
X00908Y0096*
X00908Y0096*
X00908Y0096*
X00907Y0096*
X00907Y0096*
X00907Y0096*
X00907Y0096*
X00906Y0096*
X00906Y0096*
X00906*
X00906Y00959*
X00905Y00959*
X00904Y00958*
X00904Y00958*
X00903Y00957*
X00902Y00956*
X00902Y00956*
X00902Y00956*
X00902Y00956*
X00902Y00955*
X00902Y00955*
X00902Y00955*
X00901Y00955*
X00901Y00954*
X009Y00952*
X009Y00951*
X009Y00949*
X009Y00949*
X009Y00948*
X009Y00948*
Y00947*
X009Y00947*
Y00946*
Y00946*
Y00946*
X009Y00944*
X009Y00943*
X009Y00942*
X009Y00942*
X009Y00941*
X009Y00941*
X009Y0094*
X009Y0094*
X009Y00939*
X009Y00939*
X00901Y00939*
X00901Y00939*
X00901Y00939*
Y00939*
X00901Y00938*
X00901Y00937*
X00902Y00936*
X00902Y00935*
X00903Y00934*
X00903Y00934*
X00903Y00934*
X00903Y00934*
X00903Y00934*
X00904Y00933*
X00904Y00933*
X00905Y00933*
X00906Y00932*
X00906Y00932*
X00906Y00932*
X00907Y00932*
X00907Y00932*
X00907Y00932*
X00907*
X00908Y00932*
X00909Y00931*
X0091Y00931*
X00911Y00931*
X00911Y00931*
X00912*
X00912Y00931*
X00921*
Y0096*
G37*
G36*
X00682Y00924D02*
X0067D01*
X00669Y00924*
X00668Y00924*
X00668Y00924*
X00667Y00923*
X00667Y00923*
X00666Y00923*
X00666Y00923*
X00665Y00923*
X00665Y00923*
X00665Y00923*
X00664Y00922*
X00664Y00922*
X00664Y00922*
X00664Y00922*
X00664Y00922*
X00664Y00922*
X00663Y00921*
X00663Y00921*
X00663Y0092*
X00662Y00919*
X00662Y00919*
X00662Y00918*
Y00918*
X00662Y00918*
Y00918*
Y00918*
Y00918*
X00662Y00917*
X00662Y00916*
X00662Y00916*
X00663Y00915*
X00663Y00915*
X00663Y00915*
X00663Y00914*
X00663Y00914*
X00664Y00914*
X00664Y00913*
X00665Y00913*
X00665Y00912*
X00665Y00912*
X00666Y00912*
X00666Y00912*
X00666Y00912*
X00666*
X00667Y00912*
X00668Y00912*
X00669Y00911*
X0067Y00911*
X0067Y00911*
X00671*
X00671Y00911*
X00682*
Y00924*
G37*
G36*
X00638Y00205D02*
X00638D01*
X00637Y00205*
X00637Y00205*
X00636Y00205*
X00635Y00205*
X00634Y00204*
X00633Y00204*
X00633Y00204*
X00633Y00204*
X00633Y00203*
X00633Y00203*
X00633Y00203*
X00633Y00203*
X00632Y00203*
X00632Y00202*
X00632Y00202*
X00631Y00201*
X00631Y002*
X00631Y00199*
X00631Y00199*
X00631Y00198*
X00631Y00198*
X00631Y00198*
X0063Y00197*
Y00197*
Y00197*
Y00197*
X00631Y00196*
X00631Y00195*
X00631Y00195*
X00631Y00194*
X00631Y00194*
X00631Y00193*
X00631Y00193*
X00632Y00192*
X00632Y00192*
X00632Y00191*
X00632Y00191*
X00632Y00191*
X00632Y00191*
X00633Y0019*
X00633Y0019*
X00633Y0019*
X00633Y0019*
X00633Y0019*
X00634Y00189*
X00634Y00189*
X00635Y00189*
X00635Y00189*
X00636Y00188*
X00637Y00188*
X00637Y00188*
X00637Y00188*
X00638Y00188*
X00638*
X00639Y00188*
X00639Y00188*
X0064Y00188*
X00641Y00189*
X00641Y00189*
X00641Y00189*
X00642Y00189*
X00642Y00189*
X00642*
X00642Y0019*
X00643Y0019*
X00643Y00191*
X00644Y00191*
X00644Y00192*
X00644Y00192*
X00645Y00192*
X00645Y00192*
X00645Y00192*
Y00193*
X00645Y00193*
X00645Y00194*
X00645Y00195*
X00646Y00196*
X00646Y00196*
Y00197*
X00646Y00197*
Y00197*
Y00197*
Y00197*
Y00197*
X00646Y00198*
X00646Y00199*
X00645Y002*
X00645Y00201*
X00645Y00201*
X00645Y00202*
X00644Y00202*
X00644Y00202*
X00644Y00203*
X00644Y00203*
X00644Y00203*
X00644Y00203*
X00643Y00203*
X00643Y00203*
X00643Y00204*
X00643Y00204*
X00642Y00204*
X00642Y00204*
X00641Y00205*
X0064Y00205*
X00639Y00205*
X00639Y00205*
X00639Y00205*
X00638Y00205*
G37*
G36*
X00682Y00219D02*
X0067D01*
X00669Y00219*
X00668Y00219*
X00668Y00219*
X00667Y00218*
X00667Y00218*
X00666Y00218*
X00666Y00218*
X00665Y00218*
X00665Y00218*
X00665Y00218*
X00664Y00217*
X00664Y00217*
X00664Y00217*
X00664Y00217*
X00664Y00217*
X00664Y00217*
X00663Y00216*
X00663Y00216*
X00663Y00215*
X00662Y00214*
X00662Y00214*
X00662Y00213*
Y00213*
X00662Y00213*
Y00213*
Y00213*
Y00213*
X00662Y00212*
X00662Y00211*
X00662Y00211*
X00663Y0021*
X00663Y0021*
X00663Y00209*
X00663Y00209*
X00663Y00209*
X00664Y00209*
X00664Y00208*
X00665Y00208*
X00665Y00207*
X00665Y00207*
X00666Y00207*
X00666Y00207*
X00666Y00207*
X00666*
X00667Y00207*
X00668Y00206*
X00669Y00206*
X0067Y00206*
X0067Y00206*
X00671*
X00671Y00206*
X00682*
Y00219*
G37*
G36*
X00683Y01064D02*
X0067D01*
X00669Y01064*
X00668Y01064*
X00668Y01064*
X00667Y01064*
X00667Y01064*
X00666Y01064*
X00666Y01063*
X00665Y01063*
X00665Y01063*
X00665Y01063*
X00665Y01063*
X00664Y01063*
X00664Y01063*
X00664Y01063*
X00664Y01062*
X00664Y01062*
X00664Y01062*
X00663Y01061*
X00663Y0106*
X00663Y0106*
X00662Y01059*
X00662Y01059*
Y01058*
X00662Y01058*
Y01058*
Y01058*
Y01058*
X00662Y01057*
X00662Y01057*
X00663Y01056*
X00663Y01056*
X00663Y01055*
X00663Y01055*
X00663Y01055*
X00663Y01055*
X00664Y01054*
X00664Y01054*
X00665Y01053*
X00665Y01053*
X00666Y01053*
X00666Y01052*
X00666Y01052*
X00666Y01052*
X00666*
X00667Y01052*
X00668Y01052*
X00669Y01052*
X0067Y01052*
X00671Y01052*
X00671*
X00671Y01052*
X00683*
Y01064*
G37*
%LNdeck-3*%
%LPD*%
G54D10*
X00303Y0109D02*
D01*
X00303Y01091*
X00302Y01092*
X00302Y01093*
X00302Y01094*
X00302Y01095*
X00301Y01096*
X00301Y01097*
X003Y01098*
X003Y01099*
X00299Y011*
X00298Y01101*
X00297Y01102*
X00297Y01102*
X00296Y01103*
X00295Y01104*
X00294Y01104*
X00293Y01105*
X00292Y01105*
X00291Y01105*
X0029Y01106*
X00289Y01106*
X00287Y01106*
X00286*
X00285Y01106*
X00284Y01106*
X00283Y01105*
X00282Y01105*
X00281Y01105*
X0028Y01104*
X00279Y01104*
X00278Y01103*
X00277Y01102*
X00276Y01102*
X00276Y01101*
X00275Y011*
X00274Y01099*
X00274Y01098*
X00273Y01097*
X00273Y01096*
X00272Y01095*
X00272Y01094*
X00271Y01093*
X00271Y01092*
X00271Y01091*
X00271Y0109*
X00271Y01089*
X00271Y01088*
X00271Y01087*
X00272Y01086*
X00272Y01085*
X00273Y01084*
X00273Y01083*
X00274Y01082*
X00274Y01081*
X00275Y0108*
X00276Y01079*
X00276Y01078*
X00277Y01078*
X00278Y01077*
X00279Y01076*
X0028Y01076*
X00281Y01075*
X00282Y01075*
X00283Y01075*
X00284Y01075*
X00285Y01074*
X00286Y01074*
X00287*
X00289Y01074*
X0029Y01075*
X00291Y01075*
X00292Y01075*
X00293Y01075*
X00294Y01076*
X00295Y01076*
X00296Y01077*
X00297Y01078*
X00297Y01078*
X00298Y01079*
X00299Y0108*
X003Y01081*
X003Y01082*
X00301Y01083*
X00301Y01084*
X00302Y01085*
X00302Y01086*
X00302Y01087*
X00302Y01088*
X00303Y01089*
X00303Y0109*
X00276Y01101D02*
X00298Y01079D01*
X00276D02*
X00298Y01101D01*
X00276D02*
D01*
X00287Y01106D02*
Y01133D01*
X00296Y01125*
X00278D02*
X00287Y01133D01*
G54D13*
X00378Y00019D02*
Y00057D01*
X00779Y00019D02*
Y00057D01*
X00378Y00019D02*
X00779D01*
X00779Y01157D02*
Y01194D01*
X00377Y01157D02*
Y01194D01*
X00779*
G54D14*
X00822Y00354D02*
Y00378D01*
X00865Y00354D02*
Y00378D01*
X00658Y00943D02*
Y00959D01*
Y00996D02*
Y01012D01*
Y00149D02*
Y00165D01*
G54D54*
X00803Y00039D02*
D01*
X00803Y00039*
X00803Y0004*
X00803Y0004*
X00803Y0004*
X00802Y00041*
X00802Y00041*
X00802Y00041*
X00802Y00041*
X00802Y00042*
X00802Y00042*
X00801Y00042*
X00801Y00043*
X00801Y00043*
X00801Y00043*
X008Y00043*
X008Y00043*
X008Y00043*
X00799Y00044*
X00799Y00044*
X00799Y00044*
X00798Y00044*
X00798Y00044*
X00798*
X00797Y00044*
X00797Y00044*
X00797Y00044*
X00796Y00044*
X00796Y00043*
X00796Y00043*
X00795Y00043*
X00795Y00043*
X00795Y00043*
X00795Y00043*
X00794Y00042*
X00794Y00042*
X00794Y00042*
X00794Y00041*
X00793Y00041*
X00793Y00041*
X00793Y00041*
X00793Y0004*
X00793Y0004*
X00793Y0004*
X00793Y00039*
X00793Y00039*
X00793Y00039*
X00793Y00038*
X00793Y00038*
X00793Y00038*
X00793Y00037*
X00793Y00037*
X00793Y00037*
X00794Y00036*
X00794Y00036*
X00794Y00036*
X00794Y00035*
X00795Y00035*
X00795Y00035*
X00795Y00035*
X00795Y00035*
X00796Y00034*
X00796Y00034*
X00796Y00034*
X00797Y00034*
X00797Y00034*
X00797Y00034*
X00798Y00034*
X00798*
X00798Y00034*
X00799Y00034*
X00799Y00034*
X00799Y00034*
X008Y00034*
X008Y00034*
X008Y00035*
X00801Y00035*
X00801Y00035*
X00801Y00035*
X00801Y00035*
X00802Y00036*
X00802Y00036*
X00802Y00036*
X00802Y00037*
X00802Y00037*
X00802Y00037*
X00803Y00038*
X00803Y00038*
X00803Y00038*
X00803Y00039*
X00803Y00039*
X00363Y01175D02*
D01*
X00363Y01175*
X00363Y01175*
X00363Y01176*
X00363Y01176*
X00363Y01176*
X00363Y01177*
X00363Y01177*
X00363Y01177*
X00362Y01178*
X00362Y01178*
X00362Y01178*
X00362Y01178*
X00362Y01179*
X00361Y01179*
X00361Y01179*
X00361Y01179*
X0036Y01179*
X0036Y01179*
X0036Y01179*
X00359Y0118*
X00359Y0118*
X00359Y0118*
X00358*
X00358Y0118*
X00358Y0118*
X00357Y01179*
X00357Y01179*
X00357Y01179*
X00356Y01179*
X00356Y01179*
X00356Y01179*
X00355Y01179*
X00355Y01178*
X00355Y01178*
X00355Y01178*
X00355Y01178*
X00354Y01177*
X00354Y01177*
X00354Y01177*
X00354Y01176*
X00354Y01176*
X00354Y01176*
X00354Y01175*
X00354Y01175*
X00354Y01175*
X00354Y01174*
X00354Y01174*
X00354Y01174*
X00354Y01173*
X00354Y01173*
X00354Y01173*
X00354Y01172*
X00354Y01172*
X00355Y01172*
X00355Y01172*
X00355Y01171*
X00355Y01171*
X00355Y01171*
X00356Y01171*
X00356Y0117*
X00356Y0117*
X00357Y0117*
X00357Y0117*
X00357Y0117*
X00358Y0117*
X00358Y0117*
X00358Y0117*
X00359*
X00359Y0117*
X00359Y0117*
X0036Y0117*
X0036Y0117*
X0036Y0117*
X00361Y0117*
X00361Y0117*
X00361Y01171*
X00362Y01171*
X00362Y01171*
X00362Y01171*
X00362Y01172*
X00362Y01172*
X00363Y01172*
X00363Y01172*
X00363Y01173*
X00363Y01173*
X00363Y01173*
X00363Y01174*
X00363Y01174*
X00363Y01174*
X00363Y01175*
G54D55*
X00807Y00143D02*
Y00167D01*
Y00939D02*
Y00963D01*
Y00994D02*
Y01026D01*
M02*