%FSTAX23Y23*%
%MOIN*%
%SFA1B1*%

%IPPOS*%
%AMD29*
4,1,8,-0.012800,0.008400,-0.012800,-0.008400,-0.007400,-0.013800,0.007400,-0.013800,0.012800,-0.008400,0.012800,0.008400,0.007400,0.013800,-0.007400,0.013800,-0.012800,0.008400,0.0*
1,1,0.010827,-0.007400,0.008400*
1,1,0.010827,-0.007400,-0.008400*
1,1,0.010827,0.007400,-0.008400*
1,1,0.010827,0.007400,0.008400*
%
%AMD33*
4,1,8,-0.021900,-0.017900,0.021900,-0.017900,0.028500,-0.011200,0.028500,0.011200,0.021900,0.017900,-0.021900,0.017900,-0.028500,0.011200,-0.028500,-0.011200,-0.021900,-0.017900,0.0*
1,1,0.013386,-0.021900,-0.011200*
1,1,0.013386,0.021900,-0.011200*
1,1,0.013386,0.021900,0.011200*
1,1,0.013386,-0.021900,0.011200*
%
G04~CAMADD=29~8~0.0~0.0~275.6~255.9~54.1~0.0~15~0.0~0.0~0.0~0.0~0~0.0~0.0~0.0~0.0~0~0.0~0.0~0.0~90.0~256.0~276.0*
%ADD29D29*%
G04~CAMADD=33~8~0.0~0.0~570.9~358.3~66.9~0.0~15~0.0~0.0~0.0~0.0~0~0.0~0.0~0.0~0.0~0~0.0~0.0~0.0~180.0~571.0~358.0*
%ADD33D33*%
%ADD39C,0.045275*%
%ADD40C,0.064960*%
%ADD41C,0.029527*%
%ADD52R,0.029527X0.037401*%
%ADD53R,0.029527X0.037401*%
%LNdeck-1*%
%LPD*%
G36*
X00657Y00712D02*
X00691D01*
Y00706*
X00657*
Y00694*
X00652*
Y00724*
X00657*
Y00712*
G37*
G36*
X00673Y0069D02*
X00674Y0069D01*
X00676Y0069*
X00677Y0069*
X00677Y00689*
X00678Y00689*
X00679Y00689*
X00679Y00689*
X0068Y00689*
X0068Y00688*
X00681Y00688*
X00681Y00688*
X00681Y00688*
X00682Y00688*
X00682Y00688*
X00683Y00687*
X00683Y00687*
X00684Y00687*
X00685Y00686*
X00685Y00685*
X00686Y00685*
X00686Y00684*
X00687Y00684*
X00687Y00683*
X00688Y00683*
X00688Y00682*
X00688Y00682*
X00689Y00682*
X00689Y00682*
X00689Y00681*
X00689Y00681*
X00689Y00681*
X0069Y0068*
X0069Y00679*
X0069Y00678*
X00691Y00677*
X00691Y00676*
X00691Y00676*
X00691Y00675*
X00691Y00674*
X00691Y00674*
X00691Y00673*
X00691Y00673*
X00691Y00672*
Y00672*
X00691Y00671*
X00691Y0067*
X00691Y00668*
X00691Y00667*
X00691Y00667*
X0069Y00666*
X0069Y00665*
X0069Y00665*
X0069Y00664*
X0069Y00664*
X00689Y00663*
X00689Y00663*
X00689Y00663*
X00689Y00662*
X00689Y00662*
X00689Y00662*
X00688Y00661*
X00688Y0066*
X00687Y0066*
X00686Y00659*
X00686Y00658*
X00685Y00658*
X00685Y00657*
X00684Y00657*
X00684Y00657*
X00683Y00656*
X00683Y00656*
X00683Y00656*
X00682Y00656*
X00682Y00656*
X00682Y00656*
X00681Y00655*
X0068Y00655*
X00679Y00655*
X00679Y00654*
X00678Y00654*
X00677Y00654*
X00676Y00654*
X00675Y00654*
X00674Y00654*
X00674Y00653*
X00673Y00653*
X00673Y00653*
X00672Y00653*
X00672*
X00672*
X00672*
X00671Y00653*
X0067Y00653*
X00669Y00654*
X00668Y00654*
X00667Y00654*
X00666Y00654*
X00665Y00654*
X00664Y00654*
X00664Y00655*
X00663Y00655*
X00663Y00655*
X00662Y00655*
X00662Y00655*
X00662Y00656*
X00661Y00656*
X00661Y00656*
X00661Y00656*
X0066Y00657*
X00659Y00657*
X00658Y00658*
X00658Y00658*
X00657Y00659*
X00657Y00659*
X00656Y0066*
X00656Y0066*
X00655Y00661*
X00655Y00661*
X00655Y00661*
X00655Y00662*
X00654Y00662*
X00654Y00662*
X00654Y00662*
X00654Y00663*
X00653Y00664*
X00653Y00665*
X00653Y00665*
X00653Y00666*
X00652Y00667*
X00652Y00668*
X00652Y00669*
X00652Y00669*
X00652Y0067*
X00652Y0067*
X00652Y00671*
X00652Y00671*
Y00672*
X00652Y00673*
X00652Y00675*
X00652Y00676*
X00653Y00677*
X00653Y00678*
X00653Y00679*
X00654Y0068*
X00654Y00681*
X00655Y00682*
X00655Y00683*
X00656Y00684*
X00656Y00684*
X00657Y00684*
X00657Y00685*
X00657Y00685*
X00657Y00685*
X00658Y00686*
X00659Y00687*
X00661Y00687*
X00662Y00688*
X00663Y00688*
X00664Y00689*
X00665Y00689*
X00667Y00689*
X00668Y0069*
X00669Y0069*
X0067Y0069*
X00671Y0069*
X00671Y0069*
X00671*
X00672Y0069*
X00672*
X00672*
X00672*
X00672*
X00673Y0069*
G37*
G36*
X00691Y00641D02*
X00673D01*
Y00623*
X00669*
Y00641*
X00657*
Y00621*
X00652*
Y00647*
X00691*
Y00641*
G37*
G36*
Y00585D02*
X00691Y00584D01*
X00691Y00583*
X00691Y00582*
X0069Y00581*
X0069Y00581*
X0069Y0058*
X0069Y0058*
X0069Y0058*
X0069Y00579*
Y00579*
X0069Y00579*
Y00579*
X0069Y00578*
X0069Y00577*
X00689Y00577*
X00689Y00576*
X00689Y00575*
X00688Y00575*
X00688Y00575*
X00688Y00575*
Y00575*
X00688Y00574*
X00687Y00573*
X00687Y00573*
X00686Y00572*
X00686Y00572*
X00685Y00571*
X00685Y00571*
X00685Y00571*
X00685Y00571*
X00685*
X00684Y00571*
X00683Y0057*
X00682Y0057*
X00681Y00569*
X0068Y00569*
X0068Y00569*
X0068Y00569*
X0068Y00569*
X00679Y00569*
X00679Y00568*
X00679*
X00678Y00568*
X00677Y00568*
X00675Y00568*
X00674Y00568*
X00673Y00568*
X00673Y00567*
X00673*
X00672Y00567*
X00672*
X00672*
X00671*
X00671*
X0067Y00568*
X00669Y00568*
X00668Y00568*
X00667Y00568*
X00666Y00568*
X00666Y00568*
X00665Y00568*
X00664Y00568*
X00664Y00568*
X00663Y00569*
X00663Y00569*
X00663Y00569*
X00662Y00569*
X00662Y00569*
X00662*
X00661Y0057*
X0066Y0057*
X00659Y00571*
X00658Y00571*
X00658Y00571*
X00658Y00572*
X00657Y00572*
X00657Y00572*
X00656Y00573*
X00656Y00573*
X00656Y00573*
X00656Y00573*
X00656Y00573*
X00656Y00574*
X00655Y00574*
X00654Y00575*
X00654Y00576*
X00654Y00577*
X00653Y00578*
X00653Y00578*
X00653Y00579*
X00653Y00579*
X00653Y00579*
X00653Y00579*
Y00579*
X00653Y0058*
X00653Y0058*
X00653Y00581*
X00653Y00582*
X00652Y00583*
X00652Y00584*
Y00584*
X00652Y00585*
Y00599*
X00691*
Y00585*
G37*
G36*
X00678Y00563D02*
X0068Y00562D01*
X00681Y00562*
X00682Y00562*
X00683Y00562*
X00683Y00562*
X00684Y00561*
X00685Y00561*
X00686Y00561*
X00686Y0056*
X00687Y0056*
X00687Y0056*
X00687Y00559*
X00687Y00559*
X00688Y00559*
X00688Y00559*
X00688Y00558*
X00689Y00558*
X00689Y00557*
X0069Y00556*
X0069Y00555*
X0069Y00554*
X00691Y00554*
X00691Y00553*
X00691Y00552*
X00691Y00552*
X00691Y00551*
X00691Y0055*
Y0055*
X00691Y0055*
Y00549*
X00691Y00549*
X00691Y00548*
X00691Y00547*
X00691Y00546*
X00691Y00545*
X00691Y00545*
X0069Y00544*
X0069Y00544*
X0069Y00543*
X0069Y00543*
X0069Y00542*
X00689Y00542*
X00689Y00542*
X00689Y00542*
X00689Y00541*
X00689Y00541*
X00689Y00541*
X00688Y0054*
X00688Y0054*
X00687Y00539*
X00686Y00539*
X00685Y00538*
X00684Y00538*
X00684Y00538*
X00684Y00538*
X00683Y00537*
X00683Y00537*
X00683Y00537*
X00682Y00537*
X00682*
X00682Y00542*
X00683Y00542*
X00684Y00543*
X00685Y00543*
X00685Y00544*
X00686Y00544*
X00686Y00545*
X00686Y00545*
X00686Y00545*
Y00545*
X00687Y00546*
X00687Y00546*
X00687Y00547*
X00687Y00548*
X00687Y00548*
X00687Y00549*
X00688Y00549*
Y00549*
X00687Y0055*
X00687Y00551*
X00687Y00551*
X00687Y00552*
X00687Y00553*
X00686Y00554*
X00686Y00554*
X00686Y00554*
X00686Y00555*
X00686Y00555*
X00685Y00555*
X00685Y00555*
X00685Y00555*
X00685Y00555*
X00685Y00556*
X00684Y00556*
X00684Y00556*
X00683Y00557*
X00682Y00557*
X00681Y00557*
X0068Y00558*
X0068Y00558*
X00679Y00558*
X00679Y00558*
X00679Y00558*
X00678Y00558*
X00678*
X00678*
Y00537*
X00678Y00537*
X00677*
X00677*
X00677*
X00676Y00537*
X00674Y00537*
X00673Y00537*
X00672Y00538*
X00671Y00538*
X0067Y00538*
X0067Y00538*
X00669Y00539*
X00668Y00539*
X00668Y00539*
X00667Y0054*
X00667Y0054*
X00667Y0054*
X00666Y0054*
X00666Y00541*
X00666Y00541*
X00665Y00541*
X00665Y00542*
X00664Y00543*
X00664Y00543*
X00664Y00544*
X00663Y00545*
X00663Y00546*
X00663Y00546*
X00663Y00547*
X00663Y00548*
X00662Y00548*
X00662Y00549*
Y00549*
X00662Y00549*
Y0055*
X00662Y00551*
X00662Y00552*
X00663Y00553*
X00663Y00554*
X00663Y00554*
X00664Y00555*
X00664Y00556*
X00664Y00557*
X00665Y00557*
X00665Y00558*
X00665Y00558*
X00666Y00558*
X00666Y00559*
X00666Y00559*
X00666Y00559*
X00666Y00559*
X00667Y0056*
X00668Y0056*
X00669Y00561*
X0067Y00561*
X0067Y00561*
X00671Y00562*
X00672Y00562*
X00673Y00562*
X00674Y00562*
X00675Y00562*
X00675Y00563*
X00676Y00563*
X00676*
X00677Y00563*
X00677*
X00677*
X00678Y00563*
G37*
G36*
X00678Y00533D02*
X00679Y00532D01*
X00681Y00532*
X00682Y00532*
X00683Y00532*
X00683Y00532*
X00684Y00531*
X00685Y00531*
X00686Y00531*
X00686Y0053*
X00687Y0053*
X00687Y0053*
X00687Y00529*
X00688Y00529*
X00688Y00529*
X00688Y00529*
X00688Y00528*
X00689Y00528*
X00689Y00527*
X0069Y00526*
X0069Y00525*
X0069Y00525*
X00691Y00524*
X00691Y00523*
X00691Y00523*
X00691Y00522*
X00691Y00521*
X00691Y00521*
Y00521*
X00691Y0052*
Y0052*
X00691Y00519*
X00691Y00518*
X00691Y00518*
X00691Y00517*
X00691Y00516*
X00691Y00516*
X0069Y00515*
X0069Y00514*
X0069Y00514*
X0069Y00514*
X00689Y00513*
X00689Y00513*
X00689Y00513*
X00689Y00512*
X00689Y00512*
X00689Y00512*
X00688Y00512*
X00688Y00511*
X00687Y00511*
X00686Y0051*
X00686Y0051*
X00685Y0051*
X00684Y00509*
X00683Y00509*
X00683Y00509*
X00682Y00509*
X00682Y00509*
X00682Y00509*
X00681Y00508*
X00681Y00508*
X00681*
X00681Y00513*
X00681Y00513*
X00682Y00513*
X00682Y00513*
X00683Y00514*
X00683Y00514*
X00684Y00514*
X00684Y00514*
X00685Y00514*
X00685Y00515*
X00685Y00515*
X00686Y00515*
X00686Y00515*
X00686Y00515*
X00686Y00515*
X00686Y00516*
X00687Y00517*
X00687Y00518*
X00687Y00518*
X00687Y00519*
X00687Y00519*
Y0052*
X00688Y0052*
Y0052*
X00687Y00521*
X00687Y00521*
X00687Y00522*
X00687Y00522*
X00687Y00523*
X00686Y00524*
X00686Y00524*
X00686Y00525*
X00686Y00525*
X00685Y00525*
X00685Y00525*
X00685Y00526*
X00685Y00526*
X00685Y00526*
X00685Y00526*
X00684Y00526*
X00683Y00527*
X00683Y00527*
X00681Y00527*
X0068Y00528*
X00679Y00528*
X00679Y00528*
X00678Y00528*
X00678Y00528*
X00677Y00528*
X00677*
X00677*
X00677*
X00676Y00528*
X00675Y00528*
X00674Y00528*
X00673Y00527*
X00673Y00527*
X00672Y00527*
X00671Y00527*
X00671Y00527*
X0067Y00526*
X0067Y00526*
X0067Y00526*
X00669Y00526*
X00669Y00526*
X00669Y00526*
X00669Y00526*
X00669Y00526*
X00668Y00525*
X00668Y00525*
X00668Y00524*
X00667Y00524*
X00667Y00523*
X00667Y00523*
X00667Y00522*
X00666Y00521*
X00666Y00521*
X00666Y0052*
X00666Y0052*
Y0052*
X00666Y00519*
X00666Y00518*
X00667Y00517*
X00667Y00517*
X00667Y00516*
X00667Y00516*
X00668Y00516*
X00668Y00516*
X00668Y00515*
X00669Y00515*
X0067Y00514*
X0067Y00514*
X00671Y00514*
X00671Y00514*
X00672Y00514*
X00672Y00514*
X00672Y00513*
X00672*
X00671Y00509*
X0067Y00509*
X0067Y00509*
X00669Y0051*
X00668Y0051*
X00668Y0051*
X00667Y0051*
X00667Y00511*
X00666Y00511*
X00666Y00511*
X00666Y00512*
X00665Y00512*
X00665Y00512*
X00665Y00512*
X00665Y00512*
X00665Y00513*
X00665Y00513*
X00664Y00513*
X00664Y00514*
X00664Y00514*
X00663Y00515*
X00663Y00516*
X00663Y00517*
X00663Y00518*
X00662Y00518*
X00662Y00519*
X00662Y00519*
X00662Y0052*
Y0052*
X00662Y00521*
X00663Y00523*
X00663Y00524*
X00663Y00524*
X00663Y00525*
X00663Y00525*
X00663Y00525*
X00664Y00526*
X00664Y00526*
X00664Y00526*
X00664Y00526*
X00664Y00527*
Y00527*
X00665Y00528*
X00666Y00529*
X00666Y00529*
X00667Y0053*
X00668Y00531*
X00668Y00531*
X00669Y00531*
X00669Y00531*
X00669Y00531*
X00669Y00531*
X00669*
X0067Y00532*
X00672Y00532*
X00673Y00532*
X00674Y00532*
X00675Y00532*
X00675Y00533*
X00676Y00533*
X00676*
X00677Y00533*
X00677*
X00677*
X00677*
X00678Y00533*
G37*
G36*
X00691Y005D02*
X0068D01*
X00677Y00496*
X00691Y00487*
Y00481*
X00673Y00493*
X00663Y00482*
Y00489*
X00674Y005*
X00652*
Y00504*
X00691*
Y005*
G37*
G36*
Y00451D02*
Y00446D01*
X00652Y00431*
Y00436*
X0068Y00446*
X00681Y00447*
X00683Y00447*
X00684Y00448*
X00685Y00448*
X00685Y00448*
X00685Y00448*
X00686Y00448*
X00686Y00448*
X00686Y00448*
X00686Y00448*
X00687Y00448*
X00687*
X00685Y00449*
X00684Y00449*
X00683Y00449*
X00682Y0045*
X00682Y0045*
X00682Y0045*
X00681Y0045*
X00681Y0045*
X00681Y0045*
X0068Y0045*
X0068Y0045*
X0068*
X00652Y0046*
Y00466*
X00691Y00451*
G37*
G36*
X00666Y00424D02*
X00666Y00423D01*
X00665Y00422*
X00665Y00421*
X00665Y00421*
X00664Y0042*
X00664Y0042*
X00664Y0042*
X00664Y0042*
X00664Y0042*
Y0042*
X00663Y00419*
X00663Y00418*
X00662Y00417*
X00662Y00416*
X00661Y00416*
X00661Y00415*
X00661Y00415*
X00661Y00415*
X00691*
Y0041*
X00652*
Y00413*
X00653Y00414*
X00654Y00415*
X00655Y00415*
X00656Y00416*
X00656Y00417*
X00657Y00417*
X00657Y00417*
X00657Y00417*
X00657Y00418*
X00657Y00418*
X00657Y00418*
X00658Y00419*
X00659Y0042*
X0066Y00421*
X00661Y00422*
X00661Y00423*
X00661Y00423*
X00661Y00424*
X00662Y00424*
X00662Y00424*
X00662Y00424*
X00662Y00425*
X00662Y00425*
X00666*
X00666Y00424*
G37*
G36*
X00691Y0039D02*
X00685D01*
Y00396*
X00691*
Y0039*
G37*
G36*
X00674Y00383D02*
X00676Y00383D01*
X00677Y00383*
X00679Y00383*
X0068Y00383*
X00682Y00382*
X00683Y00382*
X00684Y00382*
X00685Y00381*
X00685Y00381*
X00686Y00381*
X00687Y0038*
X00687Y0038*
X00687Y0038*
X00687Y0038*
X00687Y0038*
X00688Y00379*
X00689Y00378*
X00689Y00378*
X0069Y00377*
X0069Y00376*
X0069Y00376*
X00691Y00375*
X00691Y00374*
X00691Y00373*
X00691Y00373*
X00691Y00372*
X00691Y00372*
X00691Y00372*
X00691Y00371*
Y00371*
X00691Y0037*
X00691Y00369*
X00691Y00369*
X00691Y00368*
X00691Y00367*
X00691Y00367*
X0069Y00366*
X0069Y00366*
X0069Y00365*
X0069Y00365*
X0069Y00365*
X00689Y00365*
X00689Y00364*
X00689Y00364*
X00689Y00364*
X00689Y00364*
X00689Y00364*
X00688Y00363*
X00687Y00362*
X00686Y00361*
X00685Y00361*
X00685Y00361*
X00684Y0036*
X00684Y0036*
X00683Y0036*
X00683Y0036*
X00683Y0036*
X00683Y0036*
X00683*
X00682Y0036*
X00681Y00359*
X00679Y00359*
X00677Y00359*
X00677Y00359*
X00676Y00359*
X00675Y00359*
X00674Y00359*
X00674Y00359*
X00673Y00358*
X00673*
X00672*
X00672*
X00672*
X00671*
X0067Y00359*
X00669Y00359*
X00668Y00359*
X00667Y00359*
X00666Y00359*
X00666Y00359*
X00665Y00359*
X00665Y00359*
X00664Y00359*
X00664Y00359*
X00663Y00359*
X00663Y00359*
X00663Y00359*
X00663Y00359*
X00663*
X00662Y0036*
X00661Y0036*
X0066Y0036*
X00659Y00361*
X00658Y00361*
X00658Y00361*
X00658Y00361*
X00658Y00361*
X00657Y00362*
X00657Y00362*
X00657Y00362*
X00657*
X00656Y00362*
X00656Y00363*
X00655Y00364*
X00654Y00364*
X00654Y00365*
X00654Y00365*
X00654Y00365*
X00654Y00365*
X00654Y00366*
Y00366*
X00653Y00366*
X00653Y00367*
X00653Y00368*
X00652Y00369*
X00652Y0037*
X00652Y0037*
X00652Y0037*
Y00371*
X00652Y00372*
X00652Y00372*
X00652Y00373*
X00653Y00374*
X00653Y00374*
X00653Y00375*
X00653Y00376*
X00653Y00376*
X00654Y00376*
X00654Y00377*
X00654Y00377*
X00654Y00377*
X00654Y00378*
X00654Y00378*
X00654Y00378*
X00655Y00378*
X00655Y00378*
X00655Y00379*
X00656Y0038*
X00658Y0038*
X00659Y00381*
X00659Y00381*
X00659Y00382*
X0066Y00382*
X0066Y00382*
X00661Y00382*
X00661Y00382*
X00661Y00382*
X00661*
X00662Y00382*
X00663Y00383*
X00664Y00383*
X00666Y00383*
X00667Y00383*
X00668Y00383*
X00669Y00383*
X00669Y00383*
X0067Y00383*
X00671*
X00671Y00383*
X00672*
X00672*
X00672*
X00674Y00383*
G37*
G36*
X01121Y00848D02*
Y00846D01*
X01121Y00845*
Y00843*
X01121Y00843*
Y00842*
X01121Y00838*
X01119*
X01119Y00839*
X01118Y00839*
Y0084*
X01118Y0084*
X01118Y00841*
Y00841*
X01118Y00842*
X01118Y00842*
Y00842*
X01118Y00842*
Y00842*
X01118Y00843*
X01118Y00843*
X01117Y00843*
X01117Y00843*
X01117Y00843*
X01117Y00843*
X01117Y00843*
X01116Y00844*
X01115Y00844*
X01114Y00844*
X01113Y00844*
X01113*
X01112Y00844*
X01112*
X01112*
X01111*
X01111*
X0111*
X01109*
X01108*
X01106Y00844*
X01105*
X01104*
X01102*
X01101*
X01099*
X01098*
X01097*
X01096*
X01095*
X01094*
X01094*
X01094*
X01094*
X01094*
X01094*
X01092*
X0109*
X01089*
X01087Y00844*
X01086*
X01085Y00844*
X01084*
X01084Y00844*
X01083*
X01082*
X01082Y00844*
X01081*
X01081Y00844*
X01081*
X01081*
X01081*
X0108Y00844*
X0108Y00843*
X01079Y00843*
X01079Y00843*
X01079Y00843*
X01079Y00843*
X01079Y00843*
X01079Y00843*
X01079Y00843*
X01078Y00842*
X01078Y00842*
X01078Y00841*
X01078Y0084*
X01078Y00839*
X01078Y00839*
Y00839*
X01078Y00838*
Y00838*
X01075*
X01075Y0084*
X01075Y00842*
X01075Y00844*
Y00845*
X01075Y00846*
Y0085*
X01075Y00852*
Y00854*
X01075Y00855*
Y00856*
X01075Y00857*
Y00858*
X01075Y00859*
Y00859*
X01078*
X01078Y00859*
X01078Y00858*
X01078Y00857*
X01078Y00857*
X01078Y00856*
X01078Y00856*
X01078Y00856*
X01078Y00855*
X01078Y00855*
X01079Y00855*
X01079Y00854*
Y00854*
X01079Y00854*
X01079Y00854*
X01079Y00854*
X01079Y00854*
X01079*
X0108Y00854*
X0108*
X0108Y00854*
X01081Y00854*
X01081*
X01082*
X01083Y00854*
X01084Y00853*
X01085*
X01085*
X01085*
X01086*
X01086*
X01086*
X01087Y00853*
X01089*
X0109*
X01092Y00853*
X01093*
X01094*
X01095*
X01096Y00853*
X01097*
X01097*
X01098*
X01098*
X01099*
X01099*
X01099*
X01099*
X01101*
X01103*
X01105*
X01107Y00853*
X01108*
X01109Y00853*
X01111*
X01112*
X01112Y00853*
X01113*
X01114Y00854*
X01114*
X01115Y00854*
X01115*
X01115*
X01115*
X01116Y00854*
X01117Y00854*
X01117Y00854*
X01117Y00854*
X01118Y00854*
X01118Y00854*
X01118Y00854*
X01118Y00854*
X01118Y00855*
X01118Y00855*
X01118Y00855*
X01118Y00855*
X01118Y00856*
X01118Y00857*
X01118Y00858*
X01119Y00859*
X01119Y00859*
Y00859*
X01121*
X01121Y00848*
G37*
G36*
X01118Y00832D02*
X01118Y00832D01*
X01119Y00832*
X01119Y00832*
X0112Y00831*
X0112Y00831*
X0112Y00831*
X0112Y00831*
X01121Y0083*
X01121Y0083*
X01122Y00829*
X01122Y00828*
X01122Y00828*
X01122Y00827*
Y00827*
X01122Y00826*
X01122Y00826*
X01121Y00825*
X01121Y00825*
X01121Y00824*
X01121Y00824*
X01121Y00824*
X0112Y00823*
X0112Y00823*
X01119Y00823*
X01119Y00822*
X01118Y00822*
X01118Y00822*
X01117Y00822*
X01117*
X01117*
X01116Y00822*
X01115Y00822*
X01115Y00822*
X01114Y00823*
X01114Y00823*
X01113Y00823*
X01113Y00823*
X01113Y00823*
X01113Y00824*
X01112Y00825*
X01112Y00825*
X01112Y00826*
X01112Y00826*
X01111Y00827*
Y00827*
X01112Y00828*
X01112Y00829*
X01112Y00829*
X01112Y0083*
X01113Y0083*
X01113Y00831*
X01113Y00831*
X01113Y00831*
X01114Y00831*
X01114Y00832*
X01115Y00832*
X01115Y00832*
X01116Y00832*
X01116Y00832*
X01117*
X01117*
X01118Y00832*
G37*
G36*
X01101Y00816D02*
X01103Y00816D01*
X01104Y00816*
X01106Y00815*
X01107Y00815*
X01109Y00814*
X0111Y00814*
X01111Y00813*
X01112Y00812*
X01113Y00812*
X01114Y00811*
X01115Y00811*
X01115Y0081*
X01115Y0081*
X01116Y0081*
X01116Y0081*
X01117Y00808*
X01118Y00807*
X01119Y00806*
X01119Y00804*
X0112Y00803*
X0112Y00801*
X01121Y00799*
X01121Y00798*
X01121Y00797*
X01122Y00795*
X01122Y00794*
X01122Y00793*
X01122Y00792*
X01122Y00792*
Y00791*
X01122Y0079*
X01122Y00788*
X01122Y00787*
X01121Y00786*
X01121Y00784*
X01121Y00783*
X01121Y00782*
X0112Y00781*
X0112Y0078*
X0112Y0078*
X0112Y00779*
X01119Y00778*
X01119Y00778*
X01119Y00778*
X01119Y00777*
X01119Y00777*
X01118Y00776*
X01118Y00775*
X01117Y00774*
X01116Y00774*
X01116Y00773*
X01115Y00772*
X01114Y00771*
X01113Y00771*
X01113Y0077*
X01112Y0077*
X01112Y00769*
X01111Y00769*
X01111Y00769*
X0111Y00769*
X0111Y00769*
X0111Y00768*
X01109Y00768*
X01108Y00767*
X01107Y00767*
X01106Y00767*
X01105Y00766*
X01104Y00766*
X01103Y00766*
X01102Y00766*
X01101Y00766*
X011Y00765*
X01099Y00765*
X01098Y00765*
X01098Y00765*
X01097*
X01097*
X01097*
X01096Y00765*
X01094Y00765*
X01093Y00766*
X01092Y00766*
X01091Y00766*
X0109Y00766*
X01089Y00766*
X01088Y00767*
X01088Y00767*
X01087Y00767*
X01086Y00768*
X01086Y00768*
X01086Y00768*
X01085Y00768*
X01085Y00768*
X01085Y00768*
X01084Y00769*
X01083Y00769*
X01082Y00771*
X01081Y00771*
X0108Y00772*
X0108Y00773*
X01079Y00773*
X01079Y00774*
X01079Y00775*
X01078Y00775*
X01078Y00775*
X01078Y00776*
X01078Y00776*
X01077Y00776*
X01077Y00776*
X01077Y00777*
X01076Y00778*
X01076Y0078*
X01076Y00781*
X01075Y00783*
X01075Y00784*
X01075Y00785*
X01075Y00786*
X01075Y00787*
X01075Y00788*
Y00789*
X01075Y00789*
Y0079*
X01075Y00792*
X01075Y00793*
X01075Y00795*
X01075Y00796*
X01075Y00797*
X01076Y00798*
X01076Y008*
X01076Y008*
X01076Y00801*
X01077Y00802*
X01077Y00803*
X01077Y00803*
X01077Y00804*
X01077Y00804*
X01077Y00804*
X01078Y00804*
X01078Y00805*
X01079Y00806*
X01079Y00807*
X0108Y00808*
X01081Y00809*
X01081Y0081*
X01082Y0081*
X01083Y00811*
X01083Y00811*
X01084Y00812*
X01084Y00812*
X01085Y00812*
X01085Y00813*
X01086Y00813*
X01086Y00813*
X01086Y00813*
X01087Y00814*
X01088Y00814*
X01089Y00814*
X0109Y00815*
X01092Y00815*
X01093Y00816*
X01094Y00816*
X01095Y00816*
X01096Y00816*
X01097Y00816*
X01097Y00816*
X01098Y00816*
X01098*
X01099*
X01099*
X01101Y00816*
G37*
G36*
X0112Y0076D02*
X01121Y00759D01*
X01121Y00758*
X01121Y00757*
X01121Y00756*
X01121Y00755*
X01121Y00755*
X01122Y00754*
Y00754*
X01122Y00753*
X01122Y00753*
X01122Y00752*
X01122Y00751*
X01122Y00751*
Y0075*
X01122Y00749*
X01122Y00748*
X01122Y00746*
X01121Y00745*
X01121Y00744*
X01121Y00743*
X0112Y00743*
X0112Y00742*
X0112Y00741*
X0112Y00741*
X01119Y00741*
X01119Y0074*
X01119Y0074*
X01119Y0074*
X01119Y0074*
X01118Y00739*
X01118Y00738*
X01117Y00738*
X01116Y00737*
X01116Y00737*
X01115Y00736*
X01114Y00736*
X01114Y00736*
X01113Y00736*
X01112Y00736*
X01112Y00736*
X01111Y00735*
X01111Y00735*
X01111*
X01111*
X01111*
X01109Y00735*
X01109Y00736*
X01108Y00736*
X01107Y00736*
X01106Y00736*
X01106Y00736*
X01106Y00737*
X01106Y00737*
X01105Y00737*
X01104Y00738*
X01104Y00738*
X01104Y00739*
X01103Y00739*
X01103Y0074*
X01103Y0074*
X01103Y0074*
X01103Y00741*
X01102Y00741*
X01102Y00742*
X01102Y00743*
X01102Y00744*
X01102Y00745*
X01102Y00745*
Y00745*
X01102Y00745*
Y00745*
X01102Y00746*
X01101Y00747*
X01101Y00748*
X01101Y00748*
X01101Y00749*
X01101Y00749*
X011Y0075*
X011Y0075*
X011Y00751*
X011Y00751*
X011Y00751*
X011Y00752*
X011Y00752*
X01099Y00752*
X01099Y00752*
X01098Y00753*
X01098Y00753*
X01098Y00753*
X01097Y00753*
X01097*
X01097*
X01096Y00753*
X01096Y00753*
X01095Y00753*
X01095Y00752*
X01094Y00752*
X01094Y00752*
X01094Y00752*
X01094Y00752*
X01093Y00751*
X01093Y0075*
X01093Y0075*
X01093Y00749*
X01093Y00748*
X01093Y00748*
Y00747*
X01093Y00746*
X01093Y00746*
X01093Y00745*
X01093Y00744*
X01093Y00744*
X01093Y00744*
X01093Y00743*
X01093Y00743*
X01094Y00743*
X01094Y00742*
X01094Y00742*
X01095Y00742*
X01095Y00742*
X01095Y00741*
X01095Y00741*
X01095*
X01095Y00741*
X01095Y00741*
X01096Y00741*
X01097Y00741*
X01097Y00741*
X01098Y00741*
X01099Y00741*
X01099Y00741*
X01099*
X01099*
X01099*
Y00738*
X01098*
X01097Y00738*
X01096Y00738*
X01096Y00738*
X01095*
X01094Y00738*
X01094Y00738*
X01093Y00738*
X01093Y00738*
X01092Y00738*
X01092Y00738*
X01091Y00738*
X01091*
X01091Y00738*
X01091*
X01091*
X0109Y00739*
X0109Y00741*
X0109Y00742*
X0109Y00744*
X01089Y00744*
X01089Y00745*
Y00745*
X01089Y00746*
Y00747*
X01089Y00748*
X0109Y0075*
X0109Y00751*
X0109Y00752*
X0109Y00753*
X0109Y00753*
X0109Y00753*
X0109Y00754*
X01091Y00754*
X01091Y00754*
X01091Y00754*
Y00754*
X01091Y00755*
X01092Y00756*
X01092Y00757*
X01093Y00757*
X01094Y00758*
X01094Y00758*
X01094Y00758*
X01094Y00758*
X01094*
X01095Y00759*
X01096Y00759*
X01097Y0076*
X01098Y0076*
X01099Y0076*
X01099Y0076*
X01099*
X011*
X011*
X011*
X01101Y0076*
X01102Y0076*
X01102Y0076*
X01103Y00759*
X01103Y00759*
X01104Y00759*
X01104Y00759*
X01104Y00759*
X01105Y00759*
X01105Y00758*
X01106Y00758*
X01106Y00757*
X01107Y00757*
X01107Y00756*
X01107Y00756*
X01107Y00756*
X01107Y00756*
X01107Y00755*
X01107Y00755*
X01108Y00754*
X01108Y00753*
X01108Y00752*
X01109Y00751*
X01109Y0075*
X01109Y0075*
X01109Y00749*
X01109Y00749*
X01109Y00749*
Y00749*
X01109Y00748*
X01109Y00747*
X0111Y00747*
X0111Y00746*
X0111Y00746*
X0111Y00745*
X01111Y00744*
X01111Y00744*
X01111Y00744*
X01111Y00744*
X01111Y00743*
X01112Y00743*
X01112Y00743*
X01113Y00743*
X01113Y00743*
X01114Y00743*
X01114*
X01114*
X01115Y00743*
X01115Y00743*
X01116Y00743*
X01117Y00743*
X01117Y00744*
X01117Y00744*
X01117Y00744*
X01117Y00744*
X01118Y00745*
X01118Y00746*
X01118Y00746*
X01119Y00747*
X01119Y00748*
X01119Y00749*
Y00749*
X01119Y0075*
X01119Y00751*
X01118Y00752*
X01118Y00752*
X01118Y00753*
X01118Y00753*
X01118Y00754*
X01118Y00754*
X01117Y00754*
X01117Y00755*
X01117Y00755*
X01116Y00756*
X01116Y00756*
X01116Y00756*
X01115Y00756*
X01115Y00756*
X01115Y00756*
X01115Y00756*
X01115*
X01114Y00757*
X01114Y00757*
X01113Y00757*
X01112Y00757*
X01111Y00757*
X01111*
X01111*
X01111*
X01111*
Y0076*
X01112*
X01113Y0076*
X01114Y0076*
X01115*
X01115Y0076*
X01116Y0076*
X01117*
X01117Y0076*
X01118Y0076*
X01118Y0076*
X01119*
X01119Y0076*
X01119*
X0112Y0076*
X0112*
X0112*
X0112Y0076*
G37*
G36*
X01097Y00732D02*
X01097Y00731D01*
Y00731*
X01096Y0073*
Y00729*
X01097Y00728*
X01097*
X01098*
X01099*
X01101Y00728*
X01102*
X01103Y00728*
X01104*
X01104*
X01105*
X01105Y00728*
X01106*
X01106*
X01106*
X01107*
X01108Y00728*
X01109*
X0111Y00728*
X01111*
X01111*
X01112*
X01112Y00728*
X01113*
X01113*
X01114*
X01114*
X01114*
X01114*
X01114*
X01115Y00728*
X01116Y00728*
X01117Y00728*
X01117Y00728*
X01118Y00727*
X01118Y00727*
X01119Y00727*
X01119Y00727*
X01119Y00727*
X0112Y00726*
X0112Y00726*
X0112Y00726*
X01121Y00725*
X01121Y00725*
X01121Y00725*
X01121Y00725*
X01121Y00724*
X01122Y00723*
X01122Y00722*
X01122Y00722*
X01122Y00721*
X01122Y0072*
Y00719*
X01122Y00719*
Y00718*
X01122Y00718*
Y00718*
X01122Y00717*
X01122Y00717*
X01122Y00716*
Y00716*
X01122Y00716*
Y00716*
X01121Y00715*
X0112Y00714*
X01119Y00714*
X01118Y00713*
X01118Y00713*
X01117Y00712*
X01117Y00712*
X01117Y00712*
X01116Y00713*
X01116Y00713*
X01116Y00714*
X01116Y00714*
Y00714*
X01116Y00714*
Y00714*
X01116Y00715*
X01116Y00715*
Y00716*
X01116Y00717*
X01116Y00717*
X01116Y00718*
X01116Y00718*
X01115Y00719*
X01115Y00719*
X01115Y00719*
X01115Y00719*
X01115Y00719*
X01115Y00719*
X01114Y00719*
X01113Y00719*
X01112Y00719*
X01111Y00719*
X0111Y0072*
X01108Y0072*
X01107Y0072*
X01106*
X01105Y0072*
X01104*
X01103*
X01103*
X01103*
X01103*
X01102*
X01102*
X01101*
X011*
X01099Y0072*
X01099*
X01098*
X01097Y0072*
X01097*
X01097*
X01097*
X01097*
X01096Y00719*
X01096Y00718*
Y00716*
X01096Y00715*
Y00714*
X01097Y00714*
X01097Y00713*
Y00712*
X01097Y00712*
Y00711*
X01095Y00711*
X01095Y00711*
X01094Y00711*
X01094Y00711*
X01094Y00711*
X01093Y00711*
X01093*
X01092Y0071*
X01092Y00711*
X01092Y00712*
X01092Y00713*
X01092Y00714*
X01092Y00715*
X01092Y00715*
Y00717*
X01092Y00718*
X01092Y00718*
X01092Y00719*
Y00719*
X01092Y00719*
X01092Y0072*
Y0072*
X01091Y0072*
X01089Y00719*
X01088Y00719*
X01087Y00719*
X01086Y00719*
X01085Y00719*
X01084Y00719*
X01083Y00719*
X01082Y00719*
X01081Y00719*
X01081Y00719*
X0108Y00719*
X0108Y00719*
X0108*
X01079Y00719*
X01079*
X01079Y0072*
X01079Y00721*
X0108Y00723*
X0108Y00724*
X01081Y00725*
X01081Y00726*
X01081Y00726*
X01082Y00727*
X01082Y00727*
X01082Y00728*
X01082Y00728*
X01082Y00728*
Y00728*
X01084Y00728*
X01085Y00728*
X01087Y00728*
X01089Y00728*
X01089*
X0109*
X01091*
X01091Y00728*
X01092*
X01092*
X01092*
X01092*
X01095Y00732*
X01097*
X01097Y00732*
G37*
G36*
X01107Y00708D02*
X01108Y00708D01*
X0111Y00707*
X01111Y00707*
X01112Y00707*
X01113Y00706*
X01114Y00706*
X01115Y00706*
X01115Y00705*
X01116Y00705*
X01117Y00705*
X01117Y00704*
X01117Y00704*
X01118Y00704*
X01118Y00704*
X01118Y00704*
X01119Y00703*
X01119Y00702*
X0112Y00701*
X0112Y007*
X01121Y00699*
X01121Y00698*
X01121Y00697*
X01121Y00696*
X01122Y00696*
X01122Y00695*
X01122Y00694*
X01122Y00693*
Y00693*
X01122Y00692*
Y00692*
X01122Y00691*
X01122Y00689*
X01122Y00688*
X01121Y00687*
X01121Y00686*
X01121Y00685*
X0112Y00684*
X0112Y00683*
X01119Y00682*
X01119Y00682*
X01119Y00681*
X01118Y00681*
X01118Y00681*
X01118Y0068*
X01118Y0068*
X01118Y0068*
X01117Y00679*
X01116Y00679*
X01115Y00678*
X01114Y00678*
X01113Y00677*
X01112Y00677*
X0111Y00676*
X01109Y00676*
X01109Y00676*
X01108Y00676*
X01107Y00676*
X01106Y00676*
X01106Y00676*
X01105*
X01105*
X01105*
X01103Y00676*
X01102Y00676*
X01101Y00676*
X011Y00676*
X01099Y00677*
X01098Y00677*
X01097Y00677*
X01096Y00678*
X01095Y00678*
X01095Y00678*
X01094Y00679*
X01094Y00679*
X01093Y00679*
X01093Y00679*
X01093Y00679*
X01093Y00679*
X01092Y0068*
X01092Y00681*
X01091Y00682*
X01091Y00683*
X01091Y00684*
X0109Y00685*
X0109Y00687*
X0109Y00688*
X0109Y00689*
X01089Y00689*
X01089Y0069*
X01089Y00691*
Y00691*
X01089Y00693*
X0109Y00694*
X0109Y00696*
X0109Y00697*
X0109Y00698*
X01091Y00699*
X01091Y007*
X01092Y00701*
X01092Y00702*
X01093Y00702*
X01093Y00703*
X01093Y00703*
X01094Y00704*
X01094Y00704*
X01094Y00704*
X01094Y00704*
X01095Y00705*
X01096Y00705*
X01097Y00706*
X01097Y00706*
X01098Y00707*
X01099Y00707*
X01101Y00707*
X01102Y00707*
X01103Y00708*
X01104Y00708*
X01104Y00708*
X01105Y00708*
X01105*
X01106*
X01106*
X01107Y00708*
G37*
G36*
X01093Y00672D02*
X01093Y00671D01*
X01093Y00671*
X01093Y00671*
X01093Y0067*
X01093Y0067*
X01093Y0067*
X01094Y0067*
X01094Y0067*
X01094Y00669*
X01095Y00669*
X01095Y00669*
X01095Y00669*
X01095Y00669*
X01096Y00668*
X01096Y00668*
X01097Y00668*
X01098Y00668*
X01099Y00667*
X01101Y00666*
X01101Y00666*
X01102Y00666*
X01103Y00666*
X01103Y00665*
X01104Y00665*
X01104Y00665*
X01104Y00665*
X01104Y00665*
X01106Y00664*
X01108Y00663*
X0111Y00663*
X01112Y00662*
X01113Y00661*
X01115Y00661*
X01116Y0066*
X01117Y0066*
X01118Y0066*
X01119Y00659*
X0112Y00659*
X0112Y00659*
X01121Y00659*
X01121Y00658*
X01121Y00658*
X01121*
Y00653*
X01119Y00652*
X01116Y00651*
X01114Y0065*
X01112Y00649*
X0111Y00648*
X01109Y00647*
X01107Y00647*
X01106Y00646*
X01105Y00645*
X01104Y00645*
X01103Y00645*
X01102Y00644*
X01102Y00644*
X01101Y00644*
X01101Y00644*
X01101Y00644*
X011Y00643*
X01099Y00643*
X01098Y00642*
X01097Y00642*
X01096Y00641*
X01096Y00641*
X01095Y00641*
X01095Y00641*
X01094Y0064*
X01094Y0064*
X01094Y0064*
X01094Y0064*
X01094Y0064*
X01094Y0064*
X01093Y0064*
X01093Y00639*
X01093Y00639*
X01093Y00638*
X01093Y00637*
X01093Y00637*
Y00637*
X0109*
X0109Y00638*
X0109Y00639*
X0109Y0064*
Y00641*
X0109Y00642*
Y00644*
X0109Y00645*
Y00646*
X0109Y00647*
X0109Y00648*
Y00649*
X0109Y00649*
Y0065*
X01093*
X01093Y00649*
Y00649*
X01093Y00648*
Y00648*
X01093Y00647*
X01093Y00647*
X01093Y00646*
X01093Y00646*
X01093Y00646*
X01093Y00646*
X01094Y00646*
X01094Y00646*
X01094*
X01094*
X01094Y00646*
X01095Y00646*
X01095Y00646*
X01096Y00646*
X01097Y00646*
X01097Y00647*
X01099Y00647*
X011Y00648*
X01101Y00648*
X01101Y00648*
X01102Y00648*
X01102Y00648*
X01102Y00649*
X01102Y00649*
X01112Y00653*
X01101Y00657*
X01096Y00659*
X01095Y00659*
X01095Y00659*
X01095Y00659*
X01094*
X01094Y00659*
X01094*
X01094Y00659*
X01093Y00659*
X01093Y00659*
X01093Y00659*
X01093Y00659*
X01093Y00659*
X01093Y00658*
X01093Y00658*
X01093Y00657*
X01093Y00656*
X01093Y00656*
Y00655*
X0109*
X0109Y00657*
X0109Y00659*
X0109Y0066*
Y00662*
X0109Y00662*
Y00664*
X0109Y00673*
X01093*
X01093Y00672*
G37*
G36*
X01115Y00633D02*
X01116Y00633D01*
X01118Y00633*
X01118Y00632*
X01119Y00632*
X0112Y00632*
X0112Y00631*
X0112Y00631*
X01121Y00631*
X01121Y0063*
X01121Y00629*
X01122Y00628*
X01122Y00627*
X01122Y00627*
X01122Y00626*
Y00626*
X01122Y00625*
X01122Y00624*
X01122Y00624*
X01122Y00623*
X01122Y00623*
X01122Y00623*
Y00623*
X01116Y00616*
X01121Y00616*
X01121Y00616*
X01121Y00614*
X01121Y00613*
X01121Y00612*
Y00609*
X01121Y00608*
Y00607*
X01121Y00606*
Y00606*
X01121Y00603*
X01119*
X01119Y00604*
X01118Y00604*
X01118Y00605*
X01118Y00606*
X01118Y00606*
X01118Y00607*
X01118Y00607*
X01118Y00607*
Y00607*
X01118Y00607*
X01117Y00607*
X01117Y00608*
X01117*
X01117Y00608*
X01117*
X01116Y00608*
X01115Y00608*
X01114*
X01114Y00608*
X01113*
X01113*
X01112*
X01112*
X01112*
X01111*
X0111*
X01109Y00608*
X01108*
X01107*
X01106Y00608*
X01106*
X01106*
X01105*
X01105*
X01105*
X01105Y00608*
X01104*
X01103*
X01103Y00608*
X01102*
X01101Y00608*
X011*
X011*
X011*
X011*
X01098Y00608*
X01097Y00608*
X01096Y00608*
X01095Y00608*
X01095Y00608*
X01094Y00609*
X01094Y00609*
X01094Y00609*
X01093Y00609*
X01092Y0061*
X01092Y0061*
X01091Y00611*
X01091Y00611*
X01091Y00612*
X01091Y00612*
X01091Y00612*
Y00612*
X0109Y00613*
X0109Y00614*
X0109Y00615*
X0109Y00616*
X01089Y00617*
Y00618*
X01089Y00618*
Y0062*
X01089Y0062*
X0109Y00621*
X0109Y00622*
X0109Y00622*
X0109Y00623*
X0109Y00623*
X0109Y00623*
X0109Y00623*
X0109Y00624*
X01091Y00625*
X01092Y00626*
X01092Y00627*
X01093Y00628*
X01093Y00629*
X01093Y00629*
X01094Y0063*
X01094Y0063*
X01094Y0063*
X01094Y0063*
X01095*
X01097Y0063*
X01098Y0063*
X01099Y00628*
X01095Y00626*
X01095Y00626*
X01095Y00625*
X01095Y00625*
X01095Y00625*
X01094Y00625*
Y00625*
X01094Y00624*
X01094Y00623*
Y00622*
X01094Y00621*
X01095Y0062*
X01095Y00619*
X01095Y00619*
X01096Y00618*
X01096Y00618*
X01097Y00617*
X01097Y00617*
X01097*
X01097Y00617*
X01098Y00616*
X01099Y00616*
X011Y00616*
X01101Y00616*
X01101Y00616*
X01102*
X01102Y00616*
X01102*
X01102*
X01102*
X01103Y00618*
X01103Y0062*
X01104Y00621*
X01104Y00623*
X01104Y00624*
X01105Y00626*
X01105Y00627*
X01105Y00628*
X01106Y00628*
X01106Y00629*
X01106Y0063*
X01107Y0063*
X01107Y0063*
X01107Y0063*
X01107Y00631*
X01107Y00631*
X01107Y00631*
X01108Y00631*
X01109Y00632*
X0111Y00633*
X01111Y00633*
X01112Y00633*
X01113Y00633*
X01113*
X01113Y00633*
X01114*
X01114*
X01114*
X01115Y00633*
G37*
G36*
X01121Y00598D02*
X01121Y00596D01*
Y00595*
X01121Y00594*
Y0059*
X01121Y00589*
Y00587*
X01121Y00587*
Y00586*
X01121Y00582*
X01119*
X01119Y00583*
Y00584*
X01118Y00584*
X01118Y00585*
X01118Y00585*
X01118Y00586*
X01118Y00586*
X01118Y00586*
X01118Y00587*
X01118Y00587*
X01118Y00587*
Y00587*
X01118Y00587*
X01117Y00588*
X01117Y00588*
X01117*
X01117*
X01116Y00588*
X01116*
X01115Y00588*
X01115*
X01114Y00588*
X01113*
X01111*
X0111Y00588*
X0111*
X01109*
X01108*
X01108*
X01107*
X01107*
X01107*
X01106*
X01105*
X01104*
X01104Y00588*
X01103*
X01102*
X01102Y00588*
X01102*
X01101*
X01101Y00588*
X01101*
X01101*
X011Y00588*
X011*
X011Y00588*
X01099Y00587*
X01099Y00587*
X01099Y00587*
X01098Y00586*
X01098Y00586*
X01098Y00586*
X01098Y00586*
X01098Y00585*
X01097Y00585*
X01097Y00584*
X01097Y00584*
X01097Y00583*
X01097Y00583*
Y00582*
X01097Y00582*
X01097Y00581*
X01097Y00581*
X01097Y00581*
X01097Y0058*
X01097Y0058*
Y0058*
X01098Y0058*
X01098Y0058*
X01099Y00579*
X01099Y00579*
X01099Y00579*
X01099Y00579*
X01099Y00579*
X01099Y00577*
X01098*
X01097Y00577*
X01096*
X01095Y00577*
X01094*
X01093Y00577*
X01093*
X01092Y00577*
X01092Y00577*
X01091*
X01091Y00577*
X0109*
X0109*
X0109Y00577*
X0109*
X0109*
X0109Y00577*
X01089Y00578*
X01089Y00578*
Y00579*
X01089Y0058*
X0109Y00581*
X0109Y00581*
X0109Y00581*
X0109Y00582*
X0109Y00582*
X0109Y00582*
X0109Y00582*
X01091Y00583*
X01091Y00584*
X01092Y00584*
X01092Y00584*
X01092Y00584*
X01092Y00584*
X01093Y00585*
X01094Y00586*
X01095Y00586*
X01095Y00587*
X01096Y00587*
X01096Y00588*
X01096Y00588*
X01096Y00588*
X01095*
X01094*
X01093*
X01092Y00588*
X01091*
X01091*
X01091*
X0109*
X0109Y00588*
X0109*
X0109Y00588*
X01089Y00588*
X01089Y00588*
Y00588*
X01091Y00592*
X01091Y00592*
X01091Y00593*
X01091Y00594*
X01091Y00595*
X01092Y00596*
X01092Y00598*
X01092Y00598*
X01092Y00599*
X01092Y006*
X01092Y006*
X01092Y00601*
Y00601*
X01092Y00601*
Y00601*
X01095*
X01095Y00601*
Y006*
X01095Y006*
X01095Y00599*
Y00599*
X01095Y00598*
X01095Y00598*
X01095Y00597*
X01095Y00597*
X01095Y00597*
X01096Y00597*
X01096Y00597*
X01096Y00597*
X01096*
X01096*
X01097Y00596*
X01097*
X01098Y00596*
X01098*
X01099Y00596*
X011*
X01101Y00596*
X01102*
X01103*
X01104*
X01104*
X01105*
X01105*
X01105*
X01105*
X01107*
X01108*
X0111Y00596*
X01111*
X01112Y00596*
X01112*
X01113*
X01113*
X01114Y00596*
X01114*
X01114*
X01114*
X01115Y00597*
X01116Y00597*
X01116Y00597*
X01117Y00597*
X01117Y00597*
X01117Y00597*
X01118Y00597*
X01118*
X01118Y00597*
X01118Y00597*
X01118Y00597*
X01118Y00598*
X01118Y00598*
X01118Y00598*
X01118Y00598*
X01118Y00599*
X01118Y006*
X01119Y006*
X01119Y00601*
Y00601*
X01121*
X01121Y00598*
G37*
G36*
X0007Y00842D02*
X0007Y00841D01*
X0007Y00841*
X0007Y0084*
Y00839*
X0007Y00839*
X00069Y00838*
Y00838*
X00069Y00837*
Y00836*
X00069Y00835*
X0007Y00834*
Y00834*
X0007Y00833*
X0007Y00832*
X0007Y00832*
Y00832*
X0007Y00831*
X0007Y0083*
Y0083*
X00068*
X00068Y00831*
X00067Y00831*
X00067Y00832*
X00067Y00833*
X00066Y00833*
X00066Y00833*
X00065Y00834*
X00065Y00834*
X00064Y00834*
X00064Y00835*
X00063Y00835*
X00063Y00835*
X00063Y00835*
X00062Y00835*
X00062Y00835*
Y00835*
X00062*
X00062Y00835*
X00061Y00835*
X00061Y00835*
X0006Y00835*
X0006Y00834*
X0006Y00834*
X0006Y00834*
X0006*
X0004Y00834*
X0007Y0082*
X00066Y00818*
X00032Y00834*
X00032Y00836*
X00032Y00839*
X00032Y0084*
X00032Y00841*
X00032Y00842*
X00032Y00842*
X00032Y00842*
Y00843*
X00032Y00843*
Y00843*
X00034*
X00034Y00842*
X00034Y00842*
X00035Y0084*
X00035Y0084*
X00036Y00839*
X00036Y00838*
X00036Y00838*
X00037Y00837*
X00037Y00837*
X0006Y00838*
X00061Y00839*
X00062Y00839*
X00063Y00839*
X00064Y00839*
X00065Y0084*
X00065Y0084*
X00066Y0084*
X00067Y00841*
X00067Y00841*
X00067Y00842*
X00068Y00842*
X00068Y00842*
X00068Y00843*
X00068Y00843*
X00068Y00843*
Y00843*
X0007*
X0007Y00842*
G37*
G36*
X00064Y00817D02*
X0004Y00807D01*
X00059Y00806*
X00059Y00806*
X0006Y00806*
X0006Y00806*
X00061Y00805*
X00061Y00805*
X00061Y00805*
X00061Y00805*
X00061*
Y00805*
X00061Y00805*
X00061Y00805*
X00062Y00806*
X00063Y00806*
X00064Y00806*
X00065Y00806*
X00065Y00807*
X00066Y00807*
X00066Y00808*
X00067Y00808*
X00067Y00809*
X00067Y00809*
X00068Y00809*
X00068Y0081*
X00068Y0081*
X00068Y0081*
X00068Y0081*
Y0081*
X0007*
X0007Y00807*
X0007Y00806*
X0007Y00806*
X00069Y00805*
X00069Y00805*
Y00801*
X00032Y00803*
Y00807*
X00056Y00817*
X00032Y00828*
Y00832*
X00064Y00817*
G37*
G36*
X00069Y008D02*
Y00799D01*
X00069Y00798*
X0007Y00796*
X0007Y00795*
X0007Y00794*
Y00793*
X0007Y00793*
X0007Y00792*
Y00792*
X0007Y00792*
Y00791*
X00068*
X00068Y00792*
X00067Y00793*
X00067Y00794*
X00067Y00794*
X00066Y00795*
X00066Y00795*
X00066Y00795*
X00066Y00795*
X00065Y00796*
X00065Y00796*
X00064Y00796*
X00063Y00796*
X00062Y00796*
X00061Y00796*
X00061*
X0006Y00797*
X0006*
X0006Y00797*
X0006*
X00059*
X00043Y00797*
X0004Y00797*
X00039Y00797*
X00038Y00797*
X00038Y00797*
X00037Y00797*
X00036Y00797*
X00036Y00796*
X00036Y00796*
X00036Y00796*
X00035Y00796*
X00035Y00795*
X00034Y00795*
X00034Y00794*
X00034Y00793*
X00034Y00793*
X00034Y00793*
Y00792*
X00032*
X00032Y00793*
X00032Y00794*
X00032Y00795*
X00032Y00796*
X00032Y00797*
X00032Y00797*
Y00798*
X00032Y00798*
Y00799*
X00032Y00799*
Y00802*
X00069Y008*
G37*
G36*
X0007Y00783D02*
X00068Y0078D01*
X00062Y00786*
X00065Y00788*
X0007Y00783*
G37*
G36*
X00067Y00779D02*
X00065Y00777D01*
X00059Y00783*
X00062Y00785*
X00067Y00779*
G37*
G36*
X0007Y00772D02*
X0007Y00771D01*
X0007Y00771*
X0007Y0077*
Y00769*
X0007Y00768*
X00069Y00768*
Y00767*
X00069Y00766*
Y00765*
X00032*
X00032Y00767*
X00032Y00768*
X00032Y0077*
X00032Y00771*
X00032Y00772*
Y00772*
X00032Y00772*
X00032Y00773*
Y00773*
X00032Y00773*
Y00774*
X00034*
X00034Y00773*
X00034Y00772*
X00034Y00771*
X00035Y00771*
X00035Y00771*
X00035Y0077*
X00035Y0077*
Y0077*
X00036Y0077*
X00037Y0077*
X00037Y0077*
X00038Y0077*
X00039Y0077*
X00039Y00769*
X0004*
X0004*
X0004*
X0004*
X00062*
X00063Y0077*
X00064Y0077*
X00065Y0077*
X00065Y0077*
X00066Y0077*
X00066Y00771*
X00067Y00771*
X00067Y00771*
X00067Y00772*
X00067Y00772*
X00068Y00773*
X00068Y00773*
X00068Y00773*
X00068Y00774*
Y00774*
X0007*
X0007Y00772*
G37*
G36*
X00069Y00763D02*
X00069Y00762D01*
X0007Y0076*
X0007Y00759*
X0007Y00758*
Y00758*
X0007Y00757*
X0007Y00757*
Y00756*
X0007Y00756*
Y00756*
X00068*
X00068Y00757*
X00067Y00757*
X00067Y00758*
X00067Y00758*
X00066Y00759*
X00066Y00759*
X00066Y00759*
X00066Y00759*
X00066Y00759*
X00065Y0076*
X00064Y0076*
X00064Y0076*
X00063Y0076*
X00063Y0076*
X00062*
X00062*
X00062*
X00051*
X00069Y00744*
Y0074*
X00047Y00759*
X00048Y0076*
X00043*
X00042*
X00041Y0076*
X0004*
X0004Y0076*
X00039Y0076*
X00038Y0076*
X00038Y0076*
X00037Y0076*
X00037Y0076*
X00037Y00759*
X00037*
X00036Y00759*
X00036Y00759*
X00036*
X00036Y00759*
X00035Y00758*
X00035Y00758*
X00034Y00757*
X00034Y00757*
X00034Y00756*
X00034Y00756*
X00034Y00756*
Y00756*
X00032*
X00032Y00757*
X00032Y00758*
X00032Y0076*
X00032Y00761*
X00032Y00762*
Y00762*
X00032Y00763*
Y00763*
X00032Y00764*
Y00764*
X00069*
Y00763*
G37*
G36*
Y00737D02*
Y00735D01*
X00069Y00735*
Y00735*
X0007Y00734*
Y00734*
X0007Y00733*
X0007Y00732*
X0007Y00731*
X0007Y00731*
Y00731*
X0007Y0073*
Y0073*
X00068*
X00068Y00731*
X00068Y00731*
X00067Y00732*
X00067Y00733*
X00066Y00734*
X00066Y00735*
X00064Y00736*
X00064Y00737*
X00063Y00737*
X00063Y00738*
X00062Y00738*
X00062Y00739*
X00061Y00739*
X00061Y00739*
X00061Y00739*
X00047Y00753*
X00041Y00746*
X00041Y00746*
X00041Y00746*
Y00746*
X00039Y00743*
X00039Y00742*
X00038Y00741*
X00037Y0074*
X00037Y00739*
X00036Y00738*
X00036Y00737*
X00035Y00737*
X00035Y00736*
X00035Y00735*
X00034Y00734*
X00034Y00734*
X00034Y00733*
X00034Y00733*
X00034Y00733*
X00034Y00733*
Y00732*
X00032*
X00032Y00734*
X00032Y00735*
X00032Y00735*
X00032Y00736*
X00032Y00737*
Y00737*
X00032Y00738*
Y00738*
X00032Y00739*
Y00739*
X00032Y00739*
Y00741*
X00032Y00742*
Y00743*
X00032Y00743*
Y00743*
X00032Y00744*
X00032Y00745*
X00032Y00746*
Y00747*
X00032Y00748*
Y00748*
X00034*
X00034Y00748*
X00034Y00747*
X00035Y00747*
X00035Y00746*
X00035Y00746*
X00035Y00746*
X00035Y00746*
X00035*
X00036Y00746*
X00036Y00746*
X00036Y00747*
X00037Y00747*
X00037Y00747*
X00038Y00748*
X00039Y00749*
X00039Y00749*
X00039Y0075*
X0004Y0075*
X0004Y0075*
X0004Y0075*
X00046Y00758*
X00069Y00737*
G37*
G36*
X0007Y00723D02*
X00068Y0072D01*
X00062Y00726*
X00065Y00728*
X0007Y00723*
G37*
G36*
X00067Y0072D02*
X00065Y00717D01*
X00059Y00723*
X00062Y00725*
X00067Y0072*
G37*
%LNdeck-2*%
%LPC*%
G36*
X00672Y00685D02*
X00672D01*
X00672*
X00671Y00685*
X00669Y00685*
X00668Y00684*
X00667Y00684*
X00665Y00684*
X00664Y00684*
X00664Y00683*
X00663Y00683*
X00662Y00683*
X00661Y00682*
X00661Y00682*
X00661Y00682*
X0066Y00681*
X0066Y00681*
X0066Y00681*
X0066Y00681*
X00659Y0068*
X00659Y00679*
X00658Y00679*
X00658Y00678*
X00657Y00677*
X00657Y00676*
X00657Y00676*
X00657Y00675*
X00656Y00674*
X00656Y00674*
X00656Y00673*
X00656Y00673*
Y00672*
X00656Y00672*
Y00671*
X00656Y0067*
X00656Y00669*
X00657Y00668*
X00657Y00667*
X00657Y00667*
X00657Y00666*
X00657Y00666*
X00658Y00666*
X00658Y00665*
X00658Y00665*
X00658Y00665*
X00658Y00665*
X00658Y00665*
X00659Y00664*
X0066Y00663*
X00661Y00662*
X00661Y00661*
X00662Y00661*
X00663Y00661*
X00663Y00661*
X00663Y0066*
X00663Y0066*
X00663Y0066*
X00663*
X00665Y0066*
X00666Y00659*
X00668Y00659*
X00669Y00659*
X00669Y00659*
X0067Y00659*
X0067Y00659*
X00671*
X00671Y00659*
X00671*
X00672*
X00672*
X00673Y00659*
X00674Y00659*
X00675Y00659*
X00677Y00659*
X00678Y00659*
X00679Y0066*
X00679Y0066*
X0068Y0066*
X00681Y00661*
X00681Y00661*
X00682Y00661*
X00682Y00662*
X00683Y00662*
X00683Y00662*
X00683Y00662*
X00683Y00662*
X00684Y00663*
X00684Y00664*
X00685Y00665*
X00685Y00665*
X00686Y00666*
X00686Y00667*
X00686Y00668*
X00687Y00668*
X00687Y00669*
X00687Y0067*
X00687Y0067*
X00687Y00671*
X00687Y00671*
X00687Y00672*
Y00672*
X00687Y00673*
X00687Y00674*
X00687Y00675*
X00686Y00676*
X00686Y00676*
X00686Y00677*
X00685Y00678*
X00685Y00679*
X00685Y00679*
X00684Y0068*
X00684Y0068*
X00684Y0068*
X00684Y00681*
X00683Y00681*
X00683Y00681*
X00683Y00681*
X00682Y00682*
X00682Y00682*
X00681Y00683*
X0068Y00683*
X00679Y00684*
X00678Y00684*
X00677Y00684*
X00676Y00684*
X00675Y00685*
X00675Y00685*
X00674Y00685*
X00673Y00685*
X00673*
X00672Y00685*
G37*
G36*
X00686Y00594D02*
X00657D01*
Y00585*
X00657Y00585*
X00657Y00584*
X00657Y00583*
X00657Y00583*
X00657Y00582*
X00657Y00582*
X00657Y00581*
X00657Y00581*
X00657Y0058*
X00658Y0058*
X00658Y0058*
X00658Y0058*
X00658Y0058*
X00658Y0058*
Y0058*
X00658Y00579*
X00658Y00578*
X00659Y00578*
X0066Y00577*
X0066Y00576*
X00661Y00575*
X00661Y00575*
X00662Y00575*
X00662Y00575*
X00662Y00575*
X00662Y00575*
X00662Y00575*
X00663Y00574*
X00663Y00574*
X00665Y00574*
X00666Y00573*
X00668Y00573*
X00669Y00573*
X00669Y00573*
X0067Y00573*
X0067*
X00671Y00573*
X00671*
X00671*
X00671*
X00673Y00573*
X00674Y00573*
X00675Y00573*
X00676Y00573*
X00676Y00573*
X00677Y00573*
X00677Y00573*
X00678Y00573*
X00678Y00573*
X00678Y00574*
X00678Y00574*
X00679Y00574*
X00679Y00574*
X00679*
X0068Y00574*
X00681Y00575*
X00682Y00575*
X00682Y00575*
X00683Y00576*
X00683Y00576*
X00684Y00576*
X00684Y00576*
X00684Y00577*
X00684Y00577*
X00684Y00578*
X00685Y00578*
X00685Y00579*
X00685Y00579*
X00685Y0058*
X00686Y0058*
X00686Y0058*
X00686Y0058*
Y0058*
X00686Y00581*
X00686Y00582*
X00686Y00583*
X00686Y00584*
X00686Y00585*
Y00585*
X00686Y00585*
Y00594*
G37*
G36*
X00674Y00558D02*
X00674Y00557D01*
X00673Y00557*
X00672Y00557*
X00671Y00557*
X0067Y00556*
X0067Y00556*
X0067Y00556*
X00669Y00556*
X00669Y00556*
X00669Y00555*
X00669Y00555*
X00668Y00555*
X00668Y00555*
X00668Y00555*
X00668Y00555*
X00668Y00554*
X00667Y00554*
X00667Y00553*
X00667Y00552*
X00666Y00552*
X00666Y00551*
X00666Y0055*
X00666Y0055*
X00666Y0055*
Y0055*
X00666Y00549*
X00666Y00548*
X00666Y00548*
X00667Y00547*
X00667Y00546*
X00667Y00546*
X00668Y00545*
X00668Y00545*
X00668Y00545*
X00668Y00544*
X00669Y00544*
X00669Y00544*
X00669Y00544*
X00669Y00544*
X00669Y00544*
X0067Y00543*
X0067Y00543*
X00671Y00543*
X00672Y00542*
X00673Y00542*
X00673Y00542*
X00674Y00542*
X00674Y00542*
X00674Y00542*
X00674*
X00674*
Y00558*
G37*
G36*
X00673Y00379D02*
X00672D01*
X00672*
X00672*
X00672*
X00672*
X00672*
X0067Y00379*
X00669Y00379*
X00667Y00378*
X00666Y00378*
X00665Y00378*
X00664Y00378*
X00663Y00378*
X00662Y00377*
X00661Y00377*
X00661Y00377*
X0066Y00377*
X0066Y00377*
X00659Y00376*
X00659Y00376*
X00659Y00376*
X00659Y00376*
X00658Y00376*
X00658Y00375*
X00658Y00375*
X00657Y00375*
X00657Y00374*
X00657Y00374*
X00657Y00373*
X00656Y00372*
X00656Y00372*
X00656Y00372*
X00656Y00371*
Y00371*
X00656Y0037*
X00656Y0037*
X00656Y00369*
X00657Y00369*
X00657Y00368*
X00658Y00367*
X00658Y00367*
X00658Y00366*
X00659Y00366*
X00659Y00366*
X00659Y00366*
X00659Y00366*
X00659Y00366*
X00659Y00366*
X0066Y00365*
X00661Y00365*
X00662Y00364*
X00663Y00364*
X00664Y00364*
X00665Y00364*
X00667Y00364*
X00668Y00363*
X00669Y00363*
X0067Y00363*
X0067Y00363*
X00671Y00363*
X00671*
X00671*
X00672*
X00672*
X00672*
X00672*
X00674Y00363*
X00675Y00363*
X00677Y00363*
X00678Y00364*
X00679Y00364*
X0068Y00364*
X00681Y00364*
X00682Y00364*
X00682Y00365*
X00683Y00365*
X00683Y00365*
X00684Y00365*
X00684Y00365*
X00684Y00365*
X00684Y00365*
X00684Y00366*
X00685Y00366*
X00685Y00366*
X00686Y00367*
X00686Y00367*
X00687Y00368*
X00687Y00368*
X00687Y00369*
X00687Y00369*
X00687Y0037*
X00687Y0037*
X00687Y0037*
Y00371*
X00688Y00371*
Y00371*
X00687Y00372*
X00687Y00372*
X00687Y00373*
X00687Y00373*
X00687Y00374*
X00686Y00375*
X00685Y00376*
X00685Y00376*
X00685Y00376*
X00685Y00376*
X00685Y00376*
X00685Y00376*
X00684Y00376*
X00684Y00377*
X00683Y00377*
X00682Y00377*
X00681Y00378*
X0068Y00378*
X00679Y00378*
X00677Y00378*
X00676Y00378*
X00675Y00379*
X00674Y00379*
X00673Y00379*
X00673Y00379*
G37*
G36*
X01098Y00806D02*
X01098D01*
X01097*
X01097*
X01096Y00806*
X01094Y00806*
X01092Y00806*
X01091Y00805*
X0109Y00805*
X01089Y00805*
X01087Y00804*
X01086Y00804*
X01086Y00804*
X01085Y00803*
X01084Y00803*
X01084Y00803*
X01083Y00802*
X01083Y00802*
X01083Y00802*
X01083Y00802*
X01082Y00801*
X01081Y00801*
X01081Y008*
X0108Y00799*
X0108Y00798*
X01079Y00797*
X01079Y00796*
X01079Y00795*
X01079Y00794*
X01078Y00794*
X01078Y00793*
X01078Y00792*
Y00792*
X01078Y00791*
Y00791*
X01078Y0079*
X01078Y00788*
X01079Y00787*
X01079Y00786*
X01079Y00785*
X0108Y00784*
X0108Y00783*
X0108Y00783*
X01081Y00782*
X01081Y00781*
X01082Y00781*
X01082Y00781*
X01082Y0078*
X01083Y0078*
X01083Y0078*
X01083Y0078*
X01084Y00779*
X01085Y00778*
X01086Y00778*
X01088Y00777*
X01089Y00777*
X0109Y00776*
X01092Y00776*
X01093Y00776*
X01094Y00776*
X01095Y00776*
X01096Y00775*
X01097Y00775*
X01098*
X01098Y00775*
X01098*
X01099*
X01099*
X01099*
X01101Y00775*
X01102Y00776*
X01104Y00776*
X01105Y00776*
X01107Y00776*
X01108Y00777*
X01109Y00777*
X0111Y00777*
X01111Y00778*
X01112Y00778*
X01112Y00778*
X01113Y00779*
X01113Y00779*
X01113Y00779*
X01114Y00779*
X01114Y00779*
X01114Y0078*
X01115Y00781*
X01116Y00782*
X01116Y00783*
X01117Y00783*
X01117Y00784*
X01118Y00785*
X01118Y00786*
X01118Y00787*
X01118Y00788*
X01118Y00788*
X01118Y00789*
Y00789*
X01118Y0079*
Y0079*
X01118Y00792*
X01118Y00793*
X01118Y00794*
X01118Y00795*
X01118Y00796*
X01117Y00796*
X01117Y00797*
X01117Y00797*
X01117Y00798*
X01117Y00798*
X01116Y00798*
X01116Y00798*
X01116Y00798*
Y00798*
X01116Y00799*
X01115Y008*
X01114Y00801*
X01113Y00802*
X01112Y00802*
X01111Y00803*
X0111Y00803*
X0111Y00804*
X0111Y00804*
X01109Y00804*
X01109Y00804*
X01109*
X01107Y00805*
X01105Y00805*
X01103Y00806*
X01102Y00806*
X01102Y00806*
X01101Y00806*
X011Y00806*
X01099Y00806*
X01099*
X01098Y00806*
G37*
G36*
X01104Y00699D02*
X01104D01*
X01104*
X01103*
X01102*
X01101Y00699*
X011Y00698*
X011Y00698*
X01099Y00698*
X01098Y00698*
X01098Y00698*
X01097Y00698*
X01097Y00698*
X01096Y00697*
X01096Y00697*
X01096Y00697*
X01095Y00697*
X01095Y00697*
X01095Y00697*
X01095Y00697*
X01094Y00696*
X01094Y00695*
X01093Y00695*
X01093Y00694*
X01093Y00693*
X01093Y00693*
X01093Y00692*
Y00692*
X01093Y00691*
X01093Y00691*
X01093Y0069*
X01093Y00689*
X01094Y00688*
X01094Y00688*
X01095Y00687*
X01095Y00687*
X01095Y00687*
X01095*
X01096Y00686*
X01097Y00686*
X01098Y00686*
X01099Y00686*
X01101Y00685*
X01103Y00685*
X01104Y00685*
X01104Y00685*
X01105Y00685*
X01106*
X01107Y00685*
X01107*
X01107*
X01107*
X01109*
X0111Y00685*
X01111Y00685*
X01112Y00685*
X01112Y00685*
X01113Y00685*
X01114Y00685*
X01114Y00686*
X01115Y00686*
X01115Y00686*
X01116Y00686*
X01116Y00686*
X01116Y00686*
X01116Y00686*
X01116Y00686*
X01116*
X01117Y00687*
X01117Y00687*
X01118Y00688*
X01118Y00689*
X01118Y00689*
X01119Y0069*
X01119Y00691*
X01119Y00691*
Y00691*
X01119Y00692*
X01119Y00692*
X01118Y00693*
X01118Y00694*
X01117Y00695*
X01117Y00696*
X01116Y00696*
X01116Y00696*
X01116Y00696*
X01116*
X01115Y00697*
X01114Y00697*
X01113Y00697*
X01112Y00698*
X0111Y00698*
X01108Y00698*
X01107Y00698*
X01106Y00698*
X01106Y00699*
X01105*
X01104Y00699*
G37*
G36*
X01112Y00625D02*
X01112D01*
X01112*
X01111Y00625*
X0111Y00625*
X01109Y00625*
X01109Y00624*
X01108Y00624*
X01108Y00624*
X01108Y00623*
X01108Y00623*
X01108Y00623*
X01107Y00623*
X01107Y00622*
X01107Y00621*
X01106Y0062*
X01106Y00619*
X01106Y00618*
X01105Y00617*
X01105Y00617*
X01105Y00616*
X01105Y00616*
X01105Y00616*
Y00616*
X01113*
X01114Y00616*
X01114Y00617*
X01114Y00617*
X01115Y00618*
X01115Y00619*
X01116Y0062*
X01116Y0062*
X01116Y00621*
X01116Y00621*
Y00621*
X01116Y00622*
X01116Y00622*
X01116Y00623*
X01115Y00623*
X01115Y00624*
X01115Y00624*
X01115Y00624*
X01115Y00624*
X01114Y00624*
X01114Y00625*
X01113Y00625*
X01113Y00625*
X01112Y00625*
X01112Y00625*
G37*
%LNdeck-3*%
%LPD*%
G54D29*
X00676Y00951D03*
X0064D03*
X00676Y01004D03*
X0064D03*
X00676Y00157D03*
X0064D03*
G54D33*
X00844Y00331D03*
Y00401D03*
G54D39*
X00504Y00078D03*
X00554D03*
X00604D03*
X00704D03*
X00654D03*
X00754D03*
X00404D03*
X00454D03*
X00653Y01135D03*
X00603D03*
X00553D03*
X00453D03*
X00503D03*
X00403D03*
X00753D03*
X00703D03*
G54D40*
X00145Y0041D03*
Y00253D03*
Y00332D03*
Y00647D03*
Y00489D03*
Y00568D03*
Y00883D03*
Y00725D03*
Y00804D03*
Y00962D03*
X01011Y0041D03*
Y00253D03*
Y00332D03*
Y00647D03*
Y00489D03*
Y00568D03*
Y00883D03*
Y00725D03*
Y00804D03*
Y00962D03*
G54D41*
X00554Y00261D03*
X00404Y00551D03*
X00279Y01053D03*
G54D52*
X00718Y00155D03*
X00775D03*
Y00951D03*
X00718D03*
G54D53*
X00775Y0101D03*
X00718D03*
M02*